<svg width="42" height="56" viewBox="0 0 42 56" fill="none" xmlns="http://www.w3.org/2000/svg">
<path fill-rule="evenodd" clip-rule="evenodd" d="M12.5661 50.1419C12.8943 53.2097 15.4115 55.5986 18.4649 55.5986C21.5183 55.5986 24.0355 53.2097 24.3637 50.1419H32.9728C35.1579 50.1419 36.9297 48.309 36.9297 46.0486V44.0858C36.9297 42.2082 35.694 40.5709 33.933 40.1154L32.6541 39.7843C32.0667 39.6321 31.6548 39.0872 31.6548 38.4614V31.0418C31.6534 23.5062 25.7479 17.3984 18.4649 17.3984C11.1427 17.3984 5.27634 23.5062 5.27634 31.0418V38.4614C5.27634 39.0872 4.86445 39.6335 4.27701 39.7843L2.99813 40.1154C1.23713 40.5709 0.00146484 42.2082 0.00146484 44.0858V46.0486C0.00146484 48.309 1.77326 50.1419 3.9583 50.1419H12.5675H12.5661ZM21.6952 50.1419C21.39 51.6981 20.0584 52.8702 18.4649 52.8702C16.8714 52.8702 15.5398 51.6981 15.2346 50.1419H21.6965H21.6952ZM7.91378 38.4614V31.0418C7.91378 25.0136 12.6377 20.1282 18.4635 20.1282C24.2908 20.1282 29.0133 25.015 29.0133 31.0418V38.4614C29.0133 40.339 30.249 41.9763 32.01 42.4317L33.2888 42.7628C33.8763 42.9151 34.2882 43.4599 34.2882 44.0858V46.0486C34.2882 46.8016 33.698 47.4121 32.9688 47.4135H3.9583C3.2304 47.4135 2.6389 46.803 2.6389 46.0486V44.0858C2.6389 43.4599 3.05079 42.9137 3.63824 42.7628L4.91712 42.4317C6.67812 41.9763 7.91378 40.339 7.91378 38.4614Z" fill="#24FF87"/>
<circle cx="27.4937" cy="14.0191" r="13.7652" fill="#F50404"/>
</svg>
