<svg width="154" height="45" viewBox="0 0 154 45" fill="none" xmlns="http://www.w3.org/2000/svg">
<g style="mix-blend-mode:multiply" filter="url(#filter0_f_6413_10774)">
<path d="M138.615 39.5732H17.7362C11.4293 39.5732 6.30396 34.2696 6.30396 27.7433V15.3452C6.30396 8.8017 11.4293 3.49805 17.7362 3.49805H138.598C144.905 3.49805 150.03 8.8017 150.03 15.328V27.7261C150.03 34.2524 144.905 39.556 138.598 39.556L138.615 39.5732Z" fill="black"/>
</g>
<g style="mix-blend-mode:multiply" filter="url(#filter1_f_6413_10774)">
<path d="M138.615 39.5732H17.7362C11.4293 39.5732 6.30396 34.2696 6.30396 27.7433V15.3452C6.30396 8.8017 11.4293 3.49805 17.7362 3.49805H138.598C144.905 3.49805 150.03 8.8017 150.03 15.328V27.7261C150.03 34.2524 144.905 39.556 138.598 39.556L138.615 39.5732Z" fill="black"/>
</g>
<path d="M126.685 2.34375C126.685 3.87026 126.685 5.31381 126.685 6.60803H18.2534L17.9039 2.34375H126.685Z" fill="white"/>
<g filter="url(#filter2_d_6413_10774)">
<path d="M136.736 36.7555H15.8571C9.55028 36.7555 4.42493 31.645 4.42493 25.3564V13.4098C4.42493 7.10464 9.55028 1.99414 15.8571 1.99414H136.719C143.026 1.99414 148.151 7.10464 148.151 13.3932V25.3398C148.151 31.6284 143.026 36.7389 136.719 36.7389L136.736 36.7555Z" fill="white"/>
</g>
<path d="M12.5955 31.2962C11.9631 32.524 11.3141 33.8182 10.6651 35.0959C7.17056 33.2375 4.77429 29.5705 4.77429 25.356V21.0254H9.05097V25.356C9.05097 27.9113 10.4821 30.1513 12.5788 31.3128L12.5955 31.2962Z" fill="black"/>
<path d="M16.4234 32.1266L16.1738 36.3912H15.8742C13.9937 36.3912 12.2296 35.9266 10.6819 35.0969C11.3309 33.8191 11.9966 32.5248 12.6124 31.2969C13.5776 31.8279 14.6926 32.1266 15.8742 32.1266H16.4401H16.4234Z" fill="#3B2521"/>
<path d="M96.9643 32.125V36.3893H16.1733L16.423 32.125H96.9643Z" fill="#7D7879"/>
<path d="M95.3167 36.3896H96.9643V32.125H95.3L95.3167 36.3896Z" fill="#8F8C8C"/>
<path d="M133.224 36.3893H95.3167L95.3 32.125H132.675L133.224 36.3893Z" fill="#545558"/>
<path d="M145.738 31.779C143.725 34.5832 140.43 36.4084 136.719 36.4084H133.208L132.675 32.1441H136.719C138.916 32.1441 140.863 31.0987 142.111 29.5059C143.309 30.2691 144.54 31.0324 145.738 31.7956V31.779Z" fill="black"/>
<path d="M147.802 16.4629V25.3399C147.802 27.7292 147.036 29.9526 145.738 31.7612C144.54 30.998 143.309 30.2347 142.111 29.4714C142.993 28.3266 143.525 26.883 143.525 25.3399V16.4629H147.802Z" fill="#3B2521"/>
<path d="M145.689 6.8896L142.51 9.81013C141.445 8.10096 139.648 6.90619 137.551 6.65729C138.034 5.29659 138.516 3.9027 138.982 2.55859C141.728 3.12279 144.108 4.69921 145.706 6.87301L145.689 6.8896Z" fill="#D3C0BC"/>
<path d="M138.965 2.57508C138.5 3.91907 138.017 5.31285 137.534 6.67344C137.268 6.64025 137.002 6.62366 136.719 6.62366H95.7993L95.8992 2.35938H136.702C137.468 2.35938 138.217 2.44234 138.932 2.59167L138.965 2.57508Z" fill="white"/>
<path d="M95.9158 2.34375L95.8159 6.60803H126.685C126.685 5.31381 126.685 3.87026 126.685 2.34375H95.9158Z" fill="#E4D8D5"/>
<path d="M18.2542 6.62498H15.8577C13.7608 6.62498 11.8803 7.57083 10.6321 9.06428L8.11914 5.51318C10.1162 3.5551 12.8621 2.34375 15.8577 2.34375H17.9047L18.2542 6.60838V6.62498Z" fill="#D3C0BC"/>
<path d="M10.6485 9.06349C9.66668 10.2416 9.06761 11.7515 9.06761 13.4107V21.0433H4.77429V13.4107C4.77429 10.3079 6.05563 7.50379 8.11909 5.49609L10.6318 9.0469L10.6485 9.06349Z" fill="#AB8780"/>
<path d="M147.802 13.3954V16.4653H143.525V13.3954C143.525 12.0845 143.142 10.8566 142.493 9.81115L145.672 6.89062C147.003 8.71595 147.802 10.9727 147.802 13.3954Z" fill="#8A574D"/>
<path d="M136.736 35.0464H15.8571C10.4988 35.0464 6.13892 30.6992 6.13892 25.3564V13.4098C6.13892 8.05037 10.4988 3.70312 15.8571 3.70312H136.719C142.077 3.70312 146.437 8.05037 146.437 13.3932V25.3398C146.437 30.6826 142.077 35.0298 136.719 35.0298L136.736 35.0464ZM15.8571 5.26282C11.3641 5.26282 7.70315 8.91318 7.70315 13.3932V25.3398C7.70315 29.8364 11.3641 33.4867 15.8738 33.4867H136.736C141.245 33.4867 144.906 29.8364 144.906 25.3398V13.3932C144.906 8.89659 141.245 5.24623 136.736 5.24623H15.8571V5.26282Z" fill="black"/>
<path d="M136.736 4.48242H15.8572C10.922 4.48242 6.92114 8.47165 6.92114 13.3926V25.3558C6.92114 30.2768 10.922 34.266 15.8572 34.266H136.736C141.671 34.266 145.672 30.2768 145.672 25.3558V13.3926C145.672 8.47165 141.671 4.48242 136.736 4.48242Z" fill="url(#paint0_linear_6413_10774)"/>
<path d="M136.736 4.48242H15.8572C10.922 4.48242 6.92114 8.47165 6.92114 13.3926V25.3558C6.92114 30.2768 10.922 34.266 15.8572 34.266H136.736C141.671 34.266 145.672 30.2768 145.672 25.3558V13.3926C145.672 8.47165 141.671 4.48242 136.736 4.48242Z" fill="url(#paint1_linear_6413_10774)"/>
<path d="M143.974 9.42645C142.427 6.92097 139.664 5.26172 136.519 5.26172H16.5228C11.6803 5.26172 7.73645 9.21074 7.73645 14.089V17.5236C24.4438 15.1011 96.3818 10.1731 143.958 9.42645H143.974Z" fill="url(#paint2_linear_6413_10774)"/>
<defs>
<filter id="filter0_f_6413_10774" x="3.30396" y="0.498047" width="149.726" height="42.0762" filterUnits="userSpaceOnUse" color-interpolation-filters="sRGB">
<feFlood flood-opacity="0" result="BackgroundImageFix"/>
<feBlend mode="normal" in="SourceGraphic" in2="BackgroundImageFix" result="shape"/>
<feGaussianBlur stdDeviation="1.5" result="effect1_foregroundBlur_6413_10774"/>
</filter>
<filter id="filter1_f_6413_10774" x="3.30396" y="0.498047" width="149.726" height="42.0762" filterUnits="userSpaceOnUse" color-interpolation-filters="sRGB">
<feFlood flood-opacity="0" result="BackgroundImageFix"/>
<feBlend mode="normal" in="SourceGraphic" in2="BackgroundImageFix" result="shape"/>
<feGaussianBlur stdDeviation="1.5" result="effect1_foregroundBlur_6413_10774"/>
</filter>
<filter id="filter2_d_6413_10774" x="0.424927" y="1.99414" width="151.726" height="42.7617" filterUnits="userSpaceOnUse" color-interpolation-filters="sRGB">
<feFlood flood-opacity="0" result="BackgroundImageFix"/>
<feColorMatrix in="SourceAlpha" type="matrix" values="0 0 0 0 0 0 0 0 0 0 0 0 0 0 0 0 0 0 127 0" result="hardAlpha"/>
<feOffset dy="4"/>
<feGaussianBlur stdDeviation="2"/>
<feComposite in2="hardAlpha" operator="out"/>
<feColorMatrix type="matrix" values="0 0 0 0 0 0 0 0 0 0 0 0 0 0 0 0 0 0 0.22 0"/>
<feBlend mode="normal" in2="BackgroundImageFix" result="effect1_dropShadow_6413_10774"/>
<feBlend mode="normal" in="SourceGraphic" in2="effect1_dropShadow_6413_10774" result="shape"/>
</filter>
<linearGradient id="paint0_linear_6413_10774" x1="76.6293" y1="3.71916" x2="75.9345" y2="36.0913" gradientUnits="userSpaceOnUse">
<stop offset="0.01" stop-color="#E6E6E6"/>
<stop offset="0.13" stop-color="#E0E0E0"/>
<stop offset="0.29" stop-color="#D0D0D0"/>
<stop offset="0.46" stop-color="#B5B5B5"/>
<stop offset="0.64" stop-color="#919191"/>
<stop offset="0.84" stop-color="#626262"/>
<stop offset="0.92" stop-color="#4D4D4D"/>
</linearGradient>
<linearGradient id="paint1_linear_6413_10774" x1="76.6293" y1="3.71916" x2="75.9345" y2="36.0913" gradientUnits="userSpaceOnUse">
<stop offset="0.195" stop-color="#E6E6E6"/>
<stop offset="0.92" stop-color="#3D3D3D"/>
</linearGradient>
<linearGradient id="paint2_linear_6413_10774" x1="168.104" y1="-4.42833" x2="-184.029" y2="42.8639" gradientUnits="userSpaceOnUse">
<stop offset="0.05" stop-color="#ECF1F3"/>
<stop offset="0.92" stop-color="#E6E6E6"/>
</linearGradient>
</defs>
</svg>
