<svg width="153" height="45" viewBox="0 0 153 45" fill="none" xmlns="http://www.w3.org/2000/svg">
<g style="mix-blend-mode:multiply" filter="url(#filter0_f_6413_10797)">
<path d="M138.291 39.5732H17.4127C11.1058 39.5732 5.98047 34.2696 5.98047 27.7433V15.3452C5.98047 8.8017 11.1058 3.49805 17.4127 3.49805H138.275C144.581 3.49805 149.707 8.8017 149.707 15.328V27.7261C149.707 34.2524 144.581 39.556 138.275 39.556L138.291 39.5732Z" fill="black"/>
</g>
<g style="mix-blend-mode:multiply" filter="url(#filter1_f_6413_10797)">
<path d="M138.291 39.5732H17.4127C11.1058 39.5732 5.98047 34.2696 5.98047 27.7433V15.3452C5.98047 8.8017 11.1058 3.49805 17.4127 3.49805H138.275C144.581 3.49805 149.707 8.8017 149.707 15.328V27.7261C149.707 34.2524 144.581 39.556 138.275 39.556L138.291 39.5732Z" fill="black"/>
</g>
<path d="M126.361 2.34375C126.361 3.87026 126.361 5.31381 126.361 6.60803H17.9298L17.5803 2.34375H126.361Z" fill="white"/>
<g filter="url(#filter2_d_6413_10797)">
<path d="M136.412 36.7555H15.5335C9.22668 36.7555 4.10132 31.645 4.10132 25.3564V13.4098C4.10132 7.10464 9.22668 1.99414 15.5335 1.99414H136.395C142.702 1.99414 147.828 7.10464 147.828 13.3932V25.3398C147.828 31.6284 142.702 36.7389 136.395 36.7389L136.412 36.7555Z" fill="white"/>
</g>
<path d="M12.2718 31.2962C11.6395 32.524 10.9905 33.8182 10.3415 35.0959C6.84695 33.2375 4.45068 29.5705 4.45068 25.356V21.0254H8.72736V25.356C8.72736 27.9113 10.1585 30.1513 12.2552 31.3128L12.2718 31.2962Z" fill="black"/>
<path d="M16.0998 32.1266L15.8502 36.3912H15.5506C13.6701 36.3912 11.906 35.9266 10.3583 35.0969C11.0073 33.8191 11.673 32.5248 12.2888 31.2969C13.254 31.8279 14.369 32.1266 15.5506 32.1266H16.1165H16.0998Z" fill="#3B2521"/>
<path d="M96.6407 32.125V36.3893H15.8497L16.0993 32.125H96.6407Z" fill="#7D7879"/>
<path d="M94.9932 36.3896H96.6408V32.125H94.9766L94.9932 36.3896Z" fill="#8F8C8C"/>
<path d="M132.901 36.3893H94.9932L94.9766 32.125H132.352L132.901 36.3893Z" fill="#545558"/>
<path d="M145.415 31.779C143.401 34.5832 140.106 36.4084 136.396 36.4084H132.884L132.352 32.1441H136.396C138.592 32.1441 140.539 31.0987 141.787 29.5059C142.985 30.2691 144.217 31.0324 145.415 31.7956V31.779Z" fill="black"/>
<path d="M147.478 16.4629V25.3399C147.478 27.7292 146.713 29.9526 145.415 31.7612C144.217 30.998 142.985 30.2347 141.787 29.4714C142.669 28.3266 143.201 26.883 143.201 25.3399V16.4629H147.478Z" fill="#3B2521"/>
<path d="M145.366 6.8896L142.187 9.81013C141.122 8.10096 139.324 6.90619 137.228 6.65729C137.71 5.29659 138.193 3.9027 138.659 2.55859C141.405 3.12279 143.785 4.69921 145.382 6.87301L145.366 6.8896Z" fill="#D3C0BC"/>
<path d="M138.642 2.57508C138.176 3.91907 137.693 5.31285 137.211 6.67344C136.945 6.64025 136.678 6.62366 136.395 6.62366H95.4757L95.5756 2.35938H136.379C137.144 2.35938 137.893 2.44234 138.609 2.59167L138.642 2.57508Z" fill="white"/>
<path d="M95.5923 2.34375L95.4924 6.60803H126.361C126.361 5.31381 126.361 3.87026 126.361 2.34375H95.5923Z" fill="#E4D8D5"/>
<path d="M17.9306 6.62498H15.5341C13.4372 6.62498 11.5567 7.57083 10.3085 9.06428L7.79553 5.51318C9.79259 3.5551 12.5385 2.34375 15.5341 2.34375H17.5811L17.9306 6.60838V6.62498Z" fill="#D3C0BC"/>
<path d="M10.3249 9.06349C9.34307 10.2416 8.744 11.7515 8.744 13.4107V21.0433H4.45068V13.4107C4.45068 10.3079 5.73202 7.50379 7.79548 5.49609L10.3082 9.0469L10.3249 9.06349Z" fill="#AB8780"/>
<path d="M147.479 13.3954V16.4653H143.202V13.3954C143.202 12.0845 142.819 10.8566 142.17 9.81115L145.348 6.89062C146.68 8.71595 147.479 10.9727 147.479 13.3954Z" fill="#8A574D"/>
<path d="M136.412 35.0464H15.5336C10.1753 35.0464 5.81543 30.6992 5.81543 25.3564V13.4098C5.81543 8.05037 10.1753 3.70312 15.5336 3.70312H136.396C141.754 3.70312 146.114 8.05037 146.114 13.3932V25.3398C146.114 30.6826 141.754 35.0298 136.396 35.0298L136.412 35.0464ZM15.5336 5.26282C11.0406 5.26282 7.37966 8.91318 7.37966 13.3932V25.3398C7.37966 29.8364 11.0406 33.4867 15.5503 33.4867H136.412C140.922 33.4867 144.583 29.8364 144.583 25.3398V13.3932C144.583 8.89659 140.922 5.24623 136.412 5.24623H15.5336V5.26282Z" fill="black"/>
<path d="M136.412 4.48242H15.5337C10.5985 4.48242 6.59766 8.47165 6.59766 13.3926V25.3558C6.59766 30.2768 10.5985 34.266 15.5337 34.266H136.412C141.348 34.266 145.348 30.2768 145.348 25.3558V13.3926C145.348 8.47165 141.348 4.48242 136.412 4.48242Z" fill="url(#paint0_linear_6413_10797)"/>
<path d="M136.412 4.48242H15.5337C10.5985 4.48242 6.59766 8.47165 6.59766 13.3926V25.3558C6.59766 30.2768 10.5985 34.266 15.5337 34.266H136.412C141.348 34.266 145.348 30.2768 145.348 25.3558V13.3926C145.348 8.47165 141.348 4.48242 136.412 4.48242Z" fill="url(#paint1_linear_6413_10797)"/>
<path d="M143.651 9.42645C142.103 6.92097 139.341 5.26172 136.196 5.26172H16.1992C11.3567 5.26172 7.41284 9.21074 7.41284 14.089V17.5236C24.1202 15.1011 96.0582 10.1731 143.634 9.42645H143.651Z" fill="url(#paint2_linear_6413_10797)"/>
<defs>
<filter id="filter0_f_6413_10797" x="2.98047" y="0.498047" width="149.726" height="42.0762" filterUnits="userSpaceOnUse" color-interpolation-filters="sRGB">
<feFlood flood-opacity="0" result="BackgroundImageFix"/>
<feBlend mode="normal" in="SourceGraphic" in2="BackgroundImageFix" result="shape"/>
<feGaussianBlur stdDeviation="1.5" result="effect1_foregroundBlur_6413_10797"/>
</filter>
<filter id="filter1_f_6413_10797" x="2.98047" y="0.498047" width="149.726" height="42.0762" filterUnits="userSpaceOnUse" color-interpolation-filters="sRGB">
<feFlood flood-opacity="0" result="BackgroundImageFix"/>
<feBlend mode="normal" in="SourceGraphic" in2="BackgroundImageFix" result="shape"/>
<feGaussianBlur stdDeviation="1.5" result="effect1_foregroundBlur_6413_10797"/>
</filter>
<filter id="filter2_d_6413_10797" x="0.101318" y="1.99414" width="151.726" height="42.7617" filterUnits="userSpaceOnUse" color-interpolation-filters="sRGB">
<feFlood flood-opacity="0" result="BackgroundImageFix"/>
<feColorMatrix in="SourceAlpha" type="matrix" values="0 0 0 0 0 0 0 0 0 0 0 0 0 0 0 0 0 0 127 0" result="hardAlpha"/>
<feOffset dy="4"/>
<feGaussianBlur stdDeviation="2"/>
<feComposite in2="hardAlpha" operator="out"/>
<feColorMatrix type="matrix" values="0 0 0 0 0 0 0 0 0 0 0 0 0 0 0 0 0 0 0.22 0"/>
<feBlend mode="normal" in2="BackgroundImageFix" result="effect1_dropShadow_6413_10797"/>
<feBlend mode="normal" in="SourceGraphic" in2="effect1_dropShadow_6413_10797" result="shape"/>
</filter>
<linearGradient id="paint0_linear_6413_10797" x1="76.3058" y1="3.71916" x2="75.611" y2="36.0913" gradientUnits="userSpaceOnUse">
<stop offset="0.01" stop-color="#E6E6E6"/>
<stop offset="0.13" stop-color="#E0E0E0"/>
<stop offset="0.29" stop-color="#D0D0D0"/>
<stop offset="0.46" stop-color="#B5B5B5"/>
<stop offset="0.64" stop-color="#919191"/>
<stop offset="0.84" stop-color="#626262"/>
<stop offset="0.92" stop-color="#4D4D4D"/>
</linearGradient>
<linearGradient id="paint1_linear_6413_10797" x1="76.3058" y1="3.71916" x2="75.611" y2="36.0913" gradientUnits="userSpaceOnUse">
<stop offset="0.15" stop-color="#FF0000"/>
<stop offset="0.92" stop-color="#7A0303"/>
</linearGradient>
<linearGradient id="paint2_linear_6413_10797" x1="167.78" y1="-4.42833" x2="-184.353" y2="42.8639" gradientUnits="userSpaceOnUse">
<stop offset="0.02" stop-color="white"/>
<stop offset="0.73" stop-color="#FF0000"/>
</linearGradient>
</defs>
</svg>
