<svg width="75" height="42" viewBox="0 0 75 42" fill="none" xmlns="http://www.w3.org/2000/svg">
<path d="M17.2617 26.7286L18.6539 17.6131C20.1931 16.0763 22.3255 15.3562 24.4659 15.6359L18.324 26.5419L17.2617 26.7286ZM21.8825 27.0237L22.0696 28.0816C22.1044 28.2783 21.9726 28.4677 21.777 28.5021L10.3925 30.5032C10.1969 30.5376 10.0081 30.4045 9.9733 30.2078L9.78617 29.1499C9.75138 28.9532 9.88318 28.7637 10.0787 28.7294L21.4633 26.7283C21.6588 26.6939 21.8477 26.827 21.8825 27.0237ZM22.7966 35.098C22.8314 35.2947 22.6996 35.4841 22.504 35.5185L12.1149 37.3446C11.9193 37.379 11.7305 37.2459 11.6957 37.0492L10.6601 31.1943L21.761 29.2431L22.7966 35.098ZM3.45116 19.3279C5.36498 18.3374 7.61731 18.285 9.59102 19.2043L14.0268 27.2954L12.9644 27.4821L3.45116 19.3279ZM10.8765 8.06839C9.49566 9.61752 8.78958 11.8081 8.82142 14.4939C8.84085 16.0929 9.11201 17.4924 9.30615 18.3024C7.29226 17.5564 5.07663 17.6828 3.16237 18.6606C3.12696 13.7773 6.29408 9.4896 10.8765 8.06839ZM17.0735 13.1458C17.6083 14.6597 17.8219 16.093 17.9041 16.866C15.2265 15.8183 12.1962 16.3509 10.0396 18.2484C9.85193 17.4957 9.56229 16.0739 9.54399 14.4711C9.51137 11.4419 10.4198 9.19379 12.2432 7.78431C14.4402 8.48712 16.0637 10.292 17.0738 13.1475L17.0735 13.1458ZM14.7811 27.1646L10.3004 18.9937C12.3374 17.046 15.3359 16.519 17.9165 17.655L16.5094 26.8609L14.7794 27.1649L14.7811 27.1646ZM25.35 15.5408C25.3985 15.4555 25.4112 15.3528 25.3817 15.2575C24.8615 13.5181 23.9298 11.8968 22.6872 10.5712C22.5505 10.4253 22.3222 10.418 22.1757 10.5552C22.031 10.6921 22.0243 10.9216 22.1613 11.0693C23.1935 12.1705 23.9968 13.4874 24.5041 14.9074C22.3701 14.643 20.2448 15.2797 18.6097 16.6652C18.516 15.8376 18.2889 14.4304 17.7586 12.9212C16.867 10.3865 15.4519 8.56875 13.6228 7.58384C15.8587 7.47952 18.08 8.06295 19.9989 9.27872C20.1687 9.38593 20.3905 9.33596 20.4967 9.16566C20.6028 8.99535 20.5524 8.77216 20.3827 8.66496C17.9171 7.10125 14.9783 6.51787 12.1084 7.02233C6.25227 8.05168 2.10415 13.3249 2.46106 19.2863C2.46773 19.3856 2.51492 19.4778 2.58798 19.5417L12.0416 27.6462L9.9521 28.0134C9.36367 28.1169 8.96973 28.6831 9.07442 29.275L9.26155 30.3329C9.32894 30.7139 9.58726 31.0138 9.92061 31.1525L10.9857 37.174C11.0904 37.7659 11.6549 38.1636 12.2433 38.0602L22.6324 36.2341C23.2209 36.1306 23.6148 35.5644 23.5101 34.9725L22.445 28.9511C22.7107 28.7071 22.8508 28.3389 22.7831 27.9562L22.596 26.8982C22.4913 26.3064 21.9268 25.9086 21.3384 26.012L19.249 26.3793L25.3521 15.5422L25.35 15.5408Z" fill="#FE0F05"/>
<path d="M21.3039 9.46594C21.5012 9.43126 21.688 9.56287 21.7231 9.76134C21.7582 9.95981 21.6278 10.1472 21.4305 10.1819C21.2332 10.2165 21.0464 10.0849 21.0113 9.88645C20.9762 9.68798 21.1066 9.50062 21.3039 9.46594Z" fill="#FF0000"/>
<path d="M35.1642 17.2025L37.3137 11.2552C38.6094 10.4062 40.2261 10.1747 41.722 10.6145L35.9478 17.2025H35.1642ZM38.4327 17.9449V18.6762C38.4327 18.8122 38.3144 18.9236 38.1702 18.9236H29.7721C29.6278 18.9236 29.5096 18.8122 29.5096 18.6762V17.9449C29.5096 17.8089 29.6278 17.6974 29.7721 17.6974H38.1702C38.3144 17.6974 38.4327 17.8089 38.4327 17.9449ZM38.0649 23.4659C38.0649 23.6019 37.9466 23.7134 37.8024 23.7134H30.1386C29.9943 23.7134 29.8761 23.6019 29.8761 23.4659V19.4185H38.0649V23.4659ZM26.2203 10.6132C27.7148 10.1747 29.3328 10.405 30.6285 11.2539L32.7781 17.2013H31.9944L26.2203 10.6132ZM32.9574 3.93945C31.7735 4.81533 30.9911 6.2008 30.674 8.00523C30.4856 9.07955 30.5025 10.0498 30.5389 10.6157C29.1925 9.87825 27.5913 9.70185 26.0981 10.1318C26.6907 6.85373 29.4992 4.35228 32.9574 3.93945ZM36.7484 8.07383C36.9394 9.15183 36.9108 10.138 36.8718 10.6659C35.0888 9.64795 32.8535 9.64795 31.0704 10.6659C31.0314 10.1392 31.0041 9.15183 31.1939 8.07505C31.5538 6.04033 32.4883 4.64015 33.9711 3.91005C35.454 4.64015 36.3871 6.04155 36.7484 8.07505V8.07383ZM33.3343 17.2025L31.1627 11.1964C32.8665 10.1306 35.0784 10.1306 36.7809 11.1964L34.6092 17.2025H33.333H33.3343ZM42.3666 10.6549C42.4121 10.6035 42.4342 10.5361 42.4251 10.4687C42.273 9.24125 41.8117 8.04443 41.0904 7.0093C41.0111 6.89538 40.8486 6.86353 40.7265 6.93825C40.6056 7.01298 40.5718 7.1661 40.6511 7.28125C41.2502 8.1412 41.6583 9.11875 41.8415 10.1306C40.3483 9.70185 38.7472 9.87825 37.4021 10.6145C37.4398 10.0485 37.4554 9.07833 37.2669 8.004C36.9498 6.19958 36.1675 4.8141 34.9835 3.93823C36.5963 4.13178 38.1117 4.7847 39.3307 5.82595C39.4386 5.91783 39.6036 5.91048 39.7011 5.8088C39.7986 5.70713 39.7908 5.55155 39.6829 5.45968C38.1169 4.12075 36.0882 3.3833 33.9711 3.3833C29.6512 3.3833 26.0162 6.42988 25.5172 10.4687C25.5094 10.5361 25.5315 10.6035 25.5757 10.6549L31.3134 17.2025H29.7721C29.338 17.2025 28.9845 17.5357 28.9845 17.9449V18.6762C28.9845 18.9396 29.1314 19.1711 29.3523 19.3034V23.4659C29.3523 23.8751 29.7058 24.2083 30.1399 24.2083H37.8037C38.2377 24.2083 38.5912 23.8751 38.5912 23.4659V19.3034C38.8122 19.1711 38.959 18.9408 38.959 18.6762V17.9449C38.959 17.5357 38.6055 17.2025 38.1715 17.2025H36.6301L42.3679 10.6561L42.3666 10.6549Z" fill="#FE0F05"/>
<path d="M40.2406 6.10525C40.3862 6.10525 40.5031 6.2155 40.5031 6.3527C40.5031 6.4899 40.3862 6.60015 40.2406 6.60015C40.095 6.60015 39.9781 6.4899 39.9781 6.3527C39.9781 6.2155 40.095 6.10525 40.2406 6.10525Z" fill="#FF0000"/>
<path d="M58.8604 26.9789L64.0498 17.1843C66.421 16.0436 69.1507 16.0614 71.4954 17.2165L60.1525 27.183L58.8604 26.9789ZM64.0442 29.1222L63.842 30.3955C63.8043 30.6322 63.5785 30.7955 63.3407 30.7579L49.4938 28.5717C49.256 28.5341 49.0918 28.3093 49.1294 28.0725L49.3317 26.7993C49.3694 26.5626 49.5952 26.3993 49.833 26.4369L63.6799 28.6231C63.9177 28.6606 64.0819 28.8855 64.0442 29.1222ZM61.9106 38.6386C61.873 38.8753 61.6472 39.0386 61.4093 39.001L48.7732 37.006C48.5354 36.9684 48.3712 36.7435 48.4088 36.5068L49.5284 29.4604L63.0302 31.5921L61.9106 38.6386ZM45.9363 13.1788C48.5219 12.8044 51.1259 13.6265 53.0275 15.4418L54.9266 26.3557L53.6345 26.1516L45.9363 13.1788ZM58.8907 3.31374C56.6963 4.53041 55.0231 6.73882 54.0011 9.79774C53.3933 11.6191 53.1527 13.3126 53.0562 14.3073C51.0402 12.6729 48.4491 11.949 45.8681 12.3089C47.7519 6.75605 53.0745 3.13219 58.8907 3.31374ZM63.9976 11.4985C64.0144 13.425 63.6945 15.1344 63.4842 16.0434C60.8258 13.807 57.1402 13.2251 53.9187 14.5331C54.0001 13.6059 54.2282 11.8799 54.8389 10.0546C55.9953 6.60593 57.9233 4.41151 60.5702 3.52644C62.8132 5.18356 63.9641 7.86628 63.9973 11.5006L63.9976 11.4985ZM55.8434 26.5026L53.9241 15.4806C57.0281 14.0687 60.6752 14.6445 63.1875 16.9432L57.9455 26.8345L55.8412 26.5022L55.8434 26.5026ZM72.547 17.4546C72.6363 17.3769 72.6913 17.2654 72.695 17.1457C72.7838 14.9691 72.3541 12.7654 71.4512 10.7755C71.352 10.5565 71.093 10.4588 70.8709 10.5571C70.6509 10.6557 70.5529 10.9135 70.6517 11.1346C71.4017 12.7877 71.8041 14.5959 71.8264 16.4052C69.4829 15.27 66.7941 15.1603 64.3727 16.0919C64.5914 15.1164 64.8855 13.4313 64.8719 11.5119C64.8482 8.28789 63.9415 5.67214 62.2317 3.83905C64.8373 4.59587 67.1553 6.12708 68.8772 8.25722C69.0296 8.44525 69.3038 8.47543 69.4926 8.32379C69.6815 8.17215 69.7116 7.89926 69.5592 7.71123C67.3475 4.97251 64.2065 3.16051 60.7159 2.60938C53.5932 1.4848 46.7571 5.84254 44.817 12.7441C44.7856 12.8594 44.8033 12.9825 44.862 13.0835L52.5113 25.9765L49.9699 25.5752C49.2542 25.4622 48.5792 25.9503 48.466 26.6626L48.2638 27.9359C48.1909 28.3944 48.369 28.8357 48.6967 29.1236L47.5453 36.3705C47.4321 37.0828 47.9228 37.7549 48.6385 37.8679L61.2746 39.863C61.9903 39.976 62.6653 39.4879 62.7785 38.7756L63.9299 31.5287C64.3308 31.3559 64.6366 30.9931 64.7098 30.5325L64.9121 29.2593C65.0253 28.5469 64.5346 27.8748 63.8189 27.7618L61.2775 27.3606L72.5488 17.4571L72.547 17.4546Z" fill="#FE0F05"/>
<path d="M70.3002 8.98035C70.5402 9.01824 70.7025 9.24063 70.6646 9.47949C70.6266 9.71836 70.4033 9.87985 70.1633 9.84196C69.9233 9.80407 69.7609 9.58167 69.7989 9.34281C69.8368 9.10395 70.0602 8.94246 70.3002 8.98035Z" fill="#FF0000"/>
</svg>
