<svg width="30" height="82" viewBox="0 0 30 82" fill="none" xmlns="http://www.w3.org/2000/svg">
<path d="M1.65015 55V81.34H10.3901V58.93L17.8301 51.49H21.3801V72.57H11.9902V81.48H27.1501L29.7501 78.87V45.25L27.0101 42.51H14.1401L1.65015 55Z" fill="#CCCCCC"/>
<path d="M1.78009 27.64L14.5801 40.44H26.8701L29.8101 37.5V1.01001H21.4901V31.48H17.9001L1.58008 15.16C1.58008 15.16 1.58008 27.84 1.77008 27.64H1.78009Z" fill="#CCCCCC"/>
<path d="M6.32007 5.92004L5.9201 5.93002L4.14008 4.15002V6.57004H6.32007V7.11002L4.84009 7.12003H3.83008L3.61011 6.90002V3.23004H4.06012L5.81012 4.99002V3.17004H6.32007V5.92004Z" fill="#CCCCCC"/>
<path d="M5.19 9.39001C7.50408 9.39001 9.38 7.51409 9.38 5.20001C9.38 2.88594 7.50408 1.01001 5.19 1.01001C2.87593 1.01001 1 2.88594 1 5.20001C1 7.51409 2.87593 9.39001 5.19 9.39001Z" stroke="#B3B3B3" stroke-width="0.75" stroke-miterlimit="10"/>
</svg>
