<svg width="93" height="94" viewBox="0 0 93 94" fill="none" xmlns="http://www.w3.org/2000/svg">
<g style="mix-blend-mode:multiply" filter="url(#filter0_f_0_1)">
<circle cx="52.4495" cy="52.8111" r="36.5435" fill="#121212"/>
</g>
<path opacity="0.9" d="M50.8133 16.7402C31.9036 16.7402 16.5742 32.3827 16.5742 51.6784C16.5742 70.974 31.9036 86.6165 50.8133 86.6165C69.7229 86.6165 85.0523 70.9742 85.0523 51.6784C85.0523 32.3826 69.7229 16.7402 50.8133 16.7402ZM50.8133 79.6657C35.6656 79.6657 23.3861 67.1355 23.3861 51.6785C23.3861 36.2216 35.6656 23.6913 50.8133 23.6913C65.961 23.6913 78.2404 36.2216 78.2404 51.6785C78.2404 67.1355 65.961 79.6657 50.8133 79.6657Z" fill="url(#paint0_linear_0_1)"/>
<path style="mix-blend-mode:multiply" d="M50.8133 16.7402C31.9036 16.7402 16.5742 32.0206 16.5742 50.8699C16.5742 69.7192 31.9036 84.9995 50.8133 84.9995C69.7229 84.9995 85.0523 69.7192 85.0523 50.8699C85.0523 32.0206 69.7229 16.7402 50.8133 16.7402ZM50.8133 78.2094C35.6656 78.2094 23.3861 65.9692 23.3861 50.8699C23.3861 35.7706 35.6656 23.5303 50.8133 23.5303C65.961 23.5303 78.2404 35.7706 78.2404 50.8699C78.2404 65.9692 65.961 78.2094 50.8133 78.2094Z" fill="url(#paint1_linear_0_1)"/>
<g opacity="0.4">
<g filter="url(#filter1_d_0_1)">
<path d="M52.1472 85.0538C68.3107 84.5614 82.21 72.2896 84.6724 56.362C88.0864 35.1908 71.1182 16.0643 49.6175 16.8875C28.1146 17.6509 12.6104 37.9739 17.5845 58.8359C21.2213 74.5381 35.9908 85.754 52.1472 85.054V85.0538ZM52.1472 85.0538C35.9899 85.7564 21.2039 74.5437 17.5475 58.8444C12.5378 37.9396 28.0597 17.562 49.6141 16.795C71.1661 15.9735 88.1564 35.1516 84.7095 56.368C82.226 72.2931 68.313 84.5651 52.1472 85.0538Z" fill="#FCFAFB"/>
</g>
</g>
<path d="M70.4491 70.4946C81.3075 59.6708 81.3075 42.1221 70.4491 31.2984C59.5907 20.4747 41.9857 20.4747 31.1273 31.2984C20.2689 42.1221 20.2689 59.6708 31.1273 70.4946C41.9857 81.3183 59.5907 81.3183 70.4491 70.4946Z" fill="url(#paint2_linear_0_1)"/>
<g opacity="0.5">
<path d="M78.5948 51.2508C78.5583 64.3429 68.8797 75.8786 55.964 78.2432C38.7711 81.5052 22.7778 68.186 22.9602 50.7385C23.0938 33.2837 39.3339 20.25 56.4713 23.8316C69.3441 26.4349 78.8069 38.1578 78.595 51.2508H78.5948ZM78.5886 51.2508C78.791 38.165 69.3232 26.4777 56.4595 23.8869C39.3587 20.3306 23.1525 33.319 23.0096 50.7391C22.8222 68.1659 38.7875 81.4618 55.959 78.2173C68.8715 75.8627 78.5544 64.3405 78.5885 51.2508H78.5886Z" fill="#161616"/>
</g>
<g style="mix-blend-mode:multiply" opacity="0.5">
<path d="M78.1888 50.4503C78.047 65.7567 65.4838 78.0502 50.1286 77.9088C34.7731 77.7674 22.4401 65.2447 22.5819 49.9383C22.7237 34.632 35.2867 22.3383 50.6421 22.4797C65.9976 22.6211 78.3307 35.144 78.1888 50.4503Z" fill="#161616"/>
</g>
<path d="M74.4601 39.3816C80.7367 52.4333 75.2116 68.0856 62.1183 74.3411C49.0249 80.5969 33.3232 75.0884 27.0468 62.0355C20.7709 48.9865 26.297 33.3343 39.3904 27.0787C52.4839 20.8228 68.1844 26.3313 74.46 39.3816H74.4601Z" fill="url(#paint3_radial_0_1)"/>
<path style="mix-blend-mode:color-burn" opacity="0.6" d="M74.4602 39.3816C80.7367 52.4333 75.2118 68.0856 62.1183 74.3411C49.0249 80.5969 33.3232 75.0884 27.0468 62.0355C20.7708 48.9865 26.297 33.3341 39.3904 27.0787C52.4839 20.8228 68.1844 26.3313 74.46 39.3816H74.4602Z" fill="url(#paint4_linear_0_1)"/>
<g style="mix-blend-mode:overlay" opacity="0.6">
<path d="M39.434 38.4928C52.1443 32.2261 67.5436 37.4162 73.8302 50.0845C74.7073 51.8523 75.353 53.671 75.7928 55.5107C76.7531 50.2796 76.093 44.7081 73.5459 39.5768C67.2599 26.907 51.86 21.7183 39.1497 27.9852C28.2123 33.3782 22.8388 45.4982 25.5569 56.8466C26.9673 49.1655 31.872 42.2212 39.434 38.4928Z" fill="#060D51"/>
</g>
<path style="mix-blend-mode:color-burn" opacity="0.6" d="M74.4606 39.3824C80.7364 52.4338 75.211 68.0849 62.1177 74.3403C49.0243 80.5974 33.3232 75.0889 27.0468 62.0374C20.771 48.9857 26.2972 33.3349 39.3907 27.0792C52.4834 20.8222 68.1846 26.3318 74.4608 39.3825L74.4606 39.3824Z" fill="url(#paint5_linear_0_1)"/>
<path opacity="0.1" d="M61.8728 71.085C48.9109 77.2777 33.4647 72.0302 27.3735 59.3618C26.2516 57.0303 25.5354 54.6085 25.1794 52.1726C25.3484 55.3746 26.1348 58.5928 27.6082 61.6561C33.6994 74.322 49.1457 79.5718 62.1075 73.378C72.7153 68.3093 78.3718 57.1496 76.7376 46.3203C77.3118 56.3986 71.7328 66.3737 61.8728 71.0848V71.085Z" fill="#F4DDC1"/>
<g style="mix-blend-mode:soft-light" opacity="0.7">
<path d="M42.7795 29.5745C56.2445 24.7038 71.1226 31.6349 76.008 45.0581C76.1777 45.5237 76.3332 45.992 76.4736 46.46C76.2169 45.089 75.8479 43.7205 75.3556 42.3675C70.4682 28.9457 55.591 22.0133 42.1259 26.8838C29.1285 31.5874 22.2011 45.5675 26.1301 58.6048C23.8366 46.3854 30.6723 33.9536 42.7793 29.5747L42.7795 29.5745Z" fill="#0619FF"/>
</g>
<path d="M62.0531 74.359C48.9818 80.6043 33.2497 75.0855 26.9836 62.0546C20.7182 49.0263 26.2546 33.3432 39.3268 27.0978C52.3975 20.8523 68.1302 26.3724 74.3956 39.4007C80.6616 52.4317 75.1245 68.1136 62.053 74.3591L62.0531 74.359ZM39.7178 27.9105C27.0967 33.9424 21.7492 49.0839 27.7991 61.6649C33.8497 74.2469 49.0404 79.5767 61.6621 73.5449C74.2835 67.5142 79.6302 52.3726 73.5796 39.7919C67.5297 27.2096 52.339 21.881 39.7178 27.9105Z" fill="#FF0000"/>
<path opacity="0.4" d="M25.3925 53.5949C26.5337 62.6491 31.9464 68.9576 33.9874 67.4732C36.1093 66.0714 36.0091 58.4744 35.9518 52.8296C35.7963 48.1379 37.1124 43.4922 39.7071 39.5746C42.7198 34.7942 46.3945 30.6299 45.3216 28.3289C44.3597 25.9998 36.9948 28.3764 31.0404 34.3827C26.2298 39.2341 24.5357 47.1383 25.3924 53.5949H25.3925Z" fill="url(#paint6_linear_0_1)"/>
<path opacity="0.4" d="M75.7577 54.8819C77.1444 47.4068 73.8883 37.7207 71.4897 38.5146C69.0414 39.2053 68.0951 46.6089 66.4248 52.0026C65.1394 56.5183 62.466 60.5446 58.7972 63.4864C54.4666 67.1249 49.6952 69.9753 50.0132 72.4937C50.2173 75.0042 55.1444 76.3073 62.7765 72.6444C69.0086 69.6544 74.5954 62.6365 75.7576 54.8819H75.7577Z" fill="url(#paint7_linear_0_1)"/>
<path style="mix-blend-mode:screen" d="M50.5335 73.1147C64.0969 73.1147 75.0922 62.1545 75.0922 48.6345C75.0922 35.1145 64.0969 24.1543 50.5335 24.1543C36.9701 24.1543 25.9749 35.1145 25.9749 48.6345C25.9749 62.1545 36.9701 73.1147 50.5335 73.1147Z" fill="url(#paint8_radial_0_1)"/>
<path d="M50.7184 18.6176L50.8971 18.6236L50.8508 20.0041L50.6721 19.9981L50.7184 18.6176ZM51.4645 19.9419C51.4268 19.8857 51.3982 19.8178 51.3785 19.7385C51.3589 19.6591 51.3384 19.5543 51.3175 19.4244C51.3163 19.4154 51.3147 19.4068 51.3129 19.3986C51.3109 19.3904 51.3093 19.3818 51.3082 19.3728C51.307 19.3654 51.3058 19.3583 51.3045 19.3515C51.3033 19.3447 51.3019 19.3384 51.3006 19.3324C51.2729 19.1785 51.2458 19.0541 51.2192 18.9596C51.1926 18.8651 51.1534 18.7861 51.102 18.7228C51.0504 18.6596 50.9823 18.6264 50.8973 18.6234L50.9033 18.4453C51.0284 18.4495 51.1291 18.4922 51.2054 18.5736C51.2818 18.6549 51.3397 18.7579 51.3796 18.8826C51.4194 19.0073 51.4541 19.1607 51.4838 19.343C51.4865 19.3551 51.4886 19.3674 51.4905 19.3801C51.4923 19.3927 51.4937 19.4058 51.4948 19.4193C51.5143 19.5477 51.5335 19.6517 51.5526 19.7311C51.5715 19.8106 51.5928 19.8505 51.6167 19.8513C51.639 19.8521 51.6607 19.817 51.6817 19.7465C51.7028 19.6758 51.7255 19.5823 51.7503 19.4657C51.7593 19.4185 51.7672 19.3832 51.774 19.3595C51.8192 19.1678 51.8651 19.0122 51.9115 18.8926C51.958 18.773 52.0219 18.6761 52.1035 18.6014C52.185 18.5268 52.2913 18.4918 52.4223 18.4961L52.4163 18.6742C52.3299 18.6713 52.2585 18.6983 52.2023 18.7551C52.1459 18.8119 52.1006 18.8869 52.0662 18.9801C52.0318 19.0734 51.9964 19.1938 51.9601 19.341C51.9583 19.3514 51.9564 19.3614 51.9547 19.371C51.9529 19.3805 51.9504 19.3906 51.947 19.4007C51.9451 19.4126 51.9428 19.4248 51.9402 19.4373C51.9375 19.4498 51.9344 19.462 51.9312 19.4738C51.9049 19.5903 51.8801 19.6857 51.8567 19.7599C51.8333 19.8342 51.8014 19.8982 51.7608 19.9518C51.7203 20.0055 51.6703 20.0313 51.6106 20.0293C51.551 20.0273 51.5024 19.9982 51.4649 19.9419H51.4645ZM52.416 18.6741L52.5947 18.6801L52.5484 20.0606L52.3697 20.0546L52.416 18.6741Z" fill="#00FFFF"/>
<path d="M53.3016 18.7327L53.4792 18.7532L53.3201 20.1254L53.1425 20.1049L53.3016 18.7327ZM53.937 20.1134C53.904 20.0542 53.8811 19.9843 53.8679 19.9036C53.8548 19.8229 53.8431 19.7168 53.8328 19.5856C53.8323 19.5767 53.8315 19.5679 53.8301 19.5595C53.8289 19.5512 53.828 19.5424 53.8275 19.5335C53.8269 19.5259 53.8263 19.5188 53.8255 19.5119C53.8247 19.5051 53.8239 19.4986 53.8232 19.4926C53.8083 19.3368 53.7913 19.2109 53.7725 19.1144C53.7536 19.0181 53.7213 18.9361 53.675 18.8688C53.6288 18.8015 53.5635 18.7629 53.4791 18.7532L53.4997 18.5762C53.624 18.5905 53.7208 18.6413 53.7902 18.7285C53.8596 18.8157 53.9089 18.9232 53.9384 19.0506C53.9678 19.1781 53.9899 19.3339 54.0045 19.518C54.006 19.5302 54.0073 19.5427 54.0081 19.5554C54.0088 19.5682 54.0091 19.5813 54.0091 19.5947C54.0181 19.7244 54.0288 19.8295 54.0412 19.9102C54.0536 19.991 54.0715 20.0326 54.0952 20.0353C54.1174 20.0379 54.1418 20.0047 54.1686 19.936C54.1953 19.8673 54.2258 19.7759 54.2601 19.6617C54.273 19.6154 54.2838 19.5807 54.2925 19.5578C54.3532 19.3705 54.4117 19.2192 54.4678 19.1037C54.5238 18.9883 54.5957 18.8968 54.683 18.8292C54.7704 18.7615 54.8792 18.7352 55.0094 18.7501L54.9888 18.9272C54.9031 18.9173 54.8297 18.9384 54.769 18.9905C54.7081 19.0425 54.6569 19.1136 54.6149 19.2038C54.5729 19.2939 54.5279 19.4109 54.4797 19.5549C54.4771 19.5651 54.4744 19.5748 54.4718 19.5842C54.4692 19.5937 54.4658 19.6034 54.4618 19.6134C54.459 19.625 54.4557 19.637 54.452 19.6492C54.4483 19.6616 54.4443 19.6735 54.4399 19.6849C54.4041 19.7989 54.3716 19.892 54.3424 19.9641C54.3129 20.0362 54.2759 20.0973 54.231 20.1475C54.1861 20.1976 54.1342 20.2192 54.0749 20.2125C54.0158 20.2057 53.9696 20.1726 53.9368 20.1135L53.937 20.1134ZM54.989 18.9272L55.1666 18.9477L55.0074 20.3199L54.8298 20.2994L54.989 18.9272Z" fill="#00FFFF"/>
<path d="M55.7843 20.2705L56.8373 20.4749C56.8797 20.4831 56.9187 20.4752 56.9547 20.4511C56.9904 20.4271 57.0126 20.3939 57.0208 20.3516L57.2557 19.1489L57.4311 19.183L57.1962 20.3857C57.1843 20.447 57.1591 20.4999 57.1208 20.5447C57.0824 20.5894 57.0353 20.6211 56.9793 20.6397C56.9232 20.6584 56.8646 20.6617 56.8031 20.6498L55.7501 20.4454L55.7843 20.2705ZM55.8686 19.8794C55.8237 19.8411 55.7919 19.7942 55.7732 19.7383C55.7545 19.6825 55.7512 19.624 55.7631 19.5627L55.8955 18.8848L56.071 18.9189L55.9386 19.5968C55.9304 19.6391 55.9383 19.6781 55.9624 19.7138C55.9866 19.7494 56.0199 19.7715 56.0623 19.7797L56.9398 19.9501L56.9056 20.125L56.0281 19.9546C55.9666 19.9427 55.9135 19.9175 55.8686 19.8794Z" fill="#00FFFF"/>
<path d="M59.1652 21.1979C59.1249 21.1548 59.0988 21.1045 59.0865 21.0469C59.0743 20.9893 59.0777 20.9308 59.0966 20.8713L59.4678 19.7031L59.6382 19.757L59.2671 20.9251C59.2541 20.9662 59.2575 21.0059 59.2773 21.044C59.2971 21.0823 59.3278 21.1079 59.369 21.1208L60.4129 21.4505L60.3589 21.6205L59.3149 21.2908C59.2553 21.272 59.2053 21.2409 59.165 21.1979H59.1652Z" fill="#00FFFF"/>
<path d="M61.4346 20.5366L61.5987 20.6015L61.3521 21.2229L62.3308 21.6089L62.265 21.7747L61.2863 21.3887L61.0888 21.8858L60.9247 21.821L61.4346 20.5366ZM62.6656 21.1899C62.6816 21.1499 62.6805 21.1099 62.6627 21.0701C62.6449 21.0303 62.6158 21.0025 62.5757 20.9866L61.5989 20.6013L61.6647 20.4355L62.6415 20.8208C62.6997 20.8438 62.7472 20.8781 62.7844 20.9239C62.8216 20.9698 62.8445 21.0219 62.8533 21.0804C62.8621 21.1389 62.855 21.1973 62.8319 21.2553L62.3796 22.3947L62.2133 22.3291L62.6656 21.1897V21.1899Z" fill="#00FFFF"/>
<path d="M63.0939 22.6668C63.0609 22.6188 63.0423 22.5654 63.0384 22.5067C63.0346 22.4479 63.0462 22.3905 63.0733 22.3343L63.529 21.3909L63.688 21.4673L63.2323 22.4107C63.2136 22.4496 63.2113 22.4893 63.2257 22.5299C63.2399 22.5705 63.2665 22.6001 63.3054 22.6189L64.2538 23.0741L64.1763 23.2346L63.2278 22.7795C63.1715 22.7525 63.1267 22.7148 63.0937 22.6669L63.0939 22.6668ZM64.3655 22.8432C64.3869 22.7991 64.3983 22.7555 64.4 22.7126C64.4017 22.6697 64.3947 22.6327 64.3794 22.6013C64.3639 22.57 64.3427 22.5479 64.3159 22.535L63.5285 22.1571L63.6061 21.9966L64.3935 22.3746C64.4203 22.3874 64.4508 22.3902 64.4852 22.3826C64.5194 22.3752 64.5527 22.3573 64.5854 22.3294C64.6179 22.3013 64.6448 22.2652 64.6662 22.221C64.6876 22.1769 64.699 22.1333 64.7007 22.0904C64.7024 22.0475 64.6955 22.0105 64.6801 21.9792C64.6646 21.9478 64.6434 21.9257 64.6166 21.9128L63.6883 21.4672L63.7659 21.3066L64.6942 21.7523C64.7681 21.7878 64.8203 21.8355 64.8508 21.8953C64.8813 21.9554 64.8933 22.0205 64.8867 22.0906C64.88 22.1608 64.8602 22.23 64.8274 22.2982C64.7932 22.3692 64.7552 22.4243 64.7139 22.4638C64.6725 22.5033 64.6239 22.5344 64.5683 22.5572C64.5852 22.618 64.5919 22.6745 64.5883 22.7264C64.5847 22.7782 64.5641 22.8431 64.5267 22.9205L64.4152 23.1515L64.2541 23.0741L64.3656 22.8432H64.3655Z" fill="#00FFFF"/>
<path d="M66.1818 24.274C66.1603 24.2147 66.1572 24.1482 66.1724 24.0743C66.1876 24.0003 66.2203 23.9239 66.2704 23.8447L66.4216 23.94C66.3785 24.0077 66.357 24.075 66.357 24.1417C66.357 24.2086 66.3833 24.2586 66.4363 24.2919L67.2862 24.8278L67.1907 24.9785L66.3029 24.4186C66.2438 24.3813 66.2034 24.3331 66.182 24.2738L66.1818 24.274ZM67.4773 24.5268C67.5004 24.4904 67.5072 24.4512 67.4977 24.4092C67.4883 24.3672 67.4652 24.3347 67.4287 24.3117L66.6732 23.8353C66.614 23.798 66.5699 23.7549 66.5411 23.706C66.5121 23.6571 66.5002 23.6043 66.5053 23.5476C66.5103 23.4911 66.5316 23.4332 66.5691 23.3743L66.7604 23.073L66.9115 23.1682L66.7203 23.4695C66.6972 23.5059 66.6904 23.5452 66.6998 23.5871C66.7093 23.6291 66.7323 23.6617 66.7689 23.6847L67.5244 24.161C67.5848 24.1991 67.6292 24.2425 67.6574 24.291C67.6856 24.3396 67.6973 24.3918 67.6928 24.4478C67.6882 24.5037 67.6668 24.5619 67.6286 24.6221L67.4373 24.9234L67.2862 24.8281L67.4774 24.5268H67.4773ZM67.8412 23.8534C67.8409 23.7873 67.8142 23.7375 67.7613 23.7041L66.9113 23.1682L67.0069 23.0176L67.8946 23.5774C67.9538 23.6148 67.9945 23.6632 68.0166 23.7228C68.0386 23.7824 68.0419 23.8491 68.0261 23.9225C68.0103 23.996 67.9773 24.0724 67.9271 24.1514L67.776 24.0562C67.8198 23.9872 67.8415 23.9196 67.8412 23.8534Z" fill="#00FFFF"/>
<path d="M68.0687 25.3608L68.9324 25.9952C68.9673 26.0207 69.006 26.0302 69.0487 26.0239C69.0915 26.0174 69.1255 25.9969 69.1512 25.9622L69.8804 24.9757L70.0244 25.0814L69.2953 26.0679C69.2581 26.1181 69.2126 26.1553 69.1587 26.1793C69.1048 26.2034 69.0486 26.2119 68.9899 26.2048C68.9312 26.1977 68.8767 26.1756 68.8264 26.1387L67.9626 25.5044L68.0687 25.3608ZM68.3129 25.0435C68.2888 24.9897 68.2802 24.9337 68.2874 24.8752C68.2945 24.8167 68.3166 24.7624 68.3536 24.7122L68.7646 24.1562L68.9086 24.262L68.4976 24.818C68.4719 24.8527 68.4623 24.8913 68.4688 24.9339C68.4753 24.9765 68.4959 25.0104 68.5308 25.0361L69.2505 25.5647L69.1444 25.7083L68.4247 25.1796C68.3744 25.1426 68.3371 25.0972 68.3129 25.0435Z" fill="#00FFFF"/>
<path d="M69.7214 26.7626C69.7086 26.7009 69.7149 26.6347 69.7403 26.5635C69.7657 26.4925 69.8089 26.4213 69.8699 26.35L70.006 26.4656C69.9539 26.5268 69.923 26.5902 69.9136 26.6563C69.9041 26.7223 69.9232 26.7756 69.9709 26.816L70.7364 27.4661L70.6205 27.6018L69.8208 26.9228C69.7676 26.8776 69.7344 26.824 69.7216 26.7625L69.7214 26.7626ZM70.9682 27.195C70.9963 27.1622 71.0085 27.1243 71.0051 27.0813C71.0017 27.0384 70.9834 27.0029 70.9506 26.975L70.27 26.3971C70.2168 26.3519 70.1791 26.303 70.1576 26.2505C70.1359 26.198 70.1316 26.144 70.1446 26.0887C70.1576 26.0335 70.1867 25.9793 70.2323 25.926L70.4642 25.6547L70.6003 25.7703L70.3684 26.0416C70.3403 26.0745 70.3281 26.1123 70.3315 26.1552C70.3349 26.1981 70.353 26.2335 70.386 26.2616L71.0666 26.8395C71.1211 26.8858 71.1587 26.9349 71.1799 26.9869C71.201 27.0389 71.2053 27.0923 71.1928 27.1471C71.1802 27.2019 71.1508 27.2564 71.1044 27.3106L70.8724 27.5819L70.7363 27.4663L70.9682 27.195ZM71.4238 26.5796C71.4328 26.5141 71.4134 26.461 71.3659 26.4206L70.6003 25.7704L70.7163 25.6348L71.5159 26.3138C71.5692 26.359 71.6027 26.4127 71.6161 26.4749C71.6296 26.5371 71.6232 26.6035 71.5972 26.674C71.5712 26.7446 71.5277 26.8154 71.4669 26.8867L71.3307 26.7711C71.3839 26.7089 71.415 26.645 71.424 26.5796H71.4238Z" fill="#00FFFF"/>
<path d="M72.556 27.7335C72.5861 27.7028 72.6009 27.6656 72.5999 27.6221C72.599 27.5786 72.583 27.5417 72.5522 27.5114L72.1693 27.137L72.2946 27.0098L72.6775 27.3842C72.7221 27.4279 72.7528 27.4781 72.769 27.5346C72.7854 27.5911 72.7859 27.6479 72.7707 27.7047C72.7554 27.7615 72.726 27.8122 72.6821 27.8567L71.8214 28.7314L71.6953 28.6081L72.5561 27.7334L72.556 27.7335ZM72.9169 27.6182L73.4115 28.1018L73.2862 28.229L72.7916 27.7454L72.9169 27.6182Z" fill="#00FFFF"/>
<path d="M72.8704 29.7401C72.858 29.6825 72.8616 29.6259 72.8808 29.5703C72.9 29.5146 72.9329 29.4661 72.9799 29.4247L73.7662 28.7305L73.8848 28.8638L73.0985 29.5581C73.0661 29.5867 73.0486 29.6225 73.046 29.6654C73.0434 29.7083 73.0564 29.7459 73.085 29.7782L73.9001 30.6954L73.7663 30.8136L72.9512 29.8964C72.9097 29.8498 72.8828 29.7977 72.8705 29.7401H72.8704ZM73.602 29.3187L74.3148 30.1209L74.181 30.2391L73.4683 29.4369L73.602 29.3187ZM74.0184 28.7456L74.9373 29.7796L74.8035 29.8978L73.8846 28.8638L74.0184 28.7456Z" fill="#00FFFF"/>
<path d="M75.2534 30.4375L75.3616 30.5793L74.2585 31.4153L74.1503 31.2735L75.2534 30.4375ZM74.6942 31.8506C74.7142 31.7861 74.7489 31.7211 74.7983 31.6556C74.8477 31.5904 74.9163 31.5084 75.0041 31.4101C75.0103 31.4034 75.016 31.3968 75.0211 31.3902C75.0262 31.3835 75.032 31.3767 75.0382 31.3702C75.0431 31.3645 75.0479 31.3591 75.0524 31.3539C75.0569 31.3486 75.0609 31.3437 75.0648 31.3389C75.1671 31.2204 75.2466 31.1208 75.3034 31.0406C75.3601 30.9603 75.3968 30.8802 75.4137 30.8004C75.4304 30.7206 75.413 30.647 75.3618 30.5795L75.5041 30.4716C75.5798 30.5709 75.6102 30.6757 75.5951 30.786C75.58 30.8964 75.5366 31.0063 75.4648 31.1157C75.3929 31.2252 75.2955 31.3489 75.1724 31.4869C75.1647 31.4965 75.1565 31.5059 75.1478 31.5153C75.1391 31.5248 75.1298 31.534 75.1201 31.5434C75.0324 31.6396 74.9638 31.7202 74.914 31.785C74.8641 31.8498 74.8465 31.8916 74.8609 31.9105C74.8743 31.9282 74.9152 31.9228 74.9835 31.8946C75.0516 31.8662 75.139 31.8248 75.2453 31.7703C75.2878 31.7475 75.3203 31.7313 75.3429 31.7216C75.5205 31.6354 75.6706 31.5726 75.7929 31.5331C75.9152 31.4936 76.0312 31.4817 76.1407 31.4976C76.2501 31.5135 76.3446 31.5735 76.4239 31.6776L76.2816 31.7855C76.2292 31.7169 76.1633 31.6788 76.0835 31.6711C76.0038 31.6634 75.9168 31.6757 75.8225 31.708C75.7282 31.7402 75.6123 31.7889 75.4747 31.854C75.4654 31.8591 75.4566 31.864 75.4479 31.8686C75.4392 31.8733 75.4299 31.8776 75.4199 31.8815C75.4095 31.8875 75.3985 31.8933 75.3872 31.8992C75.3757 31.9051 75.3644 31.9105 75.3531 31.9153C75.2458 31.9685 75.156 32.0096 75.0835 32.0384C75.0111 32.0673 74.9411 32.0829 74.8737 32.0855C74.8063 32.088 74.7546 32.0656 74.7186 32.0184C74.6825 31.9711 74.6744 31.9151 74.6944 31.8506H74.6942ZM76.2814 31.7855L76.3897 31.9273L75.2865 32.7633L75.1783 32.6214L76.2814 31.7855Z" fill="#00FFFF"/>
<path d="M76.5951 34.4208L77.2984 35.6108L77.1444 35.7013L76.441 34.5112L76.5951 34.4208ZM76.7548 34.1203C76.8164 34.0842 76.8752 34.0645 76.9316 34.0618C76.9878 34.0588 77.0398 34.0723 77.0877 34.1021C77.1355 34.1317 77.1775 34.1772 77.2139 34.2387L77.6677 35.0064C77.6897 35.0434 77.7215 35.0675 77.7634 35.0782C77.8052 35.089 77.8447 35.0834 77.882 35.0615L78.2479 34.8467L78.3387 35.0002L77.9728 35.2151C77.9124 35.2506 77.8539 35.2699 77.7969 35.2731C77.74 35.2764 77.6874 35.2628 77.6392 35.2325C77.5911 35.2023 77.5491 35.1569 77.5137 35.0969L77.0598 34.3291C77.0378 34.2919 77.0059 34.268 76.9641 34.2573C76.9223 34.2465 76.8828 34.2521 76.8455 34.274L76.5951 34.4209L76.5044 34.2674L76.7548 34.1204V34.1203ZM77.5265 33.7123C77.6007 33.6989 77.6674 33.7041 77.7264 33.7281C77.7856 33.752 77.8328 33.794 77.8684 33.8542L78.4015 34.7564L78.2475 34.8468L77.7369 33.9831C77.7052 33.9293 77.6561 33.9012 77.5898 33.8988C77.5236 33.8963 77.4551 33.9159 77.3845 33.9573L77.2938 33.8037C77.3746 33.7562 77.4522 33.7257 77.5264 33.7123H77.5265Z" fill="#00FFFF"/>
<path d="M77.5909 36.1468L78.2092 37.383L78.0492 37.4625L77.4309 36.2263L77.5909 36.1468ZM78.4391 37.2686C78.4831 37.2467 78.519 37.2194 78.5467 37.1865C78.5745 37.1537 78.5918 37.1202 78.5988 37.0859C78.6057 37.0516 78.6026 37.0212 78.5893 36.9947L78.1206 36.0576L78.2806 35.9781L78.7493 36.9152C78.7626 36.9417 78.785 36.9626 78.8166 36.9775C78.8482 36.9925 78.8855 36.9988 78.9286 36.9965C78.9715 36.9942 79.015 36.9822 79.0591 36.9603C79.1285 36.9258 79.177 36.8838 79.2047 36.8345C79.2324 36.7849 79.2339 36.7357 79.2093 36.6866L78.6907 35.6498L78.8507 35.5703L79.3693 36.6071C79.4058 36.6803 79.4177 36.7499 79.405 36.8159C79.3924 36.882 79.3617 36.9408 79.3134 36.9922C79.2651 37.0436 79.2068 37.0862 79.1389 37.12C79.0681 37.1552 79.0043 37.1756 78.9473 37.1816C78.8903 37.1875 78.8329 37.1825 78.775 37.1665C78.7508 37.2248 78.7216 37.2736 78.6869 37.3123C78.6522 37.3511 78.5961 37.3898 78.5189 37.4282L78.2889 37.5426L78.2092 37.3832L78.4391 37.2688V37.2686Z" fill="#00FFFF"/>
<path d="M79.348 37.7673C79.4403 37.7292 79.5308 37.7154 79.62 37.7262C79.7091 37.7369 79.7885 37.7701 79.8585 37.8255C79.9283 37.881 79.9824 37.9548 80.0206 38.0467L80.2685 38.6435L80.1033 38.7118L79.8554 38.1149C79.8331 38.0613 79.7976 38.0166 79.7487 37.9804C79.6998 37.9443 79.6457 37.9216 79.5863 37.9125C79.5268 37.9033 79.4703 37.9098 79.4166 37.932L78.859 38.1621L78.7905 37.9974L79.3481 37.7673H79.348ZM79.2359 39.0697L78.9195 38.3081L79.0847 38.2399L79.4011 39.0015L80.1032 38.7118L80.1707 38.8744L79.4686 39.1642L79.5541 39.3701L79.3889 39.4383L79.3034 39.2324L78.8904 39.4028L78.8229 39.2401L79.2359 39.0697Z" fill="#00FFFF"/>
<path d="M80.8392 40.1811L80.9036 40.3663L79.2453 40.3591L79.1809 40.1738L80.8392 40.1811Z" fill="#00FFFF"/>
<path d="M81.3104 41.6668L81.3658 41.855L79.7097 41.7682L79.6543 41.5801L81.3104 41.6668Z" fill="#00FFFF"/>
<path d="M81.7092 43.1736L81.7555 43.3642L80.1056 43.1984L80.0593 43.0078L81.7092 43.1736Z" fill="#00FFFF"/>
<path d="M82.0354 44.6955L82.0724 44.888L80.4323 44.6436L80.3953 44.4512L82.0354 44.6955Z" fill="#00FFFF"/>
<path d="M82.1195 55.3467L82.0906 55.5225L80.7231 55.2989L80.7521 55.123L82.1195 55.3467ZM81.4037 55.5682L81.2586 56.4499C81.2516 56.4923 81.2608 56.531 81.2859 56.5661C81.3111 56.601 81.345 56.622 81.3876 56.6291L81.7405 56.6868C81.7831 56.6937 81.8219 56.6846 81.8571 56.6596C81.8921 56.6345 81.9131 56.6007 81.9203 56.5582L82.0907 55.5228L82.2671 55.5517L82.0966 56.5872C82.0866 56.6488 82.063 56.7021 82.0262 56.7473C81.9893 56.7924 81.9432 56.8251 81.8877 56.8455C81.8323 56.8657 81.7738 56.8708 81.712 56.8607L81.3591 56.803C81.2973 56.793 81.2434 56.7694 81.1974 56.7326C81.1514 56.6957 81.1182 56.65 81.0977 56.5956C81.0773 56.5411 81.072 56.483 81.0822 56.4215L81.2273 55.5398L81.4037 55.5687V55.5682Z" fill="#00FFFF"/>
<path d="M80.3847 57.4174C80.4246 57.3742 80.4731 57.3442 80.5297 57.3277C80.5864 57.3112 80.6453 57.3101 80.7061 57.3243L81.9029 57.6037L81.8622 57.7772L80.6654 57.4978C80.6233 57.4879 80.5839 57.4944 80.5472 57.5171C80.5105 57.5398 80.4873 57.5721 80.4774 57.6141L80.2276 58.6769L80.0536 58.6363L80.3032 57.5735C80.3174 57.5128 80.3446 57.4608 80.3847 57.4174Z" fill="#00FFFF"/>
<path d="M80.6679 60.8929C80.7092 60.9055 80.749 60.9013 80.7874 60.8805C80.8258 60.8597 80.8514 60.8285 80.8641 60.7874L81.1722 59.7865L81.3432 59.8388L81.035 60.8398C81.0166 60.8993 80.9861 60.9495 80.9432 60.9899C80.9003 61.0304 80.85 61.0574 80.7921 61.0707C80.7342 61.0841 80.6753 61.0816 80.6156 61.0633L79.4404 60.7039L79.4929 60.5335L80.668 60.8929H80.6679ZM81.2239 59.6181L81.1722 59.7863L80.5312 59.5903L80.2224 60.5934L80.0515 60.5411L80.3602 59.538L79.8474 59.3811L79.8991 59.2129L81.2238 59.6181H81.2239Z" fill="#00FFFF"/>
<path d="M79.3552 61.4781L78.9696 62.476C78.9541 62.5161 78.955 62.556 78.9725 62.5953C78.99 62.6347 79.019 62.6621 79.0593 62.6776L80.2064 63.1179L80.1421 63.2843L78.995 62.844C78.9366 62.8216 78.8886 62.7876 78.8511 62.7423C78.8137 62.6969 78.7906 62.645 78.7819 62.5867C78.7733 62.5285 78.7802 62.4703 78.8027 62.4119L79.1883 61.4141L79.3552 61.4781ZM79.7268 61.6291C79.7723 61.5917 79.8244 61.5687 79.8827 61.5601C79.9411 61.5514 79.9995 61.5584 80.058 61.5808L80.7047 61.829L80.6404 61.9953L79.9939 61.7472C79.9535 61.7317 79.9137 61.7326 79.8742 61.7501C79.8347 61.7675 79.8072 61.7964 79.7917 61.8365L79.4704 62.6682L79.3035 62.6041L79.6248 61.7725C79.6472 61.7143 79.6813 61.6664 79.7268 61.6291Z" fill="#00FFFF"/>
<path d="M77.8546 64.6264C77.9007 64.5943 77.952 64.5783 78.0083 64.5781C78.0647 64.5781 78.1245 64.5945 78.188 64.6275L79.1195 65.1114L79.0368 65.2695L78.1053 64.7856C78.0669 64.7657 78.0272 64.7621 77.986 64.7751C77.9449 64.788 77.9144 64.8135 77.8944 64.8518L77.4089 65.7804L77.2504 65.6979L77.7358 64.7694C77.7688 64.7061 77.8084 64.6584 77.8547 64.6264H77.8546ZM78.3405 66.2643C78.3787 66.2842 78.4185 66.2876 78.4597 66.2748C78.5009 66.2618 78.5316 66.2362 78.5515 66.198L79.037 65.2695L79.1955 65.3519L78.7101 66.2805C78.6777 66.3424 78.6383 66.3897 78.5918 66.4225C78.5454 66.4552 78.4938 66.4717 78.4376 66.4717C78.3812 66.4717 78.3214 66.4554 78.258 66.4223L77.3264 65.9384L77.4091 65.7804L78.3406 66.2643H78.3405Z" fill="#00FFFF"/>
<path d="M76.4145 67.7173C76.4399 67.7329 76.4712 67.7437 76.5085 67.7499C76.5457 67.7561 76.5813 67.7552 76.615 67.7471C76.6488 67.7391 76.6728 67.7237 76.6867 67.7008L77.1542 66.9413L77.3066 67.0345L76.8391 67.7941C76.825 67.8169 76.822 67.8451 76.8303 67.8788C76.8383 67.9124 76.8536 67.9444 76.8761 67.9748C76.8985 68.0051 76.9224 68.0281 76.9479 68.0435L77.1955 68.1949C77.2324 68.2174 77.2717 68.2236 77.3138 68.2136C77.3558 68.2035 77.3882 68.1801 77.4108 68.1435L77.96 67.2509L78.1124 67.3441L77.5631 68.2367C77.5305 68.29 77.4882 68.3307 77.4366 68.3593C77.3851 68.3879 77.3296 68.4011 77.2706 68.399C77.2116 68.3968 77.1554 68.3795 77.1022 68.3469L76.8544 68.1955C76.8036 68.1645 76.7614 68.1259 76.7276 68.0801C76.6938 68.0341 76.6683 67.9841 76.6508 67.9299C76.5944 67.939 76.5381 67.939 76.4817 67.9299C76.4253 67.9206 76.3718 67.9006 76.321 67.8695L76.0543 67.7064L76.1478 67.5545L76.4145 67.7177V67.7173ZM78.0534 67.0992L77.9599 67.251L76.7787 66.5288L76.8722 66.377L78.0534 67.0992Z" fill="#00FFFF"/>
<path d="M76.0495 70.1332L75.9394 70.2737L74.988 69.5334L74.2454 70.4817L74.1045 70.372L74.9572 69.2832L76.0495 70.1332ZM75.0734 71.126C75.1074 71.1526 75.1458 71.1631 75.1887 71.1578C75.2316 71.1526 75.2663 71.133 75.2929 71.099L75.9393 70.2737L76.0802 70.3834L75.4339 71.2087C75.3953 71.258 75.3488 71.2938 75.2943 71.3163C75.2398 71.3389 75.1833 71.3458 75.1249 71.3372C75.0666 71.3285 75.0127 71.3049 74.9633 71.2665L74.1353 70.6222L74.2454 70.4817L75.0734 71.126Z" fill="#00FFFF"/>
<path d="M73.1121 71.5852C73.1675 71.5669 73.224 71.5641 73.2818 71.5767C73.3394 71.5894 73.3916 71.6166 73.4382 71.6581L74.104 72.2528L73.9862 72.3838L73.3203 71.7891C73.2881 71.7604 73.2505 71.7472 73.2073 71.7496C73.1641 71.7519 73.1282 71.7692 73.0994 71.8013L72.7861 72.1497L72.653 72.0307L72.9662 71.6823C73.008 71.6359 73.0566 71.6035 73.1121 71.5852ZM73.7408 71.0878L73.3231 71.5524L73.19 71.4334L73.6076 70.9688L73.7408 71.0878ZM74.7728 72.0095L73.8183 73.0715L73.6852 72.9525L74.6396 71.8905L74.7728 72.0095Z" fill="#00FFFF"/>
<path d="M72.1519 72.6103C72.209 72.5953 72.2658 72.5961 72.3225 72.6125C72.3792 72.629 72.4293 72.6595 72.473 72.7043L73.2059 73.4543L73.0778 73.5787L72.3449 72.8287C72.3148 72.7978 72.2781 72.7821 72.235 72.7816C72.1918 72.781 72.1548 72.7958 72.1238 72.8259L71.2432 73.6809L71.1184 73.5532L71.999 72.6983C72.0439 72.6548 72.0949 72.6254 72.1519 72.6105V72.6103ZM72.6088 73.3189L71.8388 74.0666L71.7139 73.939L72.484 73.1913L72.6088 73.3189ZM73.2028 73.7064L72.2102 74.6701L72.0854 74.5425L73.078 73.5787L73.2028 73.7064Z" fill="#00FFFF"/>
<path opacity="0.9" d="M50.6546 26.5352C36.9844 26.5352 25.9025 37.742 25.9025 51.5656C25.9025 65.3892 36.9844 76.5944 50.6546 76.5944C64.3248 76.5944 75.4068 65.3876 75.4068 51.5656C75.4068 37.7436 64.3248 26.5352 50.6546 26.5352ZM50.6546 71.6143C39.7043 71.6143 30.8272 62.6375 30.8272 51.5639C30.8272 40.4904 39.7043 31.5136 50.6546 31.5136C61.6049 31.5136 70.482 40.4904 70.482 51.5639C70.482 62.6375 61.6049 71.6143 50.6546 71.6143Z" fill="url(#paint9_linear_0_1)"/>
<path style="mix-blend-mode:multiply" d="M50.6546 26.5352C36.9844 26.5352 25.9025 37.4819 25.9025 50.9853C25.9025 64.4887 36.9844 75.4355 50.6546 75.4355C64.3248 75.4355 75.4068 64.4887 75.4068 50.9853C75.4068 37.4819 64.3248 26.5352 50.6546 26.5352ZM50.6546 70.5724C39.7043 70.5724 30.8272 61.8037 30.8272 50.9869C30.8272 40.1702 39.7043 31.4015 50.6546 31.4015C61.6049 31.4015 70.482 40.1702 70.482 50.9869C70.482 61.8037 61.6049 70.5724 50.6546 70.5724Z" fill="url(#paint10_linear_0_1)"/>
<g opacity="0.4">
<path d="M51.6194 75.4751C61.4015 75.2183 70.5517 68.6324 73.7652 59.5044C79.6641 43.4248 67.0963 26.435 49.8078 27.0949C32.5209 27.7011 21.258 45.5605 28.3416 61.1639C32.2297 70.0302 41.8439 75.9351 51.6194 75.4751ZM51.6194 75.4751C41.8061 75.9497 32.154 70.1098 28.0585 61.2923C20.4748 45.3216 31.9056 26.7665 49.7716 26.1213C67.6344 25.4646 80.421 43.1322 74.0548 59.61C70.629 68.7022 61.4426 75.2329 51.6194 75.4735V75.4751Z" fill="#FCFAFB"/>
</g>
<path d="M64.8497 65.0437C72.6995 57.2897 72.6995 44.7181 64.8497 36.9641C57 29.2101 44.273 29.2101 36.4233 36.9641C28.5736 44.7181 28.5736 57.2897 36.4233 65.0437C44.273 72.7977 57 72.7977 64.8497 65.0437Z" fill="url(#paint11_linear_0_1)"/>
<g opacity="0.5">
<path d="M70.7705 51.2624C70.448 69.0502 48.9192 77.7329 36.1408 65.1364C28.2675 57.3916 28.3645 44.3319 36.3284 36.6797C49.4178 24.145 70.8676 33.3347 70.7705 51.2624ZM70.7047 51.2607C70.8264 37.3234 56.2315 27.7435 43.2441 32.9755C35.9467 35.7923 30.8146 43.147 30.8014 50.8967C30.6221 64.8828 44.9817 74.5309 58.1155 69.3867C65.5216 66.5764 70.7359 59.1112 70.7047 51.2607Z" fill="#161616"/>
</g>
<g style="mix-blend-mode:multiply" opacity="0.5">
<path d="M64.5591 64.5418C72.4088 56.7878 72.4088 44.2161 64.5591 36.4621C56.7094 28.7082 43.9824 28.7082 36.1327 36.4621C28.2829 44.2161 28.2829 56.7878 36.1327 64.5418C43.9824 72.2957 56.7093 72.2957 64.5591 64.5418Z" fill="#161616"/>
</g>
<path d="M67.7493 42.7603C72.2873 52.111 68.2923 63.3243 58.8278 67.8054C49.3616 72.2865 38.0115 68.3401 33.4734 58.9895C28.9369 49.6404 32.932 38.4288 42.3965 33.946C51.8627 29.4649 63.2128 33.4113 67.7493 42.7603Z" fill="url(#paint12_radial_0_1)"/>
<path style="mix-blend-mode:color-burn" opacity="0.6" d="M67.7493 42.7603C72.2873 52.111 68.2923 63.3243 58.8278 67.8054C49.3616 72.2865 38.0115 68.3401 33.4734 58.9895C28.9369 49.6404 32.932 38.4288 42.3965 33.946C51.8627 29.4649 63.2128 33.4113 67.7493 42.7603Z" fill="url(#paint13_linear_0_1)"/>
<g style="mix-blend-mode:overlay" opacity="0.6">
<path d="M42.429 42.1212C51.6171 37.6319 62.75 41.3491 67.2947 50.4251C67.9282 51.6912 68.3955 52.9948 68.7131 54.3129C69.4074 50.5649 68.9303 46.5746 67.089 42.8981C62.5444 33.8221 51.4114 30.1049 42.2233 34.5941C34.3171 38.4576 30.4322 47.1402 32.3969 55.2703C33.417 49.7668 36.9629 44.7932 42.429 42.1212Z" fill="#FF0000"/>
</g>
<path style="mix-blend-mode:color-burn" opacity="0.6" d="M67.7505 42.7591C72.2869 52.1097 68.2935 63.3214 58.8273 67.8025C49.3612 72.2852 38.011 68.3389 33.4746 58.9882C28.9382 49.6376 32.9333 38.4259 42.3978 33.9448C51.8622 29.4621 63.2141 33.4101 67.7505 42.7591Z" fill="url(#paint14_linear_0_1)"/>
<path opacity="0.1" d="M58.6497 65.4712C49.279 69.9084 38.1131 66.149 33.71 57.073C32.8988 55.4021 32.3805 53.6679 32.1238 51.9223C32.2455 54.2156 32.8149 56.522 33.8794 58.7162C38.2826 67.7906 49.4501 71.5516 58.8192 67.1144C66.4885 63.4834 70.5774 55.4883 69.396 47.7305C69.8106 54.9503 65.7777 62.097 58.6497 65.4712Z" fill="#F4DDC1"/>
<g style="mix-blend-mode:soft-light" opacity="0.7">
<path d="M44.8477 35.7325C54.5821 32.2429 65.3382 37.2083 68.8693 46.8255C68.9927 47.1587 69.1046 47.4952 69.2066 47.83C69.0207 46.8483 68.7541 45.8682 68.3987 44.8978C64.866 35.2823 54.1098 30.3168 44.3771 33.8048C34.9817 37.1742 29.9731 47.1896 32.8131 56.5289C31.1545 47.7747 36.0973 38.8694 44.8494 35.7325H44.8477Z" fill="#FF0000"/>
</g>
<path d="M58.7796 67.818C49.3299 72.2926 37.9567 68.3381 33.4269 59.0037C28.897 49.6709 32.9003 38.4349 42.35 33.9603C51.7997 29.4857 63.1729 33.4402 67.7028 42.7746C72.2326 52.1106 68.2293 63.3434 58.7796 67.818ZM43.4064 36.135C35.171 40.0358 31.6827 49.8253 35.6301 57.9602C39.5775 66.0951 49.4895 69.5425 57.7249 65.6416C65.9603 61.7424 69.4486 51.9513 65.5012 43.8164C61.5538 35.6815 51.6418 32.2358 43.4064 36.1334V36.135Z" fill="#FD3913"/>
<path style="mix-blend-mode:screen" d="M49.8779 68.3407C59.6833 68.3407 67.6321 60.4889 67.6321 50.8032C67.6321 41.1174 59.6833 33.2656 49.8779 33.2656C40.0726 33.2656 32.1238 41.1174 32.1238 50.8032C32.1238 60.4889 40.0726 68.3407 49.8779 68.3407Z" fill="url(#paint15_radial_0_1)"/>
<path d="M49.24 63.7859C49.9495 63.1917 50.7588 62.8595 50.6256 62.9374C50.7749 62.8522 50.9597 62.8596 51.1055 62.9568L52.4129 63.8469L51.1 63.1907C50.9572 63.1174 50.7918 63.1147 50.6434 63.1801L49.2478 63.7863" fill="black"/>
<path d="M51.0305 60.661C51.0108 61.3151 50.9833 62.2468 50.9715 62.5956L50.8573 60.6372C50.8337 60.2526 50.5148 59.9513 50.133 59.9553C49.0977 59.9711 47.346 60.209 48.3104 61.7472C49.578 63.7771 50.7628 63.7374 50.8652 63.7295C50.8849 63.8048 50.9912 63.8048 51.0108 63.7295C51.1093 63.7334 52.2941 63.781 53.5656 61.7433C54.5182 60.2169 52.8098 59.9711 51.7706 59.9513C51.373 59.9434 51.0463 60.2566 51.0345 60.657L51.0305 60.661Z" fill="black"/>
<path d="M59.4271 48.5858C59.4271 48.5858 58.7776 50.3817 57.0376 51.5631C57.0376 51.5631 58.7382 49.8108 59.2263 48.1774C59.2263 48.1774 60.238 45.5688 58.9823 42.9166C57.7265 40.2643 56.9983 38.4724 57.2817 37.2077C57.5376 36.058 53.9829 44.209 53.546 48.0625C53.6169 47.0277 53.8334 45.3111 54.4986 43.3883C54.4986 43.3883 53.2508 45.775 53.1799 48.6572C52.8729 48.2409 52.2785 47.7215 52.3769 48.5224C51.81 47.896 51.2747 47.8524 51.2747 47.8524C51.9793 48.4193 52.3493 48.9585 52.5461 49.3509C52.5579 49.3827 52.5698 49.4104 52.5816 49.4382C52.9044 50.2112 52.9477 50.905 52.7036 51.8843C52.4595 52.8635 53.3531 53.3511 53.3531 53.3511C53.3531 53.3511 54.8923 53.5533 55.7032 55.9597C55.7032 55.9597 55.4198 55.266 54.6915 54.7347C54.6915 54.7347 54.5301 58.3662 54.6088 59.056C54.6915 59.7498 54.8529 60.1581 55.0143 60.0352C55.1757 59.9123 55.4985 58.6477 56.1874 57.7121C56.8448 56.8161 57.6439 55.7377 56.9117 53.3075C56.8763 53.1925 56.8369 53.0776 56.7897 52.9666C56.8881 53.0657 57.2345 53.2679 57.4589 54.4215C57.4589 54.4215 57.5691 54.037 57.4589 53.5216C57.4037 53.2679 57.3447 53.0062 57.3368 52.7802C57.3329 52.6454 57.388 52.5186 57.4903 52.4313C57.9352 52.0508 59.1279 50.9248 59.4665 49.5531C59.6554 48.7919 59.4271 48.5739 59.4271 48.5739V48.5858ZM54.4002 50.7266C54.349 51.016 54.1562 51.2618 53.8885 51.3768L53.2468 51.6583L53.3137 51.4759C53.5342 50.8971 53.8806 50.3738 54.3254 49.9496L54.5813 49.7038L54.3963 50.7227L54.4002 50.7266Z" fill="black"/>
<path d="M49.3811 48.5224C49.4795 47.7215 48.8851 48.2409 48.5781 48.6572C48.5072 45.775 47.2594 43.3883 47.2594 43.3883C47.9246 45.3072 48.1411 47.0277 48.212 48.0625C47.7751 44.209 44.2204 36.058 44.4763 37.2077C44.7597 38.4724 44.0315 40.2683 42.7757 42.9166C41.52 45.5688 42.5317 48.1774 42.5317 48.1774C43.0159 49.8069 44.7204 51.5631 44.7204 51.5631C42.9804 50.3817 42.3309 48.5858 42.3309 48.5858C42.3309 48.5858 42.1026 48.8038 42.2916 49.565C42.6301 50.9407 43.8228 52.0626 44.2677 52.4432C44.37 52.5305 44.4251 52.6573 44.4212 52.7921C44.4133 53.0181 44.3543 53.2758 44.2992 53.5335C44.1889 54.0489 44.2992 54.4334 44.2992 54.4334C44.5235 53.2798 44.8699 53.0776 44.9684 52.9784C44.9211 53.0895 44.8817 53.2044 44.8463 53.3194C44.1141 55.7496 44.9172 56.828 45.5706 57.7239C46.2595 58.6635 46.5823 59.9282 46.7437 60.0471C46.9051 60.17 47.0665 59.7617 47.1492 59.0679C47.2318 58.3741 47.0665 54.7466 47.0665 54.7466C46.3382 55.2779 46.0548 55.9716 46.0548 55.9716C46.8657 53.5652 48.4049 53.363 48.4049 53.363C48.4049 53.363 49.2945 52.8754 49.0544 51.8961C48.8103 50.9169 48.8536 50.2231 49.1764 49.4501C49.1882 49.4223 49.2001 49.3906 49.2119 49.3628C49.4087 48.9703 49.7827 48.4312 50.4833 47.8643C50.4833 47.8643 49.9519 47.9079 49.3811 48.5343V48.5224ZM47.716 51.4561C47.4483 51.3372 47.2594 51.0953 47.2082 50.8099L47.0271 49.795L47.283 50.0368C47.7278 50.461 48.0703 50.9803 48.2907 51.5552L48.3577 51.7336L47.7199 51.4521L47.716 51.4561Z" fill="black"/>
<path d="M52.4554 63.8417C52.4554 63.8417 54.215 64.0677 54.4394 62.252L52.4554 63.8417Z" fill="black"/>
<path d="M49.2061 63.8417C49.2061 63.8417 47.4465 64.0677 47.2222 62.252L49.2061 63.8417Z" fill="black"/>
<path d="M33.4906 65.9798C37.5697 70.4853 43.1822 73.1525 49.2917 73.489C55.4011 73.8254 61.2786 71.7921 65.8397 67.7612C70.4009 63.732 73.101 58.1879 73.4416 52.153C73.7822 46.118 71.7238 40.3123 67.6431 35.8068C63.5641 31.3013 57.9516 28.6341 51.8421 28.2977C45.7326 27.9612 39.8552 29.9945 35.294 34.0254C30.7329 38.0547 28.0328 43.5987 27.6922 49.6337C27.3516 55.6686 29.41 61.4744 33.4906 65.9798ZM35.3599 64.3285C31.7268 60.3155 29.8937 55.1469 30.1965 49.7718C30.4993 44.3968 32.9049 39.4606 36.9658 35.8718C41.0267 32.283 46.2608 30.4724 51.7022 30.7715C57.1437 31.0705 62.1408 33.4468 65.7739 37.4582C69.407 41.4712 71.24 46.6398 70.9373 52.0148C70.6345 57.3899 68.2289 62.326 64.168 65.9148C60.1071 69.5036 54.873 71.3142 49.4315 71.0152C43.9901 70.7161 38.993 68.3398 35.3599 64.3285Z" fill="white"/>
<path d="M35.3882 34.1282C39.9213 30.1233 45.7626 28.1014 51.8359 28.4362C56.6438 28.7011 61.1408 30.4078 64.8512 33.3724C65.2214 33.691 64.8594 36.3354 64.4678 35.9535C60.9828 32.7824 56.471 30.8986 51.7108 30.6353C46.2332 30.333 40.9629 32.1566 36.8724 35.7698C32.7818 39.3829 30.3614 44.3533 30.057 49.7641C29.7855 54.5784 31.2466 59.3065 34.1788 63.1277C34.3104 63.4073 31.7485 63.63 31.6086 63.3569C28.8591 59.2968 27.5543 54.5572 27.8324 49.6405C28.1713 43.6414 30.855 38.1331 35.3882 34.1266V34.1282Z" fill="url(#paint16_linear_0_1)"/>
<path d="M35.3882 34.1282C39.9213 30.1233 45.7626 28.1014 51.8359 28.4362C56.6438 28.7011 61.1408 30.4078 64.8512 33.3724C67.7554 35.7925 66.7813 38.268 64.4678 35.9535C60.9828 32.7824 56.471 30.8986 51.7108 30.6353C46.2332 30.333 40.9629 32.1566 36.8724 35.7698C32.7818 39.3829 30.3614 44.3533 30.057 49.7641C29.7855 54.5784 31.2466 59.3065 34.1788 63.1277C37.1488 67.3634 34.9225 68.0541 31.6086 63.3569C28.8591 59.2968 27.5543 54.5572 27.8324 49.6405C28.1713 43.6414 30.855 38.133 35.3882 34.1266V34.1282Z" fill="url(#paint17_linear_0_1)"/>
<path d="M32.7584 40.1231C35.2792 36.0403 39.1278 32.983 43.7663 31.4226C48.2764 29.9045 53.2028 29.9679 57.6504 31.5982C61.5303 33.2593 60.005 30.5092 56.9873 29.4901C52.4673 28.1297 47.6939 28.2126 43.1838 29.729C37.4791 31.6486 32.8719 35.6469 30.2129 40.9878C29.7884 41.8411 29.4215 42.7107 29.1138 43.5949C30.2804 42.28 31.5062 41.1146 32.76 40.1215L32.7584 40.1231Z" fill="url(#paint18_linear_0_1)"/>
<path d="M35.3247 34.2691C38.117 31.8018 41.4128 30.0984 45.1199 29.2045C46.8131 28.8534 48.493 29.1264 48.9472 29.5897C49.0673 29.7116 49.0673 29.8221 49.0459 29.8936C49.0327 29.9359 48.9998 30.0025 48.9126 30.0789C48.6214 30.3373 47.9122 30.5438 46.8641 30.677H46.8558C43.0039 31.3759 39.4366 33.0939 36.5489 35.6457C35.8545 36.2585 35.1996 36.9233 34.6007 37.6189C32.7644 39.753 31.4316 42.1699 30.6385 44.803C30.0676 46.6998 28.3464 54.5096 28.3464 54.5096C28.2362 53.9342 28.1473 53.3491 28.0848 52.7704C27.7673 49.8757 28.0239 47.0183 28.8499 44.2796C29.7138 41.4141 31.1634 38.7843 33.1626 36.4617C33.8307 35.6847 34.5579 34.9468 35.3231 34.2723L35.3247 34.2691Z" fill="url(#paint19_linear_0_1)"/>
<path d="M71.2949 42.5511C72.371 45.4084 72.8498 48.482 72.6721 51.6189C72.3348 57.5986 69.6593 63.0923 65.1394 67.0841C60.6194 71.0776 54.7962 73.0931 48.7427 72.7582C45.567 72.5827 42.5295 71.7717 39.7735 70.3982C38.9244 69.9675 39.005 70.2698 39.525 70.6176C42.5016 72.2658 45.8401 73.2345 49.3465 73.4279C55.4001 73.7611 61.2249 71.7456 65.7432 67.7538C70.2616 63.7619 72.9387 58.2682 73.276 52.2885C73.4718 48.8249 72.8679 45.4393 71.5417 42.3349C71.2373 41.727 71.0431 41.9286 71.2932 42.5543L71.2949 42.5511Z" fill="url(#paint20_linear_0_1)"/>
<path d="M41.6174 32.3911C37.229 34.4114 33.7259 37.849 31.6412 42.231C29.6124 46.491 29.1286 51.3329 30.2738 55.879C31.5145 59.8725 28.9163 58.0684 28.2269 54.9932C27.3598 50.4049 27.9752 45.7287 30.0023 41.4687C32.5675 36.0823 37.1023 32.0042 42.7725 29.9872C43.6775 29.6654 44.594 29.4021 45.5187 29.1973C44.0658 30.1969 42.7577 31.2696 41.6174 32.3911Z" fill="url(#paint21_linear_0_1)"/>
<path d="M29.6679 42.1331C32.2331 36.7467 36.7679 32.6687 42.438 30.6516C42.9316 30.4761 43.4302 30.3184 43.9304 30.177C45.6186 29.3692 46.2208 28.9531 45.5298 29.0019C44.6067 29.2067 43.6885 29.47 42.7836 29.7918C37.1134 31.8089 32.5786 35.8869 30.0134 41.2733C29.7419 41.8438 29.4967 42.4208 29.2762 43.0043C29.4013 42.7117 29.5313 42.4208 29.6679 42.1331Z" fill="white"/>
<path d="M29.9378 56.5427C30.127 57.1522 30.2274 57.6268 30.257 57.9827C30.6503 57.9941 30.7951 57.3358 30.2817 55.6829C29.278 51.6991 29.5265 47.4878 30.9679 43.6406C29.227 47.7138 28.8584 52.2582 29.9362 56.541L29.9378 56.5427Z" fill="white"/>
<path d="M44.2385 72.1606C48.7585 73.521 53.5319 73.4381 58.042 71.9217C59.0638 71.5787 60.0494 71.1659 60.9955 70.6945C61.007 70.688 61.0202 70.6831 61.0317 70.6766C61.1453 70.6198 61.2571 70.5612 61.369 70.5027C61.4365 70.467 61.504 70.4328 61.5714 70.3971C61.6257 70.3678 61.6817 70.3369 61.736 70.3077C65.8693 68.0582 69.1733 64.5946 71.2202 60.2939C73.249 56.0338 73.8628 51.3577 72.9956 46.7693C72.3078 43.6942 69.7097 41.8916 70.9487 45.8835C72.0939 50.4296 71.6085 55.2732 69.5814 59.5316C69.2605 60.2061 68.9051 60.8579 68.5184 61.4853C68.5003 61.4999 68.4839 61.5145 68.4658 61.5275C66.6558 64.4597 64.1597 66.8636 61.1782 68.5621C60.6664 68.8514 60.1416 69.1212 59.6035 69.3699C59.6019 69.3715 59.5986 69.3747 59.5969 69.3764C58.9042 69.6966 58.1901 69.981 57.4562 70.228C52.9461 71.7461 48.0197 71.6827 43.5721 70.0525C39.6922 68.3914 41.2175 71.1415 44.2352 72.1606H44.2385Z" fill="url(#paint22_linear_0_1)"/>
<path d="M71.6382 47.3477C72.3458 51.9621 71.5724 56.6155 69.3972 60.804C67.2022 65.0332 63.7813 68.3846 59.574 70.4927C59.518 70.5203 59.4621 70.5496 59.4061 70.5772C59.337 70.6114 59.2696 70.6439 59.2004 70.6764C59.0869 70.7316 58.9717 70.7853 58.8582 70.8389C58.845 70.8454 58.8335 70.8503 58.8203 70.8552C58.6048 70.9543 58.386 71.0486 58.1671 71.1412C58.6854 70.9901 59.1972 70.8194 59.6974 70.6309C59.699 70.6292 59.7023 70.6276 59.7039 70.6244C60.2601 70.4163 60.8031 70.1855 61.3346 69.932C64.4329 68.4513 67.1001 66.2343 69.1224 63.4403C69.1405 63.4273 69.1586 63.4143 69.1783 63.4013C69.6094 62.8032 70.0125 62.179 70.3828 61.5289C72.7193 57.4265 73.5601 52.6317 72.7538 48.0157C72.4708 46.7918 71.4671 46.4343 71.6382 47.3445V47.3477Z" fill="url(#paint23_linear_0_1)"/>
<defs>
<filter id="filter0_f_0_1" x="11.906" y="12.2676" width="81.087" height="81.0879" filterUnits="userSpaceOnUse" color-interpolation-filters="sRGB">
<feFlood flood-opacity="0" result="BackgroundImageFix"/>
<feBlend mode="normal" in="SourceGraphic" in2="BackgroundImageFix" result="shape"/>
<feGaussianBlur stdDeviation="2" result="effect1_foregroundBlur_0_1"/>
</filter>
<filter id="filter1_d_0_1" x="14.6025" y="16.7695" width="76.553" height="76.3164" filterUnits="userSpaceOnUse" color-interpolation-filters="sRGB">
<feFlood flood-opacity="0" result="BackgroundImageFix"/>
<feColorMatrix in="SourceAlpha" type="matrix" values="0 0 0 0 0 0 0 0 0 0 0 0 0 0 0 0 0 0 127 0" result="hardAlpha"/>
<feOffset dx="2" dy="4"/>
<feGaussianBlur stdDeviation="2"/>
<feComposite in2="hardAlpha" operator="out"/>
<feColorMatrix type="matrix" values="0 0 0 0 0 0 0 0 0 0 0 0 0 0 0 0 0 0 0.25 0"/>
<feBlend mode="normal" in2="BackgroundImageFix" result="effect1_dropShadow_0_1"/>
<feBlend mode="normal" in="SourceGraphic" in2="effect1_dropShadow_0_1" result="shape"/>
</filter>
<linearGradient id="paint0_linear_0_1" x1="58.2539" y1="17.4357" x2="43.517" y2="85.6919" gradientUnits="userSpaceOnUse">
<stop stop-color="white"/>
<stop offset="0.16" stop-color="#FBFBFB"/>
<stop offset="0.29" stop-color="#F1F1F1"/>
<stop offset="0.41" stop-color="#E0E0E0"/>
<stop offset="0.52" stop-color="#C7C7C7"/>
<stop offset="0.63" stop-color="#A8A8A8"/>
<stop offset="0.74" stop-color="#818181"/>
<stop offset="0.84" stop-color="#535353"/>
<stop offset="0.94" stop-color="#202020"/>
<stop offset="1"/>
</linearGradient>
<linearGradient id="paint1_linear_0_1" x1="46.3354" y1="80.1124" x2="55.8871" y2="17.3343" gradientUnits="userSpaceOnUse">
<stop offset="0.16" stop-color="#868382"/>
<stop offset="0.23" stop-color="#949393"/>
<stop offset="0.28" stop-color="#999999"/>
<stop offset="0.75" stop-color="#CCCCCC"/>
<stop offset="0.79" stop-color="#C2C2C1"/>
<stop offset="0.84" stop-color="#AAA7A5"/>
<stop offset="0.92" stop-color="#837B78"/>
</linearGradient>
<linearGradient id="paint2_linear_0_1" x1="36.8834" y1="26.89" x2="64.5595" y2="74.9798" gradientUnits="userSpaceOnUse">
<stop stop-color="#534741"/>
<stop offset="0.37" stop-color="#999999"/>
<stop offset="0.58" stop-color="#CCCCCC"/>
<stop offset="0.62" stop-color="#C2C2C1"/>
<stop offset="0.7" stop-color="#AAA7A5"/>
<stop offset="0.8" stop-color="#837B78"/>
<stop offset="0.9" stop-color="#534741"/>
</linearGradient>
<radialGradient id="paint3_radial_0_1" cx="0" cy="0" r="1" gradientUnits="userSpaceOnUse" gradientTransform="translate(46.6901 55.3362) rotate(-25.5386) scale(24.8942 24.8443)">
<stop stop-color="#0007D4"/>
<stop offset="0.23" stop-color="#00049E"/>
<stop offset="0.47" stop-color="#00026C"/>
<stop offset="0.69" stop-color="#000148"/>
<stop offset="0.86" stop-color="#000032"/>
<stop offset="0.97" stop-color="#01002A"/>
</radialGradient>
<linearGradient id="paint4_linear_0_1" x1="27.0484" y1="62.0323" x2="74.4039" y2="39.2604" gradientUnits="userSpaceOnUse">
<stop stop-color="#E8DEED"/>
<stop offset="1" stop-color="#0000FF" stop-opacity="0"/>
</linearGradient>
<linearGradient id="paint5_linear_0_1" x1="27.0475" y1="62.0324" x2="74.4038" y2="39.2602" gradientUnits="userSpaceOnUse">
<stop stop-color="#E8DEED"/>
<stop offset="1" stop-color="#0000FF" stop-opacity="0"/>
</linearGradient>
<linearGradient id="paint6_linear_0_1" x1="27.5023" y1="65.8374" x2="39.0485" y2="24.8211" gradientUnits="userSpaceOnUse">
<stop stop-color="white" stop-opacity="0.3"/>
<stop offset="0.92" stop-opacity="0"/>
</linearGradient>
<linearGradient id="paint7_linear_0_1" x1="77.5002" y1="42.3633" x2="54.2321" y2="77.6301" gradientUnits="userSpaceOnUse">
<stop stop-color="white" stop-opacity="0.6"/>
<stop offset="1" stop-opacity="0"/>
</linearGradient>
<radialGradient id="paint8_radial_0_1" cx="0" cy="0" r="1" gradientUnits="userSpaceOnUse" gradientTransform="translate(50.5335 48.6345) scale(24.5587 24.4802)">
<stop stop-color="#FF0000"/>
<stop offset="1"/>
</radialGradient>
<linearGradient id="paint9_linear_0_1" x1="56.0335" y1="27.0341" x2="45.5638" y2="75.9714" gradientUnits="userSpaceOnUse">
<stop stop-color="white"/>
<stop offset="0.16" stop-color="#FBFBFB"/>
<stop offset="0.29" stop-color="#F1F1F1"/>
<stop offset="0.41" stop-color="#E0E0E0"/>
<stop offset="0.52" stop-color="#C7C7C7"/>
<stop offset="0.63" stop-color="#A8A8A8"/>
<stop offset="0.74" stop-color="#818181"/>
<stop offset="0.84" stop-color="#535353"/>
<stop offset="0.94" stop-color="#202020"/>
<stop offset="1"/>
</linearGradient>
<linearGradient id="paint10_linear_0_1" x1="47.4181" y1="71.9345" x2="54.2019" y2="26.9427" gradientUnits="userSpaceOnUse">
<stop stop-color="#534741"/>
<stop offset="0.08" stop-color="#706966"/>
<stop offset="0.16" stop-color="#868382"/>
<stop offset="0.23" stop-color="#949393"/>
<stop offset="0.28" stop-color="#999999"/>
<stop offset="0.75" stop-color="#CCCCCC"/>
<stop offset="0.79" stop-color="#C2C2C1"/>
<stop offset="0.84" stop-color="#AAA7A5"/>
<stop offset="0.92" stop-color="#837B78"/>
<stop offset="1" stop-color="#534741"/>
</linearGradient>
<linearGradient id="paint11_linear_0_1" x1="40.585" y1="33.8058" x2="60.3209" y2="68.4129" gradientUnits="userSpaceOnUse">
<stop stop-color="#534741"/>
<stop offset="0.37" stop-color="#999999"/>
<stop offset="0.58" stop-color="#CCCCCC"/>
<stop offset="0.62" stop-color="#C2C2C1"/>
<stop offset="0.7" stop-color="#AAA7A5"/>
<stop offset="0.8" stop-color="#837B78"/>
<stop offset="0.9" stop-color="#534741"/>
</linearGradient>
<radialGradient id="paint12_radial_0_1" cx="0" cy="0" r="1" gradientUnits="userSpaceOnUse" gradientTransform="translate(47.6633 54.1742) rotate(-25.3369) scale(17.9667 17.8283)">
<stop stop-color="#FD3913"/>
<stop offset="0.97" stop-color="#110909"/>
</radialGradient>
<linearGradient id="paint13_linear_0_1" x1="33.463" y1="58.971" x2="67.5812" y2="42.415" gradientUnits="userSpaceOnUse">
<stop stop-color="#E8DEED"/>
<stop offset="1" stop-color="#0000FF" stop-opacity="0"/>
</linearGradient>
<linearGradient id="paint14_linear_0_1" x1="33.4625" y1="58.9698" x2="67.5808" y2="42.4138" gradientUnits="userSpaceOnUse">
<stop stop-color="#E8DEED"/>
<stop offset="1" stop-color="#0000FF" stop-opacity="0"/>
</linearGradient>
<radialGradient id="paint15_radial_0_1" cx="0" cy="0" r="1" gradientUnits="userSpaceOnUse" gradientTransform="translate(49.8779 50.8032) scale(17.7542 17.5375)">
<stop offset="0.02" stop-color="#FF0000"/>
<stop offset="1" stop-color="#1F0202"/>
</radialGradient>
<linearGradient id="paint16_linear_0_1" x1="35.3604" y1="34.1423" x2="49.2457" y2="49.8585" gradientUnits="userSpaceOnUse">
<stop stop-color="#989899"/>
<stop offset="0.53" stop-color="#161616"/>
<stop offset="0.96"/>
</linearGradient>
<linearGradient id="paint17_linear_0_1" x1="35.3371" y1="34.1629" x2="51.4211" y2="52.3676" gradientUnits="userSpaceOnUse">
<stop stop-color="#989899"/>
<stop offset="0.53" stop-color="#161616"/>
<stop offset="0.96"/>
</linearGradient>
<linearGradient id="paint18_linear_0_1" x1="55.2452" y1="26.3806" x2="32.2764" y2="47.1781" gradientUnits="userSpaceOnUse">
<stop stop-color="white"/>
<stop offset="0.3" stop-color="#929292"/>
<stop offset="0.55" stop-color="#383838"/>
<stop offset="0.67" stop-color="#161616"/>
<stop offset="0.96"/>
</linearGradient>
<linearGradient id="paint19_linear_0_1" x1="82.0417" y1="-4.32225" x2="58.4345" y2="17.5923" gradientUnits="userSpaceOnUse">
<stop offset="0.04"/>
<stop offset="1" stop-color="#161616"/>
</linearGradient>
<linearGradient id="paint20_linear_0_1" x1="59.2604" y1="40.2996" x2="54.4287" y2="74.2759" gradientUnits="userSpaceOnUse">
<stop stop-color="#DADAE9"/>
<stop offset="0.28" stop-color="#EAEAF4"/>
<stop offset="0.5" stop-color="#E7E7F2"/>
<stop offset="0.71" stop-color="#DADAE9"/>
<stop offset="1" stop-color="#EAEAF4"/>
</linearGradient>
<linearGradient id="paint21_linear_0_1" x1="48.4293" y1="32.4977" x2="25.4593" y2="53.2962" gradientUnits="userSpaceOnUse">
<stop offset="0.04"/>
<stop offset="0.47" stop-color="#161616"/>
<stop offset="0.99" stop-color="#9797A0"/>
</linearGradient>
<linearGradient id="paint22_linear_0_1" x1="75.9179" y1="48.8047" x2="46.2143" y2="75.7002" gradientUnits="userSpaceOnUse">
<stop stop-color="#D4D4D8"/>
<stop offset="0.27"/>
<stop offset="0.49" stop-color="#72727A"/>
<stop offset="0.76" stop-color="#131313"/>
<stop offset="1" stop-color="#D4D4D8"/>
</linearGradient>
<linearGradient id="paint23_linear_0_1" x1="75.6417" y1="50.8715" x2="55.9129" y2="68.7352" gradientUnits="userSpaceOnUse">
<stop offset="0.47" stop-color="#E8E8EF"/>
<stop offset="1"/>
</linearGradient>
</defs>
</svg>
