<svg width="160" height="49" viewBox="0 0 160 49" fill="none" xmlns="http://www.w3.org/2000/svg">
<path d="M4.32374 19.1078C4.32889 16.1803 5.16891 13.7356 6.57065 11.8558C6.84894 11.486 7.15299 11.1522 7.4725 10.8337L5.40081 7.07422C4.97823 7.5005 4.57626 7.96274 4.20006 8.46606C2.18506 11.1316 0.901844 14.8757 0.906998 19.1078V25.6407L4.32374 25.4815V19.1078Z" fill="#AB8780"/>
<path d="M12.1929 40.5171C12.1208 40.5069 12.0538 40.4966 11.9817 40.4863L11.4663 45.1446C11.6158 45.1652 11.7601 45.196 11.9095 45.2114C19.7891 46.1102 28.7304 47.0039 39.3001 47.6459L39.3929 42.9362C28.9056 42.2942 20.0314 41.4057 12.1929 40.5171Z" fill="#7D7879"/>
<path d="M39.3931 42.9434L39.3003 47.653C41.8255 47.8071 44.4434 47.9458 47.1593 48.0639L47.2933 43.3594C44.562 43.2361 41.9286 43.0974 39.3879 42.9434H39.3931Z" fill="#8F8C8C"/>
<path d="M80.827 43.8059C77.5958 43.8521 74.4728 43.8727 71.4528 43.8727C62.5734 43.8727 54.5701 43.6775 47.2934 43.3539L47.1594 48.0585C54.4825 48.3872 62.527 48.5824 71.4528 48.5824C74.4882 48.5824 77.6215 48.5618 80.863 48.5105C93.69 48.3204 104.296 48.2074 113.531 47.9506L113.454 43.2461C104.255 43.4978 93.6591 43.6107 80.827 43.8008V43.8059Z" fill="#8F8C8C"/>
<path d="M113.454 43.2518L113.531 47.9563C125.858 47.6174 135.732 47.0216 145.168 45.6554L144.781 40.9766C135.505 42.3222 125.724 42.9077 113.454 43.2467V43.2518Z" fill="#545558"/>
<path d="M153.743 36.5715C153.635 36.7308 153.532 36.89 153.413 37.0441C153.027 37.5525 152.584 38.0147 152.11 38.4308L154.3 42.0824C154.82 41.5894 155.31 41.0501 155.763 40.4595C156.031 40.1154 156.284 39.7507 156.521 39.3655L153.738 36.5664L153.743 36.5715Z" fill="black"/>
<path d="M155.66 20.268V29.9082C155.655 32.5892 154.949 34.7925 153.743 36.5747L156.526 39.3738C158.103 36.8623 159.087 33.5856 159.077 29.9133V19.6055L155.66 20.2783V20.268Z" fill="#3B2521"/>
<path d="M79.4817 0.966797C65.0108 0.966797 52.8589 1.18251 42.2634 1.60879L42.4799 6.3082C53.0032 5.88705 65.0829 5.67648 79.4766 5.67648H82.1357C83.6302 5.67648 85.0938 5.67648 86.5368 5.67648V0.966797C84.2487 0.966797 81.8935 0.966797 79.4766 0.966797H79.4817Z" fill="white"/>
<path d="M13.1877 3.65862L13.5485 8.34262C22.0311 7.42842 31.3898 6.75561 42.48 6.30878L42.2636 1.60938C31.1372 2.0562 21.727 2.73929 13.1877 3.66376V3.65862Z" fill="white"/>
<path d="M126.471 1.59852C115.469 1.04384 102.513 0.977069 86.5422 0.966797V5.67134C102.513 5.68161 115.443 5.74838 126.358 6.29793L126.471 1.59338V1.59852Z" fill="#E4D8D5"/>
<path d="M148.146 3.80807C141.71 2.68843 134.629 2.01049 126.471 1.59961L126.357 6.30415C134.443 6.70989 141.426 7.37757 147.719 8.4818C148.162 8.55884 148.595 8.67697 149.017 8.82077L150.099 4.34221C149.46 4.1111 148.811 3.9262 148.146 3.81321V3.80807Z" fill="white"/>
<path d="M156 8.89226C155.923 8.78441 155.846 8.67655 155.763 8.56869C154.207 6.54512 152.249 5.12246 150.1 4.3418L149.017 8.82036C150.615 9.35963 152.042 10.3509 153.14 11.6605L156 8.89226Z" fill="#D3C0BC"/>
<path d="M156 8.89381L153.14 11.6621C153.233 11.7699 153.331 11.8778 153.413 11.9908C154.82 13.8449 155.65 16.1817 155.66 19.1092V20.27L159.077 19.5972V19.1041C159.087 15.0364 157.881 11.4772 156 8.88867V8.89381Z" fill="#8A574D"/>
<path d="M147.729 40.531C146.75 40.6902 145.77 40.8392 144.781 40.983L145.168 45.6618C146.157 45.518 147.146 45.3691 148.131 45.2099C150.388 44.835 152.516 43.7718 154.299 42.0872L152.109 38.4355C150.867 39.5244 149.362 40.2691 147.729 40.531Z" fill="black"/>
<path d="M8.04946 38.6934L6.31274 42.761C7.84332 44.0296 9.6058 44.8462 11.4714 45.1441L11.9867 40.4858C10.5334 40.2804 9.18837 39.6435 8.04946 38.6934Z" fill="#5C5A5B"/>
<path d="M6.57065 37.1545C5.16891 35.2748 4.32889 32.8352 4.32374 29.9077V25.4805L0.906998 25.6397V29.9077C0.901844 34.1346 2.18506 37.8787 4.20006 40.5443C4.83909 41.3865 5.54511 42.1313 6.30782 42.763L8.04454 38.6953C7.50343 38.2433 7.00354 37.7349 6.57065 37.1545Z" fill="#8A574D"/>
<path d="M12.1929 8.49115C12.6412 8.43979 13.0947 8.39356 13.5483 8.3422L13.1875 3.6582C12.7598 3.70443 12.3372 3.75065 11.9146 3.79687C9.49763 4.06908 7.24557 5.2144 5.40063 7.07362L7.47233 10.8331C8.77615 9.53888 10.4046 8.69145 12.1929 8.49115Z" fill="#D3C0BC"/>
<path d="M157.371 29.9072C157.371 37.0668 153.109 42.0178 147.935 42.8704C130.728 45.6952 112.618 45.6952 80.8526 46.1677C49.7669 46.6299 28.5862 44.7553 12.059 42.8704C6.86434 42.2798 2.62305 37.0668 2.62305 29.9072V19.1063C2.62305 11.9468 6.86434 6.7235 12.059 6.14314C28.9263 4.25824 49.0815 3.31836 79.4869 3.31836C109.892 3.31836 131.753 3.31836 147.94 6.14314C153.109 7.04707 157.376 11.9468 157.376 19.1063V29.9072H157.371Z" fill="url(#paint0_linear_0_1)"/>
<path d="M71.4478 46.5138C45.1394 46.5138 26.6488 44.8138 12.0388 43.1497C6.46273 42.5129 2.41211 36.9455 2.41211 29.9092V19.1083C2.41211 12.0566 6.46273 6.4892 12.0388 5.86775C29.5399 3.91095 50.3393 3.04297 79.4821 3.04297C110.965 3.04297 131.764 3.04297 147.961 5.86775C153.625 6.85385 157.578 12.3031 157.578 19.1083V29.9092C157.578 36.776 153.625 42.2201 147.961 43.1497C132.279 45.7228 116.015 45.9539 89.0675 46.3289C86.4341 46.3648 83.6976 46.4059 80.8529 46.447C77.6887 46.4932 74.5245 46.5189 71.453 46.5189L71.4478 46.5138ZM79.4821 3.60279C50.3496 3.60279 29.5605 4.4759 12.0697 6.42757C6.71009 7.02848 2.81923 12.3596 2.81923 19.1083V29.9092C2.81923 36.6424 6.71009 41.9787 12.0697 42.5899C26.6746 44.2539 45.1497 45.9539 71.4478 45.9539C74.5193 45.9539 77.6784 45.9283 80.8426 45.882C83.6873 45.841 86.4238 45.7999 89.0572 45.7639C115.994 45.3839 132.248 45.1579 147.905 42.5899C153.357 41.6962 157.16 36.4781 157.16 29.9092V19.1083C157.16 12.5959 153.352 7.37772 147.905 6.42757C131.733 3.60279 110.944 3.60279 79.4769 3.60279H79.4821Z" fill="black"/>
<path d="M71.4582 46.5138C45.1394 46.5138 26.654 44.8138 12.0388 43.1497C6.46273 42.5129 2.41211 36.9455 2.41211 29.9092V19.1083C2.41211 12.0566 6.46273 6.4892 12.0388 5.86775C29.5399 3.91095 50.3393 3.04297 79.4821 3.04297C110.965 3.04297 131.764 3.04297 147.961 5.86775C153.625 6.85385 157.578 12.3031 157.578 19.1083V29.9092C157.578 36.776 153.625 42.2201 147.961 43.1497C132.284 45.7228 116.015 45.9539 89.0727 46.3289C86.4393 46.3648 83.7028 46.4059 80.8581 46.447C77.6938 46.4932 74.5348 46.5189 71.4633 46.5189L71.4582 46.5138ZM79.4821 3.60279C50.3496 3.60279 29.5605 4.4759 12.0697 6.42757C6.71009 7.02334 2.81923 12.3596 2.81923 19.1083V29.9092C2.81923 36.6424 6.71009 41.9787 12.0697 42.5899C26.6746 44.2539 45.1497 45.9539 71.453 45.9539C74.5193 45.9539 77.6784 45.9334 80.8426 45.882C83.6873 45.841 86.4238 45.7999 89.0572 45.7639C115.989 45.3839 132.248 45.1579 147.905 42.5899C153.357 41.6962 157.16 36.4832 157.16 29.9092V19.1083C157.16 12.5907 153.352 7.37772 147.905 6.42757C131.733 3.60279 110.944 3.60279 79.4769 3.60279H79.4821Z" fill="black"/>
<path opacity="0.77" d="M147.497 8.01893C132.124 5.33283 106.955 5.01953 76.7762 5.01953C46.5975 5.01953 28.746 5.91319 12.7239 7.70564C7.78684 8.25519 3.75684 13.2165 3.75684 20.0165V28.5885C20.2067 23.4063 83.5839 18.8558 155.021 13.8739C153.413 10.664 150.63 8.56848 147.497 8.01893Z" fill="url(#paint1_linear_0_1)"/>
<defs>
<linearGradient id="paint0_linear_0_1" x1="80.4403" y1="3.50325" x2="79.5138" y2="47.2772" gradientUnits="userSpaceOnUse">
<stop offset="0.32" stop-color="#FA080F"/>
<stop offset="0.42" stop-color="#EC070E"/>
<stop offset="0.6" stop-color="#CA070B"/>
<stop offset="0.84" stop-color="#930608"/>
<stop offset="0.92" stop-color="#7E0607"/>
</linearGradient>
<linearGradient id="paint1_linear_0_1" x1="107.846" y1="-12.5249" x2="5.48688" y2="82.7656" gradientUnits="userSpaceOnUse">
<stop offset="0.03" stop-color="white"/>
<stop offset="0.68" stop-color="#FA080F"/>
<stop offset="1" stop-color="#7E0607"/>
</linearGradient>
</defs>
</svg>
