<svg width="566" height="131" viewBox="0 0 566 131" fill="none" xmlns="http://www.w3.org/2000/svg">
<path d="M265.914 56.6426H512.993C522.577 56.6426 530.349 66.6285 530.349 78.942V79.4928C530.349 91.8064 522.577 101.792 512.993 101.792H265.914C256.33 101.792 248.558 91.8064 248.558 79.4928V78.942C248.558 66.6285 256.33 56.6426 265.914 56.6426Z" fill="#424242"/>
<path d="M512.993 56.7129H265.928C256.358 56.7129 248.6 66.6808 248.6 78.9768V79.5098C248.6 91.8059 256.358 101.774 265.928 101.774H512.993C522.563 101.774 530.321 91.8059 530.321 79.5098V78.9768C530.321 66.6808 522.563 56.7129 512.993 56.7129Z" fill="#434343"/>
<path d="M512.993 56.7852H265.914C256.367 56.7852 248.627 66.7292 248.627 78.9958V79.5643C248.627 91.8309 256.367 101.775 265.914 101.775H512.993C522.54 101.775 530.28 91.8309 530.28 79.5643V78.9958C530.28 66.7292 522.54 56.7852 512.993 56.7852Z" fill="#444444"/>
<path d="M512.993 56.8574H265.915C256.383 56.8574 248.655 66.7855 248.655 79.0325V79.5833C248.655 91.8303 256.383 101.758 265.915 101.758H512.993C522.525 101.758 530.252 91.8303 530.252 79.5833V79.0325C530.252 66.7855 522.525 56.8574 512.993 56.8574Z" fill="#454545"/>
<path d="M512.979 56.9277H265.914C256.398 56.9277 248.683 66.8399 248.683 79.0673V79.6181C248.683 91.8454 256.398 101.758 265.914 101.758H512.979C522.496 101.758 530.211 91.8454 530.211 79.6181V79.0673C530.211 66.8399 522.496 56.9277 512.979 56.9277Z" fill="#464646"/>
<path d="M512.993 56.998H265.929C256.427 56.998 248.725 66.8943 248.725 79.102V79.6351C248.725 91.8428 256.427 101.739 265.929 101.739H512.993C522.495 101.739 530.197 91.8428 530.197 79.6351V79.102C530.197 66.8943 522.495 56.998 512.993 56.998Z" fill="#474747"/>
<path d="M512.992 57.0684H265.914C256.435 57.0684 248.752 66.9408 248.752 79.119V79.6699C248.752 91.8481 256.435 101.721 265.914 101.721H512.992C522.471 101.721 530.155 91.8481 530.155 79.6699V79.119C530.155 66.9408 522.471 57.0684 512.992 57.0684Z" fill="#484848"/>
<path d="M512.993 57.1406H265.915C256.451 57.1406 248.78 66.9971 248.78 79.1558V79.7066C248.78 91.8652 256.451 101.722 265.915 101.722H512.993C522.456 101.722 530.128 91.8652 530.128 79.7066V79.1558C530.128 66.9971 522.456 57.1406 512.993 57.1406Z" fill="#494949"/>
<path d="M265.914 57.2109H512.992C522.438 57.2109 530.1 67.0547 530.1 79.1905V79.7414C530.1 91.8772 522.438 101.721 512.992 101.721H265.914C256.468 101.721 248.807 91.8772 248.807 79.7414V79.1905C248.807 67.0547 256.468 57.2109 265.914 57.2109Z" fill="#4A4A4A"/>
<path d="M512.993 57.2812H265.914C256.489 57.2812 248.849 67.098 248.849 79.2076V79.7761C248.849 91.8857 256.489 101.702 265.914 101.702H512.993C522.418 101.702 530.059 91.8857 530.059 79.7761V79.2076C530.059 67.098 522.418 57.2812 512.993 57.2812Z" fill="#4B4B4B"/>
<path d="M512.993 57.3535H265.914C256.504 57.3535 248.876 67.1543 248.876 79.2443V79.7951C248.876 91.885 256.504 101.686 265.914 101.686H512.993C522.402 101.686 530.031 91.885 530.031 79.7951V79.2443C530.031 67.1543 522.402 57.3535 512.993 57.3535Z" fill="#4C4C4C"/>
<path d="M512.979 57.4258H265.914C256.52 57.4258 248.904 67.2107 248.904 79.281V79.8318C248.904 91.9021 256.52 101.687 265.914 101.687H512.979C522.374 101.687 529.989 91.9021 529.989 79.8318V79.281C529.989 67.2107 522.374 57.4258 512.979 57.4258Z" fill="#4D4D4D"/>
<path d="M513.006 57.4961H265.914C256.543 57.4961 248.945 67.2571 248.945 79.298V79.8666C248.945 91.9075 256.543 101.669 265.914 101.669H513.006C522.378 101.669 529.975 91.9075 529.975 79.8666V79.298C529.975 67.2571 522.378 57.4961 513.006 57.4961Z" fill="#4E4E4E"/>
<path d="M512.993 57.5664H265.914C256.558 57.5664 248.973 67.3116 248.973 79.3328V79.8836C248.973 91.9049 256.558 101.65 265.914 101.65H512.993C522.349 101.65 529.934 91.9049 529.934 79.8836V79.3328C529.934 67.3116 522.349 57.5664 512.993 57.5664Z" fill="#4F4F4F"/>
<path d="M512.993 57.6367H265.914C256.573 57.6367 249.001 67.366 249.001 79.3676V79.9184C249.001 91.92 256.573 101.649 265.914 101.649H512.993C522.334 101.649 529.906 91.92 529.906 79.9184V79.3676C529.906 67.366 522.334 57.6367 512.993 57.6367Z" fill="#505050"/>
<path d="M512.993 57.709H265.928C256.603 57.709 249.042 67.4223 249.042 79.4043V79.9374C249.042 91.9193 256.603 101.633 265.928 101.633H512.993C522.319 101.633 529.879 91.9193 529.879 79.9374V79.4043C529.879 67.4223 522.319 57.709 512.993 57.709Z" fill="#515151"/>
<path d="M265.914 57.7812H512.993C522.286 57.7812 529.837 67.4828 529.837 79.4233V79.9741C529.837 91.9145 522.286 101.616 512.993 101.616H265.914C256.621 101.616 249.07 91.9145 249.07 79.9741V79.4233C249.07 67.4828 256.621 57.7812 265.914 57.7812Z" fill="#525252"/>
<path d="M265.914 57.8477H512.992C522.272 57.8477 529.809 67.5315 529.809 79.4541V80.0049C529.809 91.9276 522.272 101.611 512.992 101.611H265.914C256.634 101.611 249.097 91.9276 249.097 80.0049V79.4541C249.097 67.5315 256.634 57.8477 265.914 57.8477Z" fill="#535353"/>
<path d="M512.979 57.9219H265.914C256.642 57.9219 249.125 67.5795 249.125 79.4928V80.0436C249.125 91.9569 256.642 101.615 265.914 101.615H512.979C522.251 101.615 529.768 91.9569 529.768 80.0436V79.4928C529.768 67.5795 522.251 57.9219 512.979 57.9219Z" fill="#545454"/>
<path d="M513.007 57.9922H265.914C256.665 57.9922 249.167 67.626 249.167 79.5098V80.0784C249.167 91.9623 256.665 101.596 265.914 101.596H513.007C522.256 101.596 529.754 91.9623 529.754 80.0784V79.5098C529.754 67.626 522.256 57.9922 513.007 57.9922Z" fill="#555555"/>
<path d="M512.993 58.0645H265.914C256.68 58.0645 249.194 67.6823 249.194 79.5465V80.0974C249.194 91.9616 256.68 101.579 265.914 101.579H512.993C522.227 101.579 529.713 91.9616 529.713 80.0974V79.5465C529.713 67.6823 522.227 58.0645 512.993 58.0645Z" fill="#565656"/>
<path d="M512.979 58.1348H265.914C256.696 58.1348 249.222 67.7367 249.222 79.5813V80.1321C249.222 91.9767 256.696 101.579 265.914 101.579H512.979C522.198 101.579 529.671 91.9767 529.671 80.1321V79.5813C529.671 67.7367 522.198 58.1348 512.979 58.1348Z" fill="#575757"/>
<path d="M512.993 58.2051H265.928C256.724 58.2051 249.263 67.7911 249.263 79.6161V80.1492C249.263 91.9741 256.724 101.56 265.928 101.56H512.993C522.196 101.56 529.657 91.9741 529.657 80.1492V79.6161C529.657 67.7911 522.196 58.2051 512.993 58.2051Z" fill="#585858"/>
<path d="M512.993 58.2773H265.915C256.734 58.2773 249.292 67.8395 249.292 79.6351V80.2036C249.292 91.9992 256.734 101.561 265.915 101.561H512.993C522.174 101.561 529.616 91.9992 529.616 80.2036V79.6351C529.616 67.8395 522.174 58.2773 512.993 58.2773Z" fill="#595959"/>
<path d="M265.914 58.3496H512.992C522.148 58.3496 529.588 67.9091 529.588 79.6718V80.2226C529.588 91.9853 522.148 101.545 512.992 101.545H265.914C256.759 101.545 249.319 91.9853 249.319 80.2226V79.6718C249.319 67.9091 256.759 58.3496 265.914 58.3496Z" fill="#5A5A5A"/>
<path d="M512.979 58.4199H265.914C256.764 58.4199 249.347 67.9503 249.347 79.7066V80.2396C249.347 91.9959 256.764 101.526 265.914 101.526H512.979C522.129 101.526 529.547 91.9959 529.547 80.2396V79.7066C529.547 67.9503 522.129 58.4199 512.979 58.4199Z" fill="#5B5B5B"/>
<path d="M513.007 58.4902H265.914C256.787 58.4902 249.388 67.9967 249.388 79.7236V80.2922C249.388 92.019 256.787 101.525 265.914 101.525H513.007C522.134 101.525 529.533 92.019 529.533 80.2922V79.7236C529.533 67.9967 522.134 58.4902 513.007 58.4902Z" fill="#5C5C5C"/>
<path d="M512.993 58.5625H265.914C256.802 58.5625 249.416 68.0531 249.416 79.7603V80.3111C249.416 92.0183 256.802 101.509 265.914 101.509H512.993C522.105 101.509 529.491 92.0183 529.491 80.3111V79.7603C529.491 68.0531 522.105 58.5625 512.993 58.5625Z" fill="#5D5D5D"/>
<path d="M512.979 58.6309H265.914C256.818 58.6309 249.443 68.1055 249.443 79.7931V80.3439C249.443 92.0315 256.818 101.506 265.914 101.506H512.979C522.076 101.506 529.45 92.0315 529.45 80.3439V79.7931C529.45 68.1055 522.076 58.6309 512.979 58.6309Z" fill="#5E5E5E"/>
<path d="M512.993 58.7012H265.928C256.847 58.7012 249.485 68.1599 249.485 79.8279V80.3609C249.485 92.0289 256.847 101.488 265.928 101.488H512.993C522.074 101.488 529.436 92.0289 529.436 80.3609V79.8279C529.436 68.1599 522.074 58.7012 512.993 58.7012Z" fill="#5F5F5F"/>
<path d="M512.993 58.7754H265.914C256.856 58.7754 249.512 68.2103 249.512 79.8488V80.4174C249.512 92.0559 256.856 101.491 265.914 101.491H512.993C522.051 101.491 529.394 92.0559 529.394 80.4174V79.8488C529.394 68.2103 522.051 58.7754 512.993 58.7754Z" fill="#606060"/>
<path d="M512.993 58.8457H265.914C256.871 58.8457 249.54 68.2647 249.54 79.8836V80.4344C249.54 92.0533 256.871 101.472 265.914 101.472H512.993C522.036 101.472 529.367 92.0533 529.367 80.4344V79.8836C529.367 68.2647 522.036 58.8457 512.993 58.8457Z" fill="#616161"/>
<path d="M512.979 58.916H265.914C256.886 58.916 249.568 68.3191 249.568 79.9184V80.4514C249.568 92.0507 256.886 101.454 265.914 101.454H512.979C522.007 101.454 529.325 92.0507 529.325 80.4514V79.9184C529.325 68.3191 522.007 58.916 512.979 58.916Z" fill="#626262"/>
<path d="M513.007 58.9883H265.914C256.909 58.9883 249.609 68.3675 249.609 79.9373V80.5059C249.609 92.0757 256.909 101.455 265.914 101.455H513.007C522.012 101.455 529.312 92.0757 529.312 80.5059V79.9373C529.312 68.3675 522.012 58.9883 513.007 58.9883Z" fill="#636363"/>
<path d="M512.993 59.0586H265.914C256.925 59.0586 249.637 68.4219 249.637 79.9721V80.5229C249.637 92.0731 256.925 101.436 265.914 101.436H512.993C521.983 101.436 529.27 92.0731 529.27 80.5229V79.9721C529.27 68.4219 521.983 59.0586 512.993 59.0586Z" fill="#646464"/>
<path d="M512.979 59.1289H265.914C256.94 59.1289 249.665 68.4763 249.665 80.0069V80.5577C249.665 92.0883 256.94 101.436 265.914 101.436H512.979C521.953 101.436 529.229 92.0883 529.229 80.5577V80.0069C529.229 68.4763 521.953 59.1289 512.979 59.1289Z" fill="#646464"/>
<path d="M512.993 59.2012H265.928C256.969 59.2012 249.706 68.5326 249.706 80.0436V80.5767C249.706 92.0876 256.969 101.419 265.928 101.419H512.993C521.952 101.419 529.215 92.0876 529.215 80.5767V80.0436C529.215 68.5326 521.952 59.2012 512.993 59.2012Z" fill="#656565"/>
<path d="M512.993 59.2734H265.914C256.978 59.2734 249.734 68.581 249.734 80.0626V80.6311C249.734 92.1127 256.978 101.42 265.914 101.42H512.993C521.929 101.42 529.173 92.1127 529.173 80.6311V80.0626C529.173 68.581 521.929 59.2734 512.993 59.2734Z" fill="#666666"/>
<path d="M512.993 59.3438H265.915C256.994 59.3438 249.762 68.6354 249.762 80.0973V80.6482C249.762 92.11 256.994 101.402 265.915 101.402H512.993C521.914 101.402 529.146 92.11 529.146 80.6482V80.0973C529.146 68.6354 521.914 59.3438 512.993 59.3438Z" fill="#676767"/>
<path d="M512.979 59.4141H265.914C257.008 59.4141 249.789 68.6898 249.789 80.1321V80.6652C249.789 92.1074 257.008 101.383 265.914 101.383H512.979C521.885 101.383 529.104 92.1074 529.104 80.6652V80.1321C529.104 68.6898 521.885 59.4141 512.979 59.4141Z" fill="#686868"/>
<path d="M513.007 59.4844H265.914C257.032 59.4844 249.831 68.7363 249.831 80.1491V80.7177C249.831 92.1305 257.032 101.382 265.914 101.382H513.007C521.89 101.382 529.09 92.1305 529.09 80.7177V80.1491C529.09 68.7363 521.89 59.4844 513.007 59.4844Z" fill="#696969"/>
<path d="M512.993 59.5566H265.914C257.047 59.5566 249.858 68.7926 249.858 80.1858V80.7367C249.858 92.1299 257.047 101.366 265.914 101.366H512.993C521.86 101.366 529.049 92.1299 529.049 80.7367V80.1858C529.049 68.7926 521.86 59.5566 512.993 59.5566Z" fill="#6A6A6A"/>
<path d="M512.979 59.6289H265.914C257.062 59.6289 249.886 68.849 249.886 80.2226V80.7734C249.886 92.147 257.062 101.367 265.914 101.367H512.979C521.831 101.367 529.007 92.147 529.007 80.7734V80.2226C529.007 68.849 521.831 59.6289 512.979 59.6289Z" fill="#6B6B6B"/>
<path d="M512.992 59.6992H265.928C257.091 59.6992 249.927 68.9034 249.927 80.2573V80.7904C249.927 92.1443 257.091 101.349 265.928 101.349H512.992C521.829 101.349 528.993 92.1443 528.993 80.7904V80.2573C528.993 68.9034 521.829 59.6992 512.992 59.6992Z" fill="#6C6C6C"/>
<path d="M512.993 59.7695H265.914C257.1 59.7695 249.955 68.9499 249.955 80.2744V80.843C249.955 92.1675 257.1 101.348 265.914 101.348H512.993C521.807 101.348 528.952 92.1675 528.952 80.843V80.2744C528.952 68.9499 521.807 59.7695 512.993 59.7695Z" fill="#6D6D6D"/>
<path d="M512.993 59.8418H265.914C257.115 59.8418 249.982 69.0062 249.982 80.3111V80.8619C249.982 92.1668 257.115 101.331 265.914 101.331H512.993C521.791 101.331 528.924 92.1668 528.924 80.8619V80.3111C528.924 69.0062 521.791 59.8418 512.993 59.8418Z" fill="#6E6E6E"/>
<path d="M512.979 59.9121H265.914C257.131 59.9121 250.01 69.0606 250.01 80.3459V80.8789C250.01 92.1642 257.131 101.313 265.914 101.313H512.979C521.762 101.313 528.883 92.1642 528.883 80.8789V80.3459C528.883 69.0606 521.762 59.9121 512.979 59.9121Z" fill="#6F6F6F"/>
<path d="M513.007 59.9824H265.914C257.154 59.9824 250.052 69.1071 250.052 80.3629V80.9315C250.052 92.1873 257.154 101.312 265.914 101.312H513.007C521.767 101.312 528.869 92.1873 528.869 80.9315V80.3629C528.869 69.1071 521.767 59.9824 513.007 59.9824Z" fill="#707070"/>
<path d="M512.993 60.0527H265.914C257.169 60.0527 250.079 69.1615 250.079 80.3976V80.9485C250.079 92.1847 257.169 101.293 265.914 101.293H512.993C521.738 101.293 528.828 92.1847 528.828 80.9485V80.3976C528.828 69.1615 521.738 60.0527 512.993 60.0527Z" fill="#717171"/>
<path d="M265.914 60.127H512.993C521.719 60.127 528.8 69.2244 528.8 80.4363V80.9871C528.8 92.1991 521.719 101.297 512.993 101.297H265.914C257.188 101.297 250.107 92.1991 250.107 80.9871V80.4363C250.107 69.2244 257.188 60.127 265.914 60.127Z" fill="#727272"/>
<path d="M512.993 60.1973H265.928C257.213 60.1973 250.148 69.2742 250.148 80.4711V81.0042C250.148 92.2011 257.213 101.278 265.928 101.278H512.993C521.707 101.278 528.772 92.2011 528.772 81.0042V80.4711C528.772 69.2742 521.707 60.1973 512.993 60.1973Z" fill="#737373"/>
<path d="M512.993 60.2656H265.914C257.222 60.2656 250.176 69.3187 250.176 80.4862V81.0547C250.176 92.2222 257.222 101.275 265.914 101.275H512.993C521.685 101.275 528.731 92.2222 528.731 81.0547V80.4862C528.731 69.3187 521.685 60.2656 512.993 60.2656Z" fill="#747474"/>
<path d="M512.993 60.3359H265.914C257.238 60.3359 250.204 69.3731 250.204 80.5209V81.0717C250.204 92.2196 257.238 101.257 265.914 101.257H512.993C521.669 101.257 528.703 92.2196 528.703 81.0717V80.5209C528.703 69.3731 521.669 60.3359 512.993 60.3359Z" fill="#757575"/>
<path d="M512.979 60.4102H265.914C257.253 60.4102 250.231 69.4314 250.231 80.5596V81.0927C250.231 92.2209 257.253 101.242 265.914 101.242H512.979C521.64 101.242 528.661 92.2209 528.661 81.0927V80.5596C528.661 69.4314 521.64 60.4102 512.979 60.4102Z" fill="#767676"/>
<path d="M513.007 60.4805H265.915C257.276 60.4805 250.273 69.4778 250.273 80.5766V81.1452C250.273 92.244 257.276 101.241 265.915 101.241H513.007C521.645 101.241 528.648 92.244 528.648 81.1452V80.5766C528.648 69.4778 521.645 60.4805 513.007 60.4805Z" fill="#777777"/>
<path d="M512.993 60.5527H265.914C257.291 60.5527 250.301 69.5342 250.301 80.6133V81.1642C250.301 92.2433 257.291 101.225 265.914 101.225H512.993C521.616 101.225 528.606 92.2433 528.606 81.1642V80.6133C528.606 69.5342 521.616 60.5527 512.993 60.5527Z" fill="#787878"/>
<path d="M512.979 60.623H265.915C257.307 60.623 250.329 69.5886 250.329 80.6481V81.1989C250.329 92.2585 257.307 101.224 265.915 101.224H512.979C521.587 101.224 528.565 92.2585 528.565 81.1989V80.6481C528.565 69.5886 521.587 60.623 512.979 60.623Z" fill="#797979"/>
<path d="M265.914 60.6973H512.993C521.581 60.6973 528.551 69.6526 528.551 80.6868V81.2376C528.551 92.2719 521.581 101.227 512.993 101.227H265.914C257.326 101.227 250.356 92.2719 250.356 81.2376V80.6868C250.356 69.6526 257.326 60.6973 265.914 60.6973Z" fill="#7A7A7A"/>
<path d="M512.993 60.7656H265.914C257.345 60.7656 250.398 69.6914 250.398 80.7019V81.2704C250.398 92.2809 257.345 101.207 265.914 101.207H512.993C521.563 101.207 528.51 92.2809 528.51 81.2704V80.7019C528.51 69.6914 521.563 60.7656 512.993 60.7656Z" fill="#7B7B7B"/>
<path d="M512.993 60.8359H265.914C257.36 60.8359 250.425 69.7458 250.425 80.7366V81.2875C250.425 92.2783 257.36 101.188 265.914 101.188H512.993C521.547 101.188 528.482 92.2783 528.482 81.2875V80.7366C528.482 69.7458 521.547 60.8359 512.993 60.8359Z" fill="#7C7C7C"/>
<path d="M512.993 60.9082H265.928C257.389 60.9082 250.467 69.8021 250.467 80.7734V81.3064C250.467 92.2776 257.389 101.172 265.928 101.172H512.993C521.532 101.172 528.454 92.2776 528.454 81.3064V80.7734C528.454 69.8021 521.532 60.9082 512.993 60.9082Z" fill="#7D7D7D"/>
<path d="M512.993 60.9785H265.914C257.398 60.9785 250.494 69.8486 250.494 80.7904V81.359C250.494 92.3007 257.398 101.171 265.914 101.171H512.993C521.509 101.171 528.413 92.3007 528.413 81.359V80.7904C528.413 69.8486 521.509 60.9785 512.993 60.9785Z" fill="#7E7E7E"/>
<path d="M512.993 61.0488H265.914C257.414 61.0488 250.522 69.903 250.522 80.8251V81.376C250.522 92.2981 257.414 101.152 265.914 101.152H512.993C521.494 101.152 528.385 92.2981 528.385 81.376V80.8251C528.385 69.903 521.494 61.0488 512.993 61.0488Z" fill="#7F7F7F"/>
<path d="M512.979 61.1191H265.914C257.429 61.1191 250.55 69.9574 250.55 80.8599V81.4107C250.55 92.3133 257.429 101.152 265.914 101.152H512.979C521.465 101.152 528.344 92.3133 528.344 81.4107V80.8599C528.344 69.9574 521.465 61.1191 512.979 61.1191Z" fill="#808080"/>
<path d="M512.993 61.1934H265.928C257.458 61.1934 250.591 70.0157 250.591 80.8986V81.4317C250.591 92.3146 257.458 101.137 265.928 101.137H512.993C521.463 101.137 528.329 92.3146 528.329 81.4317V80.8986C528.329 70.0157 521.463 61.1934 512.993 61.1934Z" fill="#818181"/>
<path d="M512.993 61.2637H265.914C257.467 61.2637 250.619 70.0621 250.619 80.9156V81.4664C250.619 92.3199 257.467 101.118 265.914 101.118H512.993C521.44 101.118 528.288 92.3199 528.288 81.4664V80.9156C528.288 70.0621 521.44 61.2637 512.993 61.2637Z" fill="#828282"/>
<path d="M265.914 61.334H512.993C521.415 61.334 528.261 70.1294 528.261 80.9504V81.5012C528.261 92.3222 521.415 101.118 512.993 101.118H265.914C257.492 101.118 250.646 92.3222 250.646 81.5012V80.9504C250.646 70.1294 257.492 61.334 265.914 61.334Z" fill="#838383"/>
<path d="M512.993 61.4043H265.928C257.511 61.4043 250.688 70.1709 250.688 80.9852V81.5182C250.688 92.3324 257.511 101.099 265.928 101.099H512.993C521.41 101.099 528.233 92.3324 528.233 81.5182V80.9852C528.233 70.1709 521.41 61.4043 512.993 61.4043Z" fill="#848484"/>
<path d="M512.993 61.4766H265.914C257.52 61.4766 250.716 70.2193 250.716 81.0041V81.5727C250.716 92.3575 257.52 101.1 265.914 101.1H512.993C521.387 101.1 528.191 92.3575 528.191 81.5727V81.0041C528.191 70.2193 521.387 61.4766 512.993 61.4766Z" fill="#858585"/>
<path d="M512.993 61.5469H265.914C257.535 61.5469 250.743 70.2738 250.743 81.0389V81.5897C250.743 92.3549 257.535 101.082 265.914 101.082H512.993C521.371 101.082 528.164 92.3549 528.164 81.5897V81.0389C528.164 70.2738 521.371 61.5469 512.993 61.5469Z" fill="#868686"/>
<path d="M512.979 61.6348H265.914C257.551 61.6348 250.771 70.3457 250.771 81.0912V81.6421C250.771 92.3876 257.551 101.099 265.914 101.099H512.979C521.343 101.099 528.122 92.3876 528.122 81.6421V81.0912C528.122 70.3457 521.343 61.6348 512.979 61.6348Z" fill="#878787"/>
<path d="M512.493 55.8706L64.8326 55.8691C52.8327 55.8691 43.1048 67.1485 43.1048 81.0622V81.571C43.1048 95.4848 52.8327 106.764 64.8326 106.764L512.493 106.766C524.493 106.766 534.221 95.4862 534.221 81.5724V81.0637C534.221 67.1499 524.493 55.8706 512.493 55.8706Z" fill="url(#paint0_linear_0_1)"/>
<path d="M512.493 58.3496H259.601C249.164 58.3496 240.704 68.2768 240.704 80.5226V81.0375C240.704 93.2833 249.164 103.21 259.601 103.21H512.493C522.929 103.21 531.39 93.2833 531.39 81.0375V80.5226C531.39 68.2768 522.929 58.3496 512.493 58.3496Z" fill="black"/>
<path d="M512.493 58.4902H64.3208C53.8844 58.4902 46.4475 68.3863 46.4475 80.5937V81.107C46.4475 93.3144 53.8844 103.21 64.3208 103.21H512.493C522.93 103.21 531.39 93.3144 531.39 81.107V80.5937C531.39 68.3863 522.93 58.4902 512.493 58.4902Z" fill="#151515"/>
<path d="M512.544 61.3438H63.8091C55.222 61.3438 48.2607 70.0547 48.2607 80.8002V81.3511C48.2607 92.0966 55.222 100.808 63.8091 100.808H512.544C521.131 100.808 528.092 92.0966 528.092 81.3511V80.8002C528.092 70.0547 521.131 61.3438 512.544 61.3438Z" fill="url(#paint1_linear_0_1)"/>
<path d="M46.9709 55.7016C46.6152 55.1482 46.107 54.7092 45.4655 54.3847C43.293 53.2777 39.6151 53.5068 35.3147 54.8937C32.0434 55.9498 28.4099 57.6866 24.7956 60.015C21.0859 62.4135 17.9416 65.0919 15.6104 67.7194C12.8408 70.824 11.2147 73.8459 11.1512 76.1871C11.1258 77.046 11.3163 77.8158 11.7292 78.4647L22.0451 92.7091L33.949 109.937C35.6196 112.259 37.6269 113.315 40.0407 114.028C43.077 114.925 46.2785 115.179 49.4165 114.741C52.5544 114.302 55.2096 113.36 58.3285 111.343C63.6135 107.927 66.8087 103.105 67.7297 98.8293C68.4793 95.3557 68.5047 92.0665 66.6117 88.8219L56.461 72.09L46.9709 55.6826V55.7016Z" fill="#00E629"/>
<path d="M44.2712 56.8724C44.5253 57.2669 44.665 57.7186 44.6968 58.2212C44.9191 61.7266 39.9835 67.6623 32.5769 72.4528C25.1703 77.2434 18.0369 79.2156 14.829 77.746C14.2891 77.4979 13.8699 77.1543 13.5777 76.709C13.241 76.1873 13.1076 75.5638 13.1584 74.8513C13.2855 72.9236 14.7655 70.3916 17.2174 67.7514C19.2819 65.5183 22.0451 63.2153 25.2783 61.1286C28.5115 59.0419 31.5669 57.5595 34.3873 56.5862C38.0906 55.3074 41.2222 55.002 43.0389 55.8418C43.5725 56.0899 43.9854 56.4335 44.2776 56.8788L44.2712 56.8724Z" fill="#006D19"/>
<path d="M43.8203 56.1674C44.0744 56.5618 44.2141 57.0135 44.2459 57.5161C44.4682 61.0215 39.5326 66.9572 32.126 71.7478C24.7194 76.5383 17.5859 78.5105 14.3781 77.0409C13.8382 76.7928 13.4189 76.4492 13.1267 76.0039C12.7901 75.4822 12.6567 74.8588 12.7075 74.1462C12.8345 72.2186 14.3146 69.6865 16.7665 67.0463C18.831 64.8132 21.5941 62.5102 24.8274 60.4235C28.0606 58.3368 31.116 56.8545 33.9363 55.8811C37.6396 54.6023 40.7713 54.297 42.588 55.1367C43.1215 55.3848 43.5344 55.7284 43.8266 56.1737L43.8203 56.1674Z" fill="#A1FFA3"/>
<path d="M45.8719 55.8353C46.1641 56.287 46.3229 56.8023 46.3801 57.3685C46.7231 61.3256 41.4508 67.8721 33.4154 73.0634C25.5451 78.1466 17.5795 80.2779 14.0096 78.5347C13.4125 78.2421 12.9361 77.8413 12.6058 77.3323C12.2246 76.7343 12.0595 76.0281 12.0912 75.2329C12.1802 73.0634 13.7364 70.2514 16.3726 67.344C18.5895 64.8883 21.5623 62.369 25.0687 60.1041C28.4734 57.9029 31.9036 56.2552 34.978 55.2373C39.018 53.9012 42.4608 53.6404 44.4872 54.6392C45.0779 54.9319 45.548 55.3263 45.8783 55.8416L45.8719 55.8353Z" fill="#95FF75"/>
<path d="M47.8539 62.3252C47.8539 62.3252 47.8348 62.3189 47.8221 62.3125C47.8666 62.3634 47.9111 62.4143 47.9492 62.4715C48.1588 62.796 48.2541 63.1841 48.2477 63.6294C48.1969 66.6959 43.5599 72.727 36.166 77.5048C28.7721 82.2826 21.3528 84.134 18.4244 83.0843C18.0814 82.9634 17.8019 82.7916 17.5796 82.5753C17.6431 82.8998 17.7575 83.1924 17.929 83.4596L26.1232 94.6248L35.5434 108.15C36.871 109.97 38.5417 110.74 40.5744 111.217C43.1343 111.815 45.8593 111.878 48.5653 111.382C51.157 110.905 53.5835 110.002 56.3404 108.22C61.0092 105.198 63.9566 101.127 64.9348 97.6022C65.7288 94.733 65.9003 92.0482 64.4203 89.4907L56.4738 76.2961L49.0799 63.3368C48.8004 62.8978 48.3811 62.567 47.8539 62.3316V62.3252Z" fill="#090030"/>
<path d="M39.9772 57.2479C40.1741 57.5533 40.2821 57.9095 40.3075 58.304C40.4854 61.0396 36.6296 65.6711 30.8555 69.4056C25.0814 73.14 19.5106 74.6796 17.0142 73.5345C16.595 73.3436 16.2647 73.0701 16.0423 72.7265C15.7819 72.3193 15.6739 71.8295 15.712 71.276C15.8137 69.7746 16.9634 67.796 18.8818 65.7347C20.4952 63.9979 22.6486 62.1975 25.1704 60.5688C27.6922 58.9402 30.0742 57.7823 32.2721 57.0252C35.1559 56.0264 37.6015 55.791 39.018 56.4463C39.4309 56.6372 39.7612 56.9044 39.9836 57.2543L39.9772 57.2479Z" fill="#090030"/>
<path d="M37.0552 52.7186C37.2521 53.024 37.3601 53.3803 37.3855 53.7747C37.5634 56.5103 33.7076 61.1418 27.9335 64.8763C22.1594 68.6107 16.5886 70.1503 14.0922 69.0052C13.673 68.8143 13.3427 68.5408 13.1203 68.1972C12.8599 67.7901 12.7519 67.3002 12.79 66.7467C12.8917 65.2453 14.0414 63.2667 15.9598 61.2054C17.5732 59.4686 19.7266 57.6682 22.2484 56.0395C24.7702 54.4109 27.1522 53.253 29.3501 52.4959C32.2339 51.4971 34.6795 51.2617 36.0961 51.917C36.5089 52.1079 36.8392 52.3751 37.0616 52.725L37.0552 52.7186Z" fill="#090030"/>
<path d="M35.8547 52.7882C36.0389 53.0745 36.1342 53.3989 36.1596 53.7615C36.3184 56.2936 32.7548 60.5879 27.4 64.0488C22.1531 67.4397 16.8872 68.9348 14.5687 67.8723C14.1812 67.6942 13.8763 67.4461 13.6667 67.1216C13.4253 66.7463 13.33 66.2946 13.3618 65.7793C13.457 64.386 14.5242 62.5538 16.2964 60.6452C17.7892 59.0356 19.7838 57.3688 22.1214 55.8546C24.4589 54.3405 26.6695 53.2717 28.7085 52.5719C31.3828 51.6494 33.6505 51.4267 34.959 52.0311C35.3402 52.2092 35.6451 52.4573 35.8547 52.7818V52.7882Z" fill="#A1FFA3"/>
<path d="M55.3684 77.4233L50.6805 85.1976L45.3511 66.7988L37.4236 75.9918L44.3093 99.7537L47.8856 93.8244L53.2976 112.516L55.3684 77.4233Z" fill="#00E629"/>
<g style="mix-blend-mode:multiply" filter="url(#filter0_f_0_1)">
<circle cx="216.832" cy="84.0455" r="36.5435" fill="#121212"/>
</g>
<path opacity="0.9" d="M215.196 47.9746C196.286 47.9746 180.957 63.6171 180.957 82.9128C180.957 102.208 196.286 117.851 215.196 117.851C234.106 117.851 249.435 102.209 249.435 82.9128C249.435 63.6169 234.106 47.9746 215.196 47.9746ZM215.196 110.9C200.048 110.9 187.769 98.3698 187.769 82.9129C187.769 67.456 200.048 54.9257 215.196 54.9257C230.344 54.9257 242.623 67.456 242.623 82.9129C242.623 98.3698 230.344 110.9 215.196 110.9Z" fill="url(#paint2_linear_0_1)"/>
<path style="mix-blend-mode:multiply" d="M215.196 47.9746C196.286 47.9746 180.957 63.255 180.957 82.1043C180.957 100.954 196.286 116.234 215.196 116.234C234.106 116.234 249.435 100.954 249.435 82.1043C249.435 63.255 234.106 47.9746 215.196 47.9746ZM215.196 109.444C200.048 109.444 187.769 97.2036 187.769 82.1043C187.769 67.0049 200.048 54.7647 215.196 54.7647C230.344 54.7647 242.623 67.0049 242.623 82.1043C242.623 97.2036 230.344 109.444 215.196 109.444Z" fill="url(#paint3_linear_0_1)"/>
<g opacity="0.4">
<g filter="url(#filter1_d_0_1)">
<path d="M216.53 116.288C232.693 115.796 246.593 103.524 249.055 87.5964C252.469 66.4252 235.501 47.2987 214 48.1218C192.497 48.8852 176.993 69.2083 181.967 90.0703C185.604 105.773 200.373 116.988 216.53 116.288V116.288ZM216.53 116.288C200.372 116.991 185.586 105.778 181.93 90.0788C176.92 69.174 192.442 48.7963 213.997 48.0294C235.549 47.2079 252.539 66.386 249.092 87.6024C246.609 103.527 232.696 115.8 216.53 116.288Z" fill="#FCFAFB"/>
</g>
</g>
<path d="M234.832 101.729C245.69 90.9052 245.69 73.3565 234.832 62.5328C223.973 51.7091 206.368 51.7091 195.51 62.5328C184.651 73.3565 184.651 90.9052 195.51 101.729C206.368 112.553 223.973 112.553 234.832 101.729Z" fill="url(#paint4_linear_0_1)"/>
<g opacity="0.5">
<path d="M242.977 82.4852C242.941 95.5773 233.262 107.113 220.347 109.478C203.154 112.74 187.16 99.4204 187.343 81.9729C187.476 64.518 203.717 51.4844 220.854 55.066C233.727 57.6693 243.19 69.3921 242.978 82.4852H242.977ZM242.971 82.4852C243.174 69.3994 233.706 57.712 220.842 55.1212C203.741 51.565 187.535 64.5534 187.392 81.9735C187.205 99.4003 203.17 112.696 220.342 109.452C233.254 107.097 242.937 95.5748 242.971 82.4852H242.971Z" fill="#161616"/>
</g>
<g style="mix-blend-mode:multiply" opacity="0.5">
<path d="M242.571 81.6846C242.43 96.9911 229.866 109.285 214.511 109.143C199.156 109.002 186.823 96.4791 186.964 81.1727C187.106 65.8664 199.669 53.5727 215.025 53.7141C230.38 53.8555 242.713 66.3784 242.571 81.6846Z" fill="#161616"/>
</g>
<path d="M238.843 70.616C245.119 83.6677 239.594 99.32 226.501 105.575C213.407 111.831 197.706 106.323 191.429 93.2699C185.153 80.2208 190.68 64.5686 203.773 58.3131C216.866 52.0572 232.567 57.5657 238.843 70.616H238.843Z" fill="url(#paint5_radial_0_1)"/>
<path style="mix-blend-mode:color-burn" opacity="0.6" d="M238.843 70.616C245.119 83.6677 239.594 99.32 226.501 105.575C213.407 111.831 197.706 106.323 191.429 93.2699C185.153 80.2208 190.68 64.5685 203.773 58.3131C216.866 52.0572 232.567 57.5657 238.843 70.616H238.843Z" fill="url(#paint6_linear_0_1)"/>
<g style="mix-blend-mode:overlay" opacity="0.6">
<path d="M203.817 69.7272C216.527 63.4605 231.926 68.6506 238.213 81.3188C239.09 83.0866 239.736 84.9054 240.175 86.7451C241.136 81.5139 240.476 75.9425 237.929 70.8112C231.643 58.1414 216.243 52.9527 203.532 59.2195C192.595 64.6126 187.221 76.7326 189.939 88.081C191.35 80.3998 196.255 73.4556 203.817 69.7272Z" fill="#060D51"/>
</g>
<path style="mix-blend-mode:color-burn" opacity="0.6" d="M238.843 70.6168C245.119 83.6681 239.594 99.3192 226.5 105.575C213.407 111.832 197.706 106.323 191.429 93.2717C185.154 80.2201 190.68 64.5693 203.773 58.3135C216.866 52.0566 232.567 57.5662 238.843 70.6169L238.843 70.6168Z" fill="url(#paint7_linear_0_1)"/>
<path opacity="0.1" d="M226.255 102.319C213.293 108.512 197.847 103.265 191.756 90.5962C190.634 88.2647 189.918 85.8429 189.562 83.4069C189.731 86.609 190.517 89.8272 191.991 92.8905C198.082 105.556 213.528 110.806 226.49 104.612C237.098 99.5436 242.754 88.384 241.12 77.5547C241.694 87.6329 236.115 97.6081 226.255 102.319V102.319Z" fill="#F4DDC1"/>
<g style="mix-blend-mode:soft-light" opacity="0.7">
<path d="M207.162 60.8089C220.627 55.9382 235.505 62.8693 240.391 76.2925C240.56 76.758 240.716 77.2263 240.856 77.6943C240.599 76.3234 240.23 74.9549 239.738 73.6019C234.851 60.18 219.974 53.2476 206.508 58.1182C193.511 62.8218 186.584 76.8019 190.513 89.8392C188.219 77.6198 195.055 65.188 207.162 60.809L207.162 60.8089Z" fill="#0619FF"/>
</g>
<path d="M226.436 105.593C213.364 111.839 197.632 106.32 191.366 93.289C185.101 80.2607 190.637 64.5776 203.709 58.3322C216.78 52.0867 232.513 57.6068 238.778 70.6351C245.044 83.6661 239.507 99.3479 226.436 105.593L226.436 105.593ZM204.1 59.1449C191.479 65.1768 186.132 80.3182 192.182 92.8993C198.232 105.481 213.423 110.811 226.045 104.779C238.666 98.7486 244.013 83.607 237.962 71.0263C231.912 58.444 216.722 53.1154 204.1 59.1449Z" fill="#0017A0"/>
<path opacity="0.4" d="M189.775 84.8292C190.916 93.8835 196.329 100.192 198.37 98.7076C200.492 97.3058 200.392 89.7088 200.334 84.064C200.179 79.3723 201.495 74.7266 204.09 70.809C207.102 66.0286 210.777 61.8643 209.704 59.5632C208.742 57.2342 201.377 59.6108 195.423 65.6171C190.612 70.4685 188.918 78.3727 189.775 84.8292H189.775Z" fill="url(#paint8_linear_0_1)"/>
<path opacity="0.4" d="M240.14 86.1162C241.527 78.6411 238.271 68.9551 235.872 69.7489C233.424 70.4397 232.478 77.8433 230.807 83.237C229.522 87.7527 226.849 91.7789 223.18 94.7207C218.849 98.3593 214.078 101.21 214.396 103.728C214.6 106.239 219.527 107.542 227.159 103.879C233.391 100.889 238.978 93.8709 240.14 86.1162H240.14Z" fill="url(#paint9_linear_0_1)"/>
<path style="mix-blend-mode:screen" d="M214.916 104.349C228.479 104.349 239.475 93.3889 239.475 79.8689C239.475 66.3488 228.479 55.3887 214.916 55.3887C201.353 55.3887 190.357 66.3488 190.357 79.8689C190.357 93.3889 201.353 104.349 214.916 104.349Z" fill="url(#paint10_radial_0_1)"/>
<path d="M215.101 49.8519L215.28 49.858L215.233 51.2385L215.055 51.2325L215.101 49.8519ZM215.847 51.1763C215.809 51.1201 215.781 51.0522 215.761 50.9728C215.741 50.8935 215.721 50.7887 215.7 50.6587C215.699 50.6498 215.697 50.6411 215.695 50.633C215.693 50.6248 215.692 50.6161 215.691 50.6072C215.69 50.5998 215.688 50.5927 215.687 50.5859C215.686 50.5791 215.684 50.5728 215.683 50.5667C215.655 50.4129 215.628 50.2885 215.602 50.194C215.575 50.0995 215.536 50.0205 215.485 49.9572C215.433 49.8939 215.365 49.8607 215.28 49.8578L215.286 49.6797C215.411 49.6839 215.512 49.7266 215.588 49.808C215.664 49.8893 215.722 49.9922 215.762 50.117C215.802 50.2417 215.837 50.3951 215.866 50.5774C215.869 50.5894 215.871 50.6018 215.873 50.6144C215.875 50.6271 215.876 50.6402 215.877 50.6536C215.897 50.7821 215.916 50.8861 215.935 50.9654C215.954 51.0449 215.975 51.0849 215.999 51.0857C216.022 51.0864 216.043 51.0514 216.064 50.9809C216.085 50.9102 216.108 50.8166 216.133 50.7001C216.142 50.6529 216.15 50.6175 216.157 50.5939C216.202 50.4022 216.248 50.2466 216.294 50.127C216.341 50.0074 216.404 49.9104 216.486 49.8357C216.568 49.7612 216.674 49.7261 216.805 49.7305L216.799 49.9086C216.712 49.9057 216.641 49.9327 216.585 49.9895C216.529 50.0463 216.483 50.1213 216.449 50.2145C216.414 50.3077 216.379 50.4281 216.343 50.5754C216.341 50.5857 216.339 50.5958 216.337 50.6053C216.335 50.6149 216.333 50.6249 216.33 50.6351C216.328 50.647 216.325 50.6592 216.323 50.6717C216.32 50.6842 216.317 50.6964 216.314 50.7081C216.287 50.8247 216.263 50.9201 216.239 50.9943C216.216 51.0685 216.184 51.1326 216.143 51.1862C216.103 51.2399 216.053 51.2657 215.993 51.2636C215.934 51.2616 215.885 51.2326 215.848 51.1763H215.847ZM216.799 49.9084L216.977 49.9145L216.931 51.295L216.752 51.289L216.799 49.9084Z" fill="#00FFFF"/>
<path d="M217.684 49.9671L217.862 49.9876L217.703 51.3598L217.525 51.3392L217.684 49.9671ZM218.32 51.3477C218.287 51.2886 218.264 51.2187 218.25 51.138C218.237 51.0572 218.226 50.9512 218.215 50.82C218.215 50.8111 218.214 50.8023 218.213 50.7939C218.211 50.7856 218.211 50.7768 218.21 50.7678C218.209 50.7603 218.209 50.7532 218.208 50.7462C218.207 50.7394 218.207 50.733 218.206 50.7269C218.191 50.5712 218.174 50.4452 218.155 50.3488C218.136 50.2525 218.104 50.1705 218.058 50.1032C218.011 50.0359 217.946 49.9973 217.862 49.9876L217.882 49.8105C218.007 49.8249 218.103 49.8757 218.173 49.9629C218.242 50.0501 218.292 50.1575 218.321 50.285C218.35 50.4125 218.373 50.5683 218.387 50.7524C218.389 50.7646 218.39 50.7771 218.391 50.7898C218.391 50.8026 218.392 50.8157 218.392 50.8291C218.401 50.9588 218.411 51.0639 218.424 51.1446C218.436 51.2253 218.454 51.267 218.478 51.2696C218.5 51.2723 218.524 51.2391 218.551 51.1704C218.578 51.1017 218.608 51.0103 218.643 50.8961C218.656 50.8498 218.666 50.8151 218.675 50.7922C218.736 50.6048 218.794 50.4536 218.85 50.3381C218.906 50.2227 218.978 50.1311 219.066 50.0635C219.153 49.9959 219.262 49.9695 219.392 49.9845L219.371 50.1615C219.286 50.1517 219.212 50.1728 219.152 50.2248C219.091 50.2768 219.039 50.348 218.997 50.4381C218.955 50.5283 218.91 50.6453 218.862 50.7893C218.86 50.7995 218.857 50.8092 218.854 50.8186C218.852 50.828 218.848 50.8378 218.844 50.8478C218.842 50.8594 218.838 50.8714 218.835 50.8836C218.831 50.8959 218.827 50.9078 218.822 50.9193C218.787 51.0333 218.754 51.1264 218.725 51.1985C218.696 51.2706 218.659 51.3317 218.614 51.3818C218.569 51.432 218.517 51.4536 218.458 51.4468C218.398 51.44 218.352 51.407 218.319 51.3479L218.32 51.3477ZM219.372 50.1615L219.549 50.1821L219.39 51.5543L219.212 51.5337L219.372 50.1615Z" fill="#00FFFF"/>
<path d="M220.167 51.5049L221.22 51.7093C221.262 51.7175 221.301 51.7096 221.337 51.6855C221.373 51.6614 221.395 51.6282 221.403 51.5859L221.638 50.3832L221.814 50.4173L221.579 51.6201C221.567 51.6813 221.542 51.7343 221.503 51.779C221.465 51.8238 221.418 51.8554 221.362 51.8741C221.306 51.8928 221.247 51.896 221.186 51.8842L220.133 51.6798L220.167 51.5049ZM220.251 51.1138C220.206 51.0755 220.174 51.0286 220.156 50.9727C220.137 50.9168 220.134 50.8583 220.146 50.7971L220.278 50.1191L220.454 50.1533L220.321 50.8312C220.313 50.8735 220.321 50.9125 220.345 50.9482C220.369 50.9838 220.402 51.0059 220.445 51.0141L221.322 51.1845L221.288 51.3594L220.411 51.189C220.349 51.1771 220.296 51.1519 220.251 51.1138Z" fill="#00FFFF"/>
<path d="M223.548 52.4322C223.508 52.3892 223.481 52.3389 223.469 52.2813C223.457 52.2237 223.46 52.1652 223.479 52.1056L223.85 50.9375L224.021 50.9914L223.65 52.1595C223.637 52.2006 223.64 52.2402 223.66 52.2784C223.68 52.3166 223.71 52.3423 223.752 52.3552L224.796 52.6849L224.741 52.8549L223.697 52.5252C223.638 52.5063 223.588 52.4753 223.548 52.4322H223.548Z" fill="#00FFFF"/>
<path d="M225.817 51.771L225.981 51.8359L225.735 52.4573L226.713 52.8433L226.648 53.0091L225.669 52.623L225.471 53.1202L225.307 53.0554L225.817 51.771ZM227.048 52.4242C227.064 52.3843 227.063 52.3443 227.045 52.3045C227.027 52.2646 226.998 52.2369 226.958 52.221L225.981 51.8357L226.047 51.6699L227.024 52.0552C227.082 52.0782 227.13 52.1124 227.167 52.1583C227.204 52.2041 227.227 52.2563 227.236 52.3148C227.245 52.3733 227.238 52.4316 227.214 52.4897L226.762 53.6291L226.596 53.5635L227.048 52.4241V52.4242Z" fill="#00FFFF"/>
<path d="M227.476 53.9012C227.443 53.8532 227.425 53.7998 227.421 53.7411C227.417 53.6823 227.429 53.6249 227.456 53.5687L227.912 52.6253L228.071 52.7017L227.615 53.6451C227.596 53.684 227.594 53.7237 227.608 53.7643C227.622 53.8048 227.649 53.8345 227.688 53.8533L228.636 54.3085L228.559 54.469L227.61 54.0138C227.554 53.9868 227.509 53.9492 227.476 53.9013L227.476 53.9012ZM228.748 54.0776C228.769 54.0334 228.781 53.9899 228.783 53.947C228.784 53.9041 228.777 53.8671 228.762 53.8357C228.747 53.8044 228.725 53.7823 228.698 53.7693L227.911 53.3915L227.989 53.231L228.776 53.609C228.803 53.6218 228.833 53.6246 228.868 53.617C228.902 53.6096 228.935 53.5917 228.968 53.5638C229 53.5357 229.027 53.4995 229.049 53.4554C229.07 53.4113 229.082 53.3677 229.083 53.3248C229.085 53.2819 229.078 53.2449 229.063 53.2135C229.047 53.1822 229.026 53.1601 228.999 53.1472L228.071 52.7015L228.148 52.541L229.077 52.9866C229.151 53.0221 229.203 53.0698 229.233 53.1297C229.264 53.1898 229.276 53.2549 229.269 53.325C229.263 53.3952 229.243 53.4643 229.21 53.5326C229.176 53.6036 229.138 53.6587 229.096 53.6982C229.055 53.7377 229.006 53.7687 228.951 53.7916C228.968 53.8524 228.974 53.9089 228.971 53.9607C228.967 54.0126 228.947 54.0774 228.909 54.1549L228.798 54.3858L228.637 54.3085L228.748 54.0776H228.748Z" fill="#00FFFF"/>
<path d="M230.564 55.5084C230.543 55.4491 230.54 55.3826 230.555 55.3086C230.57 55.2347 230.603 55.1583 230.653 55.0791L230.804 55.1744C230.761 55.2421 230.74 55.3094 230.74 55.3761C230.74 55.4429 230.766 55.4929 230.819 55.5263L231.669 56.0622L231.573 56.2128L230.686 55.653C230.626 55.6156 230.586 55.5675 230.565 55.5082L230.564 55.5084ZM231.86 55.7612C231.883 55.7248 231.89 55.6856 231.88 55.6436C231.871 55.6016 231.848 55.569 231.811 55.546L231.056 55.0697C230.997 55.0324 230.952 54.9893 230.924 54.9404C230.895 54.8914 230.883 54.8386 230.888 54.782C230.893 54.7255 230.914 54.6676 230.952 54.6087L231.143 54.3074L231.294 54.4026L231.103 54.7039C231.08 54.7403 231.073 54.7795 231.082 54.8215C231.092 54.8635 231.115 54.8961 231.151 54.9191L231.907 55.3954C231.967 55.4335 232.012 55.4769 232.04 55.5254C232.068 55.574 232.08 55.6261 232.075 55.6822C232.071 55.7381 232.049 55.7962 232.011 55.8564L231.82 56.1577L231.669 56.0625L231.86 55.7612H231.86ZM232.224 55.0878C232.223 55.0217 232.197 54.9718 232.144 54.9385L231.294 54.4026L231.389 54.252L232.277 54.8118C232.336 54.8491 232.377 54.8976 232.399 54.9572C232.421 55.0168 232.424 55.0834 232.409 55.1569C232.393 55.2304 232.36 55.3068 232.31 55.3858L232.159 55.2906C232.202 55.2216 232.224 55.154 232.224 55.0878Z" fill="#00FFFF"/>
<path d="M232.451 56.5952L233.315 57.2296C233.35 57.255 233.389 57.2646 233.431 57.2583C233.474 57.2518 233.508 57.2313 233.534 57.1965L234.263 56.2101L234.407 56.3158L233.678 57.3023C233.641 57.3524 233.595 57.3896 233.541 57.4137C233.487 57.4378 233.431 57.4463 233.372 57.4392C233.314 57.4321 233.259 57.41 233.209 57.3731L232.345 56.7387L232.451 56.5952ZM232.695 56.2778C232.671 56.2241 232.663 56.1681 232.67 56.1096C232.677 56.0511 232.699 55.9968 232.736 55.9466L233.147 55.3906L233.291 55.4964L232.88 56.0523C232.855 56.0871 232.845 56.1256 232.851 56.1682C232.858 56.2109 232.879 56.2448 232.913 56.2704L233.633 56.7991L233.527 56.9426L232.807 56.414C232.757 56.3769 232.72 56.3316 232.695 56.2778Z" fill="#00FFFF"/>
<path d="M234.104 57.997C234.091 57.9352 234.097 57.869 234.123 57.7979C234.148 57.7269 234.191 57.6557 234.252 57.5844L234.389 57.7C234.336 57.7611 234.306 57.8246 234.296 57.8906C234.287 57.9567 234.306 58.01 234.353 58.0504L235.119 58.7005L235.003 58.8362L234.203 58.1572C234.15 58.112 234.117 58.0584 234.104 57.9968L234.104 57.997ZM235.351 58.4293C235.379 58.3966 235.391 58.3586 235.388 58.3157C235.384 58.2728 235.366 58.2373 235.333 58.2094L234.653 57.6315C234.599 57.5863 234.562 57.5373 234.54 57.4849C234.519 57.4324 234.514 57.3783 234.527 57.3231C234.54 57.2678 234.569 57.2137 234.615 57.1604L234.847 56.8891L234.983 57.0047L234.751 57.276C234.723 57.3089 234.711 57.3467 234.714 57.3896C234.717 57.4325 234.736 57.4679 234.769 57.496L235.449 58.0739C235.504 58.1202 235.541 58.1692 235.562 58.2213C235.584 58.2733 235.588 58.3267 235.575 58.3815C235.563 58.4363 235.533 58.4908 235.487 58.5449L235.255 58.8163L235.119 58.7007L235.351 58.4293ZM235.806 57.8139C235.815 57.7485 235.796 57.6954 235.748 57.6549L234.983 57.0048L235.099 56.8691L235.899 57.5481C235.952 57.5934 235.985 57.6471 235.999 57.7093C236.012 57.7715 236.006 57.8379 235.98 57.9084C235.954 57.9789 235.91 58.0498 235.849 58.1211L235.713 58.0055C235.766 57.9433 235.798 57.8794 235.807 57.8139H235.806Z" fill="#00FFFF"/>
<path d="M236.939 58.9679C236.969 58.9372 236.983 58.9 236.982 58.8565C236.982 58.8129 236.966 58.776 236.935 58.7458L236.552 58.3713L236.677 58.2441L237.06 58.6186C237.105 58.6623 237.135 58.7124 237.152 58.7689C237.168 58.8254 237.168 58.8822 237.153 58.939C237.138 58.9958 237.109 59.0466 237.065 59.0911L236.204 59.9658L236.078 59.8425L236.939 58.9677L236.939 58.9679ZM237.299 58.8526L237.794 59.3362L237.669 59.4634L237.174 58.9798L237.299 58.8526Z" fill="#00FFFF"/>
<path d="M237.253 60.9745C237.241 60.9169 237.244 60.8602 237.263 60.8047C237.283 60.749 237.316 60.7005 237.362 60.6591L238.149 59.9648L238.267 60.0982L237.481 60.7925C237.449 60.821 237.431 60.8568 237.429 60.8998C237.426 60.9427 237.439 60.9803 237.468 61.0126L238.283 61.9297L238.149 62.048L237.334 61.1308C237.292 61.0842 237.265 61.032 237.253 60.9745H237.253ZM237.985 60.5531L238.697 61.3552L238.564 61.4735L237.851 60.6713L237.985 60.5531ZM238.401 59.98L239.32 61.014L239.186 61.1322L238.267 60.0982L238.401 59.98Z" fill="#00FFFF"/>
<path d="M239.636 61.6719L239.744 61.8137L238.641 62.6497L238.533 62.5078L239.636 61.6719ZM239.077 63.085C239.097 63.0204 239.131 62.9555 239.181 62.89C239.23 62.8247 239.299 62.7428 239.387 62.6444C239.393 62.6378 239.399 62.6312 239.404 62.6245C239.409 62.6179 239.415 62.6111 239.421 62.6046C239.426 62.5989 239.43 62.5935 239.435 62.5883C239.439 62.583 239.443 62.5781 239.447 62.5733C239.55 62.4547 239.629 62.3552 239.686 62.2749C239.743 62.1947 239.779 62.1146 239.796 62.0348C239.813 61.955 239.796 61.8813 239.744 61.8139L239.887 61.706C239.962 61.8052 239.993 61.91 239.978 62.0204C239.963 62.1308 239.919 62.2407 239.847 62.3501C239.775 62.4595 239.678 62.5833 239.555 62.7213C239.547 62.7309 239.539 62.7403 239.53 62.7497C239.522 62.7591 239.512 62.7684 239.503 62.7778C239.415 62.874 239.346 62.9545 239.297 63.0194C239.247 63.0842 239.229 63.126 239.243 63.1449C239.257 63.1626 239.298 63.1572 239.366 63.129C239.434 63.1006 239.522 63.0592 239.628 63.0047C239.67 62.9819 239.703 62.9657 239.725 62.9559C239.903 62.8698 240.053 62.807 240.175 62.7675C240.298 62.7279 240.414 62.7161 240.523 62.732C240.633 62.7479 240.727 62.8079 240.806 62.9119L240.664 63.0198C240.612 62.9513 240.546 62.9132 240.466 62.9055C240.386 62.8977 240.299 62.9101 240.205 62.9423C240.111 62.9746 239.995 63.0232 239.857 63.0884C239.848 63.0935 239.839 63.0984 239.83 63.103C239.822 63.1077 239.812 63.112 239.802 63.1158C239.792 63.1219 239.781 63.1277 239.77 63.1336C239.758 63.1395 239.747 63.1449 239.736 63.1496C239.628 63.2029 239.539 63.2439 239.466 63.2728C239.394 63.3017 239.324 63.3173 239.256 63.3199C239.189 63.3224 239.137 63.3 239.101 63.2527C239.065 63.2055 239.057 63.1495 239.077 63.085H239.077ZM240.664 63.0198L240.772 63.1617L239.669 63.9976L239.561 63.8558L240.664 63.0198Z" fill="#00FFFF"/>
<path d="M240.978 65.6552L241.681 66.8452L241.527 66.9357L240.824 65.7456L240.978 65.6552ZM241.137 65.3546C241.199 65.3185 241.258 65.2989 241.314 65.2961C241.37 65.2932 241.422 65.3066 241.47 65.3364C241.518 65.3661 241.56 65.4116 241.596 65.473L242.05 66.2408C242.072 66.2778 242.104 66.3019 242.146 66.3126C242.188 66.3234 242.227 66.3178 242.265 66.2959L242.631 66.081L242.721 66.2346L242.355 66.4495C242.295 66.485 242.236 66.5043 242.179 66.5075C242.123 66.5107 242.07 66.4972 242.022 66.4669C241.974 66.4367 241.932 66.3913 241.896 66.3312L241.442 65.5635C241.42 65.5263 241.388 65.5024 241.347 65.4917C241.305 65.4809 241.265 65.4865 241.228 65.5084L240.978 65.6553L240.887 65.5017L241.137 65.3548V65.3546ZM241.909 64.9467C241.983 64.9333 242.05 64.9385 242.109 64.9624C242.168 64.9864 242.215 65.0283 242.251 65.0885L242.784 65.9907L242.63 66.0812L242.12 65.2174C242.088 65.1637 242.039 65.1356 241.972 65.1331C241.906 65.1307 241.838 65.1503 241.767 65.1916L241.676 65.0381C241.757 64.9905 241.835 64.9601 241.909 64.9467H241.909Z" fill="#00FFFF"/>
<path d="M241.973 67.3812L242.592 68.6174L242.432 68.6969L241.813 67.4607L241.973 67.3812ZM242.822 68.503C242.866 68.4811 242.902 68.4538 242.929 68.4209C242.957 68.388 242.974 68.3545 242.981 68.3203C242.988 68.286 242.985 68.2556 242.972 68.229L242.503 67.292L242.663 67.2125L243.132 68.1496C243.145 68.1761 243.168 68.1969 243.199 68.2119C243.231 68.2269 243.268 68.2332 243.311 68.2309C243.354 68.2286 243.398 68.2165 243.442 68.1946C243.511 68.1602 243.56 68.1182 243.587 68.0688C243.615 68.0193 243.617 67.97 243.592 67.921L243.073 66.8842L243.233 66.8047L243.752 67.8415C243.788 67.9146 243.8 67.9842 243.788 68.0503C243.775 68.1164 243.744 68.1752 243.696 68.2266C243.648 68.278 243.589 68.3206 243.521 68.3544C243.451 68.3896 243.387 68.4099 243.33 68.416C243.273 68.4218 243.215 68.4169 243.158 68.4008C243.133 68.4592 243.104 68.508 243.069 68.5467C243.035 68.5854 242.979 68.6242 242.901 68.6626L242.671 68.777L242.592 68.6175L242.822 68.5032V68.503Z" fill="#00FFFF"/>
<path d="M243.731 69.0017C243.823 68.9635 243.913 68.9498 244.003 68.9606C244.092 68.9713 244.171 69.0044 244.241 69.0598C244.311 69.1154 244.365 69.1892 244.403 69.281L244.651 69.8779L244.486 69.9461L244.238 69.3493C244.216 69.2957 244.18 69.2509 244.131 69.2148C244.082 69.1787 244.028 69.156 243.969 69.1469C243.909 69.1376 243.853 69.1441 243.799 69.1664L243.242 69.3965L243.173 69.2318L243.731 69.0017H243.731ZM243.618 70.3041L243.302 69.5425L243.467 69.4743L243.784 70.2359L244.486 69.9461L244.553 70.1088L243.851 70.3985L243.937 70.6044L243.771 70.6727L243.686 70.4668L243.273 70.6372L243.205 70.4745L243.618 70.3041Z" fill="#00FFFF"/>
<path d="M245.222 71.4155L245.286 71.6007L243.628 71.5934L243.563 71.4082L245.222 71.4155Z" fill="#00FFFF"/>
<path d="M245.693 72.9012L245.748 73.0894L244.092 73.0026L244.037 72.8145L245.693 72.9012Z" fill="#00FFFF"/>
<path d="M246.092 74.408L246.138 74.5986L244.488 74.4328L244.442 74.2422L246.092 74.408Z" fill="#00FFFF"/>
<path d="M246.418 75.9299L246.455 76.1224L244.815 75.878L244.778 75.6855L246.418 75.9299Z" fill="#00FFFF"/>
<path d="M246.502 86.5811L246.473 86.7569L245.106 86.5332L245.135 86.3574L246.502 86.5811ZM245.786 86.8026L245.641 87.6842C245.634 87.7267 245.643 87.7654 245.668 87.8005C245.694 87.8353 245.728 87.8563 245.77 87.8634L246.123 87.9212C246.166 87.9281 246.205 87.919 246.24 87.894C246.275 87.8688 246.296 87.835 246.303 87.7926L246.473 86.7572L246.65 86.7861L246.479 87.8216C246.469 87.8832 246.446 87.9364 246.409 87.9817C246.372 88.0267 246.326 88.0595 246.27 88.0798C246.215 88.1001 246.156 88.1051 246.095 88.0951L245.742 88.0374C245.68 88.0274 245.626 88.0037 245.58 87.967C245.534 87.9301 245.501 87.8844 245.48 87.8299C245.46 87.7755 245.455 87.7174 245.465 87.6558L245.61 86.7742L245.786 86.803V86.8026Z" fill="#00FFFF"/>
<path d="M244.767 88.6518C244.807 88.6086 244.856 88.5786 244.912 88.5621C244.969 88.5456 245.028 88.5445 245.089 88.5587L246.285 88.8381L246.245 89.0116L245.048 88.7322C245.006 88.7223 244.967 88.7288 244.93 88.7515C244.893 88.7742 244.87 88.8064 244.86 88.8484L244.61 89.9113L244.436 89.8707L244.686 88.8078C244.7 88.7472 244.727 88.6952 244.767 88.6518Z" fill="#00FFFF"/>
<path d="M245.05 92.1272C245.092 92.1399 245.132 92.1357 245.17 92.1149C245.208 92.094 245.234 92.0629 245.247 92.0218L245.555 91.0208L245.726 91.0732L245.418 92.0741C245.399 92.1337 245.369 92.1839 245.326 92.2243C245.283 92.2648 245.233 92.2918 245.175 92.305C245.117 92.3185 245.058 92.316 244.998 92.2976L243.823 91.9383L243.875 91.7679L245.051 92.1272H245.05ZM245.607 90.8524L245.555 91.0207L244.914 90.8247L244.605 91.8278L244.434 91.7755L244.743 90.7723L244.23 90.6155L244.282 90.4473L245.606 90.8524H245.607Z" fill="#00FFFF"/>
<path d="M243.738 92.7125L243.352 93.7104C243.337 93.7505 243.338 93.7903 243.355 93.8297C243.373 93.8691 243.402 93.8965 243.442 93.912L244.589 94.3523L244.525 94.5187L243.378 94.0784C243.319 94.056 243.271 94.022 243.234 93.9766C243.196 93.9313 243.173 93.8794 243.164 93.821C243.156 93.7629 243.163 93.7047 243.185 93.6463L243.571 92.6484L243.738 92.7125ZM244.109 92.8634C244.155 92.8261 244.207 92.8031 244.265 92.7945C244.324 92.7858 244.382 92.7928 244.441 92.8151L245.087 93.0633L245.023 93.2297L244.376 92.9815C244.336 92.9661 244.296 92.967 244.257 92.9845C244.217 93.0019 244.19 93.0308 244.174 93.0709L243.853 93.9025L243.686 93.8385L244.007 93.0068C244.03 92.9487 244.064 92.9008 244.109 92.8634Z" fill="#00FFFF"/>
<path d="M242.237 95.8608C242.283 95.8287 242.335 95.8127 242.391 95.8125C242.447 95.8125 242.507 95.8289 242.571 95.8619L243.502 96.3458L243.419 96.5038L242.488 96.0199C242.449 96 242.41 95.9965 242.369 96.0094C242.327 96.0224 242.297 96.0479 242.277 96.0862L241.792 97.0147L241.633 96.9323L242.118 96.0037C242.151 95.9405 242.191 95.8928 242.237 95.8608H242.237ZM242.723 97.4986C242.761 97.5185 242.801 97.5219 242.842 97.5091C242.883 97.4962 242.914 97.4705 242.934 97.4324L243.42 96.5038L243.578 96.5863L243.093 97.5148C243.06 97.5767 243.021 97.6241 242.974 97.6568C242.928 97.6896 242.876 97.7061 242.82 97.7061C242.764 97.7061 242.704 97.6897 242.641 97.6567L241.709 97.1728L241.792 97.0147L242.723 97.4986H242.723Z" fill="#00FFFF"/>
<path d="M240.797 98.9517C240.822 98.9673 240.854 98.9781 240.891 98.9843C240.928 98.9905 240.964 98.9895 240.998 98.9815C241.031 98.9735 241.055 98.958 241.069 98.9352L241.537 98.1756L241.689 98.2689L241.222 99.0284C241.208 99.0513 241.205 99.0795 241.213 99.1132C241.221 99.1468 241.236 99.1788 241.259 99.2092C241.281 99.2394 241.305 99.2624 241.331 99.2779L241.578 99.4293C241.615 99.4518 241.654 99.458 241.696 99.448C241.738 99.4379 241.771 99.4145 241.793 99.3779L242.343 98.4853L242.495 98.5785L241.946 99.4711C241.913 99.5244 241.871 99.5651 241.819 99.5937C241.768 99.6222 241.712 99.6355 241.653 99.6333C241.594 99.6312 241.538 99.6139 241.485 99.5813L241.237 99.4299C241.186 99.3989 241.144 99.3603 241.11 99.3144C241.076 99.2684 241.051 99.2184 241.033 99.1643C240.977 99.1734 240.921 99.1734 240.864 99.1643C240.808 99.155 240.754 99.1349 240.704 99.1039L240.437 98.9408L240.53 98.7889L240.797 98.952V98.9517ZM242.436 98.3335L242.342 98.4854L241.161 97.7632L241.255 97.6113L242.436 98.3335Z" fill="#00FFFF"/>
<path d="M240.432 101.368L240.322 101.508L239.371 100.768L238.628 101.716L238.487 101.606L239.34 100.518L240.432 101.368ZM239.456 102.36C239.49 102.387 239.528 102.397 239.571 102.392C239.614 102.387 239.649 102.367 239.676 102.333L240.322 101.508L240.463 101.618L239.816 102.443C239.778 102.492 239.731 102.528 239.677 102.551C239.622 102.573 239.566 102.58 239.507 102.572C239.449 102.563 239.395 102.539 239.346 102.501L238.518 101.857L238.628 101.716L239.456 102.36Z" fill="#00FFFF"/>
<path d="M237.495 102.82C237.55 102.801 237.607 102.798 237.664 102.811C237.722 102.824 237.774 102.851 237.821 102.892L238.487 103.487L238.369 103.618L237.703 103.024C237.671 102.995 237.633 102.982 237.59 102.984C237.547 102.986 237.511 103.004 237.482 103.036L237.169 103.384L237.036 103.265L237.349 102.917C237.391 102.87 237.439 102.838 237.495 102.82ZM238.123 102.322L237.706 102.787L237.573 102.668L237.99 102.203L238.123 102.322ZM239.155 103.244L238.201 104.306L238.068 104.187L239.022 103.125L239.155 103.244Z" fill="#00FFFF"/>
<path d="M236.534 103.845C236.592 103.83 236.648 103.83 236.705 103.847C236.762 103.863 236.812 103.894 236.856 103.939L237.588 104.689L237.46 104.813L236.728 104.063C236.697 104.032 236.661 104.016 236.618 104.016C236.574 104.015 236.537 104.03 236.506 104.06L235.626 104.915L235.501 104.788L236.382 103.933C236.426 103.889 236.477 103.86 236.534 103.845V103.845ZM236.991 104.553L236.221 105.301L236.097 105.173L236.867 104.426L236.991 104.553ZM237.585 104.941L236.593 105.905L236.468 105.777L237.461 104.813L237.585 104.941Z" fill="#00FFFF"/>
<path opacity="0.9" d="M215.037 57.7695C201.367 57.7695 190.285 68.9763 190.285 82.7999C190.285 96.6236 201.367 107.829 215.037 107.829C228.707 107.829 239.789 96.6219 239.789 82.7999C239.789 68.978 228.707 57.7695 215.037 57.7695ZM215.037 102.849C204.087 102.849 195.21 93.8718 195.21 82.7983C195.21 71.7248 204.087 62.748 215.037 62.748C225.987 62.748 234.865 71.7248 234.865 82.7983C234.865 93.8718 225.987 102.849 215.037 102.849Z" fill="url(#paint11_linear_0_1)"/>
<path style="mix-blend-mode:multiply" d="M215.037 57.7695C201.367 57.7695 190.285 68.7163 190.285 82.2197C190.285 95.7231 201.367 106.67 215.037 106.67C228.707 106.67 239.789 95.7231 239.789 82.2197C239.789 68.7163 228.707 57.7695 215.037 57.7695ZM215.037 101.807C204.087 101.807 195.21 93.038 195.21 82.2213C195.21 71.4046 204.087 62.6358 215.037 62.6358C225.987 62.6358 234.865 71.4046 234.865 82.2213C234.865 93.038 225.987 101.807 215.037 101.807Z" fill="url(#paint12_linear_0_1)"/>
<g opacity="0.4">
<path d="M216.002 106.709C225.784 106.453 234.934 99.8667 238.148 90.7388C244.047 74.6591 231.479 57.6693 214.19 58.3292C196.904 58.9355 185.641 76.7949 192.724 92.3982C196.612 101.265 206.227 107.169 216.002 106.709ZM216.002 106.709C206.189 107.184 196.537 101.344 192.441 92.5266C184.857 76.5559 196.288 58.0009 214.154 57.3557C232.017 56.699 244.804 74.3666 238.437 90.8444C235.012 99.9366 225.825 106.467 216.002 106.708V106.709Z" fill="#FCFAFB"/>
</g>
<path d="M229.232 96.2761C237.082 88.5222 237.082 75.9505 229.232 68.1965C221.383 60.4425 208.656 60.4425 200.806 68.1965C192.956 75.9505 192.956 88.5222 200.806 96.2761C208.656 104.03 221.383 104.03 229.232 96.2761Z" fill="url(#paint13_linear_0_1)"/>
<g opacity="0.5">
<path d="M235.153 82.4967C234.831 100.285 213.302 108.967 200.523 96.3708C192.65 88.6259 192.747 75.5662 200.711 67.9141C213.8 55.3794 235.25 64.5691 235.153 82.4967ZM235.087 82.4951C235.209 68.5577 220.614 58.9779 207.627 64.2099C200.329 67.0266 195.197 74.3814 195.184 82.131C195.005 96.1172 209.364 105.765 222.498 100.621C229.904 97.8108 235.118 90.3456 235.087 82.4951Z" fill="#161616"/>
</g>
<g style="mix-blend-mode:multiply" opacity="0.5">
<path d="M228.942 95.7742C236.791 88.0202 236.791 75.4485 228.942 67.6946C221.092 59.9406 208.365 59.9406 200.515 67.6946C192.665 75.4485 192.665 88.0202 200.515 95.7742C208.365 103.528 221.092 103.528 228.942 95.7742Z" fill="#161616"/>
</g>
<path d="M232.132 73.9927C236.67 83.3434 232.675 94.5567 223.21 99.0378C213.744 103.519 202.394 99.5725 197.856 90.2219C193.32 80.8729 197.315 69.6612 206.779 65.1785C216.245 60.6974 227.595 64.6437 232.132 73.9927Z" fill="url(#paint14_radial_0_1)"/>
<path style="mix-blend-mode:color-burn" opacity="0.6" d="M232.132 73.9927C236.67 83.3434 232.675 94.5567 223.21 99.0378C213.744 103.519 202.394 99.5725 197.856 90.2219C193.32 80.8729 197.315 69.6612 206.779 65.1785C216.245 60.6974 227.595 64.6437 232.132 73.9927Z" fill="url(#paint15_linear_0_1)"/>
<g style="mix-blend-mode:overlay" opacity="0.6">
<path d="M206.812 73.3536C216 68.8644 227.133 72.5815 231.677 81.6575C232.311 82.9237 232.778 84.2272 233.096 85.5453C233.79 81.7973 233.313 77.807 231.472 74.1305C226.927 65.0545 215.794 61.3373 206.606 65.8266C198.7 69.69 194.815 78.3727 196.779 86.5027C197.8 80.9992 201.345 76.0257 206.812 73.3536Z" fill="#060D51"/>
</g>
<path style="mix-blend-mode:color-burn" opacity="0.6" d="M232.133 73.9915C236.67 83.3421 232.676 94.5538 223.21 99.0349C213.744 103.518 202.394 99.5713 197.857 90.2206C193.321 80.87 197.316 69.6583 206.78 65.1772C216.245 60.6945 227.597 64.6425 232.133 73.9915Z" fill="url(#paint16_linear_0_1)"/>
<path opacity="0.1" d="M223.032 96.7036C213.662 101.141 202.496 97.3814 198.093 88.3054C197.281 86.6346 196.763 84.9003 196.506 83.1547C196.628 85.448 197.197 87.7544 198.262 89.9486C202.665 99.023 213.833 102.784 223.202 98.3468C230.871 94.7158 234.96 86.7207 233.779 78.9629C234.193 86.1827 230.16 93.3294 223.032 96.7036Z" fill="#F4DDC1"/>
<g style="mix-blend-mode:soft-light" opacity="0.7">
<path d="M209.23 66.9649C218.965 63.4753 229.721 68.4407 233.252 78.0579C233.375 78.3911 233.487 78.7276 233.589 79.0624C233.403 78.0807 233.137 77.1006 232.781 76.1303C229.249 66.5147 218.492 61.5492 208.76 65.0372C199.364 68.4066 194.356 78.422 197.196 87.7613C195.537 79.0071 200.48 70.1018 209.232 66.9649H209.23Z" fill="#0619FF"/>
</g>
<path d="M223.162 99.0504C213.712 103.525 202.339 99.5705 197.809 90.2361C193.28 80.9033 197.283 69.6673 206.733 65.1927C216.182 60.7181 227.555 64.6726 232.085 74.007C236.615 83.343 232.612 94.5758 223.162 99.0504ZM207.789 67.3674C199.554 71.2683 196.065 81.0578 200.013 89.1926C203.96 97.3275 213.872 100.775 222.107 96.8741C230.343 92.9748 233.831 83.1837 229.884 75.0488C225.936 66.9139 216.024 63.4682 207.789 67.3658V67.3674Z" fill="#0000FF"/>
<path style="mix-blend-mode:screen" d="M211.414 99.3036C221.219 99.3036 229.168 91.4518 229.168 81.7661C229.168 72.0803 221.219 64.2285 211.414 64.2285C201.608 64.2285 193.659 72.0803 193.659 81.7661C193.659 91.4518 201.608 99.3036 211.414 99.3036Z" fill="url(#paint17_radial_0_1)"/>
<g style="mix-blend-mode:hard-light">
<path d="M223.039 82.2757C222.713 81.7442 222.368 81.239 222.013 80.7674C224.831 78.3158 226.19 75.6359 224.986 73.5474C223.587 71.1145 218.65 71.5225 214.103 74.3633C213.521 74.7264 212.977 75.1119 212.466 75.5161C210.022 72.6229 207.345 71.2193 205.263 72.4432C202.86 73.8618 203.26 78.851 206.074 83.4435C206.452 84.0611 206.859 84.645 207.278 85.1839C204.512 87.6205 203.19 90.2705 204.378 92.3365C205.778 94.7694 210.714 94.3614 215.262 91.5206C215.817 91.1725 216.343 90.8057 216.832 90.4239C219.224 93.1674 221.816 94.47 223.842 93.2797C226.249 91.8649 225.846 86.8757 223.035 82.2795L223.039 82.2757ZM222.731 77.3052C223.52 77.6683 223.042 79.0344 221.816 80.5128C220.831 79.2552 219.754 78.2334 218.68 77.4961C220.02 76.9197 221.435 76.7064 222.731 77.3015V77.3052ZM217.884 77.8854C217.391 78.5254 216.843 79.3376 216.317 80.2284C215.954 80.846 216.051 81.632 216.547 82.1447C217.454 83.0767 218.839 84.6412 219.698 86.3891C219.05 85.8764 218.213 85.2887 217.288 84.7348C216.676 84.368 215.899 84.4653 215.391 84.9668C214.406 85.9475 212.707 87.4783 210.837 88.3242C211.411 87.6355 212.122 86.6324 212.788 85.4983C213.151 84.8808 213.055 84.0948 212.559 83.582C211.64 82.6388 210.229 81.0443 209.374 79.2702C210.048 79.8354 211 80.5166 212.073 81.1604C212.684 81.5272 213.462 81.4298 213.969 80.9283C214.84 80.0637 216.273 78.7649 217.884 77.8891V77.8854ZM208.981 74.7226C209.344 73.9142 210.733 74.4232 212.225 75.707C210.966 76.7363 209.948 77.8629 209.241 78.9745C208.618 77.5747 208.367 76.085 208.981 74.7226ZM206.634 88.5824C205.86 88.2269 206.308 86.8982 207.489 85.4459C208.5 86.6886 209.6 87.6916 210.685 88.3878C209.348 88.9642 207.93 89.1776 206.634 88.5824ZM220.128 91.0003C219.783 91.7676 218.513 91.3484 217.11 90.2031C218.317 89.2187 219.302 88.1483 220.013 87.0853C220.528 88.3841 220.694 89.7465 220.132 91.0003H220.128Z" fill="#24FF87"/>
</g>
<path d="M197.873 97.2142C201.952 101.72 207.565 104.387 213.674 104.723C219.784 105.06 225.661 103.026 230.222 98.9956C234.783 94.9664 237.484 89.4223 237.824 83.3873C238.165 77.3524 236.106 71.5467 232.026 67.0412C227.947 62.5357 222.334 59.8685 216.225 59.5321C210.115 59.1956 204.238 61.2289 199.677 65.2598C195.115 69.289 192.415 74.8331 192.075 80.868C191.734 86.903 193.793 92.7087 197.873 97.2142ZM199.742 95.5629C196.109 91.5499 194.276 86.3812 194.579 81.0062C194.882 75.6312 197.287 70.695 201.348 67.1062C205.409 63.5174 210.643 61.7068 216.085 62.0058C221.526 62.3049 226.523 64.6812 230.156 68.6925C233.79 72.7055 235.623 77.8742 235.32 83.2492C235.017 88.6242 232.611 93.5604 228.551 97.1492C224.49 100.738 219.256 102.549 213.814 102.25C208.373 101.95 203.376 99.5742 199.742 95.5629Z" fill="white"/>
<path d="M199.771 65.3626C204.304 61.3577 210.145 59.3358 216.218 59.6706C221.026 59.9355 225.523 61.6421 229.234 64.6068C229.604 64.9253 229.242 67.5698 228.85 67.1878C225.365 64.0168 220.854 62.133 216.093 61.8697C210.616 61.5674 205.345 63.391 201.255 67.0042C197.164 70.6173 194.744 75.5877 194.44 80.9984C194.168 85.8127 195.629 90.5409 198.561 94.3621C198.693 94.6417 196.131 94.8643 195.991 94.5913C193.242 90.5311 191.937 85.7916 192.215 80.8749C192.554 74.8757 195.238 69.3674 199.771 65.3609V65.3626Z" fill="url(#paint18_linear_0_1)"/>
<path d="M199.771 65.3626C204.304 61.3577 210.145 59.3358 216.218 59.6706C221.026 59.9355 225.523 61.6421 229.234 64.6068C232.138 67.0269 231.164 69.5023 228.85 67.1878C225.365 64.0168 220.854 62.133 216.093 61.8697C210.616 61.5674 205.345 63.391 201.255 67.0042C197.164 70.6173 194.744 75.5876 194.44 80.9984C194.168 85.8127 195.629 90.5409 198.561 94.3621C201.531 98.5978 199.305 99.2885 195.991 94.5913C193.242 90.5311 191.937 85.7916 192.215 80.8749C192.554 74.8757 195.238 69.3674 199.771 65.3609V65.3626Z" fill="url(#paint19_linear_0_1)"/>
<path d="M197.141 71.3575C199.662 67.2746 203.51 64.2173 208.149 62.657C212.659 61.1389 217.585 61.2023 222.033 62.8325C225.913 64.4936 224.388 61.7436 221.37 60.7245C216.85 59.364 212.076 59.4469 207.566 60.9634C201.862 62.8829 197.254 66.8813 194.595 72.2222C194.171 73.0755 193.804 73.9451 193.496 74.8293C194.663 73.5144 195.889 72.349 197.143 71.3559L197.141 71.3575Z" fill="url(#paint20_linear_0_1)"/>
<path d="M199.707 65.5034C202.5 63.0362 205.795 61.3328 209.502 60.4388C211.196 60.0878 212.876 60.3608 213.33 60.824C213.45 60.9459 213.45 61.0565 213.428 61.128C213.415 61.1702 213.382 61.2369 213.295 61.3133C213.004 61.5717 212.295 61.7781 211.247 61.9114H211.238C207.386 62.6103 203.819 64.3283 200.931 66.8801C200.237 67.4929 199.582 68.1576 198.983 68.8533C197.147 70.9874 195.814 73.4043 195.021 76.0373C194.45 77.9341 192.729 85.7439 192.729 85.7439C192.619 85.1686 192.53 84.5834 192.467 84.0048C192.15 81.1101 192.407 78.2527 193.233 75.514C194.096 72.6485 195.546 70.0187 197.545 67.696C198.213 66.9191 198.94 66.1812 199.706 65.5067L199.707 65.5034Z" fill="url(#paint21_linear_0_1)"/>
<path d="M235.677 73.7854C236.754 76.6428 237.232 79.7164 237.055 82.8533C236.717 88.833 234.042 94.3266 229.522 98.3185C225.002 102.312 219.179 104.327 213.125 103.993C209.95 103.817 206.912 103.006 204.156 101.633C203.307 101.202 203.388 101.504 203.908 101.852C206.884 103.5 210.223 104.469 213.729 104.662C219.783 104.995 225.607 102.98 230.126 98.9882C234.644 94.9963 237.321 89.5026 237.659 83.5229C237.854 80.0593 237.25 76.6737 235.924 73.5693C235.62 72.9614 235.426 73.1629 235.676 73.7887L235.677 73.7854Z" fill="url(#paint22_linear_0_1)"/>
<path d="M206 63.6255C201.612 65.6458 198.108 69.0834 196.024 73.4653C193.995 77.7254 193.511 82.5673 194.656 87.1134C195.897 91.1069 193.299 89.3028 192.609 86.2276C191.742 81.6392 192.358 76.9631 194.385 72.703C196.95 67.3166 201.485 63.2386 207.155 61.2216C208.06 60.8997 208.977 60.6364 209.901 60.4316C208.448 61.4312 207.14 62.504 206 63.6255Z" fill="url(#paint23_linear_0_1)"/>
<path d="M194.05 73.3675C196.616 67.9811 201.15 63.9031 206.821 61.886C207.314 61.7105 207.813 61.5528 208.313 61.4114C210.001 60.6036 210.603 60.1875 209.912 60.2363C208.989 60.4411 208.071 60.7044 207.166 61.0262C201.496 63.0433 196.961 67.1213 194.396 72.5077C194.124 73.0782 193.879 73.6552 193.659 74.2387C193.784 73.9461 193.914 73.6552 194.05 73.3675Z" fill="white"/>
<path d="M194.32 87.777C194.51 88.3866 194.61 88.8612 194.64 89.2171C195.033 89.2285 195.178 88.5702 194.664 86.9172C193.661 82.9335 193.909 78.7222 195.35 74.875C193.61 78.9481 193.241 83.4926 194.319 87.7754L194.32 87.777Z" fill="white"/>
<path d="M208.621 103.395C213.141 104.755 217.914 104.672 222.425 103.156C223.446 102.813 224.432 102.4 225.378 101.929C225.39 101.922 225.403 101.918 225.414 101.911C225.528 101.854 225.64 101.796 225.752 101.737C225.819 101.701 225.887 101.667 225.954 101.631C226.008 101.602 226.064 101.571 226.119 101.542C230.252 99.2926 233.556 95.8289 235.603 91.5283C237.632 87.2682 238.245 82.5921 237.378 78.0037C236.69 74.9285 234.092 73.126 235.331 77.1179C236.476 81.664 235.991 86.5075 233.964 90.766C233.643 91.4405 233.288 92.0923 232.901 92.7196C232.883 92.7343 232.866 92.7489 232.848 92.7619C231.038 95.694 228.542 98.0979 225.561 99.7964C225.049 100.086 224.524 100.356 223.986 100.604C223.984 100.606 223.981 100.609 223.979 100.611C223.287 100.931 222.573 101.215 221.839 101.462C217.329 102.98 212.402 102.917 207.955 101.287C204.075 99.6258 205.6 102.376 208.618 103.395H208.621Z" fill="url(#paint24_linear_0_1)"/>
<path d="M236.021 78.5821C236.728 83.1965 235.955 87.8498 233.78 92.0384C231.585 96.2675 228.164 99.619 223.957 101.727C223.901 101.755 223.845 101.784 223.789 101.812C223.72 101.846 223.652 101.878 223.583 101.911C223.469 101.966 223.354 102.02 223.241 102.073C223.228 102.08 223.216 102.085 223.203 102.09C222.987 102.189 222.769 102.283 222.55 102.376C223.068 102.224 223.58 102.054 224.08 101.865C224.082 101.864 224.085 101.862 224.087 101.859C224.643 101.651 225.186 101.42 225.717 101.166C228.815 99.6856 231.483 97.4687 233.505 94.6747C233.523 94.6617 233.541 94.6487 233.561 94.6357C233.992 94.0376 234.395 93.4134 234.765 92.7633C237.102 88.6609 237.943 83.8661 237.136 79.2501C236.853 78.0262 235.85 77.6686 236.021 78.5788V78.5821Z" fill="url(#paint25_linear_0_1)"/>
<g clip-path="url(#clip0_0_1)" filter="url(#filter2_d_0_1)">
<path d="M369.674 81.5568V88.271C369.674 89.7482 368.436 90.9464 366.911 90.9464H339.983C338.329 90.9464 336.985 89.65 336.985 88.0438V71.5423H342.533V85.5699H364.121V84.2528H347.734C345.669 84.2528 344 82.6363 344 80.6375C344 79.6768 344.394 78.7575 345.093 78.0809L353.441 69.998L357.368 73.7993L352.119 78.8815H366.905C368.431 78.8815 369.669 80.0797 369.669 81.5568H369.674Z" fill="#24FF87"/>
<path d="M302.119 85.6213V90.9927H264.688C263.024 90.9927 261.674 89.686 261.674 88.0746V71.5938H267.227V85.6265H302.119V85.6213Z" fill="#24FF87"/>
<path d="M335.889 74.8317V87.661C335.889 89.479 334.368 90.9458 332.496 90.9458H306.341C304.624 90.9458 303.226 89.5978 303.226 87.9296V81.8971C303.226 80.234 304.618 78.8809 306.341 78.8809H328.895V84.2522H308.779V85.5693H330.346V76.9182H303.215V71.5469H332.496C334.374 71.5469 335.889 73.0188 335.889 74.8317Z" fill="#24FF87"/>
<path d="M285.881 71.5212V80.6732C285.566 80.6732 285.267 80.6732 284.963 80.6732C284.19 80.6732 283.416 80.6577 282.643 80.6783C282.312 80.6886 282.226 80.5854 282.226 80.2755C282.237 78.4058 282.237 76.531 282.226 74.6613C282.226 74.4961 282.12 74.336 282.061 74.1707C281.906 74.3153 281.656 74.4444 281.613 74.6149C281.437 75.3121 281.325 76.03 281.186 76.7376C281.01 77.6672 280.829 78.5969 280.658 79.5266C280.605 79.8055 280.562 80.0844 280.519 80.3684C280.487 80.5905 280.381 80.6783 280.13 80.6783C278.194 80.668 276.252 80.668 274.316 80.6783C274.033 80.6783 273.953 80.5802 273.905 80.3219C273.675 79.0514 273.419 77.786 273.179 76.5207C273.083 76.0197 273.014 75.5135 272.907 75.0177C272.854 74.7801 272.758 74.5426 272.63 74.336C272.571 74.243 272.385 74.2172 272.257 74.1655C272.219 74.2792 272.144 74.3979 272.144 74.5116C272.139 76.407 272.144 78.3025 272.144 80.198C272.144 80.3374 272.144 80.4769 272.144 80.6732H271.579C270.71 80.6732 269.835 80.6525 268.965 80.6835C268.565 80.699 268.448 80.5492 268.448 80.2032C268.453 79.3045 268.448 78.4058 268.448 77.5071C268.448 76.5155 268.448 75.5187 268.448 74.5271C268.448 73.6284 268.464 72.7297 268.469 71.831C268.469 71.5935 268.56 71.4953 268.821 71.5005C270.501 71.5108 272.187 71.4592 273.862 71.5315C274.726 71.5676 275.436 72.0583 275.847 72.8175C276.065 73.2255 276.183 73.7007 276.268 74.1604C276.492 75.3121 276.663 76.469 276.881 77.6208C276.897 77.7034 277.105 77.7912 277.233 77.8119C277.436 77.848 277.58 77.755 277.612 77.5278C277.671 77.1198 277.746 76.7118 277.81 76.2986C277.943 75.4929 278.092 74.6872 278.204 73.8815C278.375 72.6471 279.159 71.9343 280.317 71.5367C280.418 71.5005 280.535 71.5108 280.647 71.5108C282.317 71.5108 283.987 71.5108 285.651 71.5108C285.72 71.5108 285.795 71.5263 285.881 71.5315V71.5212Z" fill="#24FF87"/>
<path d="M295.92 80.6727C294.757 80.6727 293.631 80.6727 292.506 80.6727C292.255 80.6727 292.292 80.4919 292.292 80.3473C292.292 79.4693 292.292 78.5912 292.292 77.7184C292.292 77.1709 292.015 76.8972 291.46 76.8972C290.895 76.8972 290.329 76.8817 289.769 76.8972C288.297 76.9437 287.171 75.9675 286.947 74.573C286.915 74.3768 286.91 74.1702 286.91 73.9688C286.91 73.1631 286.91 72.3625 286.91 71.5362C287.027 71.5207 287.107 71.5052 287.193 71.5052C288.212 71.5052 289.23 71.5052 290.249 71.5C290.505 71.5 290.596 71.5775 290.591 71.8254C290.58 72.5226 290.596 73.225 290.585 73.9223C290.58 74.2425 290.703 74.3561 291.039 74.351C293.098 74.3406 295.162 74.3406 297.221 74.351C297.573 74.351 297.696 74.2373 297.685 73.8965C297.664 73.1166 297.68 72.3367 297.68 71.5362C297.792 71.5207 297.878 71.5052 297.958 71.5052C298.966 71.5052 299.969 71.5052 300.977 71.5052C301.158 71.5052 301.324 71.4948 301.318 71.7479C301.302 72.7292 301.286 73.7157 301.281 74.697C301.281 75.7351 300.129 76.9024 298.902 76.8869C298.118 76.8765 297.333 76.892 296.544 76.8972C296.146 76.8972 295.946 77.0848 295.946 77.4602C295.946 78.3847 295.946 79.3091 295.946 80.2336C295.946 80.3731 295.936 80.5125 295.925 80.6778L295.92 80.6727Z" fill="#24FF87"/>
</g>
<path d="M545.712 93.7245C556.551 83.7319 559.775 69.3948 552.915 61.7018C546.054 54.0088 531.706 55.873 520.867 65.8657C510.029 75.8583 506.804 90.1954 513.664 97.8884C520.525 105.581 534.873 103.717 545.712 93.7245Z" fill="#FCE55C"/>
<path d="M523.115 68.1959C514.083 76.5175 511.053 89.8201 516.8 96.2649C522.558 102.71 534.538 101.199 543.57 92.8654C552.602 84.5439 556.096 69.6832 550.338 63.2266C544.58 56.7701 532.135 59.8508 523.103 68.1841L523.115 68.1959Z" fill="#333333"/>
<path d="M527.259 61.1252C527.259 61.1252 527.282 61.1134 527.294 61.1016C527.282 61.1016 527.271 61.1134 527.259 61.1252Z" fill="#C15D0E"/>
<path d="M515.569 71.9143C515.569 71.9143 515.58 71.8907 515.592 71.8789C515.592 71.8907 515.58 71.9025 515.569 71.9143Z" fill="#C15D0E"/>
<path d="M548.678 58.5639C548.55 58.5048 548.434 58.434 548.306 58.375C548.434 58.434 548.562 58.5048 548.678 58.5639Z" fill="#C15D0E"/>
<path d="M520.886 65.8948C522.732 64.195 524.67 62.7432 526.655 61.5156C524.659 62.7432 522.72 64.1832 520.874 65.883C519.028 67.5827 517.426 69.4122 516.033 71.3126C517.426 69.424 519.04 67.5945 520.886 65.8948Z" fill="#C15D0E"/>
<path d="M552.915 61.7149C551.917 60.6054 550.756 59.7083 549.479 58.9883C550.489 59.6021 551.394 60.3575 552.195 61.2546C558.743 68.5964 555.643 83.7286 544.905 93.6318C534.166 103.535 519.841 104.479 513.293 97.1257C512.492 96.2286 511.842 95.2253 511.332 94.1512C511.912 95.5086 512.667 96.7834 513.665 97.8929C520.526 105.589 534.875 103.724 545.706 93.7262C556.537 83.7286 559.764 69.399 552.903 61.7031L552.915 61.7149Z" fill="#C15D0E"/>
<path style="mix-blend-mode:multiply" d="M521.35 93.479C516.44 87.412 518.727 76.7651 526.249 70.2023C532.019 65.174 538.973 62.5772 544.382 63.7694C538.822 61.2434 530.521 63.5923 524.113 69.5059C516.335 76.6707 514.141 87.0933 519.214 92.7826C520.7 94.4469 522.639 95.4974 524.833 96.005C523.509 95.4148 522.279 94.624 521.35 93.479Z" fill="url(#paint26_radial_0_1)"/>
<path d="M516.59 97.245C510.484 90.4344 513.41 76.2229 523.184 67.2521C531.067 60.0283 541.318 57.101 548.202 59.7923C541.352 56.3102 530.428 59.1431 522.128 66.7564C512.342 75.7271 509.428 89.9386 515.534 96.7493C516.765 98.1185 518.285 99.1336 519.992 99.8182C518.727 99.169 517.566 98.3192 516.602 97.245H516.59Z" fill="url(#paint27_linear_0_1)"/>
<path d="M555.55 63.4038C554.018 61.6923 552.195 60.3585 550.175 59.3906C551.174 60.028 552.079 60.7953 552.892 61.6923C559.753 69.3883 556.526 83.7178 545.694 93.7155C534.852 103.713 520.514 105.578 513.654 97.8821C511.877 95.8873 510.798 93.4558 510.322 90.7646C510.728 94.6361 512.144 98.2126 514.698 101.069C522.604 109.922 538.149 108.671 549.433 98.2716C560.716 87.8727 563.456 72.2565 555.55 63.392V63.4038Z" fill="url(#paint28_radial_0_1)"/>
<path d="M526.969 96.3946C526.772 96.3946 526.574 96.3946 526.377 96.3946C523.243 96.2648 520.631 95.1434 518.843 93.1368C516.486 90.5046 515.662 86.4088 516.579 81.8998C517.519 77.2728 520.12 72.7992 523.916 69.3054C531.81 62.0226 542.723 60.3346 547.738 65.599C549.502 67.4522 550.396 70.0608 550.326 73.1415C550.199 78.5948 547.099 84.7563 542.026 89.6075C537.557 93.8923 531.973 96.3946 526.958 96.3946H526.969ZM539.623 63.0967C534.759 63.0967 529.001 65.4102 524.322 69.7303C520.631 73.1415 518.088 77.4971 517.171 82.006C516.289 86.3143 517.067 90.2213 519.296 92.7237C520.979 94.6123 523.44 95.6746 526.423 95.7926C531.427 96.0169 537.127 93.5263 541.666 89.1826C546.623 84.4376 549.665 78.4295 549.781 73.1297C549.85 70.2143 549.003 67.7473 547.355 66.0122C545.485 64.0528 542.746 63.1085 539.646 63.1085L539.623 63.0967Z" fill="url(#paint29_linear_0_1)"/>
<path d="M551.812 64.8789C555.527 71.8902 552.335 83.5404 543.848 91.378C534.422 100.065 522.058 101.812 516.242 95.2849C515.894 94.8954 515.581 94.4823 515.29 94.0456C515.72 94.8482 516.207 95.5918 516.811 96.2646C522.639 102.792 535.002 101.045 544.417 92.3577C553.321 84.1542 556.409 71.7368 551.812 64.8789Z" fill="url(#paint30_linear_0_1)"/>
<path d="M533.575 91.0252C534.144 90.6829 534.91 90.0691 535.757 89.0068C537.116 87.3189 535.165 87.4487 533.946 87.6612C533.482 87.7438 533.052 88.1097 532.971 88.4992C532.843 89.1366 532.658 90.0455 532.6 90.3878L532.774 88.511C532.809 88.1451 532.484 87.9209 532.042 88.0035C530.835 88.2396 528.757 88.8533 529.628 90.1399C530.185 90.9544 530.789 91.2967 531.276 91.4501C530.94 91.6744 530.626 91.8869 530.498 92.0049L531.427 91.4973C531.891 91.6036 532.228 91.5328 532.286 91.521C532.286 91.5918 532.414 91.5682 532.449 91.4973C532.449 91.4973 532.867 91.4265 533.424 91.1196L534.19 91.2731L533.552 91.037L533.575 91.0252Z" fill="#FFEFDF"/>
<path d="M541.422 78.4656C541.422 78.4656 543.686 76.3999 544.51 74.712C544.51 74.712 546.101 71.9618 545.068 69.6719C544.023 67.382 543.466 65.8003 544 64.5137C544.487 63.3452 539.043 72.009 537.916 75.8334C538.16 74.8182 538.694 73.1067 539.774 71.1001C539.774 71.1001 537.94 73.6851 537.394 76.4944C537.104 76.1521 536.5 75.7861 536.477 76.5416C535.92 76.0576 535.304 76.1284 535.304 76.1284C536.036 76.5298 536.384 76.9665 536.547 77.3088C536.547 77.3324 536.558 77.3678 536.57 77.3914C536.825 78.076 536.756 78.737 536.326 79.7403C535.885 80.7436 536.848 81.0269 536.848 81.0269C536.848 81.0269 538.613 80.8971 539.17 83.0453C539.17 83.0453 538.95 82.4316 538.183 82.0775C538.183 82.0775 537.417 85.6303 537.406 86.2795C537.394 86.9287 537.51 87.2946 537.719 87.1412C537.928 86.9877 538.509 85.6894 539.46 84.6388C540.366 83.6355 541.469 82.408 541.004 80.2125C540.981 80.1063 540.958 80.0118 540.912 79.9056C541.016 79.9764 541.376 80.1063 541.457 81.1686C541.457 81.1686 541.643 80.7673 541.597 80.2951C541.573 80.059 541.55 79.823 541.573 79.6105C541.585 79.4807 541.678 79.3508 541.805 79.2446C542.386 78.7843 543.953 77.4268 544.568 76.034C544.905 75.255 544.673 75.0897 544.673 75.0897C544.673 75.0897 543.628 76.9665 541.411 78.4892L541.422 78.4656ZM538.265 78.1587C538.195 78.3593 537.998 78.6426 537.777 78.7606L537.243 79.0439L537.313 78.9141C537.545 78.501 537.882 78.1114 538.276 77.7573L538.509 77.5567L538.265 78.1469V78.1587Z" fill="#FFEFDF"/>
<path d="M527.944 85.0276C529.268 82.5252 531.09 81.9941 531.09 81.9941C531.09 81.9941 532.205 81.3331 532.077 80.436C531.949 79.5389 532.112 78.8661 532.611 78.0399C532.634 78.0045 532.646 77.9809 532.669 77.9455C532.959 77.5205 533.482 76.9185 534.387 76.2221C534.387 76.2221 533.76 76.3756 532.994 77.1074C533.238 76.3048 532.46 76.9421 532.042 77.4143C532.414 74.6404 531.346 72.5984 531.346 72.5984C531.81 74.3099 531.799 75.927 531.717 76.9185C531.822 73.283 528.978 66.1655 529.094 67.216C529.221 68.3845 528.084 70.2731 526.203 73.1178C524.322 75.9625 525.077 78.2642 525.077 78.2642C525.379 79.7396 527.085 81.0734 527.085 81.0734C525.251 80.3062 524.775 78.7127 524.775 78.7127C524.775 78.7127 524.473 78.9724 524.566 79.6688C524.74 80.9318 525.948 81.758 526.412 82.0295C526.516 82.0885 526.563 82.2065 526.54 82.3364C526.493 82.5607 526.377 82.8203 526.284 83.08C526.075 83.5994 526.145 83.9535 526.145 83.9535C526.586 82.7849 527.027 82.5134 527.155 82.3954C527.085 82.5134 527.016 82.6315 526.958 82.7495C525.715 85.2637 526.482 86.1371 527.097 86.8572C527.747 87.6126 527.921 88.7693 528.095 88.852C528.269 88.9346 528.513 88.5097 528.722 87.8133C528.931 87.1286 529.314 83.6466 529.314 83.6466C528.385 84.3194 527.944 85.0512 527.944 85.0512V85.0276ZM530.429 79.2202C530.73 79.4327 530.951 79.7278 531.067 80.0701L531.102 80.1763L530.626 80.0819C530.429 80.0465 530.301 79.9167 530.289 79.7278L530.255 79.0904L530.429 79.2084V79.2202Z" fill="#FFEFDF"/>
<path d="M536.906 89.2656L534.341 91.2368C534.341 91.2368 536.349 91.0716 536.906 89.2656Z" fill="#FFEFDF"/>
<path d="M530.336 91.9806L528.281 90.8711C528.258 92.5826 530.336 91.9806 530.336 91.9806Z" fill="#FFEFDF"/>
<defs>
<filter id="filter0_f_0_1" x="176.289" y="43.502" width="81.087" height="81.0879" filterUnits="userSpaceOnUse" color-interpolation-filters="sRGB">
<feFlood flood-opacity="0" result="BackgroundImageFix"/>
<feBlend mode="normal" in="SourceGraphic" in2="BackgroundImageFix" result="shape"/>
<feGaussianBlur stdDeviation="2" result="effect1_foregroundBlur_0_1"/>
</filter>
<filter id="filter1_d_0_1" x="178.985" y="48.0039" width="76.553" height="76.3164" filterUnits="userSpaceOnUse" color-interpolation-filters="sRGB">
<feFlood flood-opacity="0" result="BackgroundImageFix"/>
<feColorMatrix in="SourceAlpha" type="matrix" values="0 0 0 0 0 0 0 0 0 0 0 0 0 0 0 0 0 0 127 0" result="hardAlpha"/>
<feOffset dx="2" dy="4"/>
<feGaussianBlur stdDeviation="2"/>
<feComposite in2="hardAlpha" operator="out"/>
<feColorMatrix type="matrix" values="0 0 0 0 0 0 0 0 0 0 0 0 0 0 0 0 0 0 0.25 0"/>
<feBlend mode="normal" in2="BackgroundImageFix" result="effect1_dropShadow_0_1"/>
<feBlend mode="normal" in="SourceGraphic" in2="effect1_dropShadow_0_1" result="shape"/>
</filter>
<filter id="filter2_d_0_1" x="261.674" y="69.998" width="112" height="25" filterUnits="userSpaceOnUse" color-interpolation-filters="sRGB">
<feFlood flood-opacity="0" result="BackgroundImageFix"/>
<feColorMatrix in="SourceAlpha" type="matrix" values="0 0 0 0 0 0 0 0 0 0 0 0 0 0 0 0 0 0 127 0" result="hardAlpha"/>
<feOffset dx="2" dy="2"/>
<feGaussianBlur stdDeviation="1"/>
<feComposite in2="hardAlpha" operator="out"/>
<feColorMatrix type="matrix" values="0 0 0 0 0 0 0 0 0 0 0 0 0 0 0 0 0 0 1 0"/>
<feBlend mode="normal" in2="BackgroundImageFix" result="effect1_dropShadow_0_1"/>
<feBlend mode="normal" in="SourceGraphic" in2="effect1_dropShadow_0_1" result="shape"/>
</filter>
<linearGradient id="paint0_linear_0_1" x1="386.05" y1="106.766" x2="386.05" y2="55.8711" gradientUnits="userSpaceOnUse">
<stop stop-color="#33353C"/>
<stop offset="1" stop-color="#090C0D"/>
</linearGradient>
<linearGradient id="paint1_linear_0_1" x1="36.6856" y1="149.236" x2="512.241" y2="163.259" gradientUnits="userSpaceOnUse">
<stop stop-color="#00FFE7"/>
<stop offset="0.545" stop-color="#051AD9"/>
</linearGradient>
<linearGradient id="paint2_linear_0_1" x1="222.637" y1="48.6701" x2="207.9" y2="116.926" gradientUnits="userSpaceOnUse">
<stop stop-color="white"/>
<stop offset="0.16" stop-color="#FBFBFB"/>
<stop offset="0.29" stop-color="#F1F1F1"/>
<stop offset="0.41" stop-color="#E0E0E0"/>
<stop offset="0.52" stop-color="#C7C7C7"/>
<stop offset="0.63" stop-color="#A8A8A8"/>
<stop offset="0.74" stop-color="#818181"/>
<stop offset="0.84" stop-color="#535353"/>
<stop offset="0.94" stop-color="#202020"/>
<stop offset="1"/>
</linearGradient>
<linearGradient id="paint3_linear_0_1" x1="210.718" y1="111.347" x2="220.27" y2="48.5687" gradientUnits="userSpaceOnUse">
<stop offset="0.16" stop-color="#868382"/>
<stop offset="0.23" stop-color="#949393"/>
<stop offset="0.28" stop-color="#999999"/>
<stop offset="0.75" stop-color="#CCCCCC"/>
<stop offset="0.79" stop-color="#C2C2C1"/>
<stop offset="0.84" stop-color="#AAA7A5"/>
<stop offset="0.92" stop-color="#837B78"/>
</linearGradient>
<linearGradient id="paint4_linear_0_1" x1="201.266" y1="58.1243" x2="228.942" y2="106.214" gradientUnits="userSpaceOnUse">
<stop stop-color="#534741"/>
<stop offset="0.37" stop-color="#999999"/>
<stop offset="0.58" stop-color="#CCCCCC"/>
<stop offset="0.62" stop-color="#C2C2C1"/>
<stop offset="0.7" stop-color="#AAA7A5"/>
<stop offset="0.8" stop-color="#837B78"/>
<stop offset="0.9" stop-color="#534741"/>
</linearGradient>
<radialGradient id="paint5_radial_0_1" cx="0" cy="0" r="1" gradientUnits="userSpaceOnUse" gradientTransform="translate(211.073 86.5705) rotate(-25.5386) scale(24.8942 24.8443)">
<stop stop-color="#0007D4"/>
<stop offset="0.23" stop-color="#00049E"/>
<stop offset="0.47" stop-color="#00026C"/>
<stop offset="0.69" stop-color="#000148"/>
<stop offset="0.86" stop-color="#000032"/>
<stop offset="0.97" stop-color="#01002A"/>
</radialGradient>
<linearGradient id="paint6_linear_0_1" x1="191.431" y1="93.2667" x2="238.786" y2="70.4948" gradientUnits="userSpaceOnUse">
<stop stop-color="#E8DEED"/>
<stop offset="1" stop-color="#0000FF" stop-opacity="0"/>
</linearGradient>
<linearGradient id="paint7_linear_0_1" x1="191.43" y1="93.2668" x2="238.786" y2="70.4945" gradientUnits="userSpaceOnUse">
<stop stop-color="#E8DEED"/>
<stop offset="1" stop-color="#0000FF" stop-opacity="0"/>
</linearGradient>
<linearGradient id="paint8_linear_0_1" x1="191.885" y1="97.0718" x2="203.431" y2="56.0554" gradientUnits="userSpaceOnUse">
<stop stop-color="white" stop-opacity="0.3"/>
<stop offset="0.92" stop-opacity="0"/>
</linearGradient>
<linearGradient id="paint9_linear_0_1" x1="241.883" y1="73.5977" x2="218.615" y2="108.864" gradientUnits="userSpaceOnUse">
<stop stop-color="white" stop-opacity="0.6"/>
<stop offset="1" stop-opacity="0"/>
</linearGradient>
<radialGradient id="paint10_radial_0_1" cx="0" cy="0" r="1" gradientUnits="userSpaceOnUse" gradientTransform="translate(214.916 79.8689) scale(24.5587 24.4802)">
<stop stop-color="#0033FF"/>
<stop offset="0.40325" stop-color="#0024B6"/>
<stop offset="0.72325" stop-color="#001155"/>
<stop offset="0.88" stop-color="#000417"/>
<stop offset="1"/>
</radialGradient>
<linearGradient id="paint11_linear_0_1" x1="220.416" y1="58.2685" x2="209.946" y2="107.206" gradientUnits="userSpaceOnUse">
<stop stop-color="white"/>
<stop offset="0.16" stop-color="#FBFBFB"/>
<stop offset="0.29" stop-color="#F1F1F1"/>
<stop offset="0.41" stop-color="#E0E0E0"/>
<stop offset="0.52" stop-color="#C7C7C7"/>
<stop offset="0.63" stop-color="#A8A8A8"/>
<stop offset="0.74" stop-color="#818181"/>
<stop offset="0.84" stop-color="#535353"/>
<stop offset="0.94" stop-color="#202020"/>
<stop offset="1"/>
</linearGradient>
<linearGradient id="paint12_linear_0_1" x1="211.801" y1="103.169" x2="218.584" y2="58.177" gradientUnits="userSpaceOnUse">
<stop stop-color="#534741"/>
<stop offset="0.08" stop-color="#706966"/>
<stop offset="0.16" stop-color="#868382"/>
<stop offset="0.23" stop-color="#949393"/>
<stop offset="0.28" stop-color="#999999"/>
<stop offset="0.75" stop-color="#CCCCCC"/>
<stop offset="0.79" stop-color="#C2C2C1"/>
<stop offset="0.84" stop-color="#AAA7A5"/>
<stop offset="0.92" stop-color="#837B78"/>
<stop offset="1" stop-color="#534741"/>
</linearGradient>
<linearGradient id="paint13_linear_0_1" x1="204.968" y1="65.0382" x2="224.703" y2="99.6453" gradientUnits="userSpaceOnUse">
<stop stop-color="#534741"/>
<stop offset="0.37" stop-color="#999999"/>
<stop offset="0.58" stop-color="#CCCCCC"/>
<stop offset="0.62" stop-color="#C2C2C1"/>
<stop offset="0.7" stop-color="#AAA7A5"/>
<stop offset="0.8" stop-color="#837B78"/>
<stop offset="0.9" stop-color="#534741"/>
</linearGradient>
<radialGradient id="paint14_radial_0_1" cx="0" cy="0" r="1" gradientUnits="userSpaceOnUse" gradientTransform="translate(212.046 85.4066) rotate(-25.3369) scale(17.9667 17.8283)">
<stop stop-color="#0007D4"/>
<stop offset="0.23" stop-color="#00049E"/>
<stop offset="0.47" stop-color="#00026C"/>
<stop offset="0.69" stop-color="#000148"/>
<stop offset="0.86" stop-color="#000032"/>
<stop offset="0.97" stop-color="#01002A"/>
</radialGradient>
<linearGradient id="paint15_linear_0_1" x1="197.846" y1="90.2035" x2="231.964" y2="73.6474" gradientUnits="userSpaceOnUse">
<stop stop-color="#E8DEED"/>
<stop offset="1" stop-color="#0000FF" stop-opacity="0"/>
</linearGradient>
<linearGradient id="paint16_linear_0_1" x1="197.845" y1="90.2022" x2="231.963" y2="73.6462" gradientUnits="userSpaceOnUse">
<stop stop-color="#E8DEED"/>
<stop offset="1" stop-color="#0000FF" stop-opacity="0"/>
</linearGradient>
<radialGradient id="paint17_radial_0_1" cx="0" cy="0" r="1" gradientUnits="userSpaceOnUse" gradientTransform="translate(211.414 81.7661) scale(17.7542 17.5375)">
<stop offset="0.02" stop-color="#0033FF"/>
<stop offset="1"/>
</radialGradient>
<linearGradient id="paint18_linear_0_1" x1="199.743" y1="65.3767" x2="213.628" y2="81.0929" gradientUnits="userSpaceOnUse">
<stop stop-color="#989899"/>
<stop offset="0.53" stop-color="#161616"/>
<stop offset="0.96"/>
</linearGradient>
<linearGradient id="paint19_linear_0_1" x1="199.72" y1="65.3973" x2="215.804" y2="83.602" gradientUnits="userSpaceOnUse">
<stop stop-color="#989899"/>
<stop offset="0.53" stop-color="#161616"/>
<stop offset="0.96"/>
</linearGradient>
<linearGradient id="paint20_linear_0_1" x1="219.628" y1="57.615" x2="196.659" y2="78.4124" gradientUnits="userSpaceOnUse">
<stop stop-color="white"/>
<stop offset="0.3" stop-color="#929292"/>
<stop offset="0.55" stop-color="#383838"/>
<stop offset="0.67" stop-color="#161616"/>
<stop offset="0.96"/>
</linearGradient>
<linearGradient id="paint21_linear_0_1" x1="246.424" y1="26.9121" x2="222.817" y2="48.8267" gradientUnits="userSpaceOnUse">
<stop offset="0.04"/>
<stop offset="1" stop-color="#161616"/>
</linearGradient>
<linearGradient id="paint22_linear_0_1" x1="223.643" y1="71.534" x2="218.811" y2="105.51" gradientUnits="userSpaceOnUse">
<stop stop-color="#DADAE9"/>
<stop offset="0.28" stop-color="#EAEAF4"/>
<stop offset="0.5" stop-color="#E7E7F2"/>
<stop offset="0.71" stop-color="#DADAE9"/>
<stop offset="1" stop-color="#EAEAF4"/>
</linearGradient>
<linearGradient id="paint23_linear_0_1" x1="212.812" y1="63.7321" x2="189.842" y2="84.5306" gradientUnits="userSpaceOnUse">
<stop offset="0.04"/>
<stop offset="0.47" stop-color="#161616"/>
<stop offset="0.99" stop-color="#9797A0"/>
</linearGradient>
<linearGradient id="paint24_linear_0_1" x1="240.3" y1="80.039" x2="210.597" y2="106.935" gradientUnits="userSpaceOnUse">
<stop stop-color="#D4D4D8"/>
<stop offset="0.27"/>
<stop offset="0.49" stop-color="#72727A"/>
<stop offset="0.76" stop-color="#131313"/>
<stop offset="1" stop-color="#D4D4D8"/>
</linearGradient>
<linearGradient id="paint25_linear_0_1" x1="240.024" y1="82.1059" x2="220.295" y2="99.9696" gradientUnits="userSpaceOnUse">
<stop offset="0.47" stop-color="#E8E8EF"/>
<stop offset="1"/>
</linearGradient>
<radialGradient id="paint26_radial_0_1" cx="0" cy="0" r="1" gradientUnits="userSpaceOnUse" gradientTransform="translate(527.921 76.1986) scale(18.3887 18.6969)">
<stop offset="0.83" stop-color="#AB4D00"/>
<stop offset="1" stop-color="#E9C87E"/>
</radialGradient>
<linearGradient id="paint27_linear_0_1" x1="529.117" y1="74.0628" x2="517.223" y2="101.932" gradientUnits="userSpaceOnUse">
<stop offset="0.3" stop-color="#582919"/>
<stop offset="0.69" stop-color="#582919"/>
<stop offset="0.74" stop-color="#743C1A"/>
<stop offset="0.92" stop-color="#CE7920"/>
<stop offset="1" stop-color="#F29223"/>
</linearGradient>
<radialGradient id="paint28_radial_0_1" cx="0" cy="0" r="1" gradientUnits="userSpaceOnUse" gradientTransform="translate(538.845 88.2976) scale(26.1435 26.5817)">
<stop offset="0.83" stop-color="#AB4D00"/>
<stop offset="1" stop-color="#E9C87E"/>
</radialGradient>
<linearGradient id="paint29_linear_0_1" x1="516.219" y1="79.4565" x2="550.338" y2="79.4565" gradientUnits="userSpaceOnUse">
<stop offset="0.57" stop-color="#582919"/>
<stop offset="0.67" stop-color="#7B3E1B"/>
<stop offset="0.89" stop-color="#C96D20"/>
<stop offset="1" stop-color="#E88023"/>
</linearGradient>
<linearGradient id="paint30_linear_0_1" x1="515.29" y1="82.5489" x2="553.925" y2="82.5489" gradientUnits="userSpaceOnUse">
<stop offset="0.38" stop-color="#582919"/>
<stop offset="0.47" stop-color="#5C2B19"/>
<stop offset="0.57" stop-color="#68311A"/>
<stop offset="0.68" stop-color="#7D3B1B"/>
<stop offset="0.78" stop-color="#9B491D"/>
<stop offset="0.89" stop-color="#C15B1F"/>
<stop offset="0.99" stop-color="#EF7122"/>
<stop offset="1" stop-color="#F27323"/>
</linearGradient>
<clipPath id="clip0_0_1">
<rect width="108" height="21" fill="white" transform="translate(261.674 69.998)"/>
</clipPath>
</defs>
</svg>
