<svg width="31" height="31" viewBox="0 0 31 31" fill="none" xmlns="http://www.w3.org/2000/svg">
<g opacity="0.4">
<path d="M15.3706 5.19C16.8206 5.19 17.9305 6.23 17.9305 7.59C17.9305 8.95 16.8206 9.97001 15.3706 9.97001C13.9206 9.97001 12.8105 8.93 12.8105 7.59C12.8105 6.25 13.9206 5.19 15.3706 5.19Z" fill="#24FF87"/>
<path d="M17.6805 12.93H13.0605V25.86H17.6805V12.93Z" fill="#24FF87"/>
<path d="M15.2405 29.8C23.2541 29.8 29.7505 23.3036 29.7505 15.29C29.7505 7.27635 23.2541 0.779999 15.2405 0.779999C7.22682 0.779999 0.730469 7.27635 0.730469 15.29C0.730469 23.3036 7.22682 29.8 15.2405 29.8Z" stroke="#24FF87" stroke-miterlimit="10"/>
</g>
</svg>
