<svg width="1643" height="431" viewBox="0 0 1643 431" fill="none" xmlns="http://www.w3.org/2000/svg">
<path d="M20.72 240.45L6.90997 226.64V141.48H54.21V196.24H181.72V172.29L136.97 127.54H7.71997V81.24H157.98L229.44 152.7V225.83L214.82 240.45H20.72Z" fill="url(#paint0_linear_1_462)"/>
<path d="M259.67 241.31L244.39 226.03V152.95C293.82 102.52 308.42 87.42 312.44 82.23H450.09L465.79 97.93V225.86L451.49 241.32H259.67V241.31ZM289.88 164.96V197.41H421.23V128.94H418.92C418.92 128.94 395.8 128.94 372.68 128.99C335.17 129.07 326.66 129.09 324.72 130.27L324.83 130.01L289.87 164.97L289.88 164.96Z" fill="url(#paint1_linear_1_462)"/>
<path d="M1167.54 192.3H990.81V180.77C990.81 180.77 1159.37 183.84 1167.54 180.99V130.51C1160.27 130.57 1033.04 131.63 1034.16 130.51C1035.26 129.41 1081.54 83.13 1085.73 78.94H1012.88L941.95 149.87V226.8L959.42 243.42H1167.56V192.29L1167.54 192.3Z" fill="url(#paint2_linear_1_462)"/>
<path d="M1481.62 240.48L1481.53 207.43L1561.85 127.11H1465.5V240.48H1419.78C1419.71 227 1419.5 188.25 1419.31 154.52V98.41L1435.69 82.04L1639.08 81.73V117.58L1560 196.66H1642.47V240.49H1481.63L1481.62 240.48Z" fill="url(#paint3_linear_1_462)"/>
<path d="M131.19 288.35H113.39V284.79L122.51 275.66H111.38V288.35H106.46L106.41 272.59L108.18 270.82L130.8 270.78V274.65L121.81 283.64H131.18V288.34L131.19 288.35Z" fill="url(#paint4_linear_1_462)"/>
<path d="M118.51 306.17C104.56 306.17 93.22 294.82 93.22 280.87C93.22 266.92 104.57 255.57 118.51 255.57C132.45 255.57 143.81 266.92 143.81 280.87C143.81 294.82 132.46 306.17 118.51 306.17ZM118.51 257.32C105.52 257.32 94.96 267.89 94.96 280.87C94.96 293.85 105.52 304.42 118.51 304.42C131.5 304.42 142.06 293.85 142.06 280.87C142.06 267.89 131.49 257.32 118.51 257.32Z" fill="url(#paint5_linear_1_462)"/>
<path d="M1198.7 241.43L1180.95 225.78V153.11L1252.63 81.43H1384.64L1401.64 98.43V184.09H1356.14V132L1356.18 129.7V127.39L1353.88 127.33H1272.6L1227.76 172.17V196.41H1402.22V241.43H1198.7Z" fill="url(#paint6_linear_1_462)"/>
<path d="M496.88 240.94L481.37 226.04V153.13L553.19 81.31H673.78L699.93 81.6V126.13H571.02L524.71 172.43V195.98H655.2V182.61H573.31V139.21H683.82L700.97 156.36V225.61L684.28 240.94H496.88Z" fill="url(#paint7_linear_1_462)"/>
<path d="M128.63 430.14L112.81 414.32V344.57L186.36 271.02C191.69 270.43 227.13 270.19 252.36 270.16L160.45 362.07V386.23H338.1V430.14H128.62H128.63Z" fill="url(#paint8_linear_1_462)"/>
<path d="M623.35 430.53L605.6 414.89V342.21L677.28 270.53H809.29L826.29 287.53V373.19H780.78V321.11L780.83 318.8V316.49L778.52 316.44H697.24L652.41 361.28V385.51H826.86V430.53H623.35Z" fill="url(#paint9_linear_1_462)"/>
<path d="M375.88 430.04L361.39 415.56V343.2L434.19 270.41H584.92V302.94L518.25 369.61H448.82L500.88 317.54H451.44L407.17 361.82V385.98H584.08V430.04H375.88Z" fill="url(#paint10_linear_1_462)"/>
<path d="M1346.15 430.04L1330.27 414.91V343.2L1403.06 270.41H1553.79V302.94L1487.12 369.61H1417.69L1469.76 317.54H1420.31L1376.05 361.82V385.98H1552.95V430.04H1346.15Z" fill="url(#paint11_linear_1_462)"/>
<path d="M865.19 430.05L849.07 415.12V342.24L920.78 270.52H1051.77L1067.63 270.71V315.23H938.72L892.41 361.54V385.09H1022.9V371.72H941.01V328.31H1051.52L1068.67 345.46V414.72L1051.98 430.05H865.19Z" fill="url(#paint12_linear_1_462)"/>
<path d="M1101.95 429.89L1086.87 414.82V336.11L1152.33 270.66H1215.98L1133.77 352.87V385.98H1263.78V270.28H1309.93V414.6L1293.29 429.89H1101.95Z" fill="url(#paint13_linear_1_462)"/>
<path d="M718.24 240.9V196.3H887.11V181.03H718.24L717.89 147.68L783.17 82.11L807.06 82H932.3V125.91H799.92L784.27 141.64H913.81L929.76 157.65V225.74L913.96 240.9H718.24Z" fill="url(#paint14_linear_1_462)"/>
<path d="M26.09 21.67L32.52 45.65L38.42 21.67H45.49L36.22 55.11H29.41L22.74 30.91L16.07 55.11H9.26L0 21.67H7.07L12.97 45.65L19.4 21.67H26.09Z" fill="url(#paint15_linear_1_462)"/>
<path d="M57.09 50.46C59.77 50.46 62.2 49.27 64.11 47.38L68.05 51.2C65.33 54.16 61.5 55.69 57.11 55.69C48.89 55.69 43.28 49.98 43.28 42.74C43.28 35.5 49.06 29.79 56.73 29.79C64.4 29.79 69.7 35.4 69.7 42.31C69.7 43.07 69.58 44.03 69.41 44.7H49.92C50.49 48.14 53.36 50.46 57.09 50.46ZM50.09 40.02H62.94C62.22 37.08 59.88 35.03 56.68 35.03C53.48 35.03 50.97 37.01 50.09 40.02Z" fill="url(#paint16_linear_1_462)"/>
<path d="M72.17 20.24H78.74V55.12H72.17V20.24Z" fill="url(#paint17_linear_1_462)"/>
<path d="M81.22 42.74C81.22 35.5 87.1 29.79 94.96 29.79C98.69 29.79 101.86 31.06 104.3 33.11L101.05 38.01C99.4 36.67 97.35 35.6 95.01 35.6C90.97 35.6 87.87 38.73 87.87 42.74C87.87 46.75 90.98 49.88 95.01 49.88C97.35 49.88 99.52 48.76 101.2 47.28L104.85 51.87C102.39 54.26 98.95 55.69 94.96 55.69C87.1 55.69 81.22 49.98 81.22 42.74Z" fill="url(#paint18_linear_1_462)"/>
<path d="M118.63 29.79C126.51 29.79 132.37 35.5 132.37 42.74C132.37 49.98 126.52 55.69 118.63 55.69C110.74 55.69 104.89 49.98 104.89 42.74C104.89 35.5 110.77 29.79 118.63 29.79ZM118.63 49.88C122.69 49.88 125.8 46.77 125.8 42.74C125.8 38.71 122.69 35.6 118.63 35.6C114.57 35.6 111.49 38.73 111.49 42.74C111.49 46.75 114.6 49.88 118.63 49.88Z" fill="url(#paint19_linear_1_462)"/>
<path d="M141.27 30.37V33.09C142.8 31.2 145.21 29.84 147.94 29.84C151.48 29.84 154.32 31.46 155.99 34.09C157.73 31.56 160.86 29.79 164.16 29.79C169.87 29.79 173.81 33.95 173.81 39.8V55.11H167.24V40.47C167.24 37.77 165.52 35.6 162.75 35.6C160.65 35.6 158.71 37.2 157.49 39.16C157.51 39.69 157.54 40.23 157.54 40.78V55.11H150.97V40.47C150.97 37.68 149.2 35.6 146.48 35.6C144.38 35.6 142.47 37.2 141.27 39.09V55.12H134.7V30.37H141.27Z" fill="url(#paint20_linear_1_462)"/>
<path d="M189.48 50.46C192.16 50.46 194.59 49.27 196.5 47.38L200.44 51.2C197.72 54.16 193.89 55.69 189.5 55.69C181.28 55.69 175.67 49.98 175.67 42.74C175.67 35.5 181.45 29.79 189.12 29.79C196.79 29.79 202.09 35.4 202.09 42.31C202.09 43.07 201.97 44.03 201.8 44.7H182.31C182.88 48.14 185.75 50.46 189.48 50.46ZM182.48 40.02H195.33C194.61 37.08 192.27 35.03 189.07 35.03C185.87 35.03 183.36 37.01 182.48 40.02Z" fill="url(#paint21_linear_1_462)"/>
<path d="M224.72 46.54C224.72 48.91 225.75 49.98 228.49 49.98C229.23 49.98 230.19 49.93 230.83 49.86V55.35C229.95 55.54 228.66 55.68 227.41 55.68C221.27 55.68 218.14 52.74 218.14 46.94V36.07H214.29V30.36H218.14V23.77L224.71 23.2V30.37H230.54V36.08H224.71V46.54H224.72Z" fill="url(#paint22_linear_1_462)"/>
<path d="M244.97 29.79C252.85 29.79 258.71 35.5 258.71 42.74C258.71 49.98 252.86 55.69 244.97 55.69C237.08 55.69 231.23 49.98 231.23 42.74C231.23 35.5 237.11 29.79 244.97 29.79ZM244.97 49.88C249.03 49.88 252.14 46.77 252.14 42.74C252.14 38.71 249.03 35.6 244.97 35.6C240.91 35.6 237.83 38.73 237.83 42.74C237.83 46.75 240.94 49.88 244.97 49.88Z" fill="url(#paint23_linear_1_462)"/>
<path d="M1612.96 69.14C1614.74 67.54 1616.79 66.61 1616.45 66.82C1616.83 66.59 1617.31 66.59 1617.69 66.82L1621.16 68.97L1617.69 67.42C1617.31 67.25 1616.88 67.26 1616.51 67.44L1612.97 69.14" fill="#FD3206"/>
<path d="M1617.74 60.81C1617.69 62.49 1617.62 64.89 1617.59 65.78L1617.29 60.75C1617.23 59.76 1616.41 58.99 1615.41 59C1612.73 59.04 1608.2 59.65 1610.69 63.61C1613.97 68.83 1617.03 68.73 1617.3 68.71C1617.35 68.91 1617.62 68.91 1617.67 68.71C1617.92 68.72 1620.99 68.84 1624.28 63.61C1626.75 59.69 1622.33 59.05 1619.63 59C1618.61 58.98 1617.76 59.79 1617.73 60.81H1617.74Z" fill="#FD3206"/>
<path d="M1639.48 29.78C1639.48 29.78 1637.8 34.39 1633.3 37.43C1633.3 37.43 1637.7 32.92 1638.96 28.73C1638.96 28.73 1641.58 22.02 1638.33 15.21C1635.08 8.39999 1633.19 3.79 1633.93 0.540004C1634.6 -2.41 1625.39 18.53 1624.26 28.43C1624.44 25.77 1625.01 21.35 1626.73 16.42C1626.73 16.42 1623.5 22.56 1623.32 29.97C1622.53 28.9 1620.99 27.56 1621.24 29.62C1619.77 28.01 1618.39 27.9 1618.39 27.9C1620.21 29.36 1621.17 30.74 1621.68 31.75C1621.71 31.83 1621.74 31.91 1621.77 31.98C1622.61 33.97 1622.71 35.75 1622.08 38.27C1621.45 40.79 1623.76 42.04 1623.76 42.04C1623.76 42.04 1627.74 42.56 1629.84 48.75C1629.84 48.75 1629.11 46.97 1627.22 45.61C1627.22 45.61 1626.8 54.94 1627.01 56.72C1627.22 58.5 1627.64 59.55 1628.06 59.24C1628.48 58.93 1629.32 55.68 1631.1 53.27C1632.8 50.97 1634.87 48.2 1632.98 41.95C1632.89 41.65 1632.79 41.36 1632.67 41.08C1632.93 41.34 1633.82 41.86 1634.4 44.82C1634.4 44.82 1634.68 43.83 1634.4 42.51C1634.26 41.85 1634.11 41.19 1634.08 40.61C1634.06 40.27 1634.21 39.94 1634.47 39.72C1635.62 38.74 1638.71 35.85 1639.59 32.32C1640.07 30.36 1639.49 29.8 1639.49 29.8L1639.48 29.78ZM1626.47 35.29C1626.33 36.03 1625.84 36.66 1625.15 36.96L1623.49 37.69L1623.67 37.22C1624.24 35.73 1625.13 34.39 1626.29 33.3L1626.95 32.67L1626.47 35.29Z" fill="#FD3206"/>
<path d="M1613.47 29.61C1613.72 27.55 1612.18 28.89 1611.39 29.96C1611.2 22.55 1607.98 16.41 1607.98 16.41C1609.7 21.35 1610.27 25.77 1610.45 28.42C1609.32 18.52 1600.11 -2.43001 1600.78 0.529988C1601.51 3.77999 1599.63 8.39 1596.38 15.2C1593.13 22.01 1595.75 28.72 1595.75 28.72C1597.01 32.91 1601.41 37.42 1601.41 37.42C1596.9 34.38 1595.23 29.77 1595.23 29.77C1595.23 29.77 1594.64 30.33 1595.13 32.29C1596 35.82 1599.09 38.71 1600.25 39.69C1600.51 39.91 1600.66 40.24 1600.64 40.58C1600.61 41.16 1600.46 41.83 1600.32 42.48C1600.04 43.8 1600.32 44.79 1600.32 44.79C1600.9 41.83 1601.79 41.31 1602.05 41.05C1601.93 41.33 1601.83 41.63 1601.74 41.92C1599.84 48.16 1601.92 50.94 1603.62 53.24C1605.4 55.65 1606.24 58.9 1606.66 59.21C1607.08 59.52 1607.5 58.48 1607.71 56.69C1607.92 54.91 1607.5 45.58 1607.5 45.58C1605.61 46.94 1604.88 48.72 1604.88 48.72C1606.98 42.54 1610.96 42.01 1610.96 42.01C1610.96 42.01 1613.27 40.75 1612.64 38.24C1612.01 35.72 1612.12 33.94 1612.95 31.95C1612.98 31.88 1613.01 31.8 1613.04 31.72C1613.55 30.71 1614.51 29.32 1616.33 27.87C1616.33 27.87 1614.95 27.98 1613.48 29.59L1613.47 29.61ZM1609.16 37.15C1608.47 36.85 1607.98 36.22 1607.84 35.48L1607.37 32.88L1608.03 33.5C1609.18 34.59 1610.07 35.92 1610.64 37.4L1610.82 37.86L1609.17 37.14L1609.16 37.15Z" fill="#FD3206"/>
<path d="M1621.43 68.98C1621.43 68.98 1625.98 69.56 1626.56 64.9L1621.43 68.98Z" fill="#FD3206"/>
<path d="M1612.53 68.98C1612.53 68.98 1607.98 69.56 1607.4 64.9L1612.53 68.98Z" fill="#FD3206"/>
<defs>
<linearGradient id="paint0_linear_1_462" x1="1151.49" y1="1223" x2="155.05" y2="226.56" gradientUnits="userSpaceOnUse">
<stop stop-color="#F7931E"/>
<stop offset="1" stop-color="#FF0000"/>
</linearGradient>
<linearGradient id="paint1_linear_1_462" x1="1286.06" y1="1092.95" x2="289.87" y2="96.76" gradientUnits="userSpaceOnUse">
<stop stop-color="#F7931E"/>
<stop offset="1" stop-color="#FF0000"/>
</linearGradient>
<linearGradient id="paint2_linear_1_462" x1="1647.52" y1="771.44" x2="629.68" y2="-246.4" gradientUnits="userSpaceOnUse">
<stop stop-color="#F7931E"/>
<stop offset="1" stop-color="#FF0000"/>
</linearGradient>
<linearGradient id="paint3_linear_1_462" x1="1885.72" y1="517.41" x2="889.36" y2="-478.95" gradientUnits="userSpaceOnUse">
<stop stop-color="#F7931E"/>
<stop offset="1" stop-color="#FF0000"/>
</linearGradient>
<linearGradient id="paint4_linear_1_462" x1="1129.01" y1="1289.94" x2="111.183" y2="272.107" gradientUnits="userSpaceOnUse">
<stop stop-color="#F7931E"/>
<stop offset="1" stop-color="#FF0000"/>
</linearGradient>
<linearGradient id="paint5_linear_1_462" x1="1128.3" y1="1290.66" x2="110.46" y2="272.83" gradientUnits="userSpaceOnUse">
<stop stop-color="#F7931E"/>
<stop offset="1" stop-color="#FF0000"/>
</linearGradient>
<linearGradient id="paint6_linear_1_462" x1="1762.22" y1="633.03" x2="769.61" y2="-359.58" gradientUnits="userSpaceOnUse">
<stop stop-color="#F7931E"/>
<stop offset="1" stop-color="#FF0000"/>
</linearGradient>
<linearGradient id="paint7_linear_1_462" x1="1409.85" y1="973.02" x2="414.41" y2="-22.4198" gradientUnits="userSpaceOnUse">
<stop stop-color="#F7931E"/>
<stop offset="1" stop-color="#FF0000"/>
</linearGradient>
<linearGradient id="paint8_linear_1_462" x1="1106.9" y1="1266.55" x2="114.35" y2="274" gradientUnits="userSpaceOnUse">
<stop stop-color="#F7931E"/>
<stop offset="1" stop-color="#FF0000"/>
</linearGradient>
<linearGradient id="paint9_linear_1_462" x1="1375.2" y1="1010.47" x2="382.59" y2="17.86" gradientUnits="userSpaceOnUse">
<stop stop-color="#F7931E"/>
<stop offset="1" stop-color="#FF0000"/>
</linearGradient>
<linearGradient id="paint10_linear_1_462" x1="1254.89" y1="1124.72" x2="262.3" y2="132.13" gradientUnits="userSpaceOnUse">
<stop stop-color="#F7931E"/>
<stop offset="1" stop-color="#FF0000"/>
</linearGradient>
<linearGradient id="paint11_linear_1_462" x1="1751.51" y1="652.14" x2="758.91" y2="-340.46" gradientUnits="userSpaceOnUse">
<stop stop-color="#F7931E"/>
<stop offset="1" stop-color="#FF0000"/>
</linearGradient>
<linearGradient id="paint12_linear_1_462" x1="1505.27" y1="889.83" x2="509.85" y2="-105.59" gradientUnits="userSpaceOnUse">
<stop stop-color="#F7931E"/>
<stop offset="1" stop-color="#FF0000"/>
</linearGradient>
<linearGradient id="paint13_linear_1_462" x1="1628.37" y1="772.52" x2="632.26" y2="-223.59" gradientUnits="userSpaceOnUse">
<stop stop-color="#F7931E"/>
<stop offset="1" stop-color="#FF0000"/>
</linearGradient>
<linearGradient id="paint14_linear_1_462" x1="1525.85" y1="862.03" x2="530.46" y2="-133.36" gradientUnits="userSpaceOnUse">
<stop stop-color="#F7931E"/>
<stop offset="1" stop-color="#FF0000"/>
</linearGradient>
<linearGradient id="paint15_linear_1_462" x1="353.35" y1="364.37" x2="10.2303" y2="21.2497" gradientUnits="userSpaceOnUse">
<stop stop-color="#F7931E"/>
<stop offset="1" stop-color="#FF0000"/>
</linearGradient>
<linearGradient id="paint16_linear_1_462" x1="365.8" y1="351.91" x2="22.6901" y2="8.79993" gradientUnits="userSpaceOnUse">
<stop stop-color="#F7931E"/>
<stop offset="1" stop-color="#FF0000"/>
</linearGradient>
<linearGradient id="paint17_linear_1_462" x1="377.74" y1="339.97" x2="34.6299" y2="-3.14994" gradientUnits="userSpaceOnUse">
<stop stop-color="#F7931E"/>
<stop offset="1" stop-color="#FF0000"/>
</linearGradient>
<linearGradient id="paint18_linear_1_462" x1="384.95" y1="332.76" x2="41.84" y2="-10.35" gradientUnits="userSpaceOnUse">
<stop stop-color="#F7931E"/>
<stop offset="1" stop-color="#FF0000"/>
</linearGradient>
<linearGradient id="paint19_linear_1_462" x1="396.8" y1="320.91" x2="53.6901" y2="-22.2" gradientUnits="userSpaceOnUse">
<stop stop-color="#F7931E"/>
<stop offset="1" stop-color="#FF0000"/>
</linearGradient>
<linearGradient id="paint20_linear_1_462" x1="413.39" y1="304.33" x2="70.2702" y2="-38.7902" gradientUnits="userSpaceOnUse">
<stop stop-color="#F7931E"/>
<stop offset="1" stop-color="#FF0000"/>
</linearGradient>
<linearGradient id="paint21_linear_1_462" x1="432" y1="285.72" x2="88.8801" y2="-57.4" gradientUnits="userSpaceOnUse">
<stop stop-color="#F7931E"/>
<stop offset="1" stop-color="#FF0000"/>
</linearGradient>
<linearGradient id="paint22_linear_1_462" x1="450.98" y1="266.73" x2="107.86" y2="-76.3803" gradientUnits="userSpaceOnUse">
<stop stop-color="#F7931E"/>
<stop offset="1" stop-color="#FF0000"/>
</linearGradient>
<linearGradient id="paint23_linear_1_462" x1="459.98" y1="257.74" x2="116.86" y2="-85.38" gradientUnits="userSpaceOnUse">
<stop stop-color="#F7931E"/>
<stop offset="1" stop-color="#FF0000"/>
</linearGradient>
</defs>
</svg>
