<svg width="200" height="63" viewBox="0 0 200 63" fill="none" xmlns="http://www.w3.org/2000/svg">
<g filter="url(#filter0_d_0_1)">
<path d="M171.256 18.6641H20.902C10.6853 18.6641 2.40308 26.9256 2.40308 37.1167V37.4888C2.40308 47.6799 10.6853 55.9414 20.902 55.9414H171.256C181.473 55.9414 189.755 47.6799 189.755 37.4888V37.1167C189.755 26.9256 181.473 18.6641 171.256 18.6641Z" fill="url(#paint0_linear_0_1)"/>
</g>
<path d="M171.242 20.1387H20.9018C11.5015 20.1387 3.8811 27.74 3.8811 37.1167V37.4888C3.8811 46.8656 11.5015 54.4669 20.9018 54.4669H171.242C180.642 54.4669 188.263 46.8656 188.263 37.4888V37.1167C188.263 27.74 180.642 20.1387 171.242 20.1387Z" fill="#141416"/>
<path d="M171.256 20.6289H20.902C11.7764 20.6289 4.37866 28.0081 4.37866 37.1109V37.4967C4.37866 46.5995 11.7764 53.9787 20.902 53.9787H171.256C180.382 53.9787 187.779 46.5995 187.779 37.4967V37.1109C187.779 28.0081 180.382 20.6289 171.256 20.6289Z" fill="url(#paint1_linear_0_1)"/>
<g style="mix-blend-mode:lighten">
<path d="M22.9616 41.9062V30.0062H24.9676V40.1722H30.0166V41.9062H22.9616ZM31.6426 40.8522C31.6426 40.1382 32.1866 39.5942 32.9006 39.5942C33.6146 39.5942 34.1586 40.1382 34.1586 40.8522C34.1586 41.5662 33.6146 42.1103 32.9006 42.1103C32.1866 42.1103 31.6426 41.5662 31.6426 40.8522ZM36.4673 35.9562C36.4673 32.5052 37.7763 29.8022 40.5473 29.8022C43.3013 29.8022 44.6273 32.5052 44.6273 35.9562C44.6273 39.4073 43.3013 42.1103 40.5473 42.1103C37.7763 42.1103 36.4673 39.4073 36.4673 35.9562ZM38.4393 35.9562C38.4393 38.5572 39.0513 40.3082 40.5473 40.3082C42.0433 40.3082 42.6553 38.5572 42.6553 35.9562C42.6553 33.3552 42.0433 31.6042 40.5473 31.6042C39.0513 31.6042 38.4393 33.3552 38.4393 35.9562ZM48.3946 41.9062L51.1826 37.6222C51.0296 37.6732 50.7746 37.7242 50.4856 37.7242C48.4116 37.7242 46.5246 36.1262 46.5246 33.7802C46.5246 31.4342 48.5646 29.8022 50.7236 29.8022C52.9506 29.8022 54.9906 31.4342 54.9906 33.7802C54.9906 34.4942 54.7781 35.2847 54.3956 35.8712L50.4856 41.9062H48.3946ZM48.4966 33.7802C48.4966 35.0722 49.5166 36.0582 50.7576 36.0582C51.9986 36.0582 53.0186 35.0722 53.0186 33.7802C53.0186 32.4882 51.9986 31.5022 50.7576 31.5022C49.5166 31.5022 48.4966 32.4882 48.4966 33.7802ZM55.834 44.9663V43.4703H64.334V44.9663H55.834ZM65.779 30.0062H67.785V41.9062H65.779V30.0062ZM72.3594 36.0582V41.9062H70.4214V33.1002H72.3594V34.1202C73.0054 33.4062 73.9914 32.8962 74.9944 32.8962C77.1194 32.8962 78.5814 34.3582 78.5814 36.5682V41.9062H76.6434V36.6702C76.6434 35.4802 75.8274 34.6302 74.6204 34.6302C73.7364 34.6302 72.8354 35.3442 72.3594 36.0582ZM80.7974 33.1002H82.7354V34.1202C83.3134 33.4402 84.2314 32.8962 85.2174 32.8962C86.5264 32.8962 87.5634 33.4997 88.1499 34.4772C88.8129 33.5252 89.9774 32.8962 91.1674 32.8962C93.2414 32.8962 94.6354 34.3922 94.6354 36.5342V41.9062H92.6974V36.6362C92.6974 35.4802 91.9834 34.6302 90.8784 34.6302C90.0114 34.6302 89.1954 35.3102 88.6684 36.1262C88.6769 36.2622 88.6854 36.3982 88.6854 36.5342V41.9062H86.7474V36.6362C86.7474 35.4802 86.0334 34.6302 84.9284 34.6302C84.0614 34.6302 83.2624 35.3102 82.7354 36.0922V41.9062H80.7974V33.1002ZM101.101 40.3762C102.716 40.3762 103.974 39.1182 103.974 37.5032C103.974 35.8882 102.716 34.6302 101.101 34.6302C99.4861 34.6302 98.2281 35.8882 98.2281 37.5032C98.2281 39.1182 99.4861 40.3762 101.101 40.3762ZM101.101 32.8962C103.889 32.8962 105.946 34.9362 105.946 37.5032C105.946 40.0702 103.889 42.1103 101.101 42.1103C98.3131 42.1103 96.2561 40.0702 96.2561 37.5032C96.2561 34.9362 98.3131 32.8962 101.101 32.8962ZM111.992 34.6302C111.04 34.6302 110.207 35.2762 109.663 36.2622V41.9062H107.725V33.1002H109.663V34.2222C110.326 33.4402 111.142 32.8962 112.247 32.8962C112.536 32.8962 112.842 32.9642 113.046 33.0662L112.893 34.7832C112.604 34.6812 112.281 34.6302 111.992 34.6302ZM117.199 34.8002V38.9822C117.199 39.9682 117.607 40.4102 118.763 40.4102C119.001 40.4102 119.358 40.3932 119.528 40.3762V42.0423C119.341 42.0763 118.933 42.1103 118.593 42.1103C116.298 42.1103 115.261 41.1582 115.261 38.9992V34.8002H113.799V33.1002H115.261V30.7202L117.199 30.5502V33.1002H119.426V34.8002H117.199ZM125.439 40.3762C126.578 40.3762 127.564 39.7472 128.023 38.7952V36.2282C127.564 35.2762 126.578 34.6302 125.439 34.6302C123.824 34.6302 122.566 35.8882 122.566 37.5032C122.566 39.1182 123.824 40.3762 125.439 40.3762ZM125.099 32.8962C126.221 32.8962 127.241 33.2702 128.023 34.0522V33.1002H129.961V41.9062H128.023V40.9542C127.241 41.7362 126.221 42.1103 125.099 42.1103C122.481 42.1103 120.594 40.0022 120.594 37.5032C120.594 35.0042 122.481 32.8962 125.099 32.8962ZM132.43 41.9062V29.4962H134.368V41.9062H132.43Z" fill="#FF8A00"/>
<path d="M22.9616 41.9062V30.0062H24.9676V40.1722H30.0166V41.9062H22.9616ZM31.6426 40.8522C31.6426 40.1382 32.1866 39.5942 32.9006 39.5942C33.6146 39.5942 34.1586 40.1382 34.1586 40.8522C34.1586 41.5662 33.6146 42.1103 32.9006 42.1103C32.1866 42.1103 31.6426 41.5662 31.6426 40.8522ZM36.4673 35.9562C36.4673 32.5052 37.7763 29.8022 40.5473 29.8022C43.3013 29.8022 44.6273 32.5052 44.6273 35.9562C44.6273 39.4073 43.3013 42.1103 40.5473 42.1103C37.7763 42.1103 36.4673 39.4073 36.4673 35.9562ZM38.4393 35.9562C38.4393 38.5572 39.0513 40.3082 40.5473 40.3082C42.0433 40.3082 42.6553 38.5572 42.6553 35.9562C42.6553 33.3552 42.0433 31.6042 40.5473 31.6042C39.0513 31.6042 38.4393 33.3552 38.4393 35.9562ZM48.3946 41.9062L51.1826 37.6222C51.0296 37.6732 50.7746 37.7242 50.4856 37.7242C48.4116 37.7242 46.5246 36.1262 46.5246 33.7802C46.5246 31.4342 48.5646 29.8022 50.7236 29.8022C52.9506 29.8022 54.9906 31.4342 54.9906 33.7802C54.9906 34.4942 54.7781 35.2847 54.3956 35.8712L50.4856 41.9062H48.3946ZM48.4966 33.7802C48.4966 35.0722 49.5166 36.0582 50.7576 36.0582C51.9986 36.0582 53.0186 35.0722 53.0186 33.7802C53.0186 32.4882 51.9986 31.5022 50.7576 31.5022C49.5166 31.5022 48.4966 32.4882 48.4966 33.7802ZM55.834 44.9663V43.4703H64.334V44.9663H55.834ZM65.779 30.0062H67.785V41.9062H65.779V30.0062ZM72.3594 36.0582V41.9062H70.4214V33.1002H72.3594V34.1202C73.0054 33.4062 73.9914 32.8962 74.9944 32.8962C77.1194 32.8962 78.5814 34.3582 78.5814 36.5682V41.9062H76.6434V36.6702C76.6434 35.4802 75.8274 34.6302 74.6204 34.6302C73.7364 34.6302 72.8354 35.3442 72.3594 36.0582ZM80.7974 33.1002H82.7354V34.1202C83.3134 33.4402 84.2314 32.8962 85.2174 32.8962C86.5264 32.8962 87.5634 33.4997 88.1499 34.4772C88.8129 33.5252 89.9774 32.8962 91.1674 32.8962C93.2414 32.8962 94.6354 34.3922 94.6354 36.5342V41.9062H92.6974V36.6362C92.6974 35.4802 91.9834 34.6302 90.8784 34.6302C90.0114 34.6302 89.1954 35.3102 88.6684 36.1262C88.6769 36.2622 88.6854 36.3982 88.6854 36.5342V41.9062H86.7474V36.6362C86.7474 35.4802 86.0334 34.6302 84.9284 34.6302C84.0614 34.6302 83.2624 35.3102 82.7354 36.0922V41.9062H80.7974V33.1002ZM101.101 40.3762C102.716 40.3762 103.974 39.1182 103.974 37.5032C103.974 35.8882 102.716 34.6302 101.101 34.6302C99.4861 34.6302 98.2281 35.8882 98.2281 37.5032C98.2281 39.1182 99.4861 40.3762 101.101 40.3762ZM101.101 32.8962C103.889 32.8962 105.946 34.9362 105.946 37.5032C105.946 40.0702 103.889 42.1103 101.101 42.1103C98.3131 42.1103 96.2561 40.0702 96.2561 37.5032C96.2561 34.9362 98.3131 32.8962 101.101 32.8962ZM111.992 34.6302C111.04 34.6302 110.207 35.2762 109.663 36.2622V41.9062H107.725V33.1002H109.663V34.2222C110.326 33.4402 111.142 32.8962 112.247 32.8962C112.536 32.8962 112.842 32.9642 113.046 33.0662L112.893 34.7832C112.604 34.6812 112.281 34.6302 111.992 34.6302ZM117.199 34.8002V38.9822C117.199 39.9682 117.607 40.4102 118.763 40.4102C119.001 40.4102 119.358 40.3932 119.528 40.3762V42.0423C119.341 42.0763 118.933 42.1103 118.593 42.1103C116.298 42.1103 115.261 41.1582 115.261 38.9992V34.8002H113.799V33.1002H115.261V30.7202L117.199 30.5502V33.1002H119.426V34.8002H117.199ZM125.439 40.3762C126.578 40.3762 127.564 39.7472 128.023 38.7952V36.2282C127.564 35.2762 126.578 34.6302 125.439 34.6302C123.824 34.6302 122.566 35.8882 122.566 37.5032C122.566 39.1182 123.824 40.3762 125.439 40.3762ZM125.099 32.8962C126.221 32.8962 127.241 33.2702 128.023 34.0522V33.1002H129.961V41.9062H128.023V40.9542C127.241 41.7362 126.221 42.1103 125.099 42.1103C122.481 42.1103 120.594 40.0022 120.594 37.5032C120.594 35.0042 122.481 32.8962 125.099 32.8962ZM132.43 41.9062V29.4962H134.368V41.9062H132.43Z" fill="#FFF6EC"/>
</g>
<path style="mix-blend-mode:screen" opacity="0.35" d="M185.003 32.494V33.5046C185.003 30.4292 183.206 27.6334 180.305 25.6127C177.404 23.5921 173.397 22.334 168.977 22.334H23.1539C18.733 22.334 14.7265 23.5921 11.8252 25.6127C8.92396 27.6334 7.12793 30.4292 7.12793 33.5046V32.494L86.0447 35.2776C92.0683 35.5444 98.1195 35.5444 104.143 35.2776L185.016 33.6317L185.003 32.494Z" fill="url(#paint2_linear_0_1)"/>
<g filter="url(#filter1_d_0_1)">
<path d="M157.308 6.82821L155.891 19.0268L154.993 24.3893L153.957 27.8073C153.957 27.8073 152.541 41.9655 157.308 46.9634C162.075 51.9765 163.76 56.2835 173.034 55.9189C182.294 55.5544 185.684 53.6404 189.034 49.3564C192.385 45.0725 193.493 40.3704 193.112 38.1677C192.716 35.9802 193.249 31.4532 193.371 30.2379C193.493 29.0226 191.955 26.0603 192.076 24.9209C192.198 23.7816 191.68 21.7004 191.68 21.7004L189.409 4.98186H188.659L181.503 14.4194L179.314 18.5255L170.055 18.647C170.055 18.647 168.258 17.6747 167.862 17.538C167.466 17.4165 160.477 5.58995 160.097 4.9823C159.701 4.37465 159.159 5.23996 159.159 4.98171C159.159 2.96784 157.308 6.79784 157.308 6.79784" fill="#85754E"/>
<path d="M156.775 21.2897C156.775 21.2897 153.364 25.4217 153.775 25.5888C154.186 25.7559 154.186 27.989 154.186 28.4296C154.186 28.8701 153.958 32.2274 153.851 32.6831C153.744 33.1388 153.409 34.4757 153.516 35.0226C153.623 35.5846 153.516 36.9214 153.958 37.6962C154.399 38.471 154.399 40.2635 154.75 39.7166C155.1 39.1546 156.775 34.9162 157.11 34.582C157.445 34.2478 159.577 31.2248 159.577 31.2248C159.577 31.2248 163.491 27.8827 163.842 27.8827C164.192 27.8827 166.644 27.6548 167.085 27.4421C167.527 27.2295 170.558 26.6522 170.558 26.6522C170.558 26.6522 175.934 26.0901 176.832 26.2116C177.731 26.318 181.873 27.67 182.543 27.8827C183.213 28.0954 184.447 29.1132 184.889 29.2195C185.33 29.3258 187.249 30.0095 187.569 30.6779C187.904 31.3463 188.361 32.4704 188.681 32.911C189.016 33.3515 189.686 34.8099 190.021 35.2504C190.371 35.691 191.589 36.1467 191.696 37.043C191.803 37.9393 192.488 39.2761 192.488 39.2761C193.051 38.3798 192.823 32.8046 192.823 31.4526C192.823 30.1006 192.153 24.5254 192.031 24.0849C191.909 23.6443 192.016 22.8848 191.011 21.9733C190.021 21.0618 188.452 20.6213 187.995 20.0592C187.538 19.4971 187.203 19.8313 185.087 18.8287C182.97 17.8261 183.335 16.1095 180.518 16.7323C177.7 17.3704 175.462 17.0361 173.208 17.0361C170.954 17.0361 168.136 16.4285 166.811 16.7323C165.486 17.0361 163.583 17.5982 162.456 17.9172C161.344 18.2514 161.557 18.7072 159.989 19.0414C158.42 19.3756 157.521 20.2719 157.521 20.2719L156.729 21.2745H156.745L156.775 21.2897Z" fill="#808080"/>
<path d="M169.065 16.2163L160.201 4.50387C159.638 3.7595 158.755 3.45567 157.871 3.68354C156.973 3.9266 156.318 4.70136 156.196 5.6584L154.064 23.0523L153.759 25.5741L155.709 24.6018C156.181 23.2954 156.973 22.0497 158.237 21.0015L156.318 21.9586L156.607 19.6039L158.282 5.90146C158.298 5.73436 158.389 5.70397 158.419 5.68878H158.435C158.435 5.68878 158.48 5.68878 158.511 5.74955L166.415 16.1859L166.811 16.7024L162.562 18.814C163.43 18.5709 164.374 18.4038 165.44 18.2671H168.364L170.009 17.4468L169.05 16.1859L169.065 16.2163Z" fill="#1A1A1A"/>
<path d="M193.188 22.3386L191.163 5.65869C191.041 4.70164 190.402 3.92688 189.488 3.68382C188.62 3.45596 187.736 3.77497 187.173 4.50415L178.309 16.2166L177.335 17.4775L178.979 18.2978H181.964C182.756 18.3282 183.503 18.4041 184.188 18.556L180.533 16.7331L180.929 16.2166L188.833 5.78021C188.833 5.78021 188.909 5.71945 188.924 5.71945C188.955 5.71945 189.031 5.76502 189.061 5.93212L190.706 19.3612L191.026 21.974L189.808 21.3664C190.904 22.4298 191.635 23.6299 192.031 24.8148L193.584 25.5896L193.188 22.3386Z" fill="#1A1A1A"/>
<path d="M193.965 40.9623C193.812 38.9874 193.264 37.0885 192.396 35.3567C189.335 29.1587 182.269 24.7988 174.06 24.7988C165.227 24.7988 157.704 29.8271 155.099 36.7999C154.445 38.5165 154.094 40.3546 154.094 42.2535C154.094 42.527 154.094 42.8004 154.125 43.0587C155.389 46.7349 157.673 49.9403 160.643 52.3557C157.978 49.758 156.333 46.3704 156.211 42.6789C156.211 42.5422 156.211 42.3903 156.211 42.2535C156.211 33.792 164.222 26.9104 174.075 26.9104C183.365 26.9104 191.01 33.0325 191.863 40.8104C191.909 41.2813 191.939 41.7522 191.939 42.2384C191.939 44.7297 191.239 47.0843 190.02 49.1503C191.909 46.7805 193.279 44.0005 193.98 40.9623H193.965Z" fill="#1A1A1A"/>
<path d="M193.188 22.7486C192.579 21.6852 191.757 20.6522 190.706 19.7559C188.68 18.0089 185.817 16.748 182.01 16.6113H165.273C161.222 17.0823 158.481 18.3735 156.623 20.0294C155.45 21.0624 154.628 22.2625 154.095 23.4778C153.242 25.3615 152.998 27.3059 152.998 28.8403V36.7245C152.998 39.0943 153.394 41.3578 154.14 43.4846C155.404 47.1609 157.689 50.3662 160.658 52.7816C164.237 55.6831 168.791 57.4301 173.756 57.4301C180.335 57.4301 186.213 54.3615 190.005 49.5915C191.894 47.2216 193.264 44.4416 193.965 41.4034C194.331 39.8995 194.498 38.3348 194.498 36.7245V27.3971C194.498 25.9691 194.072 24.3285 193.173 22.779L193.188 22.7486ZM168.456 54.5286L173.695 49.3028L178.964 54.559C177.319 55.0451 175.568 55.3034 173.756 55.3034C171.943 55.3034 170.131 55.0147 168.441 54.5286H168.456ZM192.412 36.6941C192.412 38.2436 192.214 39.7627 191.863 41.2059C190.386 47.1153 186.076 51.9005 180.441 54.0577L174.456 48.0723V43.3175C177.578 42.9681 180 40.3248 180 37.1195C180 33.6711 177.198 30.8911 173.756 30.8911C170.314 30.8911 167.512 33.6863 167.512 37.1195C167.512 40.2792 169.872 42.8921 172.933 43.3023V48.0723L166.979 54.0121C162.014 52.0676 158.069 48.0571 156.227 43.0592C155.541 41.2211 155.161 39.2462 155.115 37.1802C155.115 37.0131 155.115 36.846 155.115 36.6941V28.8099C155.115 27.5946 155.282 26.2729 155.739 25.0121C156.196 23.7056 157.003 22.4599 158.267 21.4118C159.333 20.5155 160.75 19.7711 162.577 19.2546C163.445 19.0115 164.39 18.8444 165.456 18.7077H181.964C182.756 18.7381 183.502 18.8141 184.188 18.966C186.609 19.4369 188.467 20.4699 189.792 21.7611C190.889 22.8245 191.62 24.0246 192.016 25.2096C192.275 25.9539 192.412 26.6983 192.412 27.3667V36.6941Z" fill="#1A1A1A"/>
<path d="M165.852 24.4805C167.07 24.4805 168.045 23.5083 168.045 22.293C168.045 21.0777 167.07 20.1055 165.852 20.1055C164.633 20.1055 163.659 21.0777 163.659 22.293C163.659 23.5083 164.633 24.4805 165.852 24.4805Z" fill="#1A1A1A"/>
<path d="M183.267 24.4805C184.47 24.4805 185.46 23.5083 185.46 22.293C185.46 21.0777 184.485 20.1055 183.267 20.1055C182.048 20.1055 181.074 21.0777 181.074 22.293C181.074 23.5083 182.048 24.4805 183.267 24.4805Z" fill="#1A1A1A"/>
</g>
<defs>
<filter id="filter0_d_0_1" x="0.403076" y="18.6641" width="191.352" height="41.2773" filterUnits="userSpaceOnUse" color-interpolation-filters="sRGB">
<feFlood flood-opacity="0" result="BackgroundImageFix"/>
<feColorMatrix in="SourceAlpha" type="matrix" values="0 0 0 0 0 0 0 0 0 0 0 0 0 0 0 0 0 0 127 0" result="hardAlpha"/>
<feOffset dy="2"/>
<feGaussianBlur stdDeviation="1"/>
<feComposite in2="hardAlpha" operator="out"/>
<feColorMatrix type="matrix" values="0 0 0 0 0 0 0 0 0 0 0 0 0 0 0 0 0 0 0.25 0"/>
<feBlend mode="normal" in2="BackgroundImageFix" result="effect1_dropShadow_0_1"/>
<feBlend mode="normal" in="SourceGraphic" in2="effect1_dropShadow_0_1" result="shape"/>
</filter>
<filter id="filter1_d_0_1" x="149.998" y="0.609375" width="49.5" height="61.8203" filterUnits="userSpaceOnUse" color-interpolation-filters="sRGB">
<feFlood flood-opacity="0" result="BackgroundImageFix"/>
<feColorMatrix in="SourceAlpha" type="matrix" values="0 0 0 0 0 0 0 0 0 0 0 0 0 0 0 0 0 0 127 0" result="hardAlpha"/>
<feOffset dx="1" dy="1"/>
<feGaussianBlur stdDeviation="2"/>
<feColorMatrix type="matrix" values="0 0 0 0 0 0 0 0 0 0 0 0 0 0 0 0 0 0 1 0"/>
<feBlend mode="normal" in2="BackgroundImageFix" result="effect1_dropShadow_0_1"/>
<feBlend mode="normal" in="SourceGraphic" in2="effect1_dropShadow_0_1" result="shape"/>
</filter>
<linearGradient id="paint0_linear_0_1" x1="96.086" y1="55.9414" x2="96.086" y2="18.6641" gradientUnits="userSpaceOnUse">
<stop stop-color="#666666"/>
<stop offset="1" stop-color="#141416"/>
</linearGradient>
<linearGradient id="paint1_linear_0_1" x1="96.086" y1="53.9649" x2="96.086" y2="20.6289" gradientUnits="userSpaceOnUse">
<stop offset="0.05" stop-color="#5C0304"/>
<stop offset="0.620223" stop-color="#FF0404"/>
</linearGradient>
<linearGradient id="paint2_linear_0_1" x1="96.6248" y1="62.2762" x2="95.7947" y2="12.1394" gradientUnits="userSpaceOnUse">
<stop offset="0.363578" stop-color="#151946"/>
<stop offset="0.874088" stop-color="#E2FFFF"/>
</linearGradient>
</defs>
</svg>
