<svg width="257" height="116" viewBox="0 0 257 116" fill="none" xmlns="http://www.w3.org/2000/svg">
<g filter="url(#filter0_d_386_177)">
<mask id="path-1-outside-1_386_177" maskUnits="userSpaceOnUse" x="64" y="45.9998" width="119" height="21" fill="black">
<rect fill="white" x="64" y="45.9998" width="119" height="21"/>
<path d="M65 65.9998V46.9998H68V65.9998H65Z"/>
<path d="M76.6154 65.9998V65.0498H74.3077V64.0998H73.1538V63.1498H72V61.2498H75.4615V62.1998H76.6154V63.1498H82.3846V62.1998H83.5385V59.3498H82.3846V58.3998H81.2308V57.4498H77.7692V56.4998H74.3077V55.5498H73.1538V54.5998H72V49.8498H73.1538V48.8998H74.3077V47.9498H75.4615V46.9998H83.5385V47.9498H84.6923V48.8998H85.8462V50.7998H82.3846V49.8498H76.6154V50.7998H75.4615V53.6498H77.7692V54.5998H81.2308V55.5498H83.5385V56.4998H85.8462V58.3998H87V63.1498H85.8462V64.0998H84.6923V65.0498H82.3846V65.9998H76.6154Z"/>
<path d="M108.737 65.9998V65.0498H105.421V64.0998H104.316V63.1498H103.211V62.1998H102.105V60.2998H101V52.6998H102.105V50.7998H103.211V49.8498H104.316V48.8998H105.421V47.9498H108.737V46.9998H114.263V47.9498H117.579V48.8998H118.684V49.8498H119.789V50.7998H120.895V52.6998H122V60.2998H120.895V62.1998H119.789V63.1498H118.684V64.0998H117.579V65.0498H114.263V65.9998H108.737ZM113.158 63.1498V62.1998H115.368V61.2498H116.474V60.2998H117.579V58.3998H118.684V54.5998H117.579V52.6998H116.474V51.7498H115.368V50.7998H113.158V49.8498H109.842V50.7998H107.632V51.7498H106.526V52.6998H105.421V54.5998H104.316V58.3998H105.421V60.2998H106.526V61.2498H107.632V62.1998H109.842V63.1498H113.158Z"/>
<path d="M131.824 65.9998V64.0998H130.706V61.2498H129.588V59.3498H128.471V56.4998H127.353V53.6498H126.235V51.7498H125.118V48.8998H124V46.9998H127.353V48.8998H128.471V51.7498H129.588V53.6498H130.706V56.4998H131.824V59.3498H132.941V61.2498H134.059V59.3498H135.176V56.4998H136.294V53.6498H137.412V51.7498H138.529V48.8998H139.647V46.9998H143V48.8998H141.882V51.7498H140.765V53.6498H139.647V56.4998H138.529V59.3498H137.412V61.2498H136.294V64.0998H135.176V65.9998H131.824Z"/>
<path d="M146 65.9998V46.9998H160V49.8498H149.5V54.5998H160V57.4498H149.5V63.1498H160V65.9998H146Z"/>
<path d="M164 65.9998V46.9998H176.375V47.9498H177.5V48.8998H178.625V49.8498H179.75V54.5998H178.625V55.5498H177.5V56.4998H176.375V57.4498H173V58.3998H174.125V59.3498H175.25V60.2998H176.375V61.2498H177.5V62.1998H178.625V63.1498H179.75V64.0998H180.875V65.0498H182V65.9998H177.5V65.0498H176.375V64.0998H175.25V63.1498H174.125V62.1998H173V61.2498H171.875V60.2998H170.75V59.3498H169.625V58.3998H168.5V57.4498H167.375V65.9998H164ZM175.25 54.5998V53.6498H176.375V50.7998H175.25V49.8498H167.375V54.5998H175.25Z"/>
</mask>
<path d="M65 65.9998V46.9998H68V65.9998H65Z" fill="#FE0F05"/>
<path d="M76.6154 65.9998V65.0498H74.3077V64.0998H73.1538V63.1498H72V61.2498H75.4615V62.1998H76.6154V63.1498H82.3846V62.1998H83.5385V59.3498H82.3846V58.3998H81.2308V57.4498H77.7692V56.4998H74.3077V55.5498H73.1538V54.5998H72V49.8498H73.1538V48.8998H74.3077V47.9498H75.4615V46.9998H83.5385V47.9498H84.6923V48.8998H85.8462V50.7998H82.3846V49.8498H76.6154V50.7998H75.4615V53.6498H77.7692V54.5998H81.2308V55.5498H83.5385V56.4998H85.8462V58.3998H87V63.1498H85.8462V64.0998H84.6923V65.0498H82.3846V65.9998H76.6154Z" fill="#FD3206"/>
<path d="M108.737 65.9998V65.0498H105.421V64.0998H104.316V63.1498H103.211V62.1998H102.105V60.2998H101V52.6998H102.105V50.7998H103.211V49.8498H104.316V48.8998H105.421V47.9498H108.737V46.9998H114.263V47.9498H117.579V48.8998H118.684V49.8498H119.789V50.7998H120.895V52.6998H122V60.2998H120.895V62.1998H119.789V63.1498H118.684V64.0998H117.579V65.0498H114.263V65.9998H108.737ZM113.158 63.1498V62.1998H115.368V61.2498H116.474V60.2998H117.579V58.3998H118.684V54.5998H117.579V52.6998H116.474V51.7498H115.368V50.7998H113.158V49.8498H109.842V50.7998H107.632V51.7498H106.526V52.6998H105.421V54.5998H104.316V58.3998H105.421V60.2998H106.526V61.2498H107.632V62.1998H109.842V63.1498H113.158Z" fill="#FD3206"/>
<path d="M131.824 65.9998V64.0998H130.706V61.2498H129.588V59.3498H128.471V56.4998H127.353V53.6498H126.235V51.7498H125.118V48.8998H124V46.9998H127.353V48.8998H128.471V51.7498H129.588V53.6498H130.706V56.4998H131.824V59.3498H132.941V61.2498H134.059V59.3498H135.176V56.4998H136.294V53.6498H137.412V51.7498H138.529V48.8998H139.647V46.9998H143V48.8998H141.882V51.7498H140.765V53.6498H139.647V56.4998H138.529V59.3498H137.412V61.2498H136.294V64.0998H135.176V65.9998H131.824Z" fill="#FD3206"/>
<path d="M146 65.9998V46.9998H160V49.8498H149.5V54.5998H160V57.4498H149.5V63.1498H160V65.9998H146Z" fill="#FD3206"/>
<path d="M164 65.9998V46.9998H176.375V47.9498H177.5V48.8998H178.625V49.8498H179.75V54.5998H178.625V55.5498H177.5V56.4998H176.375V57.4498H173V58.3998H174.125V59.3498H175.25V60.2998H176.375V61.2498H177.5V62.1998H178.625V63.1498H179.75V64.0998H180.875V65.0498H182V65.9998H177.5V65.0498H176.375V64.0998H175.25V63.1498H174.125V62.1998H173V61.2498H171.875V60.2998H170.75V59.3498H169.625V58.3998H168.5V57.4498H167.375V65.9998H164ZM175.25 54.5998V53.6498H176.375V50.7998H175.25V49.8498H167.375V54.5998H175.25Z" fill="#FD3206"/>
<path d="M65 65.9998V46.9998H68V65.9998H65Z" stroke="#FE0F05" stroke-width="2" mask="url(#path-1-outside-1_386_177)"/>
<path d="M76.6154 65.9998V65.0498H74.3077V64.0998H73.1538V63.1498H72V61.2498H75.4615V62.1998H76.6154V63.1498H82.3846V62.1998H83.5385V59.3498H82.3846V58.3998H81.2308V57.4498H77.7692V56.4998H74.3077V55.5498H73.1538V54.5998H72V49.8498H73.1538V48.8998H74.3077V47.9498H75.4615V46.9998H83.5385V47.9498H84.6923V48.8998H85.8462V50.7998H82.3846V49.8498H76.6154V50.7998H75.4615V53.6498H77.7692V54.5998H81.2308V55.5498H83.5385V56.4998H85.8462V58.3998H87V63.1498H85.8462V64.0998H84.6923V65.0498H82.3846V65.9998H76.6154Z" stroke="#FE0F05" stroke-width="2" mask="url(#path-1-outside-1_386_177)"/>
<path d="M108.737 65.9998V65.0498H105.421V64.0998H104.316V63.1498H103.211V62.1998H102.105V60.2998H101V52.6998H102.105V50.7998H103.211V49.8498H104.316V48.8998H105.421V47.9498H108.737V46.9998H114.263V47.9498H117.579V48.8998H118.684V49.8498H119.789V50.7998H120.895V52.6998H122V60.2998H120.895V62.1998H119.789V63.1498H118.684V64.0998H117.579V65.0498H114.263V65.9998H108.737ZM113.158 63.1498V62.1998H115.368V61.2498H116.474V60.2998H117.579V58.3998H118.684V54.5998H117.579V52.6998H116.474V51.7498H115.368V50.7998H113.158V49.8498H109.842V50.7998H107.632V51.7498H106.526V52.6998H105.421V54.5998H104.316V58.3998H105.421V60.2998H106.526V61.2498H107.632V62.1998H109.842V63.1498H113.158Z" stroke="#FE0F05" stroke-width="2" mask="url(#path-1-outside-1_386_177)"/>
<path d="M131.824 65.9998V64.0998H130.706V61.2498H129.588V59.3498H128.471V56.4998H127.353V53.6498H126.235V51.7498H125.118V48.8998H124V46.9998H127.353V48.8998H128.471V51.7498H129.588V53.6498H130.706V56.4998H131.824V59.3498H132.941V61.2498H134.059V59.3498H135.176V56.4998H136.294V53.6498H137.412V51.7498H138.529V48.8998H139.647V46.9998H143V48.8998H141.882V51.7498H140.765V53.6498H139.647V56.4998H138.529V59.3498H137.412V61.2498H136.294V64.0998H135.176V65.9998H131.824Z" stroke="#FE0F05" stroke-width="2" mask="url(#path-1-outside-1_386_177)"/>
<path d="M146 65.9998V46.9998H160V49.8498H149.5V54.5998H160V57.4498H149.5V63.1498H160V65.9998H146Z" stroke="#FE0F05" stroke-width="2" mask="url(#path-1-outside-1_386_177)"/>
<path d="M164 65.9998V46.9998H176.375V47.9498H177.5V48.8998H178.625V49.8498H179.75V54.5998H178.625V55.5498H177.5V56.4998H176.375V57.4498H173V58.3998H174.125V59.3498H175.25V60.2998H176.375V61.2498H177.5V62.1998H178.625V63.1498H179.75V64.0998H180.875V65.0498H182V65.9998H177.5V65.0498H176.375V64.0998H175.25V63.1498H174.125V62.1998H173V61.2498H171.875V60.2998H170.75V59.3498H169.625V58.3998H168.5V57.4498H167.375V65.9998H164ZM175.25 54.5998V53.6498H176.375V50.7998H175.25V49.8498H167.375V54.5998H175.25Z" stroke="#FE0F05" stroke-width="2" mask="url(#path-1-outside-1_386_177)"/>
</g>
<path d="M65 65.9998V46.9998H68V65.9998H65Z" fill="#FE0F05"/>
<path d="M76.6154 65.9998V65.0498H74.3077V64.0998H73.1538V63.1498H72V61.2498H75.4615V62.1998H76.6154V63.1498H82.3846V62.1998H83.5385V59.3498H82.3846V58.3998H81.2308V57.4498H77.7692V56.4998H74.3077V55.5498H73.1538V54.5998H72V49.8498H73.1538V48.8998H74.3077V47.9498H75.4615V46.9998H83.5385V47.9498H84.6923V48.8998H85.8462V50.7998H82.3846V49.8498H76.6154V50.7998H75.4615V53.6498H77.7692V54.5998H81.2308V55.5498H83.5385V56.4998H85.8462V58.3998H87V63.1498H85.8462V64.0998H84.6923V65.0498H82.3846V65.9998H76.6154Z" fill="#FD3206"/>
<path d="M108.737 65.9998V65.0498H105.421V64.0998H104.316V63.1498H103.211V62.1998H102.105V60.2998H101V52.6998H102.105V50.7998H103.211V49.8498H104.316V48.8998H105.421V47.9498H108.737V46.9998H114.263V47.9498H117.579V48.8998H118.684V49.8498H119.789V50.7998H120.895V52.6998H122V60.2998H120.895V62.1998H119.789V63.1498H118.684V64.0998H117.579V65.0498H114.263V65.9998H108.737ZM113.158 63.1498V62.1998H115.368V61.2498H116.474V60.2998H117.579V58.3998H118.684V54.5998H117.579V52.6998H116.474V51.7498H115.368V50.7998H113.158V49.8498H109.842V50.7998H107.632V51.7498H106.526V52.6998H105.421V54.5998H104.316V58.3998H105.421V60.2998H106.526V61.2498H107.632V62.1998H109.842V63.1498H113.158Z" fill="#FD3206"/>
<path d="M131.824 65.9998V64.0998H130.706V61.2498H129.588V59.3498H128.471V56.4998H127.353V53.6498H126.235V51.7498H125.118V48.8998H124V46.9998H127.353V48.8998H128.471V51.7498H129.588V53.6498H130.706V56.4998H131.824V59.3498H132.941V61.2498H134.059V59.3498H135.176V56.4998H136.294V53.6498H137.412V51.7498H138.529V48.8998H139.647V46.9998H143V48.8998H141.882V51.7498H140.765V53.6498H139.647V56.4998H138.529V59.3498H137.412V61.2498H136.294V64.0998H135.176V65.9998H131.824Z" fill="#FD3206"/>
<path d="M146 65.9998V46.9998H160V49.8498H149.5V54.5998H160V57.4498H149.5V63.1498H160V65.9998H146Z" fill="#FD3206"/>
<path d="M164 65.9998V46.9998H176.375V47.9498H177.5V48.8998H178.625V49.8498H179.75V54.5998H178.625V55.5498H177.5V56.4998H176.375V57.4498H173V58.3998H174.125V59.3498H175.25V60.2998H176.375V61.2498H177.5V62.1998H178.625V63.1498H179.75V64.0998H180.875V65.0498H182V65.9998H177.5V65.0498H176.375V64.0998H175.25V63.1498H174.125V62.1998H173V61.2498H171.875V60.2998H170.75V59.3498H169.625V58.3998H168.5V57.4498H167.375V65.9998H164ZM175.25 54.5998V53.6498H176.375V50.7998H175.25V49.8498H167.375V54.5998H175.25Z" fill="#FD3206"/>
<g filter="url(#filter1_f_386_177)">
<rect x="21" y="24.9998" width="200" height="64" stroke="#FD0E0E" stroke-width="3"/>
</g>
<g filter="url(#filter2_d_386_177)">
<rect x="21" y="24.9998" width="200" height="64" stroke="#FD0E0E" stroke-width="3" shape-rendering="crispEdges"/>
</g>
<rect x="21.25" y="25.2498" width="199.5" height="63.5" stroke="white" stroke-opacity="0.9" stroke-width="0.5"/>
<g filter="url(#filter3_f_386_177)">
<ellipse cx="128.5" cy="57.9998" rx="78.5" ry="8" fill="#FE0F05"/>
</g>
<defs>
<filter id="filter0_d_386_177" x="61" y="42.9998" width="125" height="27" filterUnits="userSpaceOnUse" color-interpolation-filters="sRGB">
<feFlood flood-opacity="0" result="BackgroundImageFix"/>
<feColorMatrix in="SourceAlpha" type="matrix" values="0 0 0 0 0 0 0 0 0 0 0 0 0 0 0 0 0 0 127 0" result="hardAlpha"/>
<feOffset/>
<feGaussianBlur stdDeviation="1.5"/>
<feComposite in2="hardAlpha" operator="out"/>
<feColorMatrix type="matrix" values="0 0 0 0 0.914028 0 0 0 0 0.0437972 0 0 0 0 0.0437972 0 0 0 1 0"/>
<feBlend mode="normal" in2="BackgroundImageFix" result="effect1_dropShadow_386_177"/>
<feBlend mode="normal" in="SourceGraphic" in2="effect1_dropShadow_386_177" result="shape"/>
</filter>
<filter id="filter1_f_386_177" x="7.5" y="11.4998" width="227" height="91" filterUnits="userSpaceOnUse" color-interpolation-filters="sRGB">
<feFlood flood-opacity="0" result="BackgroundImageFix"/>
<feBlend mode="normal" in="SourceGraphic" in2="BackgroundImageFix" result="shape"/>
<feGaussianBlur stdDeviation="6" result="effect1_foregroundBlur_386_177"/>
</filter>
<filter id="filter2_d_386_177" x="14.5" y="18.4998" width="213" height="77" filterUnits="userSpaceOnUse" color-interpolation-filters="sRGB">
<feFlood flood-opacity="0" result="BackgroundImageFix"/>
<feColorMatrix in="SourceAlpha" type="matrix" values="0 0 0 0 0 0 0 0 0 0 0 0 0 0 0 0 0 0 127 0" result="hardAlpha"/>
<feOffset/>
<feGaussianBlur stdDeviation="2.5"/>
<feComposite in2="hardAlpha" operator="out"/>
<feColorMatrix type="matrix" values="0 0 0 0 1 0 0 0 0 0 0 0 0 0 0 0 0 0 1 0"/>
<feBlend mode="normal" in2="BackgroundImageFix" result="effect1_dropShadow_386_177"/>
<feBlend mode="normal" in="SourceGraphic" in2="effect1_dropShadow_386_177" result="shape"/>
</filter>
<filter id="filter3_f_386_177" x="0" y="-0.000244141" width="257" height="116" filterUnits="userSpaceOnUse" color-interpolation-filters="sRGB">
<feFlood flood-opacity="0" result="BackgroundImageFix"/>
<feBlend mode="normal" in="SourceGraphic" in2="BackgroundImageFix" result="shape"/>
<feGaussianBlur stdDeviation="25" result="effect1_foregroundBlur_386_177"/>
</filter>
</defs>
</svg>
