<svg width="68" height="70" viewBox="0 0 68 70" fill="none" xmlns="http://www.w3.org/2000/svg">
<path d="M32.629 69.2197C14.7046 69.2197 0.112305 54.4197 0.112305 36.2358C0.112305 18.0519 14.6954 3.25195 32.629 3.25195H34.6063C52.5308 3.25195 67.123 18.0519 67.123 36.2358C67.123 54.4197 52.5399 69.2197 34.6063 69.2197H32.629Z" fill="url(#paint0_linear_6413_11122)"/>
<path d="M32.6291 62.936C18.1192 62.936 6.30994 50.9529 6.30994 36.2366C6.30994 21.5203 18.1192 9.53711 32.6291 9.53711H34.6063C49.1162 9.53711 60.9255 21.5203 60.9255 36.2366C60.9255 50.9529 49.1162 62.936 34.6063 62.936H32.6291Z" fill="black"/>
<path d="M32.629 61.3641C18.9705 61.3641 7.85693 50.0875 7.85693 36.2358C7.85693 22.384 18.9705 11.1074 32.629 11.1074H34.6063C48.2648 11.1074 59.3784 22.384 59.3784 36.2358C59.3784 50.0875 48.2648 61.3641 34.6063 61.3641H32.629Z" fill="url(#paint1_linear_6413_11122)"/>
<path d="M16.4314 38.7433V30.4273H19.8514V39.0133C19.8514 41.6593 18.2674 43.2433 15.6304 43.2433C14.5504 43.2433 13.4614 43.0003 12.6874 42.5683L13.5244 39.8143C13.9384 40.0753 14.5234 40.2913 15.0544 40.2913C15.8824 40.2913 16.4314 39.7243 16.4314 38.7433ZM24.5257 36.7273C24.5257 38.7613 26.0017 40.2913 27.9457 40.2913C29.8897 40.2913 31.3657 38.7613 31.3657 36.7273C31.3657 34.6933 29.8897 33.1633 27.9457 33.1633C26.0017 33.1633 24.5257 34.6933 24.5257 36.7273ZM21.0967 36.7273C21.0967 33.0553 24.0667 30.2113 27.9457 30.2113C31.8247 30.2113 34.7947 33.0553 34.7947 36.7273C34.7947 40.3993 31.8247 43.2433 27.9457 43.2433C24.0667 43.2433 21.0967 40.3993 21.0967 36.7273ZM36.1812 30.4273H39.6012V43.0273H36.1812V30.4273ZM41.6084 43.0273V30.4273H45.2804L48.8084 38.0953V30.4273H51.9404V43.0273H48.2684L44.7404 35.3593V43.0273H41.6084Z" fill="#171717"/>
<path fill-rule="evenodd" clip-rule="evenodd" d="M67.1023 34.9961C66.4841 17.3592 52.1393 3.19861 34.6063 3.19861L32.629 3.19861C15.0872 3.19861 0.751067 17.359 0.13308 34.9957C0.119278 34.602 0.11232 34.2065 0.11232 33.8093C0.112318 15.6255 14.6954 0.825471 32.629 0.825469L34.6063 0.825469C52.5308 0.825467 67.123 15.6255 67.123 33.8093C67.123 34.2066 67.1161 34.6022 67.1023 34.9961Z" fill="#00FFFF" fill-opacity="0.5"/>
<g style="mix-blend-mode:screen" opacity="0.6">
<path d="M57.9244 32.0479C55.9597 19.7946 45.7887 11.9023 33.8356 11.9023C20.3177 11.9023 9.15557 21.7103 9.31205 36.6738C9.31205 37.0004 9.31207 37.327 9.32945 37.6537C12.2938 37.8302 15.3278 37.9273 18.4139 37.9273C33.4531 37.9273 47.2317 35.7115 57.9157 32.0479H57.9244Z" fill="white"/>
</g>
<defs>
<linearGradient id="paint0_linear_6413_11122" x1="33.6177" y1="69.2197" x2="33.6177" y2="3.24266" gradientUnits="userSpaceOnUse">
<stop offset="0.0232501" stop-color="#4F5151"/>
<stop offset="0.361124" stop-color="#29292A"/>
<stop offset="1"/>
</linearGradient>
<linearGradient id="paint1_linear_6413_11122" x1="33.6176" y1="67.7344" x2="33.6176" y2="11.0981" gradientUnits="userSpaceOnUse">
<stop offset="0.065" stop-color="#01191D"/>
<stop offset="0.6" stop-color="#00FFE7"/>
</linearGradient>
</defs>
</svg>
