<svg width="182" height="65" viewBox="0 0 182 65" fill="none" xmlns="http://www.w3.org/2000/svg">
<g clip-path="url(#clip0_822_859)">
<path d="M56.3309 40.9016L55.3945 39.9851V33.8471H58.593V38.0132H68.9766V35.8561L65.3609 32.3103H55.4594V29.2644H66.7979L72.2029 34.5599V39.9296L71.2109 40.9016H56.3309Z" fill="#CCCCCC"/>
<path d="M74.8916 40.9663L73.844 39.9387V34.5691C77.2001 31.2177 78.5073 29.9124 78.9894 29.3291H89.4843L90.5597 30.3845V39.9294L89.5862 40.9663H74.8916ZM76.8942 35.2912V38.0964H87.5837V32.412H87.1665C87.1665 32.412 85.3679 32.412 83.5693 32.412C82.67 32.412 81.7707 32.412 81.094 32.412C79.8702 32.412 79.6199 32.412 79.5642 32.662L76.8849 35.282L76.8942 35.2912Z" fill="#CCCCCC"/>
<path d="M129.331 40.9572L128.228 39.9296V34.4211L133.494 29.2644H137.963L134.477 32.6806L134.588 32.9398C134.668 33.1311 135.67 33.2268 137.592 33.2268H137.629C140.114 33.2268 143.655 33.199 144.916 33.1898V36.2541C144.536 36.2727 143.683 36.3004 141.792 36.3004C137.768 36.3004 131.677 36.1893 131.612 36.1893H131.185V37.8928H144.916V40.9572H129.331Z" fill="#CCCCCC"/>
<path d="M169.985 40.9016L169.975 38.726L176.558 32.2824H168.251V40.9016H165.173L165.145 34.5969V30.4309L166.276 29.3199L181.731 29.3014V31.6899L175.25 38.0409H182V40.9016H169.985Z" fill="#CCCCCC"/>
<path d="M172.766 46.2434V45.9472L174.083 44.6603H172.293V46.2434H171.885V45.1602V44.4289L172.043 44.2715H174.759V44.5955L173.461 45.8731H174.815V46.2434H172.766Z" fill="#CCCCCC"/>
<path d="M172.766 46.2434V45.9472L174.083 44.6603H172.293V46.2434H171.885V45.1602V44.4289L172.043 44.2715H174.759V44.5955L173.461 45.8731H174.815V46.2434H172.766Z" fill="#CCCCCC"/>
<path d="M173.313 48.3079C171.691 48.3079 170.365 47.0118 170.365 45.4102C170.365 43.8086 171.681 42.5125 173.313 42.5125C174.945 42.5125 176.261 43.8086 176.261 45.4102C176.261 47.0118 174.945 48.3079 173.313 48.3079ZM173.313 43.5679C172.265 43.5679 171.422 44.3918 171.422 45.4102C171.422 46.4286 172.275 47.2525 173.313 47.2525C174.351 47.2525 175.204 46.4286 175.204 45.4102C175.204 44.3918 174.351 43.5679 173.313 43.5679Z" fill="#CCCCCC"/>
<path d="M147.855 40.9756L146.622 39.9109V34.5876L152.054 29.2736H162.104L163.291 30.4308V36.6151H160.231V33.1249L160.241 32.7083V32.3009L159.814 32.2916H153.399L149.774 35.8467V38.0223H163.328V40.9756H147.855Z" fill="#CCCCCC"/>
<path d="M93.3223 40.9387L92.2654 39.9388V34.5877L97.6982 29.2644H106.969L108.759 29.2829V32.1992H98.8849L95.1487 35.8653V37.9946H105.773V36.5041H99.4041V33.6712H107.655L108.842 34.8377V39.9018L107.692 40.9387H93.3223Z" fill="#CCCCCC"/>
<path d="M57.7217 55.3347L56.637 54.2701V49.1597L62.2181 43.6975C62.7559 43.6605 64.8882 43.642 66.659 43.642L59.8633 50.2984V52.474H73.6679V55.344H57.7309L57.7217 55.3347Z" fill="#CCCCCC"/>
<path d="M96.1503 55.3626L94.9265 54.3072V48.9746L100.35 43.6605H110.409L111.587 44.8178V51.0021H108.536V47.5118V47.0952V46.6879H108.119H101.704L98.0787 50.2337V52.4093H111.633V55.3626H96.1503Z" fill="#CCCCCC"/>
<path d="M76.9312 55.3255L75.9485 54.3627V49.0579L81.4648 43.6512H92.8311V45.7991L87.7969 50.7336H83.0872L87.1294 46.7712H82.6051L79.0265 50.2707V52.4463H92.7662V55.3255H76.9312Z" fill="#CCCCCC"/>
<path d="M152.323 55.3255L151.229 54.3071V49.0579L156.746 43.6512H168.121V45.7991L163.078 50.7336H158.368L162.41 46.7712H157.886L154.307 50.2707V52.4463H168.056V55.3255H152.323Z" fill="#CCCCCC"/>
<path d="M114.952 55.3255L113.839 54.3257V48.9838L119.272 43.6605H129.35L130.342 43.6698V46.5953H120.468L116.732 50.2522V52.3815H127.347V50.891H120.987V48.058H129.229L130.425 49.2245V54.2979L129.276 55.3255H114.952Z" fill="#CCCCCC"/>
<path d="M133.355 55.3162L132.316 54.3071V48.5116L137.267 43.6697H141.532L135.478 49.5948V52.4463H146.065V43.642H149.171V54.2886L148.022 55.3162H133.355Z" fill="#CCCCCC"/>
<path d="M110.668 40.9387V38.0132H123.787V36.3838H110.668L110.641 34.1804L115.573 29.3292L117.334 29.3199H126.819V32.1899H116.676L114.979 33.8563H125.521L126.624 34.9395V39.9203L125.539 40.9387H110.668Z" fill="#CCCCCC"/>
<path d="M17.615 64.9907C18.1064 64.5556 19.9513 63.3983 20.9155 62.8058C21.2771 62.5836 21.7313 62.5836 22.0836 62.8058L25.3656 64.8333L22.0929 63.3705C21.7406 63.2132 21.3327 63.2132 20.9804 63.3891L17.6335 64.9999" fill="#CCCCCC"/>
<path d="M21.722 57.1307C21.6757 58.7138 21.6015 60.9727 21.583 61.8152L21.3049 57.0659C21.2492 56.1308 20.4705 55.3994 19.5341 55.4179C16.9938 55.455 12.7199 56.029 15.0747 59.7692C18.1805 64.6944 21.0731 64.5926 21.3234 64.574C21.3697 64.7592 21.6293 64.7592 21.6757 64.574C21.9167 64.5833 24.8093 64.6944 27.9244 59.7599C30.2514 56.066 26.0794 55.455 23.5299 55.4179C22.5657 55.3994 21.7591 56.1586 21.7313 57.1307H21.722Z" fill="#CCCCCC"/>
<path d="M42.2482 27.8571C42.2482 27.8571 40.6628 32.2083 36.4074 35.0783C36.4074 35.0783 40.5701 30.8289 41.7568 26.8758C41.7568 26.8758 44.2322 20.5433 41.1635 14.1183C38.0948 7.69332 36.3147 3.34209 37.0008 0.277712C37.6312 -2.50893 28.935 17.2568 27.8688 26.5888C28.0449 24.0799 28.5734 19.9138 30.1958 15.2571C30.1958 15.2571 27.1456 21.0433 26.9695 28.033C26.2185 27.0239 24.7723 25.7648 25.004 27.6997C23.6134 26.1814 22.3154 26.0796 22.3154 26.0796C24.0306 27.4498 24.9484 28.7644 25.4305 29.718C25.4583 29.792 25.4861 29.8661 25.5139 29.9309C26.302 31.8103 26.404 33.4859 25.8106 35.8652C25.2173 38.2353 27.396 39.4203 27.396 39.4203C27.396 39.4203 31.16 39.911 33.1347 45.7527C33.1347 45.7527 32.4394 44.0678 30.6594 42.7902C30.6594 42.7902 30.2607 51.5945 30.4647 53.2702C30.6594 54.9551 31.058 55.9365 31.4567 55.6402C31.8553 55.3439 32.6434 52.2796 34.3307 50.0021C35.9346 47.8358 37.9001 45.2158 36.1015 39.3277C36.018 39.05 35.9161 38.7722 35.8048 38.5037C36.0459 38.7445 36.8895 39.2351 37.4458 42.031C37.4458 42.031 37.7146 41.096 37.4458 39.8461C37.316 39.2259 37.1677 38.5963 37.1491 38.0501C37.1306 37.7261 37.2789 37.4113 37.52 37.2076C38.6047 36.2818 41.525 33.56 42.3502 30.2271C42.8045 28.3848 42.2482 27.8571 42.2482 27.8571ZM30.0753 33.1064C29.9362 33.8933 29.4078 34.5599 28.6754 34.8746L26.9139 35.643L27.0993 35.1524C27.7019 33.5785 28.6476 32.1621 29.8806 30.9956L30.5852 30.329L30.0846 33.0971L30.0753 33.1064Z" fill="#CCCCCC"/>
<path d="M17.6891 27.6997C17.9301 25.7555 16.4746 27.0146 15.7236 28.033C15.5475 21.0432 12.4973 15.257 12.4973 15.257C14.1197 19.9138 14.6575 24.0798 14.8243 26.5887C13.7582 17.2382 5.06193 -2.51822 5.69236 0.26842C6.38769 3.3328 4.60764 7.68403 1.52966 14.109C-1.53906 20.534 0.936308 26.8665 0.936308 26.8665C2.123 30.8196 6.2857 35.069 6.2857 35.069C2.03029 32.2083 0.444943 27.8571 0.444943 27.8571C0.444943 27.8571 -0.11132 28.3848 0.342961 30.2271C1.16808 33.56 4.08847 36.2818 5.17318 37.2076C5.4235 37.4205 5.56256 37.726 5.54402 38.0501C5.51621 38.5963 5.37714 39.2258 5.24735 39.8461C4.97849 41.0959 5.24735 42.031 5.24735 42.031C5.79434 39.2351 6.638 38.7444 6.88832 38.5037C6.77707 38.7722 6.67509 39.0499 6.59165 39.3277C4.80234 45.2157 6.75853 47.8357 8.36242 50.0021C10.0498 52.2795 10.8378 55.3439 11.2364 55.6402C11.6351 55.9364 12.0245 54.9458 12.2284 53.2701C12.4231 51.5852 12.0338 42.7901 12.0338 42.7901C10.2537 44.077 9.55839 45.7527 9.55839 45.7527C11.5424 39.9202 15.2972 39.4202 15.2972 39.4202C15.2972 39.4202 17.4759 38.2352 16.8825 35.8652C16.2892 33.4952 16.3911 31.8102 17.1792 29.9309C17.207 29.8661 17.2348 29.792 17.2626 29.7179C17.7447 28.7644 18.6533 27.459 20.3777 26.0796C20.3777 26.0796 19.0705 26.1814 17.6891 27.6997ZM13.6284 35.0412C12.8867 34.7172 12.3582 34.0506 12.2192 33.2637L11.7093 30.4771L12.4139 31.1437C13.6469 32.3102 14.6018 33.7359 15.2045 35.319L15.3899 35.8097L13.6191 35.032L13.6284 35.0412Z" fill="#CCCCCC"/>
<path d="M25.6157 64.8332C25.6157 64.8332 29.9175 65.3795 30.4645 60.9819L25.6157 64.8332Z" fill="#CCCCCC"/>
<path d="M17.2162 64.8332C17.2162 64.8332 12.9144 65.3795 12.3674 60.9819L17.2162 64.8332Z" fill="#CCCCCC"/>
</g>
<defs>
<clipPath id="clip0_822_859">
<rect width="182" height="65" fill="white"/>
</clipPath>
</defs>
</svg>
