<svg width="167" height="49" viewBox="0 0 167 49" fill="none" xmlns="http://www.w3.org/2000/svg">
<path d="M37.9551 25.7959L37.0021 24.8531V18.5172H40.2658V22.8148H50.8832V20.5895L47.181 16.9374H37.0612V13.7949H48.6484L54.1722 19.2561V24.7852L53.1602 25.7959H37.9551Z" fill="#FF0000"/>
<path d="M56.9219 25.859L55.8509 24.8058V19.2767C59.2748 15.8284 60.6157 14.478 61.1048 13.875H71.8318L72.9366 14.9621V24.7973L71.9415 25.859H56.9219ZM58.9712 20.0156V22.9033H69.8922V17.0515H69.4621C69.4621 17.0515 67.6237 17.0515 65.7936 17.0515C64.8744 17.0515 63.9552 17.0515 63.2721 17.06C62.024 17.06 61.7626 17.0685 61.712 17.3148L58.9796 20.0156H58.9712Z" fill="#FF0000"/>
<path d="M112.547 25.8468L111.417 24.7852V19.1117L116.797 13.7949H121.368L117.801 17.3111L117.91 17.5744C117.995 17.7726 119.021 17.8717 120.988 17.8717H121.022C123.561 17.8717 127.178 17.8462 128.469 17.8377V20.9972C128.081 21.0227 127.204 21.0397 125.281 21.0397C121.165 21.0397 114.942 20.9293 114.883 20.9293H114.444V22.6789H128.477V25.8384H112.555L112.547 25.8468Z" fill="#FF0000"/>
<path d="M154.081 25.7964L154.072 23.5457L160.802 16.904H152.31V25.7964H149.172L149.139 19.2991V15.0015L150.294 13.8549L166.089 13.8379V16.3009L159.461 22.8492H166.359V25.7964H154.081Z" fill="#FF0000"/>
<path d="M157.935 31.2936V30.9963L159.284 29.6629H157.446V31.2936H157.032V30.1809V29.4335L157.193 29.2722L159.976 29.2637V29.6034L158.643 30.9114H160.026V31.2936H157.935Z" fill="#FF0000"/>
<path d="M157.935 31.2936V30.9963L159.284 29.6629H157.446V31.2936H157.032V30.1809V29.4335L157.193 29.2722L159.976 29.2637V29.6034L158.643 30.9114H160.026V31.2936H157.935Z" fill="#FF0000"/>
<path d="M158.491 32.6927C157.233 32.6927 156.22 31.6844 156.22 30.4551C156.22 29.2183 157.241 28.2176 158.491 28.2176C159.749 28.2176 160.762 29.2259 160.762 30.4551C160.762 31.6839 159.741 32.6927 158.491 32.6927Z" stroke="#FF0000" stroke-width="0.4"/>
<path d="M131.472 25.8729L130.215 24.7773V19.2906L135.756 13.8125H146.036L147.242 15.0015V21.3715H144.121V17.7788V17.3542V16.9295L143.691 16.921H137.139L133.436 20.5816V22.8238H147.284V25.8729H131.472Z" fill="#FF0000"/>
<path d="M75.7527 25.835L74.6648 24.8073V19.2952L80.2307 13.8086H89.7012L91.5312 13.8256V16.8322H81.4367L77.6164 20.6032V22.7944H88.47V21.2657H81.968V18.344H90.3927L91.6071 19.55V24.7734L90.4349 25.835H75.7527Z" fill="#FF0000"/>
<path d="M38.9159 40.6691L37.8027 39.5735V34.3077L43.5036 28.6766C44.0518 28.6427 46.2359 28.6257 48.0407 28.6172L41.0917 35.4797V37.722H55.192V40.6776H38.9075L38.9159 40.6691Z" fill="#FF0000"/>
<path d="M78.1893 40.6945L76.9328 39.6074V34.1207L82.4819 28.6426H92.7535L93.9595 29.8316V36.2016H90.8392V32.6089L90.8476 32.1843V31.7596L90.4175 31.7511H83.8565L80.1543 35.4117V37.6539H94.0101V40.6945H78.1893Z" fill="#FF0000"/>
<path d="M58.5487 40.658L57.5452 39.6643V34.1946L63.1786 28.623H74.7995V30.8313L69.6468 35.9187H64.8315L68.9637 31.8335H64.3423L60.6823 35.4516V37.6853H74.7321V40.658H58.5487Z" fill="#FF0000"/>
<path d="M135.578 40.658L134.465 39.6133V34.1946L140.098 28.623H151.719V30.8313L146.575 35.9187H141.759L145.892 31.8335H141.27L137.61 35.4516V37.6853H151.652V40.658H135.578Z" fill="#FF0000"/>
<path d="M97.3925 40.6605L96.2625 39.6243V34.1207L101.812 28.6426H112.108L113.12 28.6511V31.6577H103.034L99.2141 35.4287V37.6199H110.068V36.0827H103.566V33.1695H111.99L113.205 34.3755V39.5904L112.033 40.6605H97.3925Z" fill="#FF0000"/>
<path d="M116.198 40.6436L115.144 39.6075V33.6367L120.195 28.6512H124.555L118.373 34.7493V37.688H129.185V28.6172H132.356V39.582L131.192 40.6436H116.198Z" fill="#FF0000"/>
<path d="M93.2813 25.8309V22.8159H106.682V21.1342H93.2729L93.2476 18.8665L98.2907 13.864L100.087 13.8555H109.777V16.8111H99.4123L97.6835 18.5352H108.453L109.574 19.6479V24.7778L108.47 25.8309H93.2813Z" fill="#FF0000"/>
<path d="M13.0906 48.4024C14.3138 47.2908 15.7339 46.6395 15.5019 46.7881C15.762 46.6253 16.0924 46.6253 16.3595 46.7881L18.7567 48.282L16.3666 47.2059C16.1065 47.0855 15.8112 47.0926 15.5511 47.22L13.1047 48.4024" fill="#FF0000"/>
<path d="M16.3949 42.6094C16.3597 43.7776 16.3105 45.4413 16.2894 46.0644L16.0855 42.5669C16.0434 41.8801 15.4739 41.3421 14.792 41.3491C12.9432 41.3775 9.81487 41.8023 11.5372 44.5493C13.8008 48.1742 15.9168 48.1034 16.0996 48.0892C16.1347 48.2238 16.3246 48.2238 16.3597 48.0892C16.5355 48.0963 18.6515 48.1813 20.9221 44.5422C22.6233 41.8164 19.5724 41.3775 17.7165 41.3421C17.0065 41.3279 16.423 41.8872 16.4019 42.6023L16.3949 42.6094Z" fill="#FF0000"/>
<path d="M31.3898 21.0433C31.3898 21.0433 30.2299 24.2505 27.1227 26.3603C27.1227 26.3603 30.1596 23.231 31.0313 20.3141C31.0313 20.3141 32.838 15.6554 30.5955 10.919C28.3529 6.18249 27.0524 2.98236 27.5586 0.723858C28.0155 -1.32932 21.6675 13.227 20.8872 20.1087C21.0137 18.2609 21.4004 15.1953 22.5884 11.7615C22.5884 11.7615 20.3599 16.0236 20.2334 21.1707C19.6851 20.4273 18.6236 19.4999 18.7993 20.93C17.787 19.8114 16.8309 19.7335 16.8309 19.7335C18.0893 20.7459 18.7501 21.7088 19.1016 22.4097C19.1227 22.4664 19.1438 22.5159 19.1649 22.5655C19.7413 23.9461 19.8186 25.1851 19.3828 26.9338C18.9469 28.6825 20.5427 29.5534 20.5427 29.5534C20.5427 29.5534 23.2914 29.9145 24.7396 34.212C24.7396 34.212 24.2334 32.973 22.9329 32.0243C22.9329 32.0243 22.6447 38.5095 22.7853 39.7414C22.9329 40.9804 23.2211 41.7096 23.5093 41.4902C23.7976 41.2707 24.374 39.0122 25.6042 37.3413C26.7782 35.7412 28.2053 33.8155 26.8977 29.4755C26.8345 29.2702 26.7642 29.0649 26.6798 28.8666C26.8556 29.0436 27.4742 29.4047 27.8749 31.465C27.8749 31.465 28.0717 30.7782 27.8749 29.8578C27.7765 29.4047 27.671 28.9374 27.657 28.5339C27.6499 28.2931 27.7484 28.0666 27.9311 27.9108C28.7255 27.2311 30.8556 25.2204 31.4601 22.7708C31.7976 21.4114 31.3898 21.022 31.3898 21.022V21.0433ZM22.4127 24.8664C22.3213 25.3833 21.9768 25.8222 21.4988 26.0276L20.3529 26.5302L20.4724 26.2046C20.8661 25.1709 21.4847 24.2363 22.2791 23.4788L22.736 23.0398L22.4056 24.8594L22.4127 24.8664Z" fill="#FF0000"/>
<path d="M13.4495 20.93C13.6252 19.4999 12.5637 20.4273 12.0154 21.1707C11.8888 16.0236 9.66034 11.7615 9.66034 11.7615C10.8484 15.1882 11.235 18.2609 11.3616 20.1087C10.5813 13.227 4.23326 -1.32932 4.6902 0.723858C5.19635 2.98236 3.89582 6.18957 1.65328 10.919C-0.589254 15.6554 1.21743 20.3141 1.21743 20.3141C2.08211 23.2239 5.12605 26.3603 5.12605 26.3603C2.01884 24.2505 0.858906 21.0433 0.858906 21.0433C0.858906 21.0433 0.451173 21.4327 0.788608 22.792C1.39318 25.2488 3.52323 27.2524 4.31761 27.9321C4.50039 28.0878 4.59881 28.3144 4.59178 28.5551C4.57772 28.9587 4.47227 29.4189 4.37385 29.879C4.17702 30.7994 4.37385 31.4862 4.37385 31.4862C4.77456 29.4259 5.39319 29.0649 5.56894 28.8879C5.48458 29.0861 5.41428 29.2914 5.35101 29.4967C4.04345 33.8367 5.47755 35.7625 6.64451 37.3625C7.87474 39.0405 8.45119 41.299 8.73942 41.5114C9.02764 41.7309 9.31587 41.0016 9.4635 39.7626C9.61112 38.5237 9.31587 32.0455 9.31587 32.0455C8.01534 32.9942 7.50919 34.2332 7.50919 34.2332C8.95734 29.9357 11.706 29.5746 11.706 29.5746C11.706 29.5746 13.2948 28.7038 12.866 26.955C12.4301 25.2063 12.5074 23.9673 13.0839 22.5867C13.105 22.5372 13.1261 22.4805 13.1472 22.431C13.4987 21.73 14.1665 20.7672 15.4178 19.7547C15.4178 19.7547 14.4688 19.8326 13.4495 20.9512V20.93ZM10.4758 26.1692C9.99777 25.9568 9.66033 25.5249 9.56894 25.0151L9.24557 23.2027L9.70251 23.6345C10.4969 24.3921 11.1085 25.3196 11.5022 26.3462L11.6217 26.6648L10.4828 26.1621L10.4758 26.1692Z" fill="#FF0000"/>
<path d="M18.9396 48.2863C18.9396 48.2863 22.082 48.6899 22.4827 45.4473L18.9396 48.2863Z" fill="#FF0000"/>
<path d="M12.8024 48.2863C12.8024 48.2863 9.66004 48.6899 9.25934 45.4473L12.8024 48.2863Z" fill="#FF0000"/>
</svg>
