<svg width="83" height="83" viewBox="0 0 83 83" fill="none" xmlns="http://www.w3.org/2000/svg">
<g style="mix-blend-mode:multiply" filter="url(#filter0_f_0_1)">
<circle cx="41.8321" cy="42.0455" r="36.5435" fill="#121212"/>
</g>
<path opacity="0.9" d="M40.1958 5.97461C21.2861 5.97461 5.95679 21.6171 5.95679 40.9128C5.95679 60.2084 21.2861 75.8509 40.1958 75.8509C59.1055 75.8509 74.4349 60.2086 74.4349 40.9128C74.4349 21.6169 59.1055 5.97461 40.1958 5.97461ZM40.1958 68.9001C25.0481 68.9001 12.7686 56.3698 12.7686 40.9129C12.7686 25.456 25.0481 12.9257 40.1958 12.9257C55.3435 12.9257 67.623 25.456 67.623 40.9129C67.623 56.3698 55.3435 68.9001 40.1958 68.9001Z" fill="url(#paint0_linear_0_1)"/>
<path style="mix-blend-mode:multiply" d="M40.1958 5.97461C21.2861 5.97461 5.95679 21.255 5.95679 40.1043C5.95679 58.9535 21.2861 74.2339 40.1958 74.2339C59.1055 74.2339 74.4349 58.9535 74.4349 40.1043C74.4349 21.255 59.1055 5.97461 40.1958 5.97461ZM40.1958 67.4438C25.0481 67.4438 12.7686 55.2036 12.7686 40.1043C12.7686 25.0049 25.0481 12.7647 40.1958 12.7647C55.3435 12.7647 67.623 25.0049 67.623 40.1043C67.623 55.2036 55.3435 67.4438 40.1958 67.4438Z" fill="url(#paint1_linear_0_1)"/>
<g opacity="0.4">
<g filter="url(#filter1_d_0_1)">
<path d="M41.5298 74.2862C57.6933 73.7939 71.5926 61.522 74.055 45.5944C77.469 24.4232 60.5008 5.29671 39 6.11987C17.4971 6.8833 1.99296 27.2063 6.96709 48.0684C10.6038 63.7706 25.3734 74.9864 41.5298 74.2864V74.2862ZM41.5298 74.2862C25.3725 74.9889 10.5865 63.7761 6.93009 48.0769C1.92034 27.1721 17.4423 6.79439 38.9966 6.02742C60.5486 5.20596 77.539 24.384 74.0921 45.6004C71.6085 61.5255 57.6956 73.7976 41.5298 74.2862Z" fill="#FCFAFB"/>
</g>
</g>
<path d="M59.8317 59.727C70.6901 48.9033 70.6901 31.3545 59.8317 20.5308C48.9733 9.70711 31.3683 9.70711 20.5099 20.5308C9.65148 31.3545 9.65148 48.9033 20.5099 59.727C31.3683 70.5507 48.9733 70.5507 59.8317 59.727Z" fill="url(#paint2_linear_0_1)"/>
<g opacity="0.5">
<path d="M67.9774 40.4832C67.9408 53.5754 58.2623 65.111 45.3466 67.4757C28.1536 70.7376 12.1603 57.4184 12.3427 39.9709C12.4764 22.5161 28.7165 9.48246 45.8538 13.064C58.7267 15.6673 68.1895 27.3902 67.9775 40.4832H67.9774ZM67.9712 40.4832C68.1736 27.3975 58.7058 15.7101 45.8421 13.1193C28.7413 9.56303 12.5351 22.5514 12.3921 39.9716C12.2048 57.3983 28.1701 70.6942 45.3416 67.4497C58.2541 65.0951 67.937 53.5729 67.971 40.4832H67.9712Z" fill="#161616"/>
</g>
<g style="mix-blend-mode:multiply" opacity="0.5">
<path d="M67.5715 39.6846C67.4297 54.9911 54.8665 67.2846 39.5113 67.1432C24.1558 67.0018 11.8228 54.4791 11.9646 39.1727C12.1064 23.8664 24.6694 11.5727 40.0248 11.7141C55.3803 11.8555 67.7134 24.3784 67.5715 39.6846Z" fill="#161616"/>
</g>
<path d="M63.8427 28.616C70.1193 41.6677 64.5942 57.32 51.5008 63.5754C38.4075 69.8313 22.7057 64.3228 16.4293 51.2699C10.1534 38.2208 15.6796 22.5686 28.7729 16.3131C41.8664 10.0572 57.5669 15.5657 63.8426 28.616H63.8427Z" fill="url(#paint3_radial_0_1)"/>
<path style="mix-blend-mode:color-burn" opacity="0.6" d="M63.8427 28.616C70.1193 41.6677 64.5944 57.32 51.5008 63.5754C38.4075 69.8313 22.7057 64.3228 16.4293 51.2699C10.1534 38.2208 15.6796 22.5685 28.7729 16.3131C41.8664 10.0572 57.567 15.5657 63.8426 28.616H63.8427Z" fill="url(#paint4_linear_0_1)"/>
<g style="mix-blend-mode:overlay" opacity="0.6">
<path d="M28.8166 27.7272C41.5269 21.4605 56.9262 26.6506 63.2128 39.3188C64.0899 41.0866 64.7356 42.9054 65.1753 44.7451C66.1357 39.5139 65.4756 33.9425 62.9285 28.8112C56.6425 16.1414 41.2426 10.9527 28.5323 17.2195C17.5949 22.6126 12.2214 34.7326 14.9394 46.081C16.3499 38.3998 21.2545 31.4556 28.8166 27.7272Z" fill="#060D51"/>
</g>
<path style="mix-blend-mode:color-burn" opacity="0.6" d="M63.8432 28.6168C70.119 41.6681 64.5936 57.3192 51.5002 63.5747C38.4069 69.8318 22.7058 64.3233 16.4294 51.2717C10.1536 38.2201 15.6798 22.5693 28.7733 16.3135C41.866 10.0566 57.5671 15.5662 63.8434 28.6169L63.8432 28.6168Z" fill="url(#paint5_linear_0_1)"/>
<path opacity="0.1" d="M51.2554 60.3194C38.2935 66.5121 22.8472 61.2646 16.756 48.5962C15.6342 46.2647 14.918 43.8429 14.562 41.4069C14.7309 44.609 15.5174 47.8272 16.9908 50.8905C23.082 63.5564 38.5282 68.8062 51.4901 62.6124C62.0979 57.5436 67.7544 46.384 66.1202 35.5547C66.6943 45.6329 61.1154 55.6081 51.2554 60.3192V60.3194Z" fill="#F4DDC1"/>
<g style="mix-blend-mode:soft-light" opacity="0.7">
<path d="M32.162 18.8089C45.627 13.9382 60.5051 20.8693 65.3905 34.2925C65.5603 34.758 65.7157 35.2263 65.8562 35.6943C65.5994 34.3234 65.2304 32.9549 64.7382 31.6019C59.8508 18.18 44.9736 11.2476 31.5084 16.1182C18.5111 20.8218 11.5837 34.8019 15.5126 47.8392C13.2192 35.6198 20.0549 23.188 32.1619 18.809L32.162 18.8089Z" fill="#0619FF"/>
</g>
<path d="M51.4357 63.5933C38.3643 69.8387 22.6322 64.3199 16.3662 51.289C10.1008 38.2607 15.6372 22.5776 28.7093 16.3322C41.7801 10.0867 57.5128 15.6068 63.7782 28.6351C70.0442 41.6661 64.5071 57.3479 51.4355 63.5935L51.4357 63.5933ZM29.1003 17.1449C16.4792 23.1768 11.1318 38.3182 17.1816 50.8993C23.2323 63.4813 38.423 68.811 51.0447 62.7793C63.6661 56.7486 69.0128 41.607 62.9622 29.0263C56.9123 16.444 41.7215 11.1154 29.1003 17.1449Z" fill="#0017A0"/>
<path opacity="0.4" d="M14.7751 42.8292C15.9163 51.8835 21.329 58.192 23.37 56.7076C25.4918 55.3058 25.3917 47.7088 25.3344 42.064C25.1789 37.3723 26.4949 32.7266 29.0897 28.809C32.1024 24.0286 35.7771 19.8643 34.7041 17.5632C33.7422 15.2342 26.3774 17.6108 20.4229 23.6171C15.6123 28.4685 13.9183 36.3727 14.7749 42.8292H14.7751Z" fill="url(#paint6_linear_0_1)"/>
<path opacity="0.4" d="M65.1403 44.1162C66.5269 36.6411 63.2708 26.9551 60.8722 27.7489C58.424 28.4397 57.4777 35.8433 55.8074 41.237C54.522 45.7527 51.8486 49.7789 48.1798 52.7207C43.8492 56.3593 39.0778 59.2097 39.3958 61.7281C39.5999 64.2386 44.527 65.5417 52.159 61.8787C58.3911 58.8888 63.978 51.8709 65.1401 44.1162H65.1403Z" fill="url(#paint7_linear_0_1)"/>
<path style="mix-blend-mode:screen" d="M39.9161 62.3491C53.4794 62.3491 64.4747 51.3889 64.4747 37.8689C64.4747 24.3488 53.4794 13.3887 39.9161 13.3887C26.3527 13.3887 15.3574 24.3488 15.3574 37.8689C15.3574 51.3889 26.3527 62.3491 39.9161 62.3491Z" fill="url(#paint8_radial_0_1)"/>
<path d="M40.101 7.84999L40.2797 7.85601L40.2334 9.23653L40.0547 9.23051L40.101 7.84999ZM40.847 9.17433C40.8094 9.11814 40.7808 9.05023 40.7611 8.97089C40.7414 8.89156 40.721 8.78675 40.7001 8.65679C40.6989 8.64783 40.6973 8.63919 40.6954 8.63101C40.6934 8.62283 40.6919 8.61419 40.6908 8.60523C40.6896 8.59782 40.6883 8.59072 40.6871 8.58393C40.6858 8.57714 40.6844 8.57081 40.6832 8.56479C40.6555 8.4109 40.6284 8.2865 40.6018 8.19203C40.5751 8.09757 40.536 8.01854 40.4845 7.95526C40.433 7.89197 40.3648 7.85879 40.2798 7.85586L40.2859 7.67773C40.411 7.6819 40.5116 7.72466 40.588 7.806C40.6643 7.88734 40.7222 7.9903 40.7622 8.11501C40.802 8.23973 40.8367 8.39315 40.8664 8.57544C40.869 8.58748 40.8712 8.59983 40.8731 8.61249C40.8749 8.62514 40.8763 8.63827 40.8774 8.65169C40.8969 8.78011 40.9161 8.88415 40.9351 8.96348C40.954 9.04297 40.9754 9.08295 40.9993 9.08372C41.0215 9.0845 41.0432 9.04946 41.0643 8.97892C41.0853 8.90823 41.1081 8.81469 41.1329 8.69815C41.1419 8.65092 41.1498 8.61558 41.1566 8.59196C41.2018 8.40025 41.2476 8.24467 41.2941 8.12505C41.3405 8.00542 41.4045 7.90849 41.4861 7.83378C41.5675 7.75923 41.6739 7.72419 41.8049 7.72851L41.7989 7.90664C41.7125 7.9037 41.6411 7.93072 41.5849 7.98752C41.5285 8.04432 41.4831 8.11933 41.4488 8.21256C41.4144 8.30579 41.3789 8.42618 41.3427 8.57344C41.3408 8.58378 41.339 8.59381 41.3373 8.60338C41.3354 8.61295 41.3329 8.62298 41.3295 8.63317C41.3277 8.64506 41.3254 8.65725 41.3227 8.66975C41.3201 8.68225 41.317 8.69445 41.3137 8.70618C41.2874 8.82272 41.2626 8.9181 41.2393 8.99235C41.2159 9.06659 41.184 9.13065 41.1434 9.18421C41.1028 9.23792 41.0528 9.2637 40.9932 9.26169C40.9336 9.25969 40.885 9.23067 40.8475 9.17433H40.847ZM41.7986 7.90648L41.9773 7.9125L41.931 9.29302L41.7523 9.287L41.7986 7.90648Z" fill="#00FFFF"/>
<path d="M42.6842 7.96511L42.8618 7.98563L42.7026 9.35782L42.525 9.33729L42.6842 7.96511ZM43.3195 9.34578C43.2866 9.28667 43.2636 9.21675 43.2505 9.13602C43.2373 9.05529 43.2257 8.94925 43.2153 8.81805C43.2149 8.8091 43.2141 8.8003 43.2127 8.79197C43.2115 8.78363 43.2105 8.77484 43.2101 8.76588C43.2094 8.75832 43.2088 8.75122 43.2081 8.74427C43.2073 8.73748 43.2065 8.731 43.2057 8.72498C43.1909 8.56924 43.1738 8.44329 43.1551 8.34682C43.1362 8.2505 43.1038 8.16854 43.0575 8.10124C43.0114 8.03395 42.9461 7.99536 42.8617 7.98563L42.8823 7.80859C43.0066 7.82295 43.1034 7.87373 43.1727 7.96094C43.2421 8.04815 43.2915 8.15558 43.3209 8.28307C43.3504 8.41057 43.3725 8.56631 43.3871 8.75045C43.3886 8.76264 43.3898 8.77514 43.3906 8.7878C43.3914 8.80061 43.3917 8.81373 43.3917 8.82716C43.4007 8.95682 43.4114 9.06193 43.4238 9.14266C43.4361 9.22338 43.4541 9.26506 43.4778 9.26768C43.4999 9.27031 43.5244 9.23712 43.5512 9.16843C43.5778 9.09975 43.6083 9.00837 43.6427 8.89415C43.6556 8.84784 43.6664 8.81311 43.6751 8.79027C43.7358 8.60289 43.7943 8.45162 43.8504 8.33617C43.9064 8.22071 43.9783 8.12918 44.0656 8.06158C44.1529 7.99397 44.2618 7.96758 44.392 7.98255L44.3714 8.15959C44.2856 8.14971 44.2122 8.17086 44.1515 8.22287C44.0907 8.27489 44.0394 8.34605 43.9975 8.43619C43.9555 8.52633 43.9104 8.64333 43.8623 8.78734C43.8596 8.79753 43.857 8.80725 43.8544 8.81666C43.8518 8.82608 43.8483 8.8358 43.8443 8.84584C43.8415 8.85741 43.8383 8.86945 43.8346 8.88165C43.8308 8.894 43.8268 8.90588 43.8225 8.9173C43.7867 9.03137 43.7542 9.12444 43.7249 9.19653C43.6955 9.26861 43.6585 9.32973 43.6136 9.3799C43.5687 9.43006 43.5168 9.45167 43.4575 9.44488C43.3984 9.43809 43.3522 9.40505 43.3194 9.34594L43.3195 9.34578ZM44.3716 8.15959L44.5492 8.18012L44.39 9.55231L44.2124 9.53178L44.3716 8.15959Z" fill="#00FFFF"/>
<path d="M45.1669 9.50296L46.2199 9.70732C46.2623 9.7155 46.3013 9.70763 46.3372 9.68355C46.373 9.65947 46.3952 9.62629 46.4034 9.58399L46.6383 8.38129L46.8137 8.4154L46.5788 9.61811C46.5669 9.67938 46.5416 9.73232 46.5034 9.77709C46.465 9.82185 46.4179 9.85349 46.3619 9.87217C46.3058 9.89084 46.2471 9.89409 46.1856 9.8822L45.1327 9.67784L45.1669 9.50296ZM45.2511 9.11183C45.2062 9.07355 45.1745 9.02663 45.1558 8.97075C45.137 8.91488 45.1338 8.85638 45.1457 8.7951L45.2781 8.11719L45.4535 8.1513L45.3211 8.82921C45.3129 8.8715 45.3208 8.91056 45.345 8.94621C45.3691 8.98187 45.4024 9.00394 45.4449 9.01212L46.3224 9.18252L46.2882 9.35741L45.4106 9.187C45.3492 9.17512 45.2961 9.14996 45.2511 9.11183Z" fill="#00FFFF"/>
<path d="M48.5478 10.4303C48.5075 10.3872 48.4813 10.3369 48.4691 10.2793C48.4569 10.2218 48.4603 10.1633 48.4792 10.1037L48.8503 8.93555L49.0208 8.98942L48.6496 10.1575C48.6366 10.1986 48.6401 10.2383 48.6599 10.2764C48.6797 10.3147 48.7104 10.3403 48.7515 10.3533L49.7955 10.683L49.7415 10.8529L48.6975 10.5232C48.6379 10.5044 48.5879 10.4734 48.5476 10.4303H48.5478Z" fill="#00FFFF"/>
<path d="M50.8172 9.76907L50.9813 9.8339L50.7346 10.4553L51.7134 10.8414L51.6476 11.0071L50.6688 10.6211L50.4714 11.1183L50.3073 11.0534L50.8172 9.76907ZM52.0482 10.4223C52.0641 10.3823 52.0631 10.3423 52.0452 10.3025C52.0274 10.2627 51.9983 10.2349 51.9582 10.219L50.9815 9.83374L51.0473 9.66797L52.024 10.0532C52.0823 10.0762 52.1298 10.1105 52.167 10.1563C52.2041 10.2022 52.227 10.2544 52.2359 10.3129C52.2447 10.3714 52.2376 10.4297 52.2145 10.4877L51.7622 11.6272L51.5959 11.5616L52.0482 10.4221V10.4223Z" fill="#00FFFF"/>
<path d="M52.4765 11.8992C52.4435 11.8512 52.4249 11.7978 52.421 11.7391C52.4171 11.6803 52.4288 11.6229 52.4559 11.5667L52.9116 10.6233L53.0706 10.6997L52.6149 11.6431C52.5961 11.682 52.5938 11.7217 52.6082 11.7623C52.6225 11.8029 52.6491 11.8325 52.688 11.8514L53.6364 12.3065L53.5588 12.4671L52.6104 12.0119C52.554 11.9849 52.5093 11.9472 52.4763 11.8994L52.4765 11.8992ZM53.7481 12.0756C53.7694 12.0315 53.7809 11.988 53.7826 11.9451C53.7843 11.9021 53.7773 11.8651 53.762 11.8338C53.7465 11.8024 53.7253 11.7804 53.6985 11.7674L52.9111 11.3895L52.9887 11.229L53.7761 11.607C53.8029 11.6198 53.8334 11.6226 53.8677 11.6151C53.902 11.6076 53.9353 11.5897 53.9679 11.5618C54.0004 11.5337 54.0274 11.4976 54.0488 11.4534C54.0701 11.4093 54.0816 11.3658 54.0833 11.3229C54.085 11.28 54.078 11.2429 54.0627 11.2116C54.0472 11.1802 54.026 11.1582 53.9992 11.1452L53.0709 10.6996L53.1485 10.5391L54.0768 10.9847C54.1507 11.0202 54.2028 11.0679 54.2333 11.1278C54.2638 11.1878 54.2759 11.2529 54.2693 11.323C54.2626 11.3932 54.2428 11.4624 54.21 11.5306C54.1757 11.6016 54.1378 11.6567 54.0965 11.6962C54.0551 11.7358 54.0065 11.7668 53.9509 11.7896C53.9678 11.8504 53.9744 11.9069 53.9709 11.9588C53.9673 12.0107 53.9467 12.0755 53.9092 12.153L53.7978 12.3839L53.6367 12.3065L53.7482 12.0756H53.7481Z" fill="#00FFFF"/>
<path d="M55.5644 13.5064C55.5429 13.4472 55.5398 13.3806 55.555 13.3067C55.5701 13.2328 55.6028 13.1564 55.653 13.0772L55.8041 13.1724C55.7611 13.2402 55.7395 13.3075 55.7395 13.3741C55.7395 13.441 55.7659 13.491 55.8188 13.5243L56.6688 14.0602L56.5732 14.2109L55.6855 13.651C55.6264 13.6137 55.5859 13.5655 55.5646 13.5063L55.5644 13.5064ZM56.8599 13.7593C56.8829 13.7228 56.8897 13.6836 56.8803 13.6416C56.8709 13.5997 56.8478 13.5671 56.8112 13.5441L56.0557 13.0678C55.9966 13.0304 55.9525 12.9873 55.9237 12.9384C55.8947 12.8895 55.8828 12.8367 55.8879 12.78C55.8928 12.7236 55.9142 12.6657 55.9517 12.6067L56.1429 12.3054L56.2941 12.4006L56.1028 12.7019C56.0797 12.7384 56.0729 12.7776 56.0824 12.8196C56.0918 12.8615 56.1149 12.8941 56.1514 12.9171L56.9069 13.3934C56.9673 13.4316 57.0118 13.4749 57.04 13.5234C57.0681 13.572 57.0799 13.6242 57.0754 13.6802C57.0708 13.7361 57.0494 13.7943 57.0112 13.8545L56.8199 14.1558L56.6688 14.0605L56.86 13.7593H56.8599ZM57.2238 13.0858C57.2234 13.0198 57.1968 12.9699 57.1439 12.9366L56.2939 12.4006L56.3894 12.25L57.2772 12.8098C57.3363 12.8472 57.3771 12.8957 57.3992 12.9552C57.4212 13.0148 57.4244 13.0815 57.4086 13.155C57.3928 13.2284 57.3599 13.3048 57.3097 13.3839L57.1586 13.2886C57.2024 13.2196 57.2241 13.152 57.2238 13.0858Z" fill="#00FFFF"/>
<path d="M57.4513 14.5932L58.315 15.2276C58.3499 15.2531 58.3886 15.2627 58.4313 15.2563C58.474 15.2498 58.5081 15.2293 58.5338 15.1946L59.263 14.2081L59.407 14.3139L58.6778 15.3003C58.6407 15.3505 58.5951 15.3877 58.5413 15.4118C58.4874 15.4358 58.4312 15.4443 58.3725 15.4372C58.3138 15.4301 58.2593 15.4081 58.2089 15.3712L57.3452 14.7368L57.4513 14.5932ZM57.6955 14.2759C57.6713 14.2222 57.6628 14.1661 57.6699 14.1076C57.6771 14.0491 57.6992 13.9948 57.7362 13.9446L58.1472 13.3887L58.2912 13.4944L57.8802 14.0504C57.8545 14.0851 57.8449 14.1237 57.8514 14.1663C57.8579 14.2089 57.8785 14.2429 57.9133 14.2685L58.6331 14.7971L58.527 14.9407L57.8073 14.412C57.7569 14.375 57.7196 14.3296 57.6955 14.2759Z" fill="#00FFFF"/>
<path d="M59.104 15.995C59.0911 15.9333 59.0975 15.8671 59.1229 15.7959C59.1483 15.7249 59.1915 15.6538 59.2525 15.5825L59.3886 15.6981C59.3364 15.7592 59.3056 15.8226 59.2962 15.8887C59.2867 15.9547 59.3058 16.008 59.3535 16.0484L60.119 16.6986L60.003 16.8342L59.2034 16.1553C59.1501 16.11 59.117 16.0565 59.1041 15.9949L59.104 15.995ZM60.3508 16.4274C60.3788 16.3947 60.3911 16.3567 60.3877 16.3138C60.3843 16.2709 60.366 16.2354 60.3332 16.2074L59.6526 15.6295C59.5993 15.5843 59.5617 15.5354 59.5402 15.4829C59.5185 15.4304 59.5142 15.3764 59.5272 15.3211C59.5402 15.2659 59.5693 15.2117 59.6148 15.1584L59.8468 14.8871L59.9829 15.0027L59.7509 15.2741C59.7229 15.3069 59.7107 15.3448 59.7141 15.3877C59.7175 15.4306 59.7356 15.4659 59.7686 15.494L60.4491 16.0719C60.5037 16.1182 60.5413 16.1673 60.5625 16.2193C60.5835 16.2713 60.5879 16.3247 60.5753 16.3795C60.5628 16.4343 60.5334 16.4888 60.4869 16.543L60.255 16.8143L60.1189 16.6987L60.3508 16.4274ZM60.8064 15.812C60.8154 15.7465 60.796 15.6934 60.7485 15.653L59.9829 15.0029L60.0989 14.8672L60.8985 15.5462C60.9518 15.5914 60.9852 15.6451 60.9987 15.7073C61.0122 15.7695 61.0058 15.8359 60.9798 15.9064C60.9538 15.977 60.9103 16.0478 60.8494 16.1191L60.7133 16.0035C60.7664 15.9413 60.7976 15.8774 60.8065 15.812H60.8064Z" fill="#00FFFF"/>
<path d="M61.9385 16.9659C61.9687 16.9352 61.9834 16.898 61.9825 16.8545C61.9816 16.811 61.9656 16.7741 61.9348 16.7438L61.5519 16.3694L61.6771 16.2422L62.0601 16.6166C62.1047 16.6603 62.1353 16.7105 62.1516 16.767C62.168 16.8235 62.1685 16.8803 62.1533 16.9371C62.138 16.9939 62.1085 17.0447 62.0647 17.0891L61.2039 17.9638L61.0779 17.8405L61.9387 16.9658L61.9385 16.9659ZM62.2995 16.8506L62.794 17.3342L62.6688 17.4614L62.1742 16.9778L62.2995 16.8506Z" fill="#00FFFF"/>
<path d="M62.253 18.9725C62.2406 18.9149 62.2441 18.8583 62.2633 18.8027C62.2825 18.747 62.3155 18.6985 62.3624 18.6572L63.1487 17.9629L63.2674 18.0963L62.4811 18.7905C62.4487 18.8191 62.4312 18.8549 62.4286 18.8978C62.4259 18.9407 62.4389 18.9784 62.4676 19.0106L63.2827 19.9278L63.1489 20.046L62.3338 19.1289C62.2923 19.0823 62.2653 19.0301 62.2531 18.9725H62.253ZM62.9846 18.5511L63.6974 19.3533L63.5636 19.4715L62.8508 18.6694L62.9846 18.5511ZM63.401 17.978L64.3199 19.012L64.1861 19.1303L63.2672 18.0963L63.401 17.978Z" fill="#00FFFF"/>
<path d="M64.636 19.6699L64.7442 19.8118L63.6411 20.6477L63.5328 20.5059L64.636 19.6699ZM64.0768 21.083C64.0968 21.0185 64.1315 20.9535 64.1809 20.8881C64.2303 20.8228 64.2989 20.7408 64.3867 20.6425C64.3929 20.6359 64.3986 20.6292 64.4037 20.6226C64.4088 20.6159 64.4145 20.6092 64.4207 20.6027C64.4257 20.597 64.4305 20.5916 64.435 20.5863C64.4395 20.5811 64.4435 20.5761 64.4474 20.5713C64.5497 20.4528 64.6291 20.3532 64.686 20.273C64.7426 20.1927 64.7793 20.1126 64.7962 20.0328C64.813 19.953 64.7956 19.8794 64.7444 19.8119L64.8867 19.704C64.9624 19.8033 64.9927 19.9081 64.9777 20.0184C64.9625 20.1288 64.9192 20.2387 64.8473 20.3481C64.7755 20.4576 64.6781 20.5814 64.555 20.7194C64.5472 20.7289 64.539 20.7383 64.5304 20.7478C64.5217 20.7572 64.5124 20.7664 64.5026 20.7759C64.415 20.872 64.3464 20.9526 64.2965 21.0174C64.2467 21.0822 64.229 21.1241 64.2434 21.1429C64.2569 21.1607 64.2978 21.1552 64.3661 21.127C64.4342 21.0986 64.5215 21.0572 64.6279 21.0027C64.6703 20.9799 64.7029 20.9637 64.7255 20.954C64.9031 20.8678 65.0531 20.805 65.1754 20.7655C65.2978 20.726 65.4138 20.7141 65.5232 20.73C65.6327 20.7459 65.7272 20.806 65.8064 20.91L65.6641 21.0179C65.6118 20.9493 65.5458 20.9112 65.4661 20.9035C65.3864 20.8958 65.2993 20.9081 65.205 20.9404C65.1107 20.9726 64.9949 21.0213 64.8572 21.0864C64.8479 21.0915 64.8391 21.0964 64.8304 21.1011C64.8218 21.1057 64.8125 21.11 64.8024 21.1139C64.792 21.1199 64.7811 21.1258 64.7697 21.1316C64.7583 21.1375 64.747 21.1429 64.7357 21.1477C64.6284 21.2009 64.5386 21.242 64.4661 21.2709C64.3936 21.2997 64.3236 21.3153 64.2563 21.3179C64.1889 21.3204 64.1372 21.298 64.1011 21.2508C64.065 21.2036 64.057 21.1475 64.077 21.083H64.0768ZM65.664 21.0179L65.7722 21.1597L64.6691 21.9957L64.5609 21.8538L65.664 21.0179Z" fill="#00FFFF"/>
<path d="M65.9777 23.6532L66.681 24.8433L66.5269 24.9337L65.8236 23.7437L65.9777 23.6532ZM66.1373 23.3527C66.199 23.3166 66.2578 23.297 66.3142 23.2942C66.3704 23.2913 66.4224 23.3047 66.4702 23.3345C66.5181 23.3641 66.5601 23.4096 66.5964 23.4711L67.0503 24.2388C67.0723 24.2759 67.104 24.2999 67.146 24.3106C67.1878 24.3214 67.2273 24.3158 67.2646 24.2939L67.6305 24.0791L67.7212 24.2327L67.3553 24.4475C67.295 24.483 67.2364 24.5023 67.1794 24.5055C67.1226 24.5088 67.07 24.4952 67.0218 24.465C66.9737 24.4347 66.9317 24.3893 66.8962 24.3293L66.4424 23.5615C66.4204 23.5243 66.3885 23.5004 66.3467 23.4898C66.3049 23.479 66.2654 23.4845 66.2281 23.5064L65.9777 23.6534L65.8869 23.4998L66.1373 23.3528V23.3527ZM66.9091 22.9447C66.9833 22.9313 67.05 22.9366 67.109 22.9605C67.1681 22.9844 67.2154 23.0264 67.251 23.0866L67.7841 23.9888L67.63 24.0792L67.1195 23.2155C67.0878 23.1618 67.0387 23.1337 66.9724 23.1312C66.9061 23.1287 66.8377 23.1483 66.7671 23.1897L66.6763 23.0361C66.7572 22.9886 66.8348 22.9582 66.9089 22.9447H66.9091Z" fill="#00FFFF"/>
<path d="M66.9734 25.3792L67.5917 26.6154L67.4318 26.6949L66.8135 25.4587L66.9734 25.3792ZM67.8217 26.5011C67.8657 26.4791 67.9016 26.4518 67.9293 26.419C67.957 26.3861 67.9744 26.3526 67.9813 26.3183C67.9883 26.284 67.9852 26.2536 67.9719 26.2271L67.5032 25.29L67.6631 25.2105L68.1318 26.1476C68.1452 26.1742 68.1676 26.195 68.1992 26.21C68.2308 26.2249 68.2681 26.2313 68.3112 26.2289C68.354 26.2266 68.3976 26.2146 68.4417 26.1927C68.5111 26.1583 68.5595 26.1163 68.5872 26.0669C68.615 26.0173 68.6165 25.9681 68.5919 25.919L68.0733 24.8822L68.2333 24.8027L68.7518 25.8395C68.7884 25.9127 68.8003 25.9823 68.7876 26.0484C68.7749 26.1144 68.7443 26.1732 68.6959 26.2246C68.6476 26.276 68.5894 26.3186 68.5214 26.3524C68.4507 26.3876 68.3869 26.408 68.3299 26.414C68.2729 26.4199 68.2155 26.4149 68.1575 26.3989C68.1334 26.4572 68.1041 26.506 68.0694 26.5448C68.0347 26.5835 67.9787 26.6222 67.9014 26.6607L67.6715 26.775L67.5917 26.6156L67.8217 26.5012V26.5011Z" fill="#00FFFF"/>
<path d="M68.7305 26.9997C68.8228 26.9616 68.9134 26.9478 69.0026 26.9586C69.0916 26.9693 69.1711 27.0025 69.2411 27.0579C69.3109 27.1135 69.3649 27.1872 69.4032 27.2791L69.6511 27.876L69.4859 27.9442L69.238 27.3473C69.2157 27.2937 69.1802 27.249 69.1313 27.2129C69.0824 27.1767 69.0283 27.1541 68.9689 27.145C68.9094 27.1357 68.8529 27.1422 68.7991 27.1644L68.2415 27.3945L68.1731 27.2298L68.7307 26.9997H68.7305ZM68.6184 28.3021L68.3021 27.5406L68.4673 27.4723L68.7837 28.2339L69.4857 27.9442L69.5532 28.1069L68.8512 28.3966L68.9366 28.6025L68.7714 28.6707L68.6859 28.4648L68.273 28.6352L68.2055 28.4725L68.6184 28.3021Z" fill="#00FFFF"/>
<path d="M70.2217 29.4135L70.2861 29.5987L68.6279 29.5915L68.5635 29.4062L70.2217 29.4135Z" fill="#00FFFF"/>
<path d="M70.693 30.8992L70.7484 31.0874L69.0923 31.0007L69.0369 30.8125L70.693 30.8992Z" fill="#00FFFF"/>
<path d="M71.0918 32.406L71.1381 32.5966L69.4882 32.4309L69.4419 32.2402L71.0918 32.406Z" fill="#00FFFF"/>
<path d="M71.418 33.9279L71.455 34.1204L69.8148 33.8761L69.7778 33.6836L71.418 33.9279Z" fill="#00FFFF"/>
<path d="M71.5021 44.5791L71.4732 44.7549L70.1057 44.5313L70.1347 44.3555L71.5021 44.5791ZM70.7863 44.8006L70.6412 45.6823C70.6342 45.7247 70.6433 45.7635 70.6684 45.7985C70.6937 45.8334 70.7276 45.8544 70.7702 45.8615L71.123 45.9192C71.1656 45.9261 71.2045 45.917 71.2397 45.892C71.2746 45.8669 71.2957 45.8331 71.3028 45.7906L71.4733 44.7552L71.6497 44.7841L71.4792 45.8196C71.4691 45.8812 71.4456 45.9345 71.4087 45.9797C71.3719 46.0248 71.3257 46.0575 71.2703 46.0779C71.2149 46.0981 71.1563 46.1032 71.0946 46.0932L70.7417 46.0354C70.6799 46.0254 70.626 46.0018 70.58 45.965C70.534 45.9282 70.5007 45.8825 70.4803 45.828C70.4598 45.7735 70.4546 45.7155 70.4648 45.6539L70.6099 44.7722L70.7863 44.8011V44.8006Z" fill="#00FFFF"/>
<path d="M69.7672 46.6498C69.8072 46.6066 69.8556 46.5767 69.9123 46.5602C69.969 46.5436 70.0278 46.5426 70.0887 46.5568L71.2855 46.8361L71.2448 47.0096L70.048 46.7302C70.0058 46.7204 69.9665 46.7269 69.9298 46.7495C69.8931 46.7722 69.8699 46.8045 69.86 46.8465L69.6102 47.9093L69.4362 47.8687L69.6858 46.8059C69.7 46.7452 69.7271 46.6932 69.7672 46.6498Z" fill="#00FFFF"/>
<path d="M70.0505 50.1253C70.0918 50.1379 70.1316 50.1338 70.17 50.1129C70.2084 50.0921 70.234 50.0609 70.2467 50.0199L70.5548 49.0189L70.7258 49.0712L70.4176 50.0722C70.3992 50.1318 70.3687 50.1819 70.3258 50.2224C70.2829 50.2628 70.2326 50.2898 70.1746 50.3031C70.1167 50.3165 70.0579 50.3141 69.9981 50.2957L68.823 49.9364L68.8755 49.7659L70.0506 50.1253H70.0505ZM70.6065 48.8505L70.5548 49.0187L69.9137 48.8227L69.605 49.8258L69.434 49.7735L69.7428 48.7704L69.2299 48.6136L69.2816 48.4453L70.6064 48.8505H70.6065Z" fill="#00FFFF"/>
<path d="M68.7377 50.7105L68.3522 51.7084C68.3367 51.7486 68.3376 51.7884 68.3551 51.8277C68.3726 51.8671 68.4016 51.8946 68.4418 51.91L69.5889 52.3504L69.5247 52.5168L68.3776 52.0764C68.3192 52.054 68.2712 52.0201 68.2337 51.9747C68.1962 51.9293 68.1732 51.8774 68.1645 51.8191C68.1558 51.7609 68.1628 51.7027 68.1852 51.6444L68.5708 50.6465L68.7377 50.7105ZM69.1094 50.8615C69.1549 50.8241 69.2069 50.8011 69.2653 50.7925C69.3237 50.7839 69.3821 50.7908 69.4406 50.8132L70.0872 51.0614L70.023 51.2278L69.3765 50.9796C69.3361 50.9641 69.2963 50.9651 69.2568 50.9825C69.2173 51 69.1897 51.0288 69.1743 51.0689L68.8529 51.9006L68.686 51.8365L69.0073 51.0049C69.0298 50.9467 69.0638 50.8988 69.1094 50.8615Z" fill="#00FFFF"/>
<path d="M67.2371 53.8589C67.2833 53.8268 67.3345 53.8107 67.3909 53.8105C67.4473 53.8105 67.507 53.8269 67.5705 53.8599L68.5021 54.3438L68.4194 54.5019L67.4878 54.018C67.4494 53.9981 67.4098 53.9945 67.3686 54.0075C67.3274 54.0205 67.2969 54.0459 67.2769 54.0842L66.7915 55.0128L66.6329 54.9304L67.1184 54.0018C67.1514 53.9385 67.191 53.8908 67.2373 53.8589H67.2371ZM67.7231 55.4967C67.7613 55.5166 67.8011 55.52 67.8423 55.5072C67.8835 55.4942 67.9141 55.4686 67.9341 55.4305L68.4196 54.5019L68.5781 54.5843L68.0927 55.5129C68.0603 55.5748 68.0208 55.6222 67.9744 55.6549C67.9279 55.6876 67.8764 55.7041 67.8201 55.7041C67.7638 55.7041 67.704 55.6878 67.6405 55.6547L66.709 55.1708L66.7917 55.0128L67.7232 55.4967H67.7231Z" fill="#00FFFF"/>
<path d="M65.7971 56.9498C65.8225 56.9654 65.8537 56.9762 65.8911 56.9823C65.9282 56.9885 65.9638 56.9876 65.9976 56.9796C66.0313 56.9715 66.0553 56.9561 66.0693 56.9333L66.5368 56.1737L66.6891 56.2669L66.2217 57.0265C66.2076 57.0493 66.2046 57.0776 66.2128 57.1112C66.2209 57.1449 66.2362 57.1768 66.2587 57.2072C66.2811 57.2375 66.305 57.2605 66.3305 57.2759L66.5781 57.4273C66.615 57.4499 66.6543 57.456 66.6964 57.446C66.7384 57.436 66.7707 57.4125 66.7933 57.3759L67.3426 56.4833L67.495 56.5765L66.9457 57.4692C66.913 57.5224 66.8708 57.5632 66.8192 57.5917C66.7676 57.6203 66.7122 57.6335 66.6532 57.6314C66.5942 57.6292 66.538 57.6119 66.4847 57.5794L66.237 57.4279C66.1862 57.3969 66.1439 57.3583 66.1102 57.3125C66.0764 57.2665 66.0509 57.2165 66.0334 57.1623C65.977 57.1714 65.9206 57.1714 65.8643 57.1623C65.8079 57.153 65.7543 57.133 65.7035 57.102L65.4369 56.9388L65.5304 56.7869L65.7971 56.9501V56.9498ZM67.436 56.3316L67.3424 56.4835L66.1613 55.7613L66.2548 55.6094L67.436 56.3316Z" fill="#00FFFF"/>
<path d="M65.4321 59.3656L65.322 59.5061L64.3706 58.7658L63.628 59.7142L63.4871 59.6044L64.3398 58.5156L65.4321 59.3656ZM64.4559 60.3584C64.49 60.385 64.5284 60.3955 64.5713 60.3902C64.6142 60.385 64.6489 60.3654 64.6755 60.3314L65.3218 59.5061L65.4627 59.6158L64.8164 60.4412C64.7779 60.4904 64.7314 60.5262 64.6769 60.5487C64.6224 60.5713 64.5659 60.5782 64.5075 60.5696C64.4491 60.5609 64.3952 60.5373 64.3458 60.4989L63.5179 59.8546L63.628 59.7142L64.4559 60.3584Z" fill="#00FFFF"/>
<path d="M62.4946 60.8177C62.5501 60.7993 62.6066 60.7965 62.6644 60.8092C62.722 60.8218 62.7741 60.849 62.8207 60.8905L63.4866 61.4852L63.3688 61.6163L62.7029 61.0216C62.6707 60.9928 62.6331 60.9796 62.5899 60.982C62.5467 60.9844 62.5107 61.0016 62.4819 61.0338L62.1687 61.3821L62.0355 61.2631L62.3488 60.9147C62.3906 60.8683 62.4392 60.8359 62.4946 60.8177ZM63.1233 60.3202L62.7057 60.7848L62.5725 60.6658L62.9901 60.2012L63.1233 60.3202ZM64.1554 61.242L63.2009 62.3039L63.0677 62.1849L64.0222 61.123L64.1554 61.242Z" fill="#00FFFF"/>
<path d="M61.5344 61.8427C61.5916 61.8278 61.6484 61.8285 61.7051 61.8449C61.7617 61.8614 61.8119 61.892 61.8556 61.9367L62.5885 62.6867L62.4604 62.8111L61.7275 62.0611C61.6973 62.0303 61.6606 62.0145 61.6176 62.0141C61.5744 62.0134 61.5374 62.0283 61.5064 62.0584L60.6258 62.9133L60.501 62.7857L61.3816 61.9307C61.4265 61.8872 61.4774 61.8579 61.5344 61.8429V61.8427ZM61.9914 62.5514L61.2213 63.299L61.0965 63.1714L61.8666 62.4237L61.9914 62.5514ZM62.5854 62.9388L61.5928 63.9026L61.468 63.7749L62.4606 62.8111L62.5854 62.9388Z" fill="#00FFFF"/>
<path opacity="0.9" d="M40.0372 15.7695C26.367 15.7695 15.285 26.9763 15.285 40.7999C15.285 54.6236 26.367 65.8287 40.0372 65.8287C53.7074 65.8287 64.7893 54.6219 64.7893 40.7999C64.7893 26.978 53.7074 15.7695 40.0372 15.7695ZM40.0372 60.8487C29.0869 60.8487 20.2098 51.8718 20.2098 40.7983C20.2098 29.7248 29.0869 20.748 40.0372 20.748C50.9875 20.748 59.8646 29.7248 59.8646 40.7983C59.8646 51.8718 50.9875 60.8487 40.0372 60.8487Z" fill="url(#paint9_linear_0_1)"/>
<path style="mix-blend-mode:multiply" d="M40.0372 15.7695C26.367 15.7695 15.285 26.7163 15.285 40.2197C15.285 53.7231 26.367 64.6699 40.0372 64.6699C53.7074 64.6699 64.7893 53.7231 64.7893 40.2197C64.7893 26.7163 53.7074 15.7695 40.0372 15.7695ZM40.0372 59.8068C29.0869 59.8068 20.2098 51.038 20.2098 40.2213C20.2098 29.4046 29.0869 20.6358 40.0372 20.6358C50.9875 20.6358 59.8646 29.4046 59.8646 40.2213C59.8646 51.038 50.9875 59.8068 40.0372 59.8068Z" fill="url(#paint10_linear_0_1)"/>
<g opacity="0.4">
<path d="M41.002 64.7095C50.784 64.4527 59.9343 57.8667 63.1478 48.7388C69.0466 32.6591 56.4789 15.6693 39.1904 16.3292C21.9035 16.9355 10.6406 34.7949 17.7241 50.3982C21.6123 59.2645 31.2265 65.1694 41.002 64.7095ZM41.002 64.7095C31.1887 65.1841 21.5366 59.3442 17.4411 50.5266C9.85734 34.5559 21.2881 16.0009 39.1542 15.3557C57.0169 14.699 69.8035 32.3666 63.4374 48.8444C60.0116 57.9366 50.8252 64.4673 41.002 64.7078V64.7095Z" fill="#FCFAFB"/>
</g>
<path d="M54.2323 54.2761C62.0821 46.5222 62.0821 33.9505 54.2323 26.1965C46.3826 18.4425 33.6556 18.4425 25.8059 26.1965C17.9561 33.9505 17.9561 46.5222 25.8059 54.2761C33.6556 62.0301 46.3826 62.0301 54.2323 54.2761Z" fill="url(#paint11_linear_0_1)"/>
<g opacity="0.5">
<path d="M60.153 40.4967C59.8305 58.2846 38.3018 66.9672 25.5234 54.3708C17.65 46.6259 17.7471 33.5662 25.711 25.9141C38.8003 13.3794 60.2501 22.5691 60.153 40.4967ZM60.0872 40.4951C60.209 26.5577 45.614 16.9779 32.6267 22.2099C25.3292 25.0266 20.1971 32.3814 20.184 40.131C20.0046 54.1172 34.3643 63.7653 47.4981 58.621C54.9041 55.8108 60.1185 48.3456 60.0872 40.4951Z" fill="#161616"/>
</g>
<g style="mix-blend-mode:multiply" opacity="0.5">
<path d="M53.9417 53.7742C61.7914 46.0202 61.7914 33.4485 53.9417 25.6946C46.0919 17.9406 33.365 17.9406 25.5152 25.6946C17.6655 33.4485 17.6655 46.0202 25.5152 53.7742C33.365 61.5282 46.0919 61.5282 53.9417 53.7742Z" fill="#161616"/>
</g>
<path d="M57.1318 31.9927C61.6699 41.3434 57.6748 52.5567 48.2103 57.0378C38.7442 61.5189 27.394 57.5725 22.856 48.2219C18.3195 38.8729 22.3146 27.6612 31.7791 23.1785C41.2452 18.6974 52.5954 22.6437 57.1318 31.9927Z" fill="url(#paint12_radial_0_1)"/>
<path style="mix-blend-mode:color-burn" opacity="0.6" d="M57.1318 31.9927C61.6699 41.3434 57.6748 52.5567 48.2103 57.0378C38.7442 61.5189 27.394 57.5725 22.856 48.2219C18.3195 38.8729 22.3146 27.6612 31.7791 23.1785C41.2452 18.6974 52.5954 22.6437 57.1318 31.9927Z" fill="url(#paint13_linear_0_1)"/>
<g style="mix-blend-mode:overlay" opacity="0.6">
<path d="M31.8116 31.3536C40.9996 26.8644 52.1326 30.5815 56.6773 39.6575C57.3108 40.9237 57.7781 42.2272 58.0956 43.5453C58.79 39.7973 58.3128 35.807 56.4716 32.1305C51.9269 23.0545 40.794 19.3373 31.6059 23.8266C23.6996 27.69 19.8148 36.3727 21.7794 44.5027C22.7996 38.9992 26.3455 34.0257 31.8116 31.3536Z" fill="#060D51"/>
</g>
<path style="mix-blend-mode:color-burn" opacity="0.6" d="M57.1331 31.9915C61.6695 41.3421 57.6761 52.5538 48.2099 57.0349C38.7438 61.5176 27.3936 57.5713 22.8572 48.2206C18.3207 38.87 22.3158 27.6583 31.7803 23.1772C41.2448 18.6945 52.5966 22.6425 57.1331 31.9915Z" fill="url(#paint14_linear_0_1)"/>
<path opacity="0.1" d="M48.0323 54.7036C38.6616 59.1408 27.4957 55.3814 23.0925 46.3054C22.2813 44.6346 21.763 42.9003 21.5063 41.1547C21.6281 43.448 22.1974 45.7544 23.262 47.9486C27.6652 57.023 38.8327 60.784 48.2017 56.3468C55.8711 52.7158 59.96 44.7207 58.7785 36.9629C59.1932 44.1827 55.1603 51.3294 48.0323 54.7036Z" fill="#F4DDC1"/>
<g style="mix-blend-mode:soft-light" opacity="0.7">
<path d="M34.2303 24.9649C43.9646 21.4753 54.7208 26.4407 58.2519 36.0579C58.3753 36.3911 58.4872 36.7276 58.5892 37.0624C58.4033 36.0807 58.1367 35.1006 57.7813 34.1303C54.2486 24.5147 43.4924 19.5492 33.7597 23.0372C24.3643 26.4066 19.3556 36.422 22.1956 45.7613C20.5371 37.0071 25.4799 28.1018 34.2319 24.9649H34.2303Z" fill="#0619FF"/>
</g>
<path d="M48.1622 57.0504C38.7125 61.525 27.3393 57.5705 22.8094 48.2361C18.2796 38.9033 22.2829 27.6673 31.7326 23.1927C41.1823 18.7181 52.5555 22.6726 57.0853 32.007C61.6152 41.343 57.6119 52.5758 48.1622 57.0504ZM32.789 25.3674C24.5536 29.2683 21.0653 39.0578 25.0127 47.1926C28.9601 55.3275 38.8721 58.7749 47.1075 54.8741C55.3428 50.9748 58.8311 41.1837 54.8838 33.0488C50.9364 24.9139 41.0243 21.4682 32.789 25.3658V25.3674Z" fill="#0000FF"/>
<path style="mix-blend-mode:screen" d="M36.4136 57.3036C46.2189 57.3036 54.1677 49.4518 54.1677 39.7661C54.1677 30.0803 46.2189 22.2285 36.4136 22.2285C26.6082 22.2285 18.6594 30.0803 18.6594 39.7661C18.6594 49.4518 26.6082 57.3036 36.4136 57.3036Z" fill="url(#paint15_radial_0_1)"/>
<g style="mix-blend-mode:hard-light">
<path d="M48.0385 40.2757C47.7126 39.7442 47.3682 39.239 47.0127 38.7674C49.8309 36.3158 51.1899 33.6359 49.9864 31.5474C48.5866 29.1145 43.6503 29.5225 39.1028 32.3633C38.5214 32.7264 37.977 33.1119 37.466 33.5161C35.0219 30.6229 32.3445 29.2193 30.2633 30.4432C27.86 31.8618 28.2599 36.851 31.0743 41.4435C31.4521 42.0611 31.8594 42.645 32.2779 43.1839C29.5116 45.6205 28.1896 48.2705 29.3783 50.3365C30.7781 52.7694 35.7144 52.3614 40.2619 49.5206C40.8174 49.1725 41.3432 48.8057 41.832 48.4239C44.2243 51.1674 46.8165 52.47 48.8421 51.2797C51.2492 49.8649 50.8455 44.8757 48.0348 40.2795L48.0385 40.2757ZM47.7312 35.3052C48.5199 35.6683 48.0422 37.0344 46.8165 38.5128C45.8314 37.2552 44.7538 36.2334 43.6799 35.4961C45.0204 34.9197 46.4351 34.7064 47.7312 35.3015V35.3052ZM42.8837 35.8854C42.3912 36.5254 41.8431 37.3376 41.3173 38.2284C40.9544 38.846 41.0507 39.632 41.5469 40.1447C42.4542 41.0767 43.8391 42.6412 44.6983 44.3891C44.0502 43.8764 43.2133 43.2887 42.2875 42.7348C41.6765 42.368 40.8988 42.4653 40.3915 42.9668C39.4065 43.9475 37.7067 45.4783 35.8366 46.3242C36.4106 45.6355 37.1216 44.6324 37.7882 43.4983C38.1511 42.8808 38.0548 42.0948 37.5586 41.582C36.6402 40.6388 35.2293 39.0443 34.3739 37.2702C35.0478 37.8354 35.9995 38.5166 37.0735 39.1604C37.6845 39.5272 38.4621 39.4298 38.9695 38.9283C39.8397 38.0637 41.2728 36.7649 42.8837 35.8891V35.8854ZM33.9813 32.7226C34.3442 31.9142 35.7329 32.4232 37.2253 33.707C35.9662 34.7363 34.9478 35.8629 34.2405 36.9745C33.6184 35.5747 33.3666 34.085 33.9813 32.7226ZM31.6335 46.5824C30.8596 46.2269 31.3076 44.8982 32.4889 43.4459C33.4999 44.6886 34.5997 45.6916 35.6848 46.3878C34.3479 46.9642 32.9296 47.1776 31.6335 46.5824ZM45.1278 49.0003C44.7834 49.7676 43.5133 49.3484 42.1098 48.2031C43.317 47.2187 44.302 46.1483 45.013 45.0853C45.5278 46.3841 45.6944 47.7465 45.1315 49.0003H45.1278Z" fill="#24FF87"/>
</g>
<path d="M22.8732 55.2142C26.9522 59.7197 32.5648 62.3869 38.6742 62.7233C44.7837 63.0598 50.6612 61.0265 55.2223 56.9956C59.7834 52.9664 62.4836 47.4223 62.8242 41.3873C63.1648 35.3524 61.1063 29.5467 57.0257 25.0412C52.9467 20.5357 47.3341 17.8685 41.2247 17.5321C35.1152 17.1956 29.2377 19.2289 24.6766 23.2598C20.1155 27.289 17.4153 32.8331 17.0747 38.868C16.7341 44.903 18.7926 50.7087 22.8732 55.2142ZM24.7424 53.5629C21.1093 49.5499 19.2763 44.3812 19.5791 39.0062C19.8818 33.6312 22.2874 28.695 26.3484 25.1062C30.4093 21.5174 35.6434 19.7068 41.0848 20.0058C46.5262 20.3049 51.5234 22.6812 55.1565 26.6925C58.7896 30.7055 60.6226 35.8742 60.3198 41.2492C60.0171 46.6242 57.6115 51.5604 53.5505 55.1492C49.4896 58.738 44.2555 60.5486 38.8141 60.2495C33.3727 59.9505 28.3755 57.5742 24.7424 53.5629Z" fill="white"/>
<path d="M24.7708 23.3626C29.3039 19.3577 35.1452 17.3358 41.2184 17.6706C46.0264 17.9355 50.5233 19.6421 54.2338 22.6068C54.604 22.9253 54.242 25.5698 53.8504 25.1878C50.3654 22.0168 45.8536 20.133 41.0934 19.8697C35.6158 19.5674 30.3455 21.391 26.2549 25.0042C22.1644 28.6173 19.744 33.5877 19.4396 38.9984C19.1681 43.8127 20.6292 48.5409 23.5614 52.3621C23.693 52.6417 21.1311 52.8643 20.9912 52.5913C18.2417 48.5311 16.9369 43.7916 17.215 38.8749C17.5539 32.8757 20.2376 27.3674 24.7708 23.3609V23.3626Z" fill="url(#paint16_linear_0_1)"/>
<path d="M24.7708 23.3626C29.3039 19.3577 35.1452 17.3358 41.2184 17.6706C46.0264 17.9355 50.5233 19.6421 54.2338 22.6068C57.1379 25.0269 56.1638 27.5023 53.8504 25.1878C50.3654 22.0168 45.8536 20.133 41.0934 19.8697C35.6158 19.5674 30.3455 21.391 26.2549 25.0042C22.1644 28.6173 19.744 33.5876 19.4396 38.9984C19.1681 43.8127 20.6292 48.5409 23.5614 52.3621C26.5314 56.5978 24.3051 57.2885 20.9912 52.5913C18.2417 48.5311 16.9369 43.7916 17.215 38.8749C17.5539 32.8757 20.2376 27.3674 24.7708 23.3609V23.3626Z" fill="url(#paint17_linear_0_1)"/>
<path d="M22.141 29.3575C24.6618 25.2746 28.5104 22.2173 33.1489 20.657C37.659 19.1389 42.5854 19.2023 47.033 20.8325C50.9129 22.4936 49.3876 19.7436 46.3699 18.7245C41.8499 17.364 37.0765 17.4469 32.5664 18.9634C26.8617 20.8829 22.2545 24.8813 19.5955 30.2222C19.171 31.0755 18.804 31.9451 18.4963 32.8293C19.6629 31.5144 20.8888 30.349 22.1426 29.3559L22.141 29.3575Z" fill="url(#paint18_linear_0_1)"/>
<path d="M24.7073 23.5034C27.4996 21.0362 30.7953 19.3328 34.5025 18.4388C36.1956 18.0878 37.8756 18.3608 38.3298 18.824C38.4499 18.9459 38.4499 19.0565 38.4285 19.128C38.4153 19.1702 38.3824 19.2369 38.2952 19.3133C38.004 19.5717 37.2948 19.7781 36.2466 19.9114H36.2384C32.3865 20.6103 28.8192 22.3283 25.9315 24.8801C25.2371 25.4929 24.5822 26.1576 23.9833 26.8533C22.147 28.9874 20.8142 31.4043 20.0211 34.0373C19.4501 35.9341 17.729 43.7439 17.729 43.7439C17.6188 43.1686 17.5299 42.5834 17.4674 42.0048C17.1498 39.1101 17.4065 36.2527 18.2325 33.514C19.0964 30.6485 20.546 28.0187 22.5452 25.696C23.2132 24.9191 23.9405 24.1812 24.7056 23.5067L24.7073 23.5034Z" fill="url(#paint19_linear_0_1)"/>
<path d="M60.6775 31.7854C61.7536 34.6428 62.2324 37.7164 62.0547 40.8533C61.7174 46.833 59.0419 52.3266 54.5219 56.3185C50.0019 60.312 44.1788 62.3274 38.1252 61.9926C34.9496 61.8171 31.9121 61.006 29.156 59.6326C28.307 59.2019 28.3876 59.5042 28.9076 59.852C31.8841 61.5001 35.2227 62.4688 38.7291 62.6623C44.7826 62.9955 50.6075 60.98 55.1258 56.9882C59.6441 52.9963 62.3212 47.5026 62.6586 41.5229C62.8544 38.0593 62.2505 34.6737 60.9243 31.5693C60.6199 30.9614 60.4257 31.1629 60.6758 31.7887L60.6775 31.7854Z" fill="url(#paint20_linear_0_1)"/>
<path d="M31 21.6255C26.6116 23.6458 23.1085 27.0834 21.0237 31.4653C18.9949 35.7254 18.5112 40.5673 19.6564 45.1134C20.897 49.1069 18.2989 47.3028 17.6095 44.2276C16.7423 39.6392 17.3577 34.9631 19.3849 30.703C21.9501 25.3166 26.4849 21.2386 32.1551 19.2216C33.06 18.8997 33.9765 18.6364 34.9013 18.4316C33.4484 19.4312 32.1402 20.504 31 21.6255Z" fill="url(#paint21_linear_0_1)"/>
<path d="M19.0504 31.3675C21.6156 25.9811 26.1504 21.9031 31.8206 19.886C32.3142 19.7105 32.8128 19.5528 33.313 19.4114C35.0012 18.6036 35.6034 18.1875 34.9123 18.2363C33.9893 18.4411 33.0711 18.7044 32.1661 19.0262C26.496 21.0433 21.9612 25.1213 19.396 30.5077C19.1245 31.0782 18.8793 31.6552 18.6588 32.2387C18.7839 31.9461 18.9139 31.6552 19.0504 31.3675Z" fill="white"/>
<path d="M19.3204 45.777C19.5096 46.3866 19.61 46.8612 19.6396 47.2171C20.0329 47.2285 20.1777 46.5702 19.6643 44.9172C18.6606 40.9335 18.909 36.7222 20.3504 32.875C18.6096 36.9481 18.241 41.4926 19.3187 45.7754L19.3204 45.777Z" fill="white"/>
<path d="M33.6211 61.395C38.1411 62.7554 42.9144 62.6725 47.4246 61.156C48.4464 60.8131 49.432 60.4002 50.3781 59.9289C50.3896 59.9224 50.4028 59.9175 50.4143 59.911C50.5278 59.8541 50.6397 59.7956 50.7516 59.7371C50.8191 59.7013 50.8865 59.6672 50.954 59.6315C51.0083 59.6022 51.0642 59.5713 51.1185 59.5421C55.2518 57.2926 58.5559 53.8289 60.6028 49.5283C62.6316 45.2682 63.2453 40.5921 62.3782 36.0037C61.6904 32.9285 59.0923 31.126 60.3313 35.1179C61.4765 39.664 60.9911 44.5075 58.9639 48.766C58.6431 49.4405 58.2877 50.0923 57.901 50.7196C57.8829 50.7343 57.8664 50.7489 57.8483 50.7619C56.0384 53.694 53.5422 56.0979 50.5607 57.7964C50.049 58.0857 49.5241 58.3556 48.9861 58.6042C48.9844 58.6059 48.9811 58.6091 48.9795 58.6107C48.2868 58.9309 47.5726 59.2154 46.8388 59.4624C42.3287 60.9805 37.4023 60.9171 32.9547 59.2869C29.0748 57.6258 30.6001 60.3759 33.6178 61.395H33.6211Z" fill="url(#paint22_linear_0_1)"/>
<path d="M61.0208 36.5821C61.7283 41.1965 60.955 45.8498 58.7797 50.0384C56.5847 54.2675 53.1639 57.619 48.9565 59.7271C48.9006 59.7547 48.8446 59.784 48.7887 59.8116C48.7196 59.8457 48.6521 59.8783 48.583 59.9108C48.4695 59.966 48.3543 60.0197 48.2408 60.0733C48.2276 60.0798 48.2161 60.0847 48.2029 60.0895C47.9874 60.1887 47.7685 60.283 47.5497 60.3756C48.068 60.2244 48.5797 60.0538 49.0799 59.8652C49.0816 59.8636 49.0849 59.862 49.0865 59.8587C49.6427 59.6507 50.1857 59.4199 50.7171 59.1663C53.8155 57.6856 56.4827 55.4687 58.5049 52.6747C58.523 52.6617 58.5411 52.6487 58.5609 52.6357C58.992 52.0376 59.3951 51.4134 59.7653 50.7633C62.1018 46.6609 62.9426 41.8661 62.1364 37.2501C61.8534 36.0262 60.8497 35.6686 61.0208 36.5788V36.5821Z" fill="url(#paint23_linear_0_1)"/>
<defs>
<filter id="filter0_f_0_1" x="1.28857" y="1.50195" width="81.087" height="81.0879" filterUnits="userSpaceOnUse" color-interpolation-filters="sRGB">
<feFlood flood-opacity="0" result="BackgroundImageFix"/>
<feBlend mode="normal" in="SourceGraphic" in2="BackgroundImageFix" result="shape"/>
<feGaussianBlur stdDeviation="2" result="effect1_foregroundBlur_0_1"/>
</filter>
<filter id="filter1_d_0_1" x="3.98511" y="6.00195" width="76.553" height="76.3164" filterUnits="userSpaceOnUse" color-interpolation-filters="sRGB">
<feFlood flood-opacity="0" result="BackgroundImageFix"/>
<feColorMatrix in="SourceAlpha" type="matrix" values="0 0 0 0 0 0 0 0 0 0 0 0 0 0 0 0 0 0 127 0" result="hardAlpha"/>
<feOffset dx="2" dy="4"/>
<feGaussianBlur stdDeviation="2"/>
<feComposite in2="hardAlpha" operator="out"/>
<feColorMatrix type="matrix" values="0 0 0 0 0 0 0 0 0 0 0 0 0 0 0 0 0 0 0.25 0"/>
<feBlend mode="normal" in2="BackgroundImageFix" result="effect1_dropShadow_0_1"/>
<feBlend mode="normal" in="SourceGraphic" in2="effect1_dropShadow_0_1" result="shape"/>
</filter>
<linearGradient id="paint0_linear_0_1" x1="47.6365" y1="6.67012" x2="32.8996" y2="74.9262" gradientUnits="userSpaceOnUse">
<stop stop-color="white"/>
<stop offset="0.16" stop-color="#FBFBFB"/>
<stop offset="0.29" stop-color="#F1F1F1"/>
<stop offset="0.41" stop-color="#E0E0E0"/>
<stop offset="0.52" stop-color="#C7C7C7"/>
<stop offset="0.63" stop-color="#A8A8A8"/>
<stop offset="0.74" stop-color="#818181"/>
<stop offset="0.84" stop-color="#535353"/>
<stop offset="0.94" stop-color="#202020"/>
<stop offset="1"/>
</linearGradient>
<linearGradient id="paint1_linear_0_1" x1="35.718" y1="69.3468" x2="45.2697" y2="6.5687" gradientUnits="userSpaceOnUse">
<stop offset="0.16" stop-color="#868382"/>
<stop offset="0.23" stop-color="#949393"/>
<stop offset="0.28" stop-color="#999999"/>
<stop offset="0.75" stop-color="#CCCCCC"/>
<stop offset="0.79" stop-color="#C2C2C1"/>
<stop offset="0.84" stop-color="#AAA7A5"/>
<stop offset="0.92" stop-color="#837B78"/>
</linearGradient>
<linearGradient id="paint2_linear_0_1" x1="26.266" y1="16.1224" x2="53.942" y2="64.2122" gradientUnits="userSpaceOnUse">
<stop stop-color="#534741"/>
<stop offset="0.37" stop-color="#999999"/>
<stop offset="0.58" stop-color="#CCCCCC"/>
<stop offset="0.62" stop-color="#C2C2C1"/>
<stop offset="0.7" stop-color="#AAA7A5"/>
<stop offset="0.8" stop-color="#837B78"/>
<stop offset="0.9" stop-color="#534741"/>
</linearGradient>
<radialGradient id="paint3_radial_0_1" cx="0" cy="0" r="1" gradientUnits="userSpaceOnUse" gradientTransform="translate(36.0726 44.5705) rotate(-25.5386) scale(24.8942 24.8443)">
<stop stop-color="#0007D4"/>
<stop offset="0.23" stop-color="#00049E"/>
<stop offset="0.47" stop-color="#00026C"/>
<stop offset="0.69" stop-color="#000148"/>
<stop offset="0.86" stop-color="#000032"/>
<stop offset="0.97" stop-color="#01002A"/>
</radialGradient>
<linearGradient id="paint4_linear_0_1" x1="16.431" y1="51.2667" x2="63.7864" y2="28.4948" gradientUnits="userSpaceOnUse">
<stop stop-color="#E8DEED"/>
<stop offset="1" stop-color="#0000FF" stop-opacity="0"/>
</linearGradient>
<linearGradient id="paint5_linear_0_1" x1="16.43" y1="51.2668" x2="63.7863" y2="28.4945" gradientUnits="userSpaceOnUse">
<stop stop-color="#E8DEED"/>
<stop offset="1" stop-color="#0000FF" stop-opacity="0"/>
</linearGradient>
<linearGradient id="paint6_linear_0_1" x1="16.8848" y1="55.0718" x2="28.4311" y2="14.0554" gradientUnits="userSpaceOnUse">
<stop stop-color="white" stop-opacity="0.3"/>
<stop offset="0.92" stop-opacity="0"/>
</linearGradient>
<linearGradient id="paint7_linear_0_1" x1="66.8827" y1="31.5977" x2="43.6147" y2="66.8645" gradientUnits="userSpaceOnUse">
<stop stop-color="white" stop-opacity="0.6"/>
<stop offset="1" stop-opacity="0"/>
</linearGradient>
<radialGradient id="paint8_radial_0_1" cx="0" cy="0" r="1" gradientUnits="userSpaceOnUse" gradientTransform="translate(39.9161 37.8689) scale(24.5587 24.4802)">
<stop stop-color="#0033FF"/>
<stop offset="0.40325" stop-color="#0024B6"/>
<stop offset="0.72325" stop-color="#001155"/>
<stop offset="0.88" stop-color="#000417"/>
<stop offset="1"/>
</radialGradient>
<linearGradient id="paint9_linear_0_1" x1="45.4161" y1="16.2685" x2="34.9463" y2="65.2058" gradientUnits="userSpaceOnUse">
<stop stop-color="white"/>
<stop offset="0.16" stop-color="#FBFBFB"/>
<stop offset="0.29" stop-color="#F1F1F1"/>
<stop offset="0.41" stop-color="#E0E0E0"/>
<stop offset="0.52" stop-color="#C7C7C7"/>
<stop offset="0.63" stop-color="#A8A8A8"/>
<stop offset="0.74" stop-color="#818181"/>
<stop offset="0.84" stop-color="#535353"/>
<stop offset="0.94" stop-color="#202020"/>
<stop offset="1"/>
</linearGradient>
<linearGradient id="paint10_linear_0_1" x1="36.8006" y1="61.1689" x2="43.5845" y2="16.177" gradientUnits="userSpaceOnUse">
<stop stop-color="#534741"/>
<stop offset="0.08" stop-color="#706966"/>
<stop offset="0.16" stop-color="#868382"/>
<stop offset="0.23" stop-color="#949393"/>
<stop offset="0.28" stop-color="#999999"/>
<stop offset="0.75" stop-color="#CCCCCC"/>
<stop offset="0.79" stop-color="#C2C2C1"/>
<stop offset="0.84" stop-color="#AAA7A5"/>
<stop offset="0.92" stop-color="#837B78"/>
<stop offset="1" stop-color="#534741"/>
</linearGradient>
<linearGradient id="paint11_linear_0_1" x1="29.9675" y1="23.0382" x2="49.7034" y2="57.6453" gradientUnits="userSpaceOnUse">
<stop stop-color="#534741"/>
<stop offset="0.37" stop-color="#999999"/>
<stop offset="0.58" stop-color="#CCCCCC"/>
<stop offset="0.62" stop-color="#C2C2C1"/>
<stop offset="0.7" stop-color="#AAA7A5"/>
<stop offset="0.8" stop-color="#837B78"/>
<stop offset="0.9" stop-color="#534741"/>
</linearGradient>
<radialGradient id="paint12_radial_0_1" cx="0" cy="0" r="1" gradientUnits="userSpaceOnUse" gradientTransform="translate(37.0459 43.4066) rotate(-25.3369) scale(17.9667 17.8283)">
<stop stop-color="#0007D4"/>
<stop offset="0.23" stop-color="#00049E"/>
<stop offset="0.47" stop-color="#00026C"/>
<stop offset="0.69" stop-color="#000148"/>
<stop offset="0.86" stop-color="#000032"/>
<stop offset="0.97" stop-color="#01002A"/>
</radialGradient>
<linearGradient id="paint13_linear_0_1" x1="22.8455" y1="48.2035" x2="56.9638" y2="31.6474" gradientUnits="userSpaceOnUse">
<stop stop-color="#E8DEED"/>
<stop offset="1" stop-color="#0000FF" stop-opacity="0"/>
</linearGradient>
<linearGradient id="paint14_linear_0_1" x1="22.8451" y1="48.2022" x2="56.9634" y2="31.6462" gradientUnits="userSpaceOnUse">
<stop stop-color="#E8DEED"/>
<stop offset="1" stop-color="#0000FF" stop-opacity="0"/>
</linearGradient>
<radialGradient id="paint15_radial_0_1" cx="0" cy="0" r="1" gradientUnits="userSpaceOnUse" gradientTransform="translate(36.4136 39.7661) scale(17.7542 17.5375)">
<stop offset="0.02" stop-color="#0033FF"/>
<stop offset="1"/>
</radialGradient>
<linearGradient id="paint16_linear_0_1" x1="24.7429" y1="23.3767" x2="38.6283" y2="39.0929" gradientUnits="userSpaceOnUse">
<stop stop-color="#989899"/>
<stop offset="0.53" stop-color="#161616"/>
<stop offset="0.96"/>
</linearGradient>
<linearGradient id="paint17_linear_0_1" x1="24.7196" y1="23.3973" x2="40.8036" y2="41.602" gradientUnits="userSpaceOnUse">
<stop stop-color="#989899"/>
<stop offset="0.53" stop-color="#161616"/>
<stop offset="0.96"/>
</linearGradient>
<linearGradient id="paint18_linear_0_1" x1="44.6278" y1="15.615" x2="21.659" y2="36.4124" gradientUnits="userSpaceOnUse">
<stop stop-color="white"/>
<stop offset="0.3" stop-color="#929292"/>
<stop offset="0.55" stop-color="#383838"/>
<stop offset="0.67" stop-color="#161616"/>
<stop offset="0.96"/>
</linearGradient>
<linearGradient id="paint19_linear_0_1" x1="71.4243" y1="-15.0879" x2="47.817" y2="6.82671" gradientUnits="userSpaceOnUse">
<stop offset="0.04"/>
<stop offset="1" stop-color="#161616"/>
</linearGradient>
<linearGradient id="paint20_linear_0_1" x1="48.643" y1="29.534" x2="43.8113" y2="63.5103" gradientUnits="userSpaceOnUse">
<stop stop-color="#DADAE9"/>
<stop offset="0.28" stop-color="#EAEAF4"/>
<stop offset="0.5" stop-color="#E7E7F2"/>
<stop offset="0.71" stop-color="#DADAE9"/>
<stop offset="1" stop-color="#EAEAF4"/>
</linearGradient>
<linearGradient id="paint21_linear_0_1" x1="37.8119" y1="21.7321" x2="14.8418" y2="42.5306" gradientUnits="userSpaceOnUse">
<stop offset="0.04"/>
<stop offset="0.47" stop-color="#161616"/>
<stop offset="0.99" stop-color="#9797A0"/>
</linearGradient>
<linearGradient id="paint22_linear_0_1" x1="65.3005" y1="38.039" x2="35.5969" y2="64.9346" gradientUnits="userSpaceOnUse">
<stop stop-color="#D4D4D8"/>
<stop offset="0.27"/>
<stop offset="0.49" stop-color="#72727A"/>
<stop offset="0.76" stop-color="#131313"/>
<stop offset="1" stop-color="#D4D4D8"/>
</linearGradient>
<linearGradient id="paint23_linear_0_1" x1="65.0243" y1="40.1059" x2="45.2955" y2="57.9696" gradientUnits="userSpaceOnUse">
<stop offset="0.47" stop-color="#E8E8EF"/>
<stop offset="1"/>
</linearGradient>
</defs>
</svg>
