<svg width="113" height="25" viewBox="0 0 113 25" fill="none" xmlns="http://www.w3.org/2000/svg">
<g clip-path="url(#clip0_6413_11114)" filter="url(#filter0_d_6413_11114)">
<path d="M108.674 11.5568V18.271C108.674 19.7482 107.436 20.9464 105.911 20.9464H78.9828C77.3291 20.9464 75.9849 19.65 75.9849 18.0438V1.54232H81.5326V15.5699H103.121V14.2528H86.7337C84.6692 14.2528 82.9996 12.6363 82.9996 10.6375C82.9996 9.67685 83.3943 8.75752 84.0931 8.08093L92.4415 -0.00195312L96.3676 3.79933L91.1185 8.88147H105.905C107.431 8.88147 108.669 10.0797 108.669 11.5568H108.674Z" fill="#24FF87"/>
<path d="M41.1193 15.6213V20.9927H3.68788C2.02355 20.9927 0.67395 19.686 0.67395 18.0746V1.59375H6.22705V15.6265H41.1193V15.6213Z" fill="#24FF87"/>
<path d="M74.8886 4.83168V17.661C74.8886 19.479 73.3683 20.9458 71.4959 20.9458H45.3414C43.6237 20.9458 42.2261 19.5978 42.2261 17.9296V11.8971C42.2261 10.234 43.6184 8.88086 45.3414 8.88086H67.8952V14.2522H47.7792V15.5693H69.3461V6.91825H42.2155V1.54688H71.4959C73.3736 1.54688 74.8886 3.01884 74.8886 4.83168Z" fill="#24FF87"/>
<path d="M24.8805 1.52116V10.6732C24.5658 10.6732 24.2671 10.6732 23.963 10.6732C23.1895 10.6732 22.416 10.6577 21.6426 10.6783C21.3118 10.6886 21.2265 10.5854 21.2265 10.2755C21.2371 8.40581 21.2371 6.531 21.2265 4.66135C21.2265 4.49607 21.1198 4.33596 21.0611 4.17069C20.9064 4.31531 20.6557 4.44443 20.613 4.61486C20.437 5.31211 20.325 6.03001 20.1863 6.73759C20.0102 7.66725 19.8289 8.59691 19.6582 9.52657C19.6048 9.80547 19.5621 10.0844 19.5195 10.3684C19.4875 10.5905 19.3808 10.6783 19.1301 10.6783C17.1937 10.668 15.252 10.668 13.3156 10.6783C13.0329 10.6783 12.9528 10.5802 12.9048 10.3219C12.6755 9.05141 12.4194 7.78604 12.1794 6.52067C12.0833 6.01968 12.014 5.51354 11.9073 5.01772C11.854 4.78014 11.7579 4.54256 11.6299 4.33596C11.5712 4.243 11.3845 4.21718 11.2565 4.16553C11.2192 4.27915 11.1445 4.39794 11.1445 4.51157C11.1391 6.40704 11.1445 8.30252 11.1445 10.198C11.1445 10.3374 11.1445 10.4769 11.1445 10.6732H10.579C9.70953 10.6732 8.83469 10.6525 7.96519 10.6835C7.56511 10.699 7.44775 10.5492 7.44775 10.2032C7.45309 9.30448 7.44775 8.40581 7.44775 7.50714C7.44775 6.5155 7.44775 5.5187 7.44775 4.52706C7.44775 3.62839 7.46376 2.72972 7.46909 1.83105C7.46909 1.59347 7.55978 1.49534 7.82116 1.5005C9.50149 1.51083 11.1872 1.45918 12.8622 1.53149C13.7263 1.56764 14.4358 2.0583 14.8465 2.81752C15.0653 3.22554 15.1826 3.7007 15.268 4.16036C15.492 5.31211 15.6627 6.46902 15.8814 7.62077C15.8974 7.7034 16.1055 7.7912 16.2335 7.81186C16.4362 7.84802 16.5802 7.75505 16.6122 7.5278C16.6709 7.11978 16.7456 6.71176 16.8096 6.29858C16.943 5.49288 17.0923 4.68717 17.2043 3.88146C17.375 2.64708 18.1592 1.93434 19.3168 1.53665C19.4181 1.5005 19.5355 1.51083 19.6475 1.51083C21.3172 1.51083 22.9868 1.51083 24.6511 1.51083C24.7205 1.51083 24.7952 1.52632 24.8805 1.53149V1.52116Z" fill="#24FF87"/>
<path d="M34.9198 10.6727C33.7569 10.6727 32.6314 10.6727 31.5058 10.6727C31.2551 10.6727 31.2924 10.4919 31.2924 10.3473C31.2924 9.46926 31.2924 8.59124 31.2924 7.7184C31.2924 7.17093 31.015 6.8972 30.4603 6.8972C29.8948 6.8972 29.3294 6.8817 28.7693 6.8972C27.297 6.94368 26.1714 5.96754 25.9474 4.57304C25.9154 4.37678 25.91 4.17019 25.91 3.96877C25.91 3.16306 25.91 2.36252 25.91 1.53615C26.0274 1.52066 26.1074 1.50516 26.1928 1.50516C27.2116 1.50516 28.2305 1.50516 29.2494 1.5C29.5054 1.5 29.5961 1.57747 29.5908 1.82538C29.5801 2.52263 29.5961 3.22504 29.5854 3.92228C29.5801 4.2425 29.7028 4.35612 30.0388 4.35096C32.0979 4.34063 34.1623 4.34063 36.2214 4.35096C36.5735 4.35096 36.6962 4.23733 36.6855 3.89646C36.6642 3.11658 36.6802 2.33669 36.6802 1.53615C36.7922 1.52066 36.8775 1.50516 36.9575 1.50516C37.9657 1.50516 38.9686 1.50516 39.9768 1.50516C40.1582 1.50516 40.3235 1.49484 40.3182 1.74791C40.3022 2.72922 40.2862 3.71569 40.2809 4.697C40.2809 5.73512 39.1286 6.90236 37.9017 6.88687C37.1176 6.87654 36.3334 6.89203 35.5439 6.8972C35.1456 6.8972 34.9465 7.08485 34.9465 7.46016C34.9465 8.38465 34.9465 9.30915 34.9465 10.2336C34.9465 10.3731 34.9358 10.5125 34.9251 10.6778L34.9198 10.6727Z" fill="#24FF87"/>
</g>
<defs>
<filter id="filter0_d_6413_11114" x="0.67395" y="-0.00195312" width="112" height="25" filterUnits="userSpaceOnUse" color-interpolation-filters="sRGB">
<feFlood flood-opacity="0" result="BackgroundImageFix"/>
<feColorMatrix in="SourceAlpha" type="matrix" values="0 0 0 0 0 0 0 0 0 0 0 0 0 0 0 0 0 0 127 0" result="hardAlpha"/>
<feOffset dx="2" dy="2"/>
<feGaussianBlur stdDeviation="1"/>
<feComposite in2="hardAlpha" operator="out"/>
<feColorMatrix type="matrix" values="0 0 0 0 0 0 0 0 0 0 0 0 0 0 0 0 0 0 1 0"/>
<feBlend mode="normal" in2="BackgroundImageFix" result="effect1_dropShadow_6413_11114"/>
<feBlend mode="normal" in="SourceGraphic" in2="effect1_dropShadow_6413_11114" result="shape"/>
</filter>
<clipPath id="clip0_6413_11114">
<rect width="108" height="21" fill="white" transform="translate(0.67395 -0.00195312)"/>
</clipPath>
</defs>
</svg>
