<svg width="58" height="64" viewBox="0 0 58 64" fill="none" xmlns="http://www.w3.org/2000/svg">
<path d="M35.9709 4.70165C35.6152 4.14816 35.107 3.70918 34.4655 3.38473C32.293 2.27775 28.6151 2.50677 24.3147 3.89368C21.0434 4.94976 17.4099 6.68657 13.7956 9.01505C10.0859 11.4135 6.94161 14.0919 4.61037 16.7194C1.84084 19.824 0.214688 22.8459 0.151166 25.1871C0.125758 26.046 0.316322 26.8158 0.729211 27.4647L11.0451 41.7091L22.949 58.9372C24.6196 61.2593 26.6269 62.3154 29.0407 63.028C32.077 63.925 35.2785 64.1795 38.4165 63.7405C41.5544 63.3015 44.2096 62.36 47.3285 60.3432C52.6135 56.9269 55.8087 52.1045 56.7297 47.8293C57.4793 44.3557 57.5047 41.0665 55.6117 37.8219L45.461 21.09L35.9709 4.68256V4.70165Z" fill="#00E629"/>
<path d="M33.2712 5.87244C33.5253 6.26688 33.665 6.71858 33.6968 7.22118C33.9191 10.7266 28.9835 16.6623 21.5769 21.4528C14.1703 26.2434 7.03686 28.2156 3.82903 26.746C3.2891 26.4979 2.86985 26.1543 2.57765 25.709C2.24099 25.1873 2.1076 24.5638 2.15841 23.8513C2.28546 21.9236 3.76551 19.3916 6.21743 16.7514C8.28188 14.5183 11.0451 12.2153 14.2783 10.1286C17.5115 8.04187 20.5669 6.55953 23.3873 5.58616C27.0906 4.3074 30.2222 4.00203 32.0389 4.84181C32.5725 5.08992 32.9854 5.43347 33.2776 5.8788L33.2712 5.87244Z" fill="#006D19"/>
<path d="M32.8203 5.16736C33.0744 5.5618 33.2141 6.0135 33.2459 6.5161C33.4682 10.0215 28.5326 15.9572 21.126 20.7478C13.7194 25.5383 6.58593 27.5105 3.3781 26.0409C2.83817 25.7928 2.41893 25.4492 2.12673 25.0039C1.79006 24.4822 1.65667 23.8588 1.70749 23.1462C1.83453 21.2186 3.31458 18.6865 5.76651 16.0463C7.83095 13.8132 10.5941 11.5102 13.8274 9.42351C17.0606 7.33679 20.116 5.85445 22.9363 4.88108C26.6396 3.60233 29.7713 3.29695 31.588 4.13673C32.1215 4.38485 32.5344 4.72839 32.8266 5.17373L32.8203 5.16736Z" fill="#A1FFA3"/>
<path d="M34.8719 4.83528C35.1641 5.28698 35.3229 5.80229 35.3801 6.36851C35.7231 10.3256 30.4508 16.8721 22.4154 22.0634C14.5451 27.1466 6.57949 29.2779 3.00958 27.5347C2.41248 27.2421 1.93607 26.8413 1.60576 26.3323C1.22463 25.7343 1.05947 25.0281 1.09123 24.2329C1.18016 22.0634 2.73644 19.2514 5.37258 16.344C7.58948 13.8883 10.5623 11.369 14.0687 9.10414C17.4734 6.90291 20.9036 5.25517 23.978 4.23725C28.018 2.90125 31.4608 2.6404 33.4872 3.63923C34.0779 3.93188 34.548 4.32633 34.8783 4.84164L34.8719 4.83528Z" fill="#95FF75"/>
<path d="M36.8539 11.3252C36.8539 11.3252 36.8348 11.3189 36.8221 11.3125C36.8666 11.3634 36.9111 11.4143 36.9492 11.4715C37.1588 11.796 37.2541 12.1841 37.2477 12.6294C37.1969 15.6959 32.5599 21.727 25.166 26.5048C17.7721 31.2826 10.3528 33.134 7.42443 32.0843C7.08141 31.9634 6.80191 31.7916 6.57959 31.5753C6.64311 31.8998 6.75745 32.1924 6.92896 32.4596L15.1232 43.6248L24.5434 57.1503C25.871 58.9698 27.5417 59.7396 29.5744 60.2168C32.1343 60.8148 34.8593 60.8784 37.5653 60.3822C40.157 59.905 42.5835 59.0016 45.3404 57.2203C50.0092 54.1984 52.9566 50.1267 53.9348 46.6022C54.7288 43.733 54.9003 41.0482 53.4203 38.4907L45.4738 25.2961L38.0799 12.3368C37.8004 11.8978 37.3811 11.567 36.8539 11.3316V11.3252Z" fill="#090030"/>
<path d="M28.9772 6.2479C29.1741 6.55328 29.2821 6.90954 29.3075 7.30398C29.4854 10.0396 25.6296 14.6711 19.8555 18.4056C14.0814 22.14 8.51061 23.6796 6.01422 22.5345C5.59498 22.3436 5.26467 22.0701 5.04234 21.7265C4.78191 21.3193 4.67392 20.8295 4.71203 20.276C4.81367 18.7746 5.96341 16.796 7.88175 14.7347C9.4952 12.9979 11.6486 11.1975 14.1704 9.56884C16.6922 7.94018 19.0742 6.7823 21.2721 6.02523C24.1559 5.02641 26.6015 4.79102 28.018 5.4463C28.4309 5.63716 28.7612 5.90436 28.9836 6.25426L28.9772 6.2479Z" fill="#090030"/>
<path d="M26.0552 1.71861C26.2521 2.02398 26.3601 2.38025 26.3855 2.77469C26.5634 5.51033 22.7076 10.1418 16.9335 13.8763C11.1594 17.6107 5.58862 19.1503 3.09222 18.0052C2.67298 17.8143 2.34267 17.5408 2.12035 17.1972C1.85991 16.7901 1.75192 16.3002 1.79004 15.7467C1.89167 14.2453 3.04141 12.2667 4.95975 10.2054C6.5732 8.46863 8.72658 6.6682 11.2484 5.03954C13.7702 3.41088 16.1522 2.25301 18.3501 1.49594C21.2339 0.497113 23.6795 0.261719 25.0961 0.916999C25.5089 1.10786 25.8392 1.37506 26.0616 1.72497L26.0552 1.71861Z" fill="#090030"/>
<path d="M24.8547 1.78817C25.0389 2.07445 25.1342 2.39891 25.1596 2.76154C25.3184 5.2936 21.7548 9.58791 16.4 13.0488C11.1531 16.4397 5.88719 17.9348 3.56866 16.8723C3.18118 16.6942 2.87628 16.4461 2.66666 16.1216C2.42527 15.7463 2.32999 15.2946 2.36175 14.7793C2.45704 13.386 3.5242 11.5538 5.29645 9.64517C6.7892 8.0356 8.78377 6.36877 11.1214 4.85462C13.4589 3.34048 15.6695 2.27167 17.7085 1.57186C20.3828 0.649376 22.6505 0.426708 23.959 1.03109C24.3402 1.20923 24.6451 1.45734 24.8547 1.7818V1.78817Z" fill="#A1FFA3"/>
<path d="M44.3684 26.4233L39.6805 34.1976L34.3511 15.7988L26.4236 24.9918L33.3093 48.7537L36.8856 42.8244L42.2976 61.5158L44.3684 26.4233Z" fill="#00E629"/>
</svg>
