<svg width="201" height="84" viewBox="0 0 201 84" fill="none" xmlns="http://www.w3.org/2000/svg">
<path d="M51.2243 22.6406L46.2977 27.4069V37.3675L51.1644 42.073H55.9482L60.9462 37.2405V32.3582H58.4729L53.1721 37.4835H51.0615V27.9178H60.9462V32.3582H66.1298V27.603L61.2832 22.9168L51.2243 22.6406Z" fill="white"/>
<path d="M66.1298 37.6035H61.1604V42.4085H66.1298V37.6035Z" fill="white"/>
<path d="M172.39 22.9609V37.4917L167.298 42.4154H157.262L157.159 42.3188L152.27 37.5912V22.9609H157.159V37.5414H167.501V22.9609H172.39Z" fill="white"/>
<path d="M151.476 22.9609H143.862H138.969H131.355V27.6913H138.969V42.4154H143.862V27.6913H151.476V22.9609Z" fill="white"/>
<path d="M177.956 45.1094H170.342H165.45H157.836V49.837H165.45V64.5639H170.342V49.837H177.956V45.1094Z" fill="#00FFFF"/>
<path d="M104.057 22.8945V27.6553H98.9195L93.7673 32.637H88.8121V30.2842C88.8121 30.2842 90.0431 29.0857 91.5168 27.6553C93.7045 25.5317 96.4262 22.8945 96.4577 22.8945H104.057Z" fill="white"/>
<path d="M109.027 27.6543V42.3784H104.058V37.3967H93.9102V42.3784H88.7579V37.3967L93.6817 32.636H104.058V27.6543H109.027Z" fill="white"/>
<path d="M82.9831 45.9941V50.7549H77.8452L72.693 55.7366H67.7378V53.3838C67.7378 53.3838 68.9687 52.1853 70.4424 50.7549C72.6301 48.6313 75.3519 45.9941 75.3833 45.9941H82.9831Z" fill="#00FFFF"/>
<path d="M87.9525 50.7539V65.478H82.9831V60.4963H72.8357V65.478H67.6835V60.4963L72.6072 55.7356H82.9831V50.7539H87.9525Z" fill="#00FFFF"/>
<path d="M96.5976 32.5957V32.6367H94.3813L94.4242 32.5957H96.5976Z" fill="white"/>
<path d="M183.491 27.5644H180.932L178.362 30.0469V42.225H173.433V27.2827L178.362 22.5137H183.491V27.5644Z" fill="white"/>
<path d="M188.524 27.6542H191.083L193.653 30.1368V42.3176H198.583V27.3726L193.653 22.6035H188.524V27.6542Z" fill="white"/>
<path d="M188.472 27.5625H183.491V37.3905H188.472V27.5625Z" fill="white"/>
<path d="M98.8168 50.6612H96.2578L93.6874 53.1465V65.3246H88.7579V50.3796L93.6874 45.6133H98.8168V50.6612Z" fill="#00FFFF"/>
<path d="M103.849 50.7538H106.408L108.978 53.2364V65.4144H113.908V50.4722L108.978 45.7031H103.849V50.7538Z" fill="#00FFFF"/>
<path d="M103.798 50.6602H98.8168V60.4882H103.798V50.6602Z" fill="#00FFFF"/>
<path d="M77.6909 37.3176H82.8232V42.2219H75.2176C74.8235 41.8409 73.8239 40.8743 72.6529 39.7421C71.8504 38.9662 70.9679 38.1129 70.1454 37.3176C69.1858 36.3925 68.309 35.542 67.7321 34.9841V22.7012H72.6529V32.4491L77.6909 37.3203V37.3176Z" fill="white"/>
<path d="M87.8354 22.7012V32.2393L82.8231 37.0856V22.7012H87.8354Z" fill="white"/>
<path d="M125.612 30.0798V32.5403H120.582V32.5458L115.601 27.7298V42.3793H110.521V22.7012H118.198V22.911L125.612 30.0798Z" fill="white"/>
<path d="M130.644 22.7012V42.3793H125.612V37.486H130.11V34.4319L128.154 32.5403L125.612 30.0798V22.7012H130.644Z" fill="white"/>
<path d="M66.4555 50.7203V53.2443H61.3889L58.7871 50.7258H51.2872V45.8242H61.3889L66.4555 50.7203Z" fill="#00FFFF"/>
<path d="M66.4554 60.4773V65.3761H46.2977V55.711L51.2872 50.8867V64.7078H63.0939C62.5998 64.2301 62 63.6474 61.3888 63.0592C60.335 62.043 59.2525 60.9964 58.6357 60.3999H53.8433V55.5784H61.3346C61.3517 55.595 61.3717 55.6143 61.3917 55.6337C62.6626 56.8901 64.8931 59.0054 66.3726 60.3999C66.4011 60.4276 66.4297 60.4552 66.4582 60.48L66.4554 60.4773Z" fill="#00FFFF"/>
<path d="M135.319 60.4836V64.4491C135.245 64.5209 135.168 64.5954 135.088 64.6728C134.868 64.8854 134.625 65.1229 134.365 65.3714H115.065V53.1934H120.045V64.67H130.17V60.4809H135.319V60.4836Z" fill="#00FFFF"/>
<path d="M130.164 60.4829H120.125L125.192 55.5371H130.164V60.4829Z" fill="#00FFFF"/>
<path d="M135.314 50.845V55.5367H130.164V50.6185H115.065V45.7031H130.036C130.079 45.7445 130.119 45.786 130.164 45.8301C131.432 47.0728 133.703 49.282 135.082 50.6185C135.162 50.6958 135.239 50.7704 135.314 50.8422V50.845Z" fill="#00FFFF"/>
<path d="M143.942 45.7383H136.307V50.6896H143.942V45.7383Z" fill="#00FFFF"/>
<path d="M148.777 50.6884V60.4198H156.365V65.4181H148.777V60.5938C147.283 62.0353 145.07 64.1975 143.942 65.2993C143.899 65.3407 143.862 65.3794 143.822 65.4153H136.307V60.4171H143.942V50.6719C145.47 49.2028 147.64 47.1096 148.777 46.005C148.877 45.9083 148.971 45.8172 149.054 45.7344H156.562V50.6857H148.777V50.6884Z" fill="#00FFFF"/>
<path d="M185.242 44.877V50.5573L185.222 50.5766L183.352 52.3854H181.292V50.5766H183.266V46.7409H181.292V44.877H185.242Z" fill="#00FFFF"/>
<path d="M187.935 50.5586H185.242V52.3867H187.935V50.5586Z" fill="#00FFFF"/>
<path d="M192.385 44.877V50.5573L192.368 50.5766L190.494 52.3854H188.435V50.5766H190.412V46.7409H188.435V44.877H192.385Z" fill="#00FFFF"/>
<path d="M196.298 50.5586H192.385V52.3867H196.298V50.5586Z" fill="#00FFFF"/>
<path d="M180.998 53.5286H181.587V56.1658H180.998V53.5286ZM185.222 55.5418C185.222 55.481 185.205 55.423 185.171 55.365C185.137 55.307 185.091 55.2573 185.034 55.2187C184.977 55.18 184.914 55.1607 184.845 55.1607H181.955V54.6691H184.845C184.914 54.6691 184.977 54.6498 185.034 54.6111C185.091 54.5725 185.137 54.5228 185.171 54.4648C185.205 54.4068 185.222 54.3488 185.222 54.2881V53.8407C185.222 53.7551 185.185 53.6805 185.114 53.6198C185.039 53.559 184.951 53.5286 184.848 53.5286H181.584V53.0371H184.848C185.025 53.0371 185.191 53.073 185.336 53.142C185.485 53.2111 185.599 53.3077 185.685 53.432C185.768 53.5563 185.811 53.6916 185.811 53.8407V54.2881C185.811 54.4068 185.785 54.52 185.733 54.6249C185.682 54.7299 185.611 54.8265 185.522 54.9121C185.611 54.9977 185.682 55.0944 185.733 55.1993C185.785 55.3043 185.811 55.4175 185.811 55.5362V56.1631H185.222V55.5362V55.5418Z" fill="#00FFFF"/>
<path d="M186.233 53.5286H186.821V56.1658H186.233V53.5286ZM189.732 55.9781C189.503 55.8538 189.292 55.6936 189.098 55.5031C188.904 55.3098 188.672 55.0557 188.404 54.7409L188.398 54.7354L188.252 54.5614C187.967 54.2328 187.713 53.9788 187.49 53.7993C187.267 53.6198 187.044 53.5286 186.824 53.5286V53.0371C187.084 53.0371 187.33 53.0979 187.558 53.2221C187.787 53.3464 187.995 53.501 188.187 53.6916C188.378 53.8821 188.609 54.1362 188.881 54.4593C188.892 54.4731 188.901 54.4869 188.912 54.4979C188.924 54.509 188.932 54.52 188.944 54.5311C189.143 54.7713 189.321 54.9729 189.475 55.1303C189.629 55.2877 189.792 55.4175 189.96 55.5224C190.129 55.6246 190.297 55.6771 190.46 55.6771V56.1686C190.2 56.1686 189.955 56.1051 189.726 55.9808L189.732 55.9781ZM190.466 53.0371H191.054V55.6743H190.466V53.0371Z" fill="#00FFFF"/>
<path d="M191.483 53.5278H192.071V55.6735H195.709V56.165H191.483V53.5278ZM195.709 53.8426C195.709 53.757 195.672 53.6825 195.601 53.6217C195.527 53.561 195.438 53.5306 195.335 53.5306H192.071V53.0391H195.335C195.512 53.0391 195.678 53.075 195.824 53.144C195.972 53.213 196.086 53.3097 196.172 53.434C196.255 53.5582 196.298 53.6935 196.298 53.8426V55.6763H195.709V53.8426Z" fill="#00FFFF"/>
<path d="M120.411 71.8222C120.671 71.8222 120.908 71.7201 121.079 71.5544C121.251 71.3887 121.356 71.1595 121.356 70.9082C121.356 70.4056 120.934 69.9941 120.411 69.9941H117.538C117.198 70.3255 116.695 70.8115 116.213 71.2755H118.932C119.443 71.2755 119.857 71.6759 119.857 72.1702C119.857 72.6645 119.443 73.0649 118.932 73.0649H116.064V71.4163C115.918 71.5571 115.773 71.6952 115.639 71.8222C115.147 72.2917 114.773 72.6479 114.773 72.6479V76.1356H117.858L119.209 74.9731C119.12 75.0007 119.026 75.02 118.926 75.02H116.058V73.2306H118.926C119.437 73.2306 119.851 73.631 119.851 74.1253C119.851 74.2551 119.82 74.3793 119.768 74.4898L120.919 73.4984L121.125 73.3189L121.134 73.3107C121.271 73.1533 121.351 72.9517 121.351 72.7308C121.351 72.2254 120.928 71.8167 120.405 71.8167L120.411 71.8222Z" fill="#00FFFF"/>
<path d="M189.269 61.1539L191.785 58.7211C191.994 58.5195 192.274 58.4062 192.568 58.4062H193.185L190.669 60.8391C190.474 61.0269 190.209 61.1373 189.935 61.1401L189.269 61.1511V61.1539Z" fill="#00FFFF"/>
<path d="M191.011 61.1539L193.582 58.6686C193.756 58.5001 193.99 58.4062 194.236 58.4062H194.927L192.365 60.8833C192.199 61.0434 191.977 61.1346 191.74 61.1401L191.008 61.1539H191.011Z" fill="#00FFFF"/>
<path d="M192.751 61.1539L195.295 58.6934C195.484 58.5112 195.741 58.4062 196.009 58.4062H196.666L194.07 60.9164C193.924 61.0573 193.73 61.1373 193.525 61.1401L192.748 61.1539H192.751Z" fill="#00FFFF"/>
<path d="M193.136 57.1602L193.799 57.8008C193.984 57.9803 194.233 58.0797 194.496 58.0797H195.164L194.481 57.4197C194.31 57.254 194.076 57.1602 193.833 57.1602H193.136Z" fill="#00FFFF"/>
<path d="M191.397 57.1602L192.068 57.8091C192.248 57.9831 192.494 58.0825 192.748 58.0825H193.425L192.799 57.4777C192.591 57.2761 192.308 57.1629 192.011 57.1629H191.397V57.1602Z" fill="#00FFFF"/>
<path d="M195.575 57.1602H194.878L195.509 57.7704C195.715 57.9693 195.992 58.0797 196.281 58.0797H196.903L196.221 57.4197C196.049 57.254 195.815 57.1602 195.572 57.1602H195.575Z" fill="#00FFFF"/>
<path d="M182.592 57.0254H180.998V57.316H182.592V57.0254Z" fill="#00FFFF"/>
<path d="M190.003 57.6211H180.998V57.7678H190.003V57.6211Z" fill="#00FFFF"/>
<path d="M9.00152 67.5614H4.13684V64.0006H7.07714L11.7709 57.5449H31.4103L35.6937 63.4363H38.4142V66.9971H33.7694L29.4859 61.1057H13.6977L9.00152 67.5614Z" fill="white"/>
<path d="M38.4465 69.4004H4.16907V72.5857H38.4465V69.4004Z" fill="white"/>
<path d="M12.2454 31.0668L13.2027 28.8519L11.9743 28.7031L9.99377 33.2863L10.8998 33.8082L11.1635 33.964C11.7008 33.1234 13.4127 31.0242 14.8365 31.4068L15.1588 30.2899C14.099 30.0065 13.083 30.4434 12.2454 31.0668Z" fill="white"/>
<path d="M20.8141 32.1731C19.9863 31.4624 18.5625 30.695 16.4232 30.9476C16.1937 31.3302 15.9739 31.6938 15.82 31.9299C15.8322 31.9394 15.8444 31.9394 15.8664 31.9394C20.0449 31.6277 23.0169 35.8166 21.6933 36.8933C16.6137 41.035 14.936 44.4777 14.7113 46.924C16.2279 44.1825 19.5369 41.4458 19.7543 41.264C20.3037 40.8059 20.8068 40.362 21.2342 39.8945C22.0669 38.983 22.6188 37.9748 22.6872 36.5769C22.7703 34.898 22.0718 33.2522 20.8141 32.1731Z" fill="white"/>
<path d="M39.2874 37.6327C36.8649 32.412 34.0174 28.1971 30.828 25.1015C28.0928 22.4451 25.0768 20.5797 21.8679 19.5573C20.5956 19.1535 19.3696 18.889 18.1168 18.7521C17.814 18.719 17.5063 18.693 17.1961 18.6765C17.4086 18.1405 17.5527 17.6635 17.4941 17.4628C17.3647 17.026 15.7431 13.6541 14.9616 12.0413C14.8273 11.7627 14.4024 11.8076 14.334 12.1075C14.3193 12.1665 13.2057 16.2326 12.456 18.9669C12.1508 19.0236 11.8455 19.0874 11.5427 19.1582C10.7929 19.3353 10.0774 19.5549 9.4156 19.8052C8.63412 20.1027 8.0236 20.7095 7.73543 21.4699C7.45459 22.216 7.51076 23.0401 7.88928 23.7414C5.58638 26.131 5.13947 29.6942 6.84406 32.6127C6.93198 32.7662 7.01501 32.9008 7.08827 33.0236L7.4204 40.1286C7.12246 40.7354 7.0028 41.4179 7.08095 42.0766C7.25189 43.5052 8.07244 44.7543 9.33257 45.5028C10.0481 45.9279 10.8223 46.2065 11.6501 46.3364C11.3497 47.2573 11.1544 48.2112 11.064 49.1793C10.8296 51.7153 11.34 54.2537 12.5415 56.5229L14.124 59.5122H27.348C28.4201 59.5122 29.4018 58.988 29.9684 58.112C30.5398 57.2313 30.5984 56.1474 30.1247 55.21C29.5703 54.1167 29.287 52.9385 29.287 51.7083C29.287 49.857 29.9586 48.053 31.1821 46.6268C32.3909 45.2171 34.0711 44.2419 35.9173 43.8783C36.8404 43.6965 37.6341 43.1392 38.0981 42.3529C38.2813 42.0436 38.4083 41.7012 38.4718 41.3494C38.8405 41.0282 39.1311 40.6339 39.3216 40.19C39.6733 39.3706 39.6611 38.4356 39.285 37.628L39.2874 37.6327ZM37.1848 39.4368C37.0944 39.602 36.943 39.739 36.7452 39.8122L35.9564 40.1003L35.9759 40.1546C36.1444 40.6174 36.0101 41.1038 35.6804 41.4249C35.5193 41.5831 35.3117 41.7012 35.0699 41.7579C30.3982 42.8393 26.9279 46.8865 26.9279 51.713C26.9279 53.3186 27.3113 54.8369 27.9976 56.1899C28.2491 56.6882 27.8657 57.269 27.2894 57.269H15.5184L14.5855 55.5052C12.5464 51.6492 12.9713 47.007 15.6918 43.5619C15.704 43.5454 15.7162 43.5335 15.726 43.5194C15.7358 43.5076 15.7431 43.4981 15.7504 43.491L15.7577 43.4816C15.7577 43.4816 15.7651 43.4722 15.7651 43.4674C15.77 43.4533 15.7553 43.4533 15.7236 43.4604C15.6747 43.4745 15.5844 43.5099 15.4574 43.5619C15.3597 43.602 15.2376 43.6493 15.0984 43.7012C14.8053 43.8098 14.4317 43.935 14.0068 44.0271V40.9267L15.2596 39.8358L14.5318 39.0542L12.8785 40.5347V44.1569C12.0653 44.2136 11.3791 44.1003 10.5219 43.5902C9.8625 43.1982 9.44735 42.5371 9.36187 41.8193C9.31547 41.4202 9.462 41.0235 9.74528 40.7307L9.34966 32.2892C9.28128 32.2443 9.08103 31.9303 8.83926 31.5123C7.80381 29.739 7.9137 27.6068 8.98579 25.9917C9.23488 25.6139 9.5377 25.2668 9.88937 24.9575C10.0823 24.7875 10.2899 24.6293 10.5097 24.4876C10.5316 24.471 10.5561 24.4545 10.5805 24.4404C10.5951 24.4309 10.6122 24.4215 10.6269 24.412C10.6733 24.3837 10.7221 24.3553 10.7685 24.327C10.7685 24.327 10.7685 24.327 10.7661 24.3223C10.7392 24.268 10.4388 23.6659 10.1385 23.1062L10.1311 23.0944C9.84785 22.5679 10.114 21.9256 10.6953 21.7296C10.9248 21.6517 11.1886 21.569 11.4792 21.4888C11.5793 21.4604 11.6843 21.4321 11.7918 21.4061L13.3303 21.0897L14.2436 17.1086C14.312 16.8111 14.7418 16.7898 14.842 17.0779L16.1558 20.8866C16.2022 20.8866 16.2486 20.8866 16.295 20.8866C16.466 20.8914 16.6393 20.8961 16.8127 20.9055C16.8225 20.9055 16.8323 20.9055 16.842 20.9055C17.2963 20.9291 17.7652 20.974 18.2463 21.0401C23.8582 21.8099 31.2114 25.7036 37.2092 38.7284C37.3191 38.9645 37.2996 39.2242 37.1823 39.4344L37.1848 39.4368Z" fill="white"/>
<path d="M50.0733 72.9618C50.0733 72.8955 50.0505 72.8403 50.0019 72.7933C49.9534 72.7464 49.8963 72.7243 49.8277 72.7243H47.7257C47.6172 72.7243 47.5201 72.7049 47.443 72.6663C47.363 72.6276 47.303 72.5696 47.263 72.4923C47.223 72.415 47.203 72.3239 47.203 72.2189V71.6777H47.4829V72.2189C47.4829 72.2852 47.5058 72.3404 47.5543 72.3874C47.6029 72.4343 47.66 72.4564 47.7286 72.4564H49.8306C49.942 72.4564 50.0391 72.4757 50.1162 72.5144C50.1933 72.5531 50.2533 72.6111 50.2961 72.6884C50.3361 72.7629 50.3561 72.8568 50.3561 72.9645V73.5058H50.0762V72.9645L50.0733 72.9618ZM47.443 73.688C47.3658 73.63 47.3059 73.5472 47.263 73.4395C47.2202 73.3318 47.2002 73.2075 47.2002 73.0639H47.4801C47.4801 73.1854 47.5086 73.2904 47.5629 73.376C47.62 73.4616 47.6971 73.5058 47.7942 73.5058H50.0705V73.7764H47.7228C47.6143 73.7764 47.5201 73.746 47.4401 73.688H47.443ZM49.9877 71.8019C49.9305 71.7163 49.8534 71.6749 49.7563 71.6749H47.4801V71.4043H49.8277C49.9362 71.4043 50.0333 71.4347 50.1105 71.4927C50.1904 71.5507 50.2504 71.6335 50.2904 71.7412C50.3304 71.8489 50.3504 71.9732 50.3504 72.1168H50.0705C50.0705 71.9925 50.0419 71.8876 49.9877 71.8047V71.8019Z" fill="#00FFFF"/>
<path d="M52.2468 71.9124C52.2468 71.8461 52.2211 71.7909 52.1725 71.744C52.124 71.697 52.064 71.6749 51.9983 71.6749H50.8074V71.4043H51.9983C52.0954 71.4043 52.1868 71.4264 52.2668 71.4706C52.3468 71.5148 52.4096 71.5755 52.4553 71.6528C52.501 71.7301 52.5238 71.8158 52.5238 71.9124V73.7736H52.2468V71.9124ZM52.5238 71.4043H53.9604V71.6749H52.5238V71.4043Z" fill="#00FFFF"/>
<path d="M54.2745 71.6753H54.5544V73.774H54.2745V71.6753ZM57.1477 73.3018C57.1477 73.2576 57.1362 73.2079 57.1134 73.1554C57.0906 73.1029 57.062 73.056 57.022 73.0201C56.9849 72.9842 56.942 72.9649 56.9021 72.9649H54.8V72.6942H56.9021C56.9449 72.6942 56.9849 72.6749 57.022 72.639C57.062 72.6031 57.0906 72.5562 57.1134 72.5037C57.1362 72.4512 57.1477 72.4015 57.1477 72.3573V71.9183C57.1477 71.852 57.1248 71.7968 57.0763 71.7498C57.0277 71.7029 56.9706 71.6808 56.9021 71.6808H54.5544V71.4102H56.9021C56.9992 71.4102 57.0906 71.4322 57.1705 71.4764C57.2505 71.5206 57.3133 71.5814 57.359 71.6587C57.4047 71.736 57.4276 71.8216 57.4276 71.9183V72.3573C57.4276 72.4485 57.4104 72.5341 57.3762 72.6141C57.3419 72.6942 57.2962 72.766 57.2391 72.8323C57.2962 72.8986 57.3447 72.9704 57.3762 73.0505C57.4104 73.1305 57.4276 73.2162 57.4276 73.3073V73.7823H57.1477V73.3073V73.3018Z" fill="#00FFFF"/>
<path d="M57.8816 71.6749H58.1586V72.6911H60.5091V72.9618H58.1586V73.7736H57.8816V71.6749ZM60.7547 71.9124C60.7547 71.8461 60.729 71.7909 60.6805 71.744C60.6319 71.697 60.5719 71.6749 60.5063 71.6749H58.1586V71.4043H60.5063C60.6034 71.4043 60.6948 71.4264 60.7747 71.4706C60.8547 71.5148 60.9175 71.5755 60.9661 71.6528C61.0118 71.7301 61.0375 71.8158 61.0375 71.9124V73.7736H60.7576V71.9124H60.7547Z" fill="#00FFFF"/>
<path d="M62.9282 71.9124C62.9282 71.8461 62.9025 71.7909 62.8539 71.744C62.8054 71.697 62.7454 71.6749 62.6797 71.6749H61.4888V71.4043H62.6797C62.7768 71.4043 62.8682 71.4264 62.9482 71.4706C63.0282 71.5148 63.091 71.5755 63.1367 71.6528C63.1824 71.7301 63.2052 71.8158 63.2052 71.9124V73.7736H62.9282V71.9124ZM63.2052 71.4043H64.6418V71.6749H63.2052V71.4043Z" fill="#00FFFF"/>
<path d="M65.353 73.7101C65.273 73.6659 65.2102 73.6052 65.1645 73.5279C65.1188 73.4505 65.0959 73.3649 65.0959 73.2683V71.6777H65.3758V73.2683C65.3758 73.3346 65.3987 73.3898 65.4472 73.4367C65.4958 73.4837 65.5529 73.5058 65.6215 73.5058H68.249V73.7764H65.6215C65.5244 73.7764 65.433 73.7543 65.353 73.7101ZM65.3758 71.4043H68.249V71.6749H65.3758V71.4043ZM65.6186 72.4537H68.0034V72.7243H65.6186V72.4537Z" fill="#00FFFF"/>
<path d="M68.96 73.7093C68.8801 73.6651 68.8172 73.6044 68.7715 73.5271C68.7259 73.4497 68.703 73.3641 68.703 73.2675V71.9144C68.703 71.8205 68.7259 71.7321 68.7715 71.6548C68.8172 71.5775 68.8801 71.5167 68.96 71.4725C69.04 71.4283 69.1285 71.4062 69.2257 71.4062H71.6104V71.6769H69.2257C69.1571 71.6769 69.1 71.699 69.0514 71.7459C69.0029 71.7928 68.98 71.8481 68.98 71.9144V73.2675C68.98 73.3337 69.0029 73.389 69.0514 73.4359C69.1 73.4829 69.1571 73.505 69.2257 73.505H71.5761V73.7756H69.2257C69.1285 73.7756 69.04 73.7535 68.96 73.7093ZM71.579 72.7262H69.6798V72.4556H71.856V73.505H71.579V72.7262Z" fill="#00FFFF"/>
<path d="M72.3102 71.4043H75.2519V71.6749H72.3102V71.4043ZM72.3102 73.5058H73.6411V73.7764H72.3102V73.5058ZM73.901 73.7101C73.821 73.6659 73.7582 73.6052 73.7125 73.5279C73.6668 73.4505 73.6439 73.3649 73.6439 73.2683V71.9152H73.921V73.2683C73.921 73.3346 73.9438 73.3898 73.9924 73.4367C74.0409 73.4837 74.098 73.5058 74.1666 73.5058H75.2519V73.7764H74.1666C74.0695 73.7764 73.9809 73.7543 73.901 73.7101Z" fill="#00FFFF"/>
<path d="M75.7089 71.9124C75.7089 71.8185 75.7317 71.7301 75.7774 71.6528C75.8231 71.5755 75.8859 71.5148 75.9659 71.4706C76.0459 71.4264 76.1344 71.4043 76.2344 71.4043H78.582V71.6749H76.2344C76.1658 71.6749 76.1087 71.697 76.0601 71.744C76.0116 71.7909 75.9887 71.8461 75.9887 71.9124V73.503H75.7089V71.9124ZM75.9887 73.5058H78.5791V73.2683H78.859V73.7764H75.9859V73.5058H75.9887ZM78.5791 71.6749H78.859V71.9455H78.5791V71.6749Z" fill="#00FFFF"/>
<path d="M80.7496 73.5059H82.9916V73.7771H80.7496V73.5059Z" fill="#00FFFF"/>
<path d="M83.1658 73.5059H85.4077V73.7771H83.1658V73.5059Z" fill="#00FFFF"/>
<path d="M90.1715 72.9618C90.1715 72.8955 90.1487 72.8403 90.1001 72.7933C90.0516 72.7464 89.9945 72.7243 89.9259 72.7243H87.8239C87.7154 72.7243 87.6183 72.7049 87.5412 72.6663C87.4612 72.6276 87.4012 72.5696 87.3612 72.4923C87.3213 72.415 87.3013 72.3239 87.3013 72.2189V71.6777H87.5812V72.2189C87.5812 72.2852 87.604 72.3404 87.6526 72.3874C87.7011 72.4343 87.7582 72.4564 87.8268 72.4564H89.9288C90.0402 72.4564 90.1373 72.4757 90.2144 72.5144C90.2915 72.5531 90.3515 72.6111 90.3943 72.6884C90.4343 72.7629 90.4543 72.8568 90.4543 72.9645V73.5058H90.1744V72.9645L90.1715 72.9618ZM87.544 73.688C87.4669 73.63 87.4069 73.5472 87.3641 73.4395C87.3213 73.3318 87.3013 73.2075 87.3013 73.0639H87.5812C87.5812 73.1854 87.6097 73.2904 87.664 73.376C87.7211 73.4616 87.7982 73.5058 87.8953 73.5058H90.1715V73.7764H87.8239C87.7154 73.7764 87.6211 73.746 87.5412 73.688H87.544ZM90.0887 71.8019C90.0316 71.7163 89.9545 71.6749 89.8574 71.6749H87.5812V71.4043H89.9288C90.0373 71.4043 90.1344 71.4347 90.2115 71.4927C90.2915 71.5507 90.3515 71.6335 90.3915 71.7412C90.4314 71.8489 90.4514 71.9732 90.4514 72.1168H90.1715C90.1715 71.9925 90.143 71.8876 90.0887 71.8047V71.8019Z" fill="#00FFFF"/>
<path d="M91.1655 72.8955C91.0855 72.8513 91.0227 72.7905 90.977 72.7132C90.9313 72.6359 90.9084 72.5503 90.9084 72.4537V71.4043H91.1883V72.4537C91.1883 72.5199 91.2112 72.5752 91.2597 72.6221C91.3083 72.669 91.3654 72.6911 91.434 72.6911H93.536V72.9618H91.434C91.3368 72.9618 91.2455 72.9397 91.1655 72.8955ZM91.1512 73.5058H93.5331C93.6016 73.5058 93.6588 73.4837 93.7073 73.4367C93.7559 73.3898 93.7787 73.3346 93.7787 73.2683V71.4071H94.0586V73.2683C94.0586 73.3622 94.0358 73.4505 93.9901 73.5279C93.9444 73.6052 93.8815 73.6659 93.8016 73.7101C93.7216 73.7543 93.6331 73.7764 93.5331 73.7764H91.1512V73.5058Z" fill="#00FFFF"/>
<path d="M97.3858 72.9618C97.3858 72.8955 97.3629 72.8403 97.3144 72.7933C97.2658 72.7464 97.2087 72.7243 97.1402 72.7243H95.0382C94.9296 72.7243 94.8325 72.7049 94.7554 72.6663C94.6754 72.6276 94.6155 72.5696 94.5755 72.4923C94.5355 72.415 94.5155 72.3239 94.5155 72.2189V71.6777H94.7954V72.2189C94.7954 72.2852 94.8182 72.3404 94.8668 72.3874C94.9153 72.4343 94.9725 72.4564 95.041 72.4564H97.143C97.2544 72.4564 97.3515 72.4757 97.4286 72.5144C97.5057 72.5531 97.5657 72.6111 97.6086 72.6884C97.6485 72.7629 97.6685 72.8568 97.6685 72.9645V73.5058H97.3886V72.9645L97.3858 72.9618ZM94.7583 73.688C94.6812 73.63 94.6212 73.5472 94.5783 73.4395C94.5355 73.3318 94.5155 73.2075 94.5155 73.0639H94.7954C94.7954 73.1854 94.824 73.2904 94.8782 73.376C94.9353 73.4616 95.0125 73.5058 95.1096 73.5058H97.3858V73.7764H95.0382C94.9296 73.7764 94.8354 73.746 94.7554 73.688H94.7583ZM97.303 71.8019C97.2458 71.7163 97.1687 71.6749 97.0716 71.6749H94.7954V71.4043H97.143C97.2516 71.4043 97.3487 71.4347 97.4258 71.4927C97.5057 71.5507 97.5657 71.6335 97.6057 71.7412C97.6457 71.8489 97.6657 71.9732 97.6657 72.1168H97.3858C97.3858 71.9925 97.3572 71.8876 97.303 71.8047V71.8019Z" fill="#00FFFF"/>
<path d="M99.5593 71.9124C99.5593 71.8461 99.5336 71.7909 99.485 71.744C99.4365 71.697 99.3765 71.6749 99.3108 71.6749H98.1199V71.4043H99.3108C99.4079 71.4043 99.4993 71.4264 99.5793 71.4706C99.6593 71.5148 99.7221 71.5755 99.7678 71.6528C99.8135 71.7301 99.8363 71.8158 99.8363 71.9124V73.7736H99.5593V71.9124ZM99.8363 71.4043H101.273V71.6749H99.8363V71.4043Z" fill="#00FFFF"/>
<path d="M101.987 73.7101C101.907 73.6659 101.844 73.6052 101.798 73.5279C101.753 73.4505 101.73 73.3649 101.73 73.2683V71.6777H102.01V73.2683C102.01 73.3346 102.033 73.3898 102.081 73.4367C102.13 73.4837 102.187 73.5058 102.255 73.5058H104.883V73.7764H102.255C102.158 73.7764 102.067 73.7543 101.987 73.7101ZM102.01 71.4043H104.883V71.6749H102.01V71.4043ZM102.25 72.4537H104.634V72.7243H102.25V72.4537Z" fill="#00FFFF"/>
<path d="M105.337 71.6741H105.617V73.7728H105.337V71.6741ZM106.891 73.6679C106.819 73.5961 106.759 73.505 106.711 73.3917C106.662 73.2785 106.611 73.1294 106.551 72.9416C106.551 72.9306 106.545 72.9195 106.545 72.9085C106.545 72.8974 106.539 72.8892 106.534 72.8809C106.534 72.8698 106.528 72.8588 106.522 72.8477C106.516 72.8367 106.514 72.8256 106.511 72.8146C106.434 72.5688 106.359 72.3672 106.288 72.2098C106.217 72.0524 106.125 71.9254 106.017 71.826C105.908 71.7266 105.774 71.6769 105.614 71.6769V71.4062C105.834 71.4062 106.017 71.467 106.165 71.5885C106.311 71.71 106.431 71.8674 106.525 72.0607C106.619 72.254 106.708 72.5026 106.799 72.8063C106.799 72.8118 106.805 72.8201 106.805 72.8256C106.805 72.8312 106.811 72.8394 106.811 72.845C106.879 73.0576 106.939 73.2205 106.991 73.3337C107.042 73.447 107.096 73.505 107.156 73.505C107.216 73.505 107.268 73.4525 107.313 73.3503C107.359 73.2481 107.413 73.0935 107.473 72.8919C107.479 72.8809 107.485 72.856 107.499 72.8174C107.587 72.5108 107.679 72.2568 107.77 72.0607C107.862 71.8619 107.984 71.7045 108.133 71.5857C108.281 71.467 108.47 71.4062 108.696 71.4062V71.6769C108.533 71.6769 108.396 71.7266 108.284 71.8232C108.173 71.9199 108.082 72.0469 108.01 72.2016C107.939 72.3562 107.867 72.555 107.79 72.7953C107.785 72.8118 107.782 72.8284 107.776 72.845C107.77 72.8615 107.767 72.8781 107.762 72.8947C107.756 72.9168 107.747 72.9389 107.742 72.9582C107.736 72.9775 107.73 72.9996 107.722 73.0217C107.673 73.1846 107.625 73.3199 107.579 73.4249C107.533 73.5298 107.473 73.6154 107.405 73.6817C107.336 73.7452 107.25 73.7783 107.15 73.7783C107.051 73.7783 106.956 73.7424 106.885 73.6706L106.891 73.6679ZM108.698 71.6741H108.978V73.7728H108.698V71.6741Z" fill="#00FFFF"/>
<path d="M112.306 72.9618C112.306 72.8955 112.283 72.8403 112.234 72.7933C112.186 72.7464 112.129 72.7243 112.06 72.7243H109.958C109.849 72.7243 109.752 72.7049 109.675 72.6663C109.595 72.6276 109.535 72.5696 109.495 72.4923C109.455 72.415 109.435 72.3239 109.435 72.2189V71.6777H109.715V72.2189C109.715 72.2852 109.738 72.3404 109.787 72.3874C109.835 72.4343 109.892 72.4564 109.961 72.4564H112.063C112.174 72.4564 112.271 72.4757 112.348 72.5144C112.426 72.5531 112.486 72.6111 112.528 72.6884C112.568 72.7629 112.588 72.8568 112.588 72.9645V73.5058H112.308V72.9645L112.306 72.9618ZM109.675 73.688C109.598 73.63 109.538 73.5472 109.495 73.4395C109.452 73.3318 109.432 73.2075 109.432 73.0639H109.712C109.712 73.1854 109.741 73.2904 109.795 73.376C109.852 73.4616 109.929 73.5058 110.027 73.5058H112.303V73.7764H109.955C109.847 73.7764 109.752 73.746 109.672 73.688H109.675ZM112.22 71.8019C112.163 71.7163 112.086 71.6749 111.989 71.6749H109.712V71.4043H112.06C112.169 71.4043 112.266 71.4347 112.343 71.4927C112.423 71.5507 112.483 71.6335 112.523 71.7412C112.563 71.8489 112.583 71.9732 112.583 72.1168H112.303C112.303 71.9925 112.274 71.8876 112.22 71.8047V71.8019Z" fill="#00FFFF"/>
</svg>
