<svg width="403" height="614" viewBox="0 0 403 614" fill="none" xmlns="http://www.w3.org/2000/svg">
<path d="M162.269 613.939C178.104 599.733 196.443 591.348 193.366 593.248C196.744 591.167 201.028 591.167 204.436 593.248L235.352 612.431L204.466 598.647C201.118 597.139 197.257 597.199 193.939 598.798L162.36 614" fill="#FD3206"/>
<path d="M204.92 539.71C204.467 554.671 203.803 576.026 203.592 583.989L200.938 539.137C200.425 530.3 193.066 523.423 184.198 523.543C160.279 523.875 119.952 529.334 142.121 564.594C171.379 611.104 198.676 610.169 201.029 610.019V610.079C201.511 611.768 203.924 611.768 204.376 610.079V610.019C206.639 610.2 233.966 611.225 263.314 564.594C285.302 529.666 245.91 523.966 221.901 523.543C212.762 523.393 205.221 530.571 204.92 539.71Z" fill="#FD3206"/>
<path d="M398.589 263.122C398.589 263.122 383.659 304.234 343.483 331.319C343.483 331.319 382.724 291.143 393.914 253.802C393.914 253.802 417.26 194.021 388.304 133.304C359.348 72.5873 342.548 31.4762 349.063 2.52037C355.005 -23.8113 272.963 162.863 262.889 251.088C264.518 227.41 269.555 188.018 284.878 144.042C284.878 144.042 256.133 198.726 254.474 264.751C247.446 255.22 233.722 243.276 235.954 261.645C222.864 247.287 210.558 246.322 210.558 246.322C226.785 259.292 235.381 271.658 239.905 280.677C240.147 281.371 240.418 282.064 240.69 282.728C248.17 300.463 249.105 316.359 243.495 338.769C237.884 361.18 258.425 372.401 258.425 372.401C258.425 372.401 293.926 377.076 312.597 432.182C312.597 432.182 306.051 416.317 289.251 404.161C289.251 404.161 285.511 487.289 287.381 503.184C289.251 519.05 292.991 528.4 296.731 525.595C300.471 522.79 307.951 493.834 323.817 472.358C338.958 451.878 357.448 427.145 340.557 371.496C339.743 368.871 338.838 366.247 337.752 363.714C337.752 363.714 337.752 363.714 337.752 363.684C340.044 365.976 348.007 370.621 353.195 397.043C353.195 397.043 355.729 388.206 353.195 376.412C351.959 370.561 350.601 364.649 350.36 359.461C350.239 356.414 351.536 353.459 353.889 351.498C364.144 342.781 391.712 317.023 399.494 285.563C403.807 268.129 398.559 263.153 398.559 263.153L398.589 263.122ZM282.676 312.197C281.469 318.832 277.035 324.412 270.882 327.127L256.072 333.612L257.671 329.48C262.738 316.238 270.731 304.264 281.017 294.521L286.928 288.941L282.676 312.257V312.197Z" fill="#FD3206"/>
<path d="M166.854 261.675C169.086 243.306 155.392 255.251 148.334 264.782C146.675 198.757 117.931 144.072 117.931 144.072C133.253 188.049 138.29 227.441 139.919 251.118C129.845 162.894 47.8033 -23.7808 53.7452 2.55088C60.2904 31.5067 43.4599 72.6179 14.5041 133.335C-14.4517 194.051 8.89393 253.833 8.89393 253.833C20.1143 291.204 59.3252 331.35 59.3252 331.35C19.149 304.264 4.21862 263.153 4.21862 263.153C4.21862 263.153 -1.02942 268.13 3.28379 285.564C11.0657 317.023 38.6038 342.781 48.8891 351.498C51.2116 353.489 52.5385 356.415 52.4179 359.461C52.1766 364.619 50.8496 370.561 49.5828 376.412C47.0492 388.206 49.5828 397.044 49.5828 397.044C54.7707 370.621 62.7336 366.006 65.0259 363.684C65.0259 363.684 65.0259 363.684 65.0259 363.714C63.94 366.248 63.035 368.872 62.2206 371.496C45.3298 427.145 63.8194 451.879 78.9609 472.359C94.8262 493.834 102.306 522.79 106.047 525.595C109.787 528.4 113.527 519.05 115.397 503.185C117.267 487.319 113.527 404.162 113.527 404.162C96.7263 416.317 90.1811 432.182 90.1811 432.182C108.852 377.076 144.352 372.401 144.352 372.401C144.352 372.401 164.893 361.18 159.283 338.77C153.673 316.359 154.608 300.464 162.088 282.728C162.359 282.095 162.631 281.401 162.872 280.677C167.427 271.659 176.023 259.292 192.22 246.323C192.22 246.323 179.914 247.288 166.824 261.645L166.854 261.675ZM128.427 328.907C122.274 326.222 117.9 320.642 116.694 314.067L112.471 290.872L118.353 296.452C128.608 306.164 136.541 318.048 141.578 331.26L143.146 335.392L128.427 328.937V328.907Z" fill="#FD3206"/>
<path d="M237.796 612.492C237.796 612.492 278.364 617.68 283.552 576.086L237.796 612.492Z" fill="#FD3206"/>
<path d="M158.499 612.492C158.499 612.492 117.93 617.68 112.742 576.086L158.499 612.492Z" fill="#FD3206"/>
</svg>
