<svg width="30" height="45" viewBox="0 0 30 45" fill="none" xmlns="http://www.w3.org/2000/svg">
<g id="Group">
<path id="Vector" d="M12.52 44.77C13.67 43.74 14.99 43.14 14.77 43.27C15.02 43.12 15.33 43.12 15.57 43.27L17.81 44.66L15.57 43.66C15.33 43.55 15.05 43.56 14.81 43.67L12.52 44.77Z" fill="#808080"/>
<path id="Vector_2" d="M15.6101 39.39C15.5801 40.47 15.53 42.02 15.51 42.6L15.3201 39.35C15.2801 38.71 14.7501 38.21 14.1101 38.22C12.3801 38.24 9.46005 38.64 11.0601 41.19C13.1801 44.56 15.1501 44.49 15.3201 44.48C15.3501 44.61 15.5301 44.61 15.5601 44.48C15.7201 44.48 17.7001 44.56 19.8301 41.19C21.4201 38.66 18.5701 38.25 16.8301 38.22C16.1701 38.21 15.62 38.73 15.6 39.39H15.6101Z" fill="#808080"/>
<path id="Vector_3" d="M29.6298 19.37C29.6298 19.37 28.5498 22.35 25.6398 24.31C25.6398 24.31 28.4798 21.4 29.2898 18.7C29.2898 18.7 30.9798 14.37 28.8798 9.98001C26.7798 5.58001 25.5698 2.61 26.0398 0.510005C26.4698 -1.39999 20.5298 12.12 19.7998 18.51C19.9198 16.8 20.2798 13.95 21.3898 10.76C21.3898 10.76 19.3098 14.72 19.1898 19.5C18.6798 18.81 17.6898 17.95 17.8498 19.27C16.8998 18.23 16.0098 18.16 16.0098 18.16C17.1798 19.1 17.8098 19.99 18.1398 20.65C18.1598 20.7 18.1798 20.75 18.1998 20.8C18.7398 22.08 18.8098 23.23 18.3998 24.86C17.9898 26.48 19.4798 27.29 19.4798 27.29C19.4798 27.29 22.0498 27.63 23.3998 31.62C23.3998 31.62 22.9298 30.47 21.7098 29.59C21.7098 29.59 21.4398 35.61 21.5698 36.76C21.7098 37.91 21.9798 38.59 22.2498 38.38C22.5198 38.18 23.0598 36.08 24.2098 34.53C25.3098 33.05 26.6498 31.26 25.4198 27.23C25.3598 27.04 25.2998 26.85 25.2198 26.67C25.3898 26.84 25.9598 27.17 26.3398 29.08C26.3398 29.08 26.5198 28.44 26.3398 27.59C26.2498 27.17 26.1498 26.74 26.1398 26.36C26.1398 26.14 26.2298 25.93 26.3898 25.78C27.1298 25.15 29.1298 23.28 29.6898 21.01C29.9998 19.75 29.6198 19.39 29.6198 19.39L29.6298 19.37ZM21.2398 22.92C21.1498 23.4 20.8298 23.8 20.3898 24L19.3198 24.47L19.4298 24.17C19.7998 23.21 20.3698 22.35 21.1198 21.64L21.5498 21.23L21.2398 22.92Z" fill="#808080"/>
<path id="Vector_4" d="M12.85 19.26C13.01 17.93 12.02 18.79 11.51 19.49C11.39 14.71 9.31001 10.75 9.31001 10.75C10.42 13.93 10.78 16.79 10.9 18.5C10.17 12.11 4.23001 -1.4 4.66001 0.500003C5.13001 2.6 3.92001 5.57 1.82001 9.97C-0.279987 14.37 1.41001 18.69 1.41001 18.69C2.22001 21.39 5.06001 24.3 5.06001 24.3C2.15001 22.34 1.07001 19.36 1.07001 19.36C1.07001 19.36 0.690013 19.72 1.00001 20.98C1.56001 23.26 3.56001 25.12 4.30001 25.75C4.47001 25.89 4.56001 26.11 4.55001 26.33C4.53001 26.7 4.44001 27.13 4.35001 27.56C4.17001 28.41 4.35001 29.05 4.35001 29.05C4.73001 27.14 5.30001 26.8 5.47001 26.64C5.39001 26.82 5.33001 27.01 5.27001 27.2C4.05001 31.23 5.39001 33.02 6.48001 34.5C7.63001 36.06 8.17001 38.15 8.44001 38.35C8.71001 38.55 8.98001 37.88 9.12001 36.73C9.26001 35.58 8.98001 29.56 8.98001 29.56C7.76001 30.44 7.29001 31.59 7.29001 31.59C8.64001 27.6 11.21 27.26 11.21 27.26C11.21 27.26 12.7 26.45 12.29 24.83C11.88 23.21 11.95 22.06 12.49 20.77C12.51 20.72 12.53 20.67 12.55 20.62C12.88 19.97 13.5 19.07 14.68 18.13C14.68 18.13 13.79 18.2 12.84 19.24L12.85 19.26ZM10.07 24.13C9.63001 23.94 9.31001 23.53 9.22001 23.06L8.91001 21.38L9.33002 21.78C10.07 22.48 10.65 23.34 11.01 24.3L11.12 24.6L10.05 24.13H10.07Z" fill="#808080"/>
<path id="Vector_5" d="M17.9902 44.66C17.9902 44.66 20.9302 45.04 21.3002 42.02L17.9902 44.66Z" fill="#666666"/>
<path id="Vector_6" d="M12.2499 44.66C12.2499 44.66 9.30994 45.04 8.93994 42.02L12.2499 44.66Z" fill="#666666"/>
</g>
</svg>
