<svg width="634" height="268" viewBox="0 0 634 268" fill="none" xmlns="http://www.w3.org/2000/svg">
<path d="M20.01 58.38L0.72998 41.3V18.05L20.01 0.969971H101.53V25.11H31.3199L27.99 28.06V31.28L31.3199 34.23H41.54L47.1899 39.24L52.84 34.23H82.26L101.54 51.31V67.08H74.29V61.32L70.96 58.37H64.15L51.0699 69.14H43.25L30.24 58.37H20.02L20.01 58.38ZM101.53 72.64V79.7L82.25 96.78H0.72998V72.64H101.52H101.53Z" fill="url(#paint0_linear_7_1557)"/>
<path d="M136.34 0.97998V33.83L139.44 36.78H158.1V60.92H139.44L136.34 63.87V69.7L139.67 72.65H179.3L182.63 69.7V66.75H209.88V79.71L190.6 96.79H109.09V53.93L114.74 48.86L109.09 43.85V0.98996H136.34V0.97998ZM190.6 0.97998L209.88 18.06V31.02H182.63V28.07L179.3 25.12H142.53V0.97998H190.6Z" fill="url(#paint1_linear_7_1557)"/>
<path d="M242.06 96.78H232.85L213.57 79.64V61.95L219.22 56.94L213.57 51.93V18.12L232.85 0.97998H295.09L314.36 18.06V31.02H287.11V28.07L283.78 25.12H244.15L240.82 28.07V41.92L252.97 53.44V60.44L242.05 70.8V96.79L242.06 96.78ZM248.25 72.57C253.05 72.57 257.77 72.57 262.57 72.64H283.78L287.11 69.69V66.74H314.36V79.7L295.09 96.78H248.26V72.57H248.25Z" fill="url(#paint2_linear_7_1557)"/>
<path d="M346.86 25.05V25.46L359.01 36.98V43.98L346.86 55.5V96.72H319.61V45.49L325.26 40.48L319.61 35.47V0.909973H386.88V25.05H346.86ZM401.12 0.909973L420.4 17.99V47.62L401.12 64.7H383.55L382.39 65.66L383.55 66.69H401.12L420.4 83.77V96.73H393.15V93.78L389.82 90.83H372.25L352.97 73.75V57.63L372.25 40.55H389.82L393.15 37.6V0.909973H401.12Z" fill="url(#paint3_linear_7_1557)"/>
<path d="M455.21 0.97998V33.83L458.31 36.78H476.97V60.92H458.31L455.21 63.87V69.7L458.54 72.65H525.75L529.08 69.7V66.75H556.33V79.71L537.05 96.79H427.96V53.93L433.61 48.86L427.96 43.85V0.98996H455.21V0.97998ZM509.47 0.97998L528.75 18.06V31.02H501.5V28.07L498.17 25.12H461.4V0.97998H509.47Z" fill="url(#paint4_linear_7_1557)"/>
<path d="M531.67 0.909973H632.54V25.05H531.67V0.909973ZM595.92 43.77L590.27 48.78L595.92 53.85V96.71H568.67V63.79L556.6 52.27V45.34L568.67 33.75V30.53H595.92V43.77Z" fill="url(#paint5_linear_7_1557)"/>
<path d="M52.7798 229.97H91.4998L96.7397 225.33V154.9C104.65 148.43 112.45 141.96 120.24 135.48C127.55 129.44 134.85 123.29 142.28 117.25H154.58C159.45 121.24 164.32 125.23 169.07 129.22C179.42 137.74 189.77 146.37 200.12 154.89V225.32L205.36 229.96H244.2L249.44 225.32V216.15L230.32 198.03V187.03L249.44 168.91V117.25H292.3V184.66L283.29 192.53L292.3 200.4V241.06L261.86 267.92H187.6L157.28 241.06V172.14L148.39 164.27L139.62 172.04V241.07L109.31 267.93H35.0398L4.71973 241.07V200.41L13.6097 192.54L4.71973 184.67V117.26H47.5797V168.92L66.6997 187.04V198.04L47.5797 216.16V225.33L52.8197 229.97H52.7798Z" fill="url(#paint6_linear_7_1557)"/>
<path d="M410.09 224.47L389.63 241.4H377.21L356.76 224.47H347.02V267.94H304.16V144.12L334.48 117.26H432.36L462.68 144.12V267.94H419.82V224.47H410.08H410.09ZM374.54 186.5L383.43 194.37L392.32 186.5H419.84V159.86L414.6 155.22H352.26L347.02 159.86V186.5H374.54Z" fill="url(#paint7_linear_7_1557)"/>
<path d="M585.01 155.23H517.44V155.88L536.55 174V185L517.44 203.12V267.94H474.58V187.37L483.47 179.5L474.58 171.63V117.27H602.78L633.1 144.13V190.72L602.78 217.58H575.14L573.31 219.09L575.14 220.71H602.78L633.1 247.57V267.96H590.24V263.32L585 258.68H557.36L527.04 231.82V206.47L557.36 179.61H585L590.24 174.97V159.87L585 155.23H585.01Z" fill="url(#paint8_linear_7_1557)"/>
<defs>
<linearGradient id="paint0_linear_7_1557" x1="620.03" y1="617.78" x2="118.04" y2="115.79" gradientUnits="userSpaceOnUse">
<stop stop-color="#FBB03B"/>
<stop offset="0.25" stop-color="#FC7B29"/>
<stop offset="0.61" stop-color="#FD3913"/>
<stop offset="0.86" stop-color="#FE0F05"/>
<stop offset="1" stop-color="#FF0000"/>
</linearGradient>
<linearGradient id="paint1_linear_7_1557" x1="669.94" y1="567.87" x2="167.95" y2="65.8798" gradientUnits="userSpaceOnUse">
<stop stop-color="#FBB03B"/>
<stop offset="0.25" stop-color="#FC7B29"/>
<stop offset="0.61" stop-color="#FD3913"/>
<stop offset="0.86" stop-color="#FE0F05"/>
<stop offset="1" stop-color="#FF0000"/>
</linearGradient>
<linearGradient id="paint2_linear_7_1557" x1="726.46" y1="511.34" x2="224.48" y2="9.35978" gradientUnits="userSpaceOnUse">
<stop stop-color="#FBB03B"/>
<stop offset="0.25" stop-color="#FC7B29"/>
<stop offset="0.61" stop-color="#FD3913"/>
<stop offset="0.86" stop-color="#FE0F05"/>
<stop offset="1" stop-color="#FF0000"/>
</linearGradient>
<linearGradient id="paint3_linear_7_1557" x1="775.23" y1="462.58" x2="273.24" y2="-39.4102" gradientUnits="userSpaceOnUse">
<stop stop-color="#FBB03B"/>
<stop offset="0.25" stop-color="#FC7B29"/>
<stop offset="0.61" stop-color="#FD3913"/>
<stop offset="0.86" stop-color="#FE0F05"/>
<stop offset="1" stop-color="#FF0000"/>
</linearGradient>
<linearGradient id="paint4_linear_7_1557" x1="829.37" y1="408.43" x2="327.39" y2="-93.55" gradientUnits="userSpaceOnUse">
<stop stop-color="#FBB03B"/>
<stop offset="0.25" stop-color="#FC7B29"/>
<stop offset="0.61" stop-color="#FD3913"/>
<stop offset="0.86" stop-color="#FE0F05"/>
<stop offset="1" stop-color="#FF0000"/>
</linearGradient>
<linearGradient id="paint5_linear_7_1557" x1="894.8" y1="343.01" x2="392.81" y2="-158.98" gradientUnits="userSpaceOnUse">
<stop stop-color="#FBB03B"/>
<stop offset="0.25" stop-color="#FC7B29"/>
<stop offset="0.61" stop-color="#FD3913"/>
<stop offset="0.86" stop-color="#FE0F05"/>
<stop offset="1" stop-color="#FF0000"/>
</linearGradient>
<linearGradient id="paint6_linear_7_1557" x1="603.55" y1="634.25" x2="101.57" y2="132.27" gradientUnits="userSpaceOnUse">
<stop stop-color="#FBB03B"/>
<stop offset="0.25" stop-color="#FC7B29"/>
<stop offset="0.61" stop-color="#FD3913"/>
<stop offset="0.86" stop-color="#FE0F05"/>
<stop offset="1" stop-color="#FF0000"/>
</linearGradient>
<linearGradient id="paint7_linear_7_1557" x1="707.6" y1="530.2" x2="205.62" y2="28.2199" gradientUnits="userSpaceOnUse">
<stop stop-color="#FBB03B"/>
<stop offset="0.25" stop-color="#FC7B29"/>
<stop offset="0.61" stop-color="#FD3913"/>
<stop offset="0.86" stop-color="#FE0F05"/>
<stop offset="1" stop-color="#FF0000"/>
</linearGradient>
<linearGradient id="paint8_linear_7_1557" x1="792.81" y1="445" x2="290.82" y2="-56.99" gradientUnits="userSpaceOnUse">
<stop stop-color="#FBB03B"/>
<stop offset="0.25" stop-color="#FC7B29"/>
<stop offset="0.61" stop-color="#FD3913"/>
<stop offset="0.86" stop-color="#FE0F05"/>
<stop offset="1" stop-color="#FF0000"/>
</linearGradient>
</defs>
</svg>
