<svg width="61" height="115" viewBox="0 0 61 115" fill="none" xmlns="http://www.w3.org/2000/svg">
<path d="M61.0072 109.655C59.4184 110.105 57.7929 110.335 56.149 110.335C54.7806 110.335 53.4121 110.271 52.0437 110.243C51.8601 110.243 51.7315 110.197 51.5937 110.013C51.4468 109.82 51.0978 109.839 50.8682 109.967C50.5101 110.179 50.1519 110.087 49.7937 110.059C49.757 110.059 49.6927 110.05 49.6835 110.023C49.509 109.729 49.2702 109.839 49.0406 109.903C48.9488 109.931 48.8477 109.94 48.7559 109.931C48.0855 109.876 47.4243 109.811 46.7538 109.756C46.1569 109.701 45.56 109.637 44.9538 109.591C44.0538 109.527 43.1538 109.481 42.2537 109.416C41.969 109.398 41.6844 109.334 41.3997 109.288C41.317 109.279 41.216 109.26 41.1701 109.205C40.9313 108.893 40.6099 108.985 40.2976 109.003C40.1507 109.012 40.0037 109.049 39.8476 109.067C39.6272 109.086 39.4711 109.021 39.3517 108.792C39.1221 108.333 38.6353 108.333 38.2129 108.278C37.9649 108.241 37.6986 108.314 37.4414 108.36C36.8353 108.489 36.3944 108.112 36.2567 107.506C36.0087 106.45 36.1465 105.385 36.0638 104.329C36.0271 103.869 36.0822 103.401 36.1098 102.942C36.1098 102.85 36.1373 102.703 36.1924 102.675C36.569 102.501 36.5047 102.134 36.569 101.831C36.6241 101.583 36.6332 101.325 36.771 101.087C36.872 100.921 36.8904 100.728 36.7618 100.545C36.6975 100.444 36.67 100.315 36.6241 100.205C36.4863 99.8468 36.3026 99.5162 35.972 99.2866C34.6954 98.4233 34.3832 97.1284 34.4383 95.6957C34.4658 95.163 34.7322 94.9518 35.2648 94.9518C35.3842 94.9518 35.5128 94.961 35.6322 94.9518C36.0271 94.9334 36.073 94.9518 36.174 95.3283C36.2383 95.5763 36.4312 95.6773 36.6057 95.7875C36.771 95.8977 36.8445 95.9896 36.7802 96.2192C36.6791 96.5682 36.9363 96.7978 37.1384 97.0366C37.2026 97.1192 37.3128 97.1743 37.4047 97.2478C37.6802 97.1467 37.9557 97.0549 38.268 96.9447C38.2771 96.8896 38.3139 96.8161 38.3047 96.7427C38.2771 95.2549 38.0567 93.8038 37.3863 92.4446C36.9455 91.5446 36.6332 90.5986 36.4312 89.616C36.3853 89.3956 36.3026 89.1752 36.22 88.9088C36.0271 88.9731 35.871 89.0098 35.7332 89.0833C35.1822 89.3772 34.6312 89.6895 34.0893 90.0017C34.0526 90.0201 34.0158 90.0476 33.9975 90.0752C33.8046 90.3599 33.5107 90.4242 33.2077 90.4242C32.1607 90.4058 31.3893 89.9099 30.8474 89.0282C30.6821 88.7527 30.7188 88.6884 31.0219 88.5323C31.0494 88.3853 31.0586 88.2476 31.1045 88.1374C31.3158 87.6231 31.3433 87.0996 31.178 86.567C30.8015 85.3363 30.2321 84.2067 29.4239 83.2057C29.0014 82.6822 28.4504 82.4618 27.7892 82.5628C27.3851 82.6271 26.9902 82.7189 26.6136 82.7832C26.3014 83.2791 26.3381 83.821 26.283 84.3444C26.2371 84.7485 26.2555 85.171 26.1728 85.5659C26.0442 86.1812 26.1544 86.7598 26.3106 87.3476C26.4391 87.8251 26.5402 88.2935 26.5034 88.7986C26.4667 89.267 26.2187 89.5792 25.8789 89.8548C25.8238 89.8915 25.7412 89.9099 25.7136 89.9558C25.4565 90.3599 25.0524 90.369 24.6575 90.3048C24.3636 90.2588 24.0973 90.2956 23.8126 90.3691C22.6921 90.6446 21.5625 90.8374 20.4054 90.8466C20.2676 90.8466 20.1298 90.8466 19.9829 90.8466C19.9461 90.9017 19.891 90.9568 19.8727 91.0119C19.2298 92.6007 18.5778 94.1804 17.9624 95.7692C17.6869 96.4855 17.4941 97.2294 17.2277 97.9457C17.0624 98.3866 17.2094 98.7264 17.4849 99.0294C17.8339 99.4152 18.0267 99.8652 18.1828 100.343C18.2931 100.664 18.3757 100.995 18.4675 101.325C18.5869 101.757 18.6971 102.198 18.9818 102.565C19.0737 102.685 19.1104 102.841 19.1747 102.969C19.3676 103.373 19.5421 103.796 19.7625 104.191C20.1115 104.797 20.5247 105.366 20.8462 105.982C21.2594 106.781 21.7738 107.497 22.334 108.177C22.6003 108.498 22.7013 108.819 22.7289 109.205C22.7289 109.233 22.7289 109.26 22.7472 109.288C23.1421 110.188 22.9676 111.152 23.0595 112.08C23.1329 112.787 22.7748 113.246 22.1962 113.586C21.6176 113.926 20.9931 114.109 20.3411 114.22C19.7349 114.321 19.1196 114.348 18.5135 114.412C18.3482 114.431 18.1828 114.449 18.0359 114.504C17.6777 114.624 17.3196 114.679 16.9522 114.587C16.8512 114.559 16.7318 114.559 16.6308 114.559C15.9695 114.559 15.3267 114.504 14.7022 114.265C14.6011 114.229 14.4818 114.247 14.3807 114.247C13.6552 114.265 12.9389 114.201 12.2317 114.027C11.6256 113.871 11.0011 113.797 10.3766 113.687C10.1745 113.65 9.98166 113.595 9.83472 113.421C9.77044 113.347 9.64185 113.338 9.54083 113.292C9.09082 113.099 8.63164 112.915 8.2 112.695C7.95203 112.576 7.85102 112.309 7.8051 112.052C7.76836 111.823 7.65816 111.648 7.49285 111.492C7.36427 111.373 7.2265 111.253 7.09792 111.134C6.58363 110.675 6.57446 110.684 6.34487 110.059C6.28976 109.922 6.2622 109.765 6.27138 109.618C6.28056 108.774 6.28056 107.919 6.32648 107.075C6.36322 106.487 6.44589 105.908 6.54691 105.33C6.58365 105.128 6.70303 104.925 6.82242 104.751C6.93262 104.595 7.10712 104.503 7.3459 104.613C7.37346 104.393 7.39183 104.218 7.4102 104.044C7.4653 103.53 7.53876 103.015 7.8051 102.547C7.8602 102.446 7.86939 102.317 7.86939 102.198C7.86939 101.656 7.86937 101.105 7.85101 100.563C7.85101 100.508 7.83265 100.444 7.8051 100.416C7.56632 100.168 7.52958 99.8376 7.5204 99.5346C7.50203 98.8917 7.5204 98.2488 7.5755 97.6151C7.59387 97.3764 7.71326 97.1468 7.83265 96.9263C7.99796 96.6325 8.24591 96.4304 8.62245 96.4212C9.10001 96.412 9.57757 96.3753 10.0551 96.3661C10.3582 96.3661 10.5419 96.5222 10.6062 96.8161C10.6888 97.1743 10.7807 97.5325 10.8725 97.9366C10.9276 97.8631 10.9827 97.808 11.0103 97.7529C11.3041 97.11 11.4052 96.4212 11.4694 95.7232C11.5705 94.5753 11.6439 93.4273 11.7266 92.2885C11.8092 91.1497 12.0205 90.0384 12.3144 88.9364C12.3603 88.7803 12.3878 88.6149 12.4154 88.468C12.1123 88.1833 11.8276 87.9078 11.5337 87.6506C11.4144 87.5404 11.2674 87.4578 11.1297 87.3751C10.8725 87.2006 10.5694 87.0812 10.5052 86.7231C10.4868 86.6404 10.3857 86.5853 10.3123 86.5118C10.2021 86.3924 10.0735 86.2822 9.97247 86.1629C9.81635 85.97 9.81637 85.8781 10.0184 85.7128C10.3307 85.4465 10.6613 85.1985 10.9735 84.9322C11.2123 84.7302 11.2398 84.5557 11.0929 84.2802C10.9919 84.0873 10.8633 84.0414 10.6521 84.124C10.5786 84.1516 10.5051 84.1975 10.4317 84.2251C10.0184 84.3995 9.63268 84.3536 9.26533 84.0873C9.04491 83.922 8.84286 83.7475 8.62245 83.573C8.39285 83.6281 8.30102 83.7842 8.29184 83.9955C8.23674 84.7485 7.81426 85.1618 7.09792 85.2996C6.85914 85.3455 6.6112 85.4098 6.37242 85.4098C5.98669 85.4098 5.82138 85.3087 5.36219 84.9689C5.31627 85.2445 5.26117 85.4924 5.25198 85.7312C5.25198 86.0159 5.11423 86.1904 4.88464 86.319C4.29687 86.6404 3.7091 86.9618 3.13051 87.3017C2.9101 87.4302 2.70805 87.5955 2.49683 87.7516C2.3958 87.8251 2.32232 87.9262 2.22129 87.9996C1.86312 88.2568 1.46823 88.2568 1.11925 87.9904C0.788627 87.7333 0.660038 87.32 0.788612 86.9251C0.908003 86.5853 1.12842 86.4016 1.48659 86.42C1.70701 86.42 1.8815 86.3557 2.05599 86.2455C2.506 85.9608 2.9652 85.6853 3.41521 85.4006C3.55297 85.3179 3.72746 85.2536 3.67236 85.0332C3.61726 84.8128 3.65398 84.5189 3.37847 84.4455C2.95601 84.3261 2.86416 84.0138 2.79069 83.6465C2.71722 83.2699 2.62538 82.9026 2.53354 82.5352C2.50599 82.425 2.47846 82.324 2.46927 82.2138C2.45091 81.4607 2.44172 80.7076 2.44172 79.9638C2.44172 79.6331 2.60703 79.3668 2.90092 79.1831C2.9101 79.1831 2.91927 79.1647 2.93763 79.1647C3.63561 78.8341 3.93868 78.2464 4.09481 77.5208C4.30604 76.5565 4.59991 75.6198 5.0591 74.7381C5.10502 74.6463 5.14177 74.5361 5.18769 74.4167C5.04075 74.2698 4.89381 74.1228 4.75605 73.9759C4.31522 73.5075 4.26929 73.1677 4.57236 72.6075C4.68257 72.4054 4.81116 72.2126 4.93974 72.0105C5.09586 71.7626 5.1234 71.5146 4.98564 71.2391C4.57237 70.4217 4.26931 69.5584 4.0489 68.6584C3.77338 67.5472 3.81929 66.4635 4.20501 65.3889C4.3795 64.893 4.71014 64.5808 5.19688 64.443C5.42648 64.3787 5.54585 64.2777 5.61014 64.0573C5.64688 63.9379 5.73872 63.8185 5.82138 63.7175C6.14281 63.341 6.33566 62.9552 6.35403 62.4317C6.39995 61.0358 6.80406 59.7409 7.66734 58.6113C7.89694 58.3082 8.09897 57.9776 8.3102 57.6653C8.38367 57.5551 8.42041 57.4082 8.60409 57.4266C8.65001 57.4266 8.72348 57.298 8.75103 57.2245C8.85206 56.8296 8.95307 56.4255 9.02654 56.0214C9.33879 54.4693 10.0276 53.0734 10.7623 51.6958C11.4511 50.4101 12.1307 49.106 12.8103 47.811C12.8287 47.7743 12.8379 47.7376 12.8562 47.6733C12.7827 47.6274 12.7093 47.5723 12.6266 47.5263C11.6531 46.9753 11.3409 46.0294 11.4878 45.01C11.5796 44.3304 11.7266 43.6691 11.9562 43.0171C12.048 42.7507 11.9929 42.4293 11.9745 42.1262C11.947 41.6762 11.8919 41.2262 11.8735 40.7762C11.8644 40.4272 11.9378 40.3813 12.296 40.4364C12.498 40.464 12.7093 40.464 12.9021 40.5191C13.297 40.6384 13.5266 40.3997 13.7287 40.1425C13.7838 40.069 13.8021 39.9313 13.7838 39.8395C13.7011 39.4078 13.9124 39.1323 14.2614 38.9302C14.6746 38.6915 15.1063 38.4803 15.5195 38.2323C15.8134 38.0578 16.0981 37.8741 16.3277 37.571C16.2083 37.47 16.0981 37.3874 15.9971 37.3047C15.5195 36.8914 15.042 36.4874 14.5828 36.0557C14.4358 35.918 14.3164 35.918 14.142 35.9363C13.6185 36.0098 13.0858 36.0833 12.5531 36.1292C10.8817 36.2577 9.38472 35.771 8.08979 34.724C6.74895 33.6403 5.90404 32.2444 5.65608 30.527C5.48158 29.2872 5.67443 28.1208 6.52853 27.1382C7.07037 26.5137 7.75917 26.1463 8.57654 26.0361C9.00818 25.9718 9.43981 25.9167 9.91737 25.8432C9.91737 25.7606 9.95411 25.6504 9.94492 25.5494C9.81635 24.7412 9.68779 23.9238 9.55922 23.1156C9.53167 22.9595 9.47655 22.8585 9.29288 22.8126C8.85205 22.684 8.82449 22.6473 8.82449 22.1789C8.82449 21.7289 8.80614 21.2881 8.92553 20.838C9.01737 20.4982 9.01735 20.1309 9.05409 19.7819C9.28368 17.7706 9.76125 15.8236 10.6337 13.9869C10.6888 13.8767 10.7256 13.7665 10.7807 13.6287C10.4317 13.4818 10.0919 13.3991 9.74288 13.3532C9.54083 13.3257 9.3388 13.2981 9.12757 13.2797C8.96227 13.2614 8.89797 13.1787 8.88879 13.0134C8.87042 12.5909 9.05411 12.2511 9.27452 11.9205C9.59595 11.4521 10.0551 11.1215 10.5143 10.7909C10.6245 10.7082 10.7347 10.6348 10.845 10.5521C10.799 10.3501 10.7348 10.1664 10.7072 9.97353C10.6521 9.5878 10.8174 9.41332 11.2123 9.41332C11.6439 9.41332 12.0756 9.41332 12.5072 9.41332C13.2787 9.39496 13.9307 9.05515 14.546 8.63269C15.2899 8.12758 15.8777 7.45716 16.3736 6.71326C16.7777 6.10713 17.1726 5.51018 17.5767 4.90404C18.1645 4.02239 18.9176 3.31523 19.7717 2.71828C19.9186 2.61726 20.0747 2.52542 20.24 2.46113C20.4972 2.36929 20.6717 2.4795 20.7084 2.74583C20.7451 2.99379 20.7635 3.24176 20.7819 3.48972C20.8095 3.86626 20.8278 4.2428 20.8645 4.6928C21.0666 4.59178 21.2319 4.50915 21.3972 4.42649C21.6452 4.28873 21.9023 4.2428 22.187 4.27035C22.4717 4.28872 22.7564 4.27953 23.0411 4.26116C23.3075 4.23361 23.5554 4.21524 23.7758 4.49076C23.8768 4.28871 23.9503 4.1326 24.033 3.98566C24.1707 3.73769 24.3177 3.65504 24.5656 3.78361C25.0708 4.04076 25.5391 3.93973 26.0167 3.71932C27.2198 3.1591 28.4228 2.60807 29.6259 2.05704C29.727 2.01112 29.828 1.97438 29.929 1.93765C30.0943 1.88254 30.2229 1.79989 30.3515 1.65295C30.5076 1.46927 30.6545 1.17541 31.0219 1.38664C31.1229 1.44174 31.3801 1.33152 31.4994 1.2305C31.8025 0.973351 32.1332 0.872324 32.5189 0.881507C32.5556 0.881507 32.5923 0.853967 32.6474 0.835599C32.6291 0.716209 32.6199 0.606007 32.6015 0.495801C33.0699 0.238653 33.1617 0.247824 33.5107 0.56926C33.7771 0.817224 33.9424 1.12949 34.0526 1.46929C34.172 1.83664 34.273 2.204 34.4016 2.56217C34.6863 3.36117 35.0536 3.62748 35.8893 3.48972C36.6057 3.37033 37.3037 3.48973 38.0016 3.55401C38.167 3.5632 38.3322 3.65504 38.5067 3.67341C39.82 3.77443 41.0599 4.17852 42.2721 4.6469C42.5844 4.76629 42.8875 4.94996 43.1722 5.13364C43.3742 5.26221 43.4752 5.43669 43.4201 5.72139C43.3742 5.99691 43.3283 6.28163 43.3099 6.54796C43.2823 6.84185 43.466 7.16328 43.5763 7.46635C43.5946 7.51227 43.7323 7.51227 43.8242 7.52145C43.9619 7.53063 44.0997 7.50307 44.2283 7.53981C44.5313 7.61328 44.8344 7.68676 45.1191 7.80615C45.9089 8.13677 46.6896 8.50413 47.4794 8.84393C48.2692 9.18373 49.0682 9.49596 49.8672 9.82658C50.1427 9.94597 50.4182 10.0562 50.6846 10.2031C51.2172 10.4878 51.3641 11.0021 51.0152 11.498C50.8131 11.7827 50.5468 12.0307 50.2896 12.2695C50.0968 12.444 49.8856 12.6001 49.6652 12.7379C49.4631 12.8665 49.3529 13.0318 49.3713 13.3073C49.5458 13.4175 49.7202 13.5369 49.9039 13.6563C49.9682 13.7022 50.0692 13.7389 50.0968 13.8032C50.2529 14.1338 50.5559 14.2991 50.8223 14.5104C51.0427 14.6848 51.0611 14.9145 51.0427 15.1257C51.0336 15.2543 50.8315 15.4012 50.6937 15.4838C50.5376 15.5757 50.4458 15.6492 50.3999 15.8328C50.3356 16.0992 50.1335 16.191 49.858 16.1359C49.7478 16.1175 49.6468 16.0808 49.5366 16.0624C49.4447 16.0441 49.3529 16.0349 49.2243 16.0165C49.2702 16.2737 49.1875 16.4573 48.9855 16.5767C48.7835 16.6869 48.7743 16.8614 48.8202 17.0727C48.9671 17.7155 49.1233 18.3492 49.2243 19.0013C49.3804 19.9472 49.509 20.8932 49.6376 21.8115C49.3896 22.0503 49.1692 22.234 48.9764 22.4544C48.9029 22.537 48.8845 22.684 48.8753 22.8034C48.6916 24.1075 48.5263 25.4024 48.3335 26.7065C48.2876 26.982 48.3518 27.1198 48.5814 27.2668C48.912 27.4872 49.1876 27.7719 49.4907 28.029C49.6009 28.13 49.7019 28.2402 49.8305 28.3229C50.1794 28.5433 50.1794 28.5433 50.1611 28.9198C50.3356 28.9933 50.5284 29.0392 50.6662 29.1494C50.7947 29.2505 50.8774 29.4341 50.9692 29.5811C51.2539 30.0311 51.5387 30.4811 51.8325 30.9311C52.1999 31.5005 52.4203 32.1342 52.6223 32.7679C52.6683 32.924 52.7326 33.0709 52.806 33.2179C53.0264 33.7138 53.2836 34.2006 53.4764 34.7149C53.9173 35.8996 53.6969 37.0016 53.0356 38.0394C52.7785 38.4435 52.5121 38.8384 52.255 39.2425C51.8876 39.8119 51.8784 40.3997 52.1631 40.9966C52.2182 41.1068 52.3468 41.1987 52.457 41.2446C52.6866 41.3364 52.9254 41.3915 53.1642 41.465C54.2112 41.8048 54.5142 43.063 53.7244 43.8344C53.6418 43.9171 53.5683 44.0273 53.4948 44.1191C53.3754 44.2661 53.2285 44.3487 53.0172 44.3304C52.9162 44.064 53.0356 43.8161 53.1091 43.5773C53.1734 43.3569 53.1091 43.2467 52.9621 43.1181C52.6774 42.8701 52.3376 42.7324 51.9795 42.6405C51.6488 42.5579 51.3183 42.4844 50.9876 42.3926C50.6111 42.2915 50.3264 42.0711 50.1519 41.7221C50.0876 41.5844 49.9957 41.465 50.0876 41.2997C50.1059 41.263 50.1151 41.1803 50.0876 41.1436C49.8304 40.7762 49.8305 40.3721 49.8397 39.9405C49.8397 39.7017 49.7937 39.4537 49.7294 39.2149C49.5182 38.3057 49.6651 37.4516 50.1152 36.6435C50.2988 36.3037 50.3723 35.9639 50.3448 35.5781C50.2988 35.0455 50.2804 34.5128 50.2529 33.9802C50.2437 33.7597 50.2254 33.5485 50.0141 33.3465C49.9407 33.4934 49.8764 33.622 49.8121 33.7506C49.16 35.0271 48.2325 36.0373 46.9008 36.6435C46.3498 36.8914 45.762 37.0476 45.1558 37.0568C44.9354 37.0568 44.7793 37.1394 44.614 37.2955C43.512 38.3608 42.2629 39.215 40.8027 39.7201C40.7292 39.7476 40.6466 39.7752 40.5731 39.8119C40.2976 39.9405 40.2517 40.069 40.4262 40.317C40.5639 40.5007 40.5731 40.6568 40.4629 40.8497C40.4262 40.914 40.417 40.9966 40.3803 41.116C40.4996 41.1344 40.5915 41.1711 40.665 41.1436C40.9497 41.0609 41.2343 40.9507 41.519 40.8497C41.6109 40.8221 41.6935 40.767 41.7854 40.7578C42.0976 40.7119 42.263 40.8129 42.3089 41.1252C42.3364 41.2813 42.3272 41.4558 42.2813 41.6027C42.1435 42.016 42.2446 42.3834 42.4558 42.7324C42.6762 43.0905 42.8874 43.4671 43.0803 43.8436C43.1905 44.064 43.264 44.2936 43.3467 44.5324C43.466 44.863 43.3742 45.1569 43.1538 45.4049C42.8232 45.7814 42.4007 46.0294 41.9048 46.1488C41.7946 46.1763 41.6752 46.2314 41.6017 46.3141C41.3905 46.5069 41.3813 46.608 41.565 46.8376C42.1986 47.6366 42.713 48.509 43.163 49.4182C43.9895 51.0713 45.0365 52.5683 46.1569 54.0193C46.46 54.4051 46.7997 54.7724 47.1487 55.1122C47.5987 55.5531 47.8927 56.0673 47.9937 56.6735C48.2416 58.2255 49.0223 59.548 49.7478 60.898C49.8764 61.1368 50.0692 61.2838 50.3448 61.348C50.7397 61.4491 51.1254 61.596 51.5203 61.7154C52.0346 61.8807 52.3468 62.2297 52.4754 62.744C52.6407 63.3869 52.6958 64.0389 52.5213 64.691C52.4846 64.8104 52.457 64.9298 52.4478 65.0491C52.3835 65.4992 52.4295 65.5635 52.8611 65.7563C53.1734 65.8941 53.3571 66.142 53.4397 66.4635C53.6326 67.189 53.5591 67.8686 53.0723 68.4839C52.8244 68.7962 52.7417 69.2002 52.705 69.586C52.6958 69.7329 52.7785 69.9074 52.8703 70.036C53.1183 70.3942 53.3846 70.7432 53.6417 71.0921C53.7979 71.2942 53.8805 71.5146 53.8621 71.7809C53.8529 71.9922 53.7979 72.1667 53.6417 72.332C53.3387 72.6259 53.3479 72.6626 53.5958 72.9748C54.2571 73.7922 54.5142 74.7657 54.7346 75.7575C54.8907 76.4647 55.0469 77.1718 55.1846 77.879C55.2213 78.0535 55.2122 78.228 55.203 78.4025C55.1387 79.1647 55.0468 79.927 55.0101 80.6893C54.9917 81.0842 54.9183 81.4423 54.7071 81.7821C54.5601 82.0117 54.4132 82.2413 54.2662 82.4709C54.0274 82.8567 53.6693 82.9944 53.2468 82.921C52.9897 82.875 52.806 82.9209 52.6223 83.1046C52.3101 83.3893 51.906 83.426 51.5386 83.325C51.107 83.2148 50.657 83.2148 50.2254 83.123C50.0968 83.0955 49.959 83.0495 49.8305 83.0128C49.5825 82.9393 49.3437 82.875 49.059 82.8658C48.2875 82.8475 47.2774 81.9107 47.8835 80.8546C48.0396 80.5791 48.2967 80.3495 48.5263 80.1199C48.6641 79.9729 48.8478 79.8627 48.9947 79.725C49.2978 79.4494 49.3069 79.229 49.0498 78.8525C49.0039 78.8525 48.9488 78.8525 48.9029 78.88C48.4529 79.1739 47.9569 79.2107 47.4426 79.1923C46.7171 79.1647 46.3038 78.7974 46.2946 78.0719C46.2946 77.0617 46.3314 76.0514 46.3773 75.0412C46.3865 74.7932 46.4967 74.5453 46.5702 74.2606C46.4508 74.233 46.3498 74.1963 46.2487 74.1779C46.1385 74.1595 46.0283 74.1412 45.9273 74.1228C45.2661 73.9942 45.0824 73.7463 45.0916 73.085C45.0916 72.6993 45.0732 72.3228 45.0916 71.937C45.1007 71.6248 44.9354 71.4228 44.6967 71.2666C44.513 71.1472 44.3293 71.0187 44.1273 70.9452C43.613 70.7707 43.4477 70.3574 43.3467 69.8891C43.3375 69.8248 43.3191 69.7697 43.3007 69.6595C43.1354 69.8064 42.9793 69.9074 42.8783 70.036C42.814 70.1187 42.814 70.2564 42.8232 70.3758C42.8783 71.0003 42.9701 71.6248 42.9885 72.2493C43.0068 72.782 42.8599 73.3054 42.6487 73.8014C42.4007 74.3708 41.9691 74.7473 41.3721 75.0136C41.4456 75.2616 41.5007 75.4912 41.5833 75.7208C41.9231 76.6759 42.2721 77.6219 42.6211 78.577C42.6487 78.6505 42.667 78.7423 42.7129 78.8066C42.9425 79.1005 43.0068 79.3943 42.814 79.7525C42.7681 79.8352 42.8507 80.0097 42.915 80.1107C43.016 80.2576 43.1538 80.3862 43.3099 80.5515C43.3191 80.5515 43.3834 80.5331 43.466 80.5056C43.8518 81.0566 44.2099 81.6352 44.4671 82.2689C44.6048 82.6087 44.7334 82.9577 44.862 83.3067C44.8987 83.3893 44.9355 83.5179 44.9997 83.5363C45.4497 83.6648 45.5599 84.0873 45.7987 84.3995C45.9457 84.5924 46.0742 84.8128 46.1936 85.024C46.3314 85.2628 46.3222 85.3363 46.111 85.5108C46.0192 85.5934 45.9181 85.6669 45.8171 85.7312C45.6334 85.8598 45.5232 86.0343 45.4497 86.2547C45.3487 86.5486 45.211 86.8333 45.064 87.1088C44.8895 87.4302 44.5865 87.5404 44.2467 87.5772C43.9528 87.6139 43.6589 87.6598 43.3191 87.7057C43.365 88.1833 43.4201 88.6149 43.4477 89.0466C43.4844 89.616 43.512 90.1946 43.512 90.764C43.512 92.463 43.6497 94.1528 44.0538 95.8151C44.063 95.8518 44.0905 95.8886 44.1181 95.9345C44.5589 95.8243 45.0089 95.7692 45.3854 95.4385C45.7712 95.0987 46.2395 94.86 46.7446 94.6946C47.2222 94.5385 47.6538 94.5844 48.0671 94.8691C48.1957 94.961 48.3151 95.0896 48.508 95.0253C48.5539 95.0069 48.6641 95.1171 48.7192 95.1814C48.8661 95.3926 49.0039 95.613 49.16 95.8702C49.0865 95.9436 48.9947 96.0355 48.8937 96.1273C48.5723 96.4304 48.5723 96.5039 48.8937 96.8253C49.0131 96.9355 49.1508 97.0274 49.2794 97.1284C49.5641 97.358 49.858 97.5784 50.1335 97.8263C50.3723 98.0468 50.5835 98.3039 50.905 98.4325C50.9692 98.46 51.0243 98.5427 51.0519 98.607C51.1621 98.8733 51.208 98.8917 51.5019 98.9009C51.7591 98.9009 52.0254 98.9009 52.2733 98.9652C52.5948 99.0295 52.7876 99.2315 52.8978 99.5713C52.9713 99.8101 53.2285 99.8376 53.4672 99.856C53.7887 99.8835 54.1193 99.9203 54.4407 99.9754C54.606 100.003 54.7714 100.067 54.8724 100.251C54.9183 100.343 55.0653 100.389 55.1755 100.416C55.3316 100.453 55.4969 100.471 55.6622 100.48C56.351 100.499 56.7367 100.912 57.1133 101.537C57.3612 101.573 57.6918 101.61 58.0316 101.665C58.5735 101.757 59.0786 101.959 59.5745 102.207C60.1164 102.483 60.5848 102.85 60.9062 103.373V109.701L61.0072 109.655ZM28.1014 38.9119C28.0892 39.0894 28.1994 39.1996 28.432 39.2425C28.3586 40.0966 28.2851 40.9599 28.2116 41.814C28.2116 41.8783 28.2392 41.9517 28.2667 42.0068C28.478 42.4109 28.7994 42.6681 29.2678 42.6864C29.8096 42.714 30.3239 42.5854 30.7831 42.2824C30.8749 42.2273 30.9576 42.1722 31.0678 42.1079C31.1596 42.2181 31.2239 42.3283 31.325 42.3926C31.5086 42.5303 31.6923 42.7048 31.9035 42.7599C32.4821 42.916 33.0699 42.9252 33.6209 42.6497C33.7587 42.5854 33.8964 42.5303 34.025 42.4568C34.2179 42.3466 34.3648 42.3558 34.5393 42.5028C34.7505 42.6773 34.9985 42.8334 35.2832 42.8058C35.9077 42.7415 36.4679 42.5028 36.7894 41.9425C37.2486 41.1344 37.423 40.2803 37.0098 39.3894C36.9914 39.3435 36.9822 39.2884 36.9639 39.2241C37.2302 38.967 37.3037 38.6456 37.3129 38.2874C37.3129 37.8374 37.3404 37.3874 37.3588 36.9374C37.3588 36.8731 37.3588 36.7904 37.3863 36.7353C37.6802 36.1567 37.9924 35.6149 38.7547 35.5322C39.5445 35.4496 40.3343 35.4587 41.1333 35.4955C42.318 35.5414 43.5119 35.6057 44.6967 35.4679C45.4957 35.3761 46.0283 34.9904 46.3222 34.2373C46.6345 33.4383 46.8181 32.6118 46.8824 31.7668C47.0477 29.5352 47.0753 27.3127 46.8089 25.081C46.7079 24.2636 46.5518 23.4646 46.2487 22.6932C46.0191 22.1054 45.6334 21.6738 45.1007 21.3523C43.9619 20.6727 42.7405 20.5258 41.4639 20.8013C40.3802 21.0401 39.3516 21.4717 38.3506 21.9493C37.3312 22.436 36.3118 22.9412 35.3107 23.483C34.5209 23.9146 33.7495 23.9146 32.9413 23.5932C32.675 23.483 32.4086 23.382 32.1515 23.2534C31.4076 22.8952 30.728 22.4452 30.076 21.9401C29.5341 21.5176 28.9464 21.1778 28.3035 20.9207C27.0269 20.4064 25.7044 20.1033 24.3177 20.085C22.2146 20.0482 20.1758 20.3329 18.2471 21.2146C17.6135 21.5085 17.0716 21.9125 16.6124 22.4268C15.9236 23.1983 15.4644 24.0891 15.1246 25.0534C14.7205 26.2198 14.5461 27.4412 14.3807 28.6627C14.2614 29.5443 14.243 30.4352 14.3807 31.326C14.5369 32.3454 14.9961 33.126 15.9787 33.5944C17.3471 34.2373 18.7706 34.6322 20.2676 34.7332C20.8278 34.77 21.388 34.7332 21.9482 34.7516C22.6462 34.77 23.3442 34.8067 24.0238 34.9812C24.7218 35.1649 25.1442 35.5965 25.2452 36.3129C25.2912 36.6251 25.3003 36.9465 25.2636 37.2496C25.2177 37.6629 25.3095 38.0302 25.4748 38.3976C25.5208 38.4986 25.5667 38.5904 25.6034 38.6731C25.4932 38.8568 25.3371 39.0129 25.3003 39.1874C25.135 40.0782 25.135 40.9507 25.7228 41.7405C25.9157 42.0068 26.1636 42.1538 26.4667 42.1997C27.0177 42.2823 27.5136 42.1354 27.9361 41.7864C27.9637 40.914 28.0004 40.0782 28.028 39.2149C27.2841 39.1047 26.5769 39.0496 25.9432 38.6731C26.6596 38.7557 27.3759 38.8292 28.0922 38.9119H28.1014ZM28.4871 51.4203C28.4688 51.806 28.5331 52.1458 28.6708 52.504C28.928 53.1652 29.1025 53.854 29.3137 54.5336C29.3504 54.653 29.3964 54.7724 29.4698 54.9928C29.6259 54.6989 29.7361 54.5061 29.8831 54.2306C29.9657 54.5061 30.0209 54.6806 30.076 54.8642C30.2688 54.8918 30.4341 54.9102 30.6362 54.9377C30.6729 54.5612 30.7096 54.2122 30.7464 53.8724C30.9117 53.9734 30.9943 54.0928 31.0678 54.2214C31.1596 54.3867 31.2423 54.5612 31.325 54.7357C31.3984 54.901 31.5178 54.9102 31.6739 54.8091C31.6923 54.6163 31.7015 54.4142 31.7199 54.203C31.8668 54.304 31.9311 54.4051 32.0046 54.4969C32.0781 54.5887 32.1515 54.6898 32.2158 54.7816C32.5097 54.6806 32.5464 54.4602 32.4913 54.2397C32.4546 54.0653 32.3811 53.9 32.3168 53.7346C32.225 53.4867 32.1148 53.2571 32.0413 53.0091C31.9219 52.605 32.0137 52.3846 32.4086 52.2101C32.7209 52.0724 33.0515 51.9897 33.3822 51.907C33.7771 51.806 34.1811 51.7234 34.576 51.6315C34.971 51.5397 35.173 51.255 35.2005 50.8601C35.2189 50.6397 35.2097 50.4193 35.173 50.208C35.0077 49.1978 34.6311 48.261 34.1444 47.3702C33.8046 46.7549 33.3179 46.2774 32.675 45.9835C31.2515 45.3406 29.7545 45.0743 28.1933 45.2671C27.8994 45.3039 27.5963 45.3406 27.3208 45.5518C27.5412 46.6263 27.7616 47.6917 27.9729 48.7662C28.0188 49.005 28.1473 49.1335 28.3218 49.2805C28.6341 49.5376 28.9555 49.8131 29.1943 50.1346C29.4882 50.5295 29.3688 50.9152 28.9463 51.1815C28.8086 51.2642 28.6525 51.3285 28.4688 51.4203H28.4871ZM13.5083 74.132C13.3889 74.2238 13.2787 74.2973 13.1777 74.3891C12.9481 74.582 12.9205 74.6922 13.0674 74.9493C13.2327 75.2432 13.4256 75.5279 13.6185 75.8126C13.7379 75.9779 13.8756 76.1341 13.995 76.2994C14.3073 76.7402 14.5644 77.1902 14.5552 77.7688C14.5552 78.0902 14.6103 78.4209 14.6562 78.7423C14.6838 78.9076 14.7297 79.0637 14.9409 79.0913C15.1246 79.1096 15.2165 78.9994 15.2807 78.8525C15.4828 78.3566 15.6848 77.8606 15.8685 77.3647C15.9512 77.1351 15.942 76.8872 15.8226 76.6851C15.6665 76.4371 15.6573 76.1708 15.6481 75.8953C15.6481 75.6198 15.6297 75.3443 15.6022 75.0779C15.5655 74.582 15.4644 74.582 15.1154 74.6187C15.0052 74.6279 14.895 74.6187 14.7848 74.6187C14.3532 74.6738 13.9766 74.5728 13.6828 74.2238C13.646 74.1779 13.5725 74.1595 13.4991 74.1228L13.5083 74.132ZM11.497 83.4536C11.497 83.6648 11.5521 83.7659 11.7174 83.8485C11.8735 83.922 12.0297 83.922 12.1307 83.7934C12.3327 83.5454 12.5348 83.2791 12.7001 83.0036C12.8011 82.8291 12.7001 82.6546 12.5531 82.5352C12.4705 82.4709 12.3695 82.425 12.2684 82.3791C11.9562 82.2413 11.7817 82.3332 11.7082 82.6638C11.6623 82.875 11.598 83.0863 11.5429 83.2883C11.5246 83.3526 11.5062 83.4169 11.497 83.4536Z" fill="black"/>
<path d="M28.1013 38.914C27.385 38.8313 26.6686 38.7579 25.9522 38.6752C26.5859 39.0517 27.2839 39.1068 28.037 39.2171C28.0094 40.0712 27.9727 40.9161 27.9452 41.7886C27.5227 42.1375 27.0268 42.2845 26.4757 42.2018C26.1727 42.1559 25.9247 42.0089 25.7318 41.7426C25.1533 40.962 25.1441 40.0895 25.3094 39.1895C25.3461 39.015 25.4931 38.8589 25.6124 38.6752C25.5757 38.5926 25.5206 38.5007 25.4839 38.3997C25.3278 38.0324 25.2267 37.6558 25.2726 37.2517C25.3094 36.9395 25.3002 36.618 25.2543 36.315C25.1533 35.6078 24.7308 35.167 24.0328 34.9833C23.3532 34.8088 22.6553 34.7629 21.9573 34.7537C21.3971 34.7445 20.8368 34.7721 20.2766 34.7354C18.7705 34.6343 17.3562 34.2394 15.9878 33.5965C15.0051 33.1282 14.5459 32.3567 14.3898 31.3281C14.252 30.4373 14.2704 29.5556 14.3898 28.6648C14.5551 27.4434 14.7204 26.2219 15.1337 25.0556C15.4735 24.0913 15.9327 23.2004 16.6215 22.429C17.0807 21.9147 17.6225 21.5106 18.2562 21.2167C20.194 20.3351 22.2236 20.0503 24.3267 20.0871C25.7135 20.1146 27.0359 20.4085 28.3125 20.9228C28.9462 21.18 29.5431 21.5106 30.085 21.9422C30.7279 22.4473 31.4167 22.9065 32.1605 23.2555C32.4177 23.3749 32.684 23.4851 32.9504 23.5953C33.7586 23.9168 34.53 23.9168 35.3198 23.4851C36.3117 22.9433 37.3311 22.4382 38.3597 21.9514C39.3607 21.4738 40.3801 21.0422 41.473 20.8034C42.7496 20.5279 43.971 20.6749 45.1098 21.3545C45.6425 21.6759 46.0282 22.1167 46.2578 22.6953C46.5608 23.4667 46.7261 24.2657 46.818 25.0831C47.0843 27.3056 47.0476 29.5373 46.8915 31.769C46.8272 32.6139 46.6435 33.4404 46.3313 34.2394C46.0374 35.0017 45.5047 35.3782 44.7057 35.4701C43.521 35.6078 42.3271 35.5435 41.1424 35.4976C40.3525 35.4609 39.5627 35.4517 38.7637 35.5343C38.0015 35.617 37.6892 36.1588 37.3954 36.7374C37.3678 36.7925 37.377 36.8752 37.3678 36.9395C37.3494 37.3895 37.3219 37.8395 37.3219 38.2895C37.3219 38.6477 37.2484 38.9691 36.9729 39.2262C36.9912 39.2905 37.0004 39.3364 37.0188 39.3916C37.4413 40.2824 37.2576 41.1365 36.7984 41.9447C36.477 42.5049 35.9167 42.7528 35.2922 42.8079C35.0075 42.8355 34.7596 42.6794 34.5484 42.5049C34.3739 42.358 34.2177 42.3488 34.0341 42.459C33.9055 42.5324 33.7585 42.5876 33.63 42.6518C33.0698 42.9365 32.4912 42.9273 31.9126 42.762C31.7014 42.7069 31.5177 42.5324 31.334 42.3947C31.2422 42.3212 31.1779 42.2202 31.0769 42.11C30.9667 42.1743 30.8748 42.2294 30.7922 42.2845C30.333 42.5876 29.8187 42.7161 29.2768 42.6886C28.8084 42.6702 28.487 42.413 28.2758 42.009C28.2482 41.9539 28.2115 41.8804 28.2207 41.8161C28.2941 40.962 28.3676 40.0987 28.4411 39.2446H28.4319C29.3411 39.3181 30.2411 39.3824 31.1687 39.4558C31.1687 39.6303 31.1687 39.7589 31.1687 39.8967C31.1595 40.4936 31.1411 41.0998 31.132 41.6967C31.132 41.8069 31.086 41.9539 31.2973 41.9906C31.3248 41.8896 31.3616 41.7885 31.3707 41.6875C31.4075 41.4212 31.435 41.1457 31.4534 40.8702C31.4901 40.411 31.5177 39.9518 31.5452 39.4926C32.5646 39.5477 33.5749 39.6028 34.5943 39.6579C34.4841 40.411 34.3647 41.164 34.2637 41.9171C34.2545 42.0181 34.3188 42.1283 34.3463 42.2294C34.3739 42.2294 34.4106 42.2294 34.4382 42.2202C34.4657 42.1192 34.4932 42.0273 34.5116 41.9263C34.6218 41.1732 34.7228 40.4202 34.8331 39.6671C35.8249 39.6763 36.3025 39.5936 36.5137 39.3456H34.8239C34.9157 38.7579 34.9432 38.1609 34.9065 37.5732C34.879 37.5732 34.8514 37.5732 34.8239 37.564C34.7412 38.1609 34.6586 38.7579 34.5759 39.3456C33.5932 39.364 32.6197 39.2814 31.6371 39.2079C31.582 38.4181 31.9401 37.6558 31.6095 36.8568C31.3707 37.2517 31.1779 38.4824 31.2146 39.1803C30.2779 39.0977 29.3411 39.0058 28.4135 38.9232L28.4227 38.9324C28.4319 38.7579 28.4503 38.5834 28.4594 38.3997C28.4778 38.0783 28.5054 37.7477 28.5054 37.4262C28.5054 37.2058 28.4686 36.9762 28.138 36.8568C28.1196 37.5732 28.1013 38.2528 28.0829 38.9324H28.1013V38.914ZM23.4175 32.9445C23.7573 32.9078 24.4002 32.8435 25.0339 32.7516C25.8053 32.6414 26.5584 32.4486 27.2931 32.1639C28.2299 31.7965 28.8544 31.1536 29.185 30.1893C29.488 29.3077 29.6258 28.4077 29.5615 27.4893C29.4054 25.4137 28.4411 23.8708 26.4757 23.081C23.9043 22.0341 20.6807 22.3188 18.4399 25.0556C18.1827 25.3678 17.9439 25.726 17.8245 26.1025C17.3654 27.5168 17.347 28.9587 17.8521 30.373C18.1368 31.1628 18.6144 31.8149 19.395 32.1547C20.5797 32.6782 21.8103 33.018 23.4267 32.9353L23.4175 32.9445ZM45.4496 28.5271C45.3761 27.9577 45.3394 27.3882 45.2292 26.8188C45.0547 25.928 44.7608 25.0739 44.1914 24.3484C43.1536 23.0443 41.6658 22.8422 40.2515 23.5494C39.4066 23.9718 38.6719 24.578 38.0382 25.2943C37.579 25.8086 37.2117 26.3872 37.028 27.0576C36.8811 27.5995 36.7249 28.1321 36.5872 28.6832C36.4402 29.2709 36.4127 29.8771 36.4586 30.474C36.5321 31.4291 36.9086 32.2281 37.7443 32.7333C38.8831 33.422 40.1229 33.771 41.4546 33.7251C43.3097 33.6517 44.5771 32.6322 45.0914 30.8414C45.3026 30.0883 45.4129 29.3169 45.4496 28.5271ZM32.6657 33.3394C32.8861 33.4588 33.0789 33.5873 33.2902 33.6792C33.5473 33.7986 33.8137 33.8812 34.0708 33.6884C34.3188 33.5047 34.2728 33.22 34.2361 32.9628C34.1351 32.2924 33.8871 31.6679 33.4922 31.1169C33.4096 30.9975 33.2994 30.8873 33.18 30.7955C33.0147 30.6669 32.8402 30.6393 32.6565 30.7679C32.1238 31.1353 31.6279 31.5485 31.3065 32.1179C31.1687 32.3567 31.0861 32.6506 31.0585 32.9261C31.0034 33.5139 31.334 33.771 31.8942 33.6241C32.1605 33.5598 32.4085 33.4312 32.6748 33.3302L32.6657 33.3394Z" fill="white"/>
<path d="M28.4868 51.4195C28.6705 51.3277 28.8266 51.2634 28.9644 51.1807C29.3869 50.9144 29.5063 50.5287 29.2124 50.1338C28.9736 49.8124 28.6522 49.5369 28.3399 49.2797C28.1654 49.1328 28.0368 49.0042 27.9909 48.7654C27.7797 47.6909 27.5593 46.6256 27.3389 45.5511C27.6144 45.3398 27.9266 45.3031 28.2113 45.2664C29.7726 45.0643 31.2604 45.3398 32.6931 45.9827C33.3359 46.2674 33.8227 46.7541 34.1625 47.3695C34.6492 48.2603 35.0258 49.197 35.1911 50.2073C35.2278 50.4185 35.237 50.6481 35.2186 50.8593C35.1911 51.2542 34.989 51.5298 34.5941 51.6308C34.1992 51.7226 33.7951 51.8053 33.4002 51.9063C33.0696 51.9889 32.739 52.0808 32.4267 52.2094C32.041 52.3747 31.9492 52.5951 32.0594 53.0084C32.1329 53.2563 32.2431 53.4951 32.3349 53.7339C32.3992 53.8992 32.4727 54.0645 32.5094 54.239C32.5553 54.4686 32.5278 54.6798 32.2339 54.7808C32.1696 54.689 32.0961 54.5972 32.0226 54.4961C31.9492 54.3951 31.8849 54.2941 31.7379 54.2022C31.7196 54.4043 31.7012 54.6155 31.692 54.8084C31.5359 54.9002 31.4165 54.8911 31.343 54.7349C31.2604 54.5604 31.1777 54.3859 31.0859 54.2206C31.0124 54.0921 30.9298 53.9727 30.7645 53.8716C30.7277 54.2114 30.691 54.5513 30.6543 54.937C30.4614 54.9094 30.2869 54.891 30.094 54.8635C30.0389 54.6798 29.9838 54.5053 29.9012 54.2298C29.7542 54.5053 29.644 54.7074 29.4879 54.9921C29.4144 54.7717 29.3685 54.6523 29.3318 54.5329C29.1205 53.8533 28.946 53.1645 28.6889 52.5032C28.542 52.1451 28.4868 51.8053 28.5052 51.4195H28.4868ZM31.8849 51.1807C32.142 51.1624 32.3441 51.1716 32.5461 51.144C33.2166 51.0522 33.5747 50.694 33.639 50.0236C33.6666 49.7022 33.639 49.3715 33.5839 49.0501C33.437 48.2787 33.1063 48.0858 32.3624 48.3521C31.3798 48.6919 30.9573 49.5093 30.7185 50.4369C30.6267 50.795 30.8196 51.0338 31.1961 51.1165C31.4349 51.1716 31.6828 51.1624 31.8757 51.1807H31.8849ZM29.8185 53.6053C29.9471 53.4859 30.0481 53.4033 30.1308 53.3022C30.3879 53.0175 30.3971 53.0175 30.7461 53.2012C30.9297 53.3022 31.1042 53.4492 31.3522 53.4033C31.3522 53.3298 31.3798 53.2655 31.3522 53.2288C31.1042 52.6869 30.8471 52.1451 30.5808 51.6032C30.5532 51.5389 30.4981 51.493 30.4522 51.4471C30.2869 51.291 30.1951 51.2818 30.0389 51.4471C29.9746 51.5114 29.9104 51.594 29.8736 51.6767C29.5981 52.2277 29.5797 52.8063 29.6808 53.3941C29.6808 53.44 29.7359 53.4859 29.8093 53.6145L29.8185 53.6053Z" fill="white"/>
<path d="M13.5081 74.1328C13.5724 74.1695 13.6459 74.1879 13.6918 74.2338C13.9857 74.5828 14.3622 74.6839 14.7938 74.6287C14.904 74.6196 15.0142 74.6287 15.1245 74.6287C15.4643 74.592 15.5745 74.592 15.6112 75.0879C15.6296 75.3635 15.6479 75.639 15.6571 75.9053C15.6571 76.1808 15.6847 76.438 15.8316 76.6951C15.9602 76.8972 15.9693 77.1451 15.8775 77.3747C15.6846 77.8706 15.4918 78.3666 15.2898 78.8625C15.2347 79.0094 15.1428 79.1197 14.95 79.1013C14.7387 79.0829 14.6836 78.9176 14.6653 78.7523C14.6193 78.4309 14.555 78.1002 14.5642 77.7788C14.5734 77.2094 14.3163 76.7502 14.004 76.3094C13.8846 76.1441 13.7469 75.9879 13.6275 75.8226C13.4346 75.5379 13.2418 75.2532 13.0764 74.9594C12.9295 74.693 12.957 74.5828 13.1866 74.3992C13.2877 74.3165 13.3979 74.2338 13.5173 74.142L13.5081 74.1328Z" fill="white"/>
<path d="M11.4968 83.4518C11.4968 83.4518 11.5244 83.3507 11.5428 83.2863C11.5979 83.0749 11.6623 82.8727 11.7082 82.6613C11.7818 82.3305 11.9564 82.2293 12.2689 82.3764C12.37 82.4223 12.4711 82.4591 12.5538 82.5327C12.7009 82.6521 12.802 82.8268 12.7009 83.0014C12.5354 83.2771 12.3332 83.5437 12.131 83.7918C12.0299 83.9205 11.8737 83.9205 11.7174 83.847C11.552 83.7643 11.4968 83.6724 11.4968 83.4518Z" fill="white"/>
<path d="M28.4232 39.243C28.1965 39.2001 28.0862 39.0898 28.0923 38.9121L28.074 38.9213C28.1843 38.9213 28.3038 38.9213 28.414 38.9213L28.4048 38.9121C28.4048 39.0224 28.4048 39.1419 28.4048 39.2522H28.414L28.4232 39.243Z" fill="white"/>
<g style="mix-blend-mode:multiply">
<path d="M23.4178 32.942C21.8014 33.0246 20.5708 32.6848 19.3861 32.1613C18.6054 31.8215 18.1279 31.1603 17.8432 30.3797C17.3381 28.9653 17.3564 27.5327 17.8156 26.1092C17.935 25.7326 18.183 25.3745 18.431 25.0622C20.6626 22.3163 23.8954 22.0407 26.4668 23.0877C28.423 23.8867 29.3873 25.4296 29.5526 27.4959C29.6261 28.4235 29.4791 29.3144 29.1761 30.196C28.8454 31.1511 28.2209 31.8032 27.2842 32.1705C26.5587 32.4552 25.8056 32.6481 25.025 32.7583C24.3913 32.8501 23.7484 32.9052 23.4086 32.9512L23.4178 32.942Z" fill="#105943"/>
</g>
<g style="mix-blend-mode:multiply">
<path d="M45.4497 28.5264C45.4038 29.3162 45.3027 30.0877 45.0915 30.8407C44.5864 32.6316 43.319 33.651 41.4547 33.7245C40.1231 33.7796 38.8833 33.4214 37.7445 32.7326C36.9087 32.2275 36.5322 31.4285 36.4587 30.4734C36.4128 29.8673 36.4495 29.2703 36.5873 28.6825C36.7159 28.1407 36.872 27.5988 37.0281 27.057C37.221 26.3866 37.5791 25.808 38.0383 25.2937C38.672 24.5866 39.4067 23.9804 40.2516 23.5488C41.6659 22.8416 43.1537 23.0345 44.1915 24.3478C44.7701 25.0733 45.0548 25.9274 45.2293 26.8182C45.3395 27.3784 45.3762 27.957 45.4497 28.5264Z" fill="#105943"/>
</g>
<g style="mix-blend-mode:multiply">
<path d="M32.6657 33.3366C32.3902 33.4376 32.1422 33.557 31.885 33.6305C31.3156 33.7774 30.9942 33.5203 31.0493 32.9325C31.0769 32.657 31.1595 32.3631 31.2973 32.1243C31.6187 31.5549 32.1146 31.1417 32.6473 30.7743C32.831 30.6458 33.0147 30.6641 33.1708 30.8019C33.2902 30.8937 33.4004 31.0039 33.483 31.1233C33.8779 31.6743 34.1259 32.2988 34.2269 32.9693C34.2637 33.2264 34.3096 33.5019 34.0616 33.6948C33.8137 33.8877 33.5381 33.805 33.281 33.6856C33.0698 33.5938 32.8769 33.4652 32.6565 33.3458L32.6657 33.3366Z" fill="#105943"/>
</g>
<g style="mix-blend-mode:multiply">
<path d="M34.5854 39.6573C33.566 39.6022 32.5557 39.5471 31.5363 39.492C31.5363 39.4094 31.5547 39.3175 31.5639 39.2257C31.4261 39.1981 31.3159 39.1798 31.1965 39.1522H31.2057C31.1598 38.4635 31.3618 37.2328 31.6006 36.8379C31.9404 37.6277 31.5731 38.3991 31.6282 39.189C32.6108 39.2624 33.5843 39.3451 34.567 39.3267H34.5578C34.5578 39.4278 34.5578 39.538 34.5578 39.6573H34.567H34.5854Z" fill="#105943"/>
</g>
<g style="mix-blend-mode:multiply">
<path d="M28.4138 39.2519C28.4138 39.1417 28.4138 39.0223 28.4138 38.9121C29.3506 38.9948 30.2873 39.0866 31.2149 39.1693L31.2057 39.1601C31.123 39.4723 31.371 39.4448 31.5455 39.4999C31.518 39.9591 31.4904 40.4183 31.4537 40.8775C31.4353 41.153 31.4078 41.4193 31.371 41.6948C31.3618 41.7958 31.3251 41.8969 31.2975 41.9979C31.0863 41.9611 31.1322 41.8142 31.1322 41.704C31.1322 41.1071 31.1598 40.5009 31.169 39.904C31.169 39.7662 31.169 39.6376 31.169 39.4631C30.2414 39.3989 29.3322 39.3254 28.4322 39.2611L28.4138 39.2519Z" fill="#105943"/>
</g>
<g style="mix-blend-mode:multiply">
<path d="M28.4228 38.9213C28.3126 38.9213 28.1932 38.9213 28.083 38.9213C28.1014 38.2417 28.1197 37.5712 28.1381 36.8457C28.4687 36.9651 28.5055 37.1947 28.5055 37.4151C28.5055 37.7365 28.4779 38.0672 28.4595 38.3886C28.4504 38.5631 28.432 38.7376 28.4228 38.9213Z" fill="#105943"/>
</g>
<g style="mix-blend-mode:multiply">
<path d="M34.8147 39.6576C34.7045 40.4107 34.6035 41.1638 34.4933 41.9169C34.4749 42.0179 34.4473 42.1189 34.4198 42.2107C34.3922 42.2107 34.3555 42.2108 34.328 42.2199C34.3004 42.1189 34.2361 42.0087 34.2453 41.9077C34.3463 41.1546 34.4657 40.4015 34.5759 39.6484H34.5667C34.6494 39.6484 34.7412 39.6484 34.8239 39.6484H34.8147V39.6576Z" fill="#105943"/>
</g>
<g style="mix-blend-mode:multiply">
<path d="M34.8149 39.3353H36.5061C36.2947 39.5835 35.8076 39.6662 34.8241 39.657L34.8333 39.6662C34.8333 39.5559 34.8333 39.4365 34.8333 39.3262L34.8149 39.3353Z" fill="#105943"/>
</g>
<g style="mix-blend-mode:multiply">
<path d="M34.5761 39.3358C34.6588 38.7384 34.7415 38.141 34.8242 37.5527C34.8518 37.5527 34.8794 37.5527 34.907 37.5619C34.9345 38.1594 34.907 38.7476 34.8242 39.3358C34.7415 39.3358 34.6496 39.3358 34.5669 39.3358H34.5761Z" fill="#105943"/>
</g>
<g style="mix-blend-mode:multiply">
<path d="M31.8854 51.1819C31.6925 51.1635 31.4446 51.1727 31.2058 51.1176C30.8292 51.0349 30.6364 50.7961 30.7282 50.438C30.967 49.5104 31.3895 48.693 32.3721 48.3532C33.116 48.0961 33.4466 48.2798 33.5936 49.0512C33.6487 49.3727 33.6762 49.7033 33.6487 50.0247C33.5844 50.6951 33.2262 51.0533 32.5558 51.1451C32.3538 51.1727 32.1517 51.1727 31.8946 51.1819H31.8854Z" fill="#105943"/>
</g>
<g style="mix-blend-mode:multiply">
<path d="M29.8187 53.6028C29.736 53.4743 29.6901 53.4375 29.6901 53.3824C29.5891 52.7947 29.6074 52.2161 29.8829 51.6651C29.9289 51.5824 29.984 51.4997 30.0483 51.4355C30.2044 51.2793 30.3054 51.2793 30.4615 51.4355C30.5074 51.4814 30.5626 51.5365 30.5901 51.5916C30.8473 52.1334 31.1044 52.6752 31.3616 53.2171C31.3799 53.263 31.3616 53.3181 31.3616 53.3916C31.1136 53.4375 30.9391 53.2814 30.7554 53.1895C30.4064 52.9967 30.3973 52.9967 30.1401 53.2906C30.0575 53.3824 29.9564 53.4651 29.8278 53.5936L29.8187 53.6028Z" fill="#105943"/>
</g>
<path d="M31.5364 39.4983C31.3618 39.4432 31.1136 39.4707 31.1963 39.1582C31.3066 39.1766 31.4261 39.2042 31.564 39.2317C31.5548 39.3329 31.5456 39.4156 31.5364 39.4983Z" fill="white"/>
<path d="M34.5669 39.3262C34.6496 39.3262 34.7415 39.3262 34.8242 39.3262C34.8242 39.4365 34.8242 39.5559 34.8242 39.6662C34.7415 39.6662 34.6496 39.6662 34.5669 39.6662C34.5669 39.5559 34.5669 39.4365 34.5669 39.3262Z" fill="white"/>
</svg>
