<svg width="65" height="65" viewBox="0 0 65 65" fill="none" xmlns="http://www.w3.org/2000/svg">
<path d="M44.7119 46.7245C55.5506 36.7319 58.7755 22.3948 51.9149 14.7018C45.0542 7.00876 30.7061 8.87299 19.8674 18.8657C9.0287 28.8583 5.80381 43.1954 12.6644 50.8884C19.525 58.5814 33.8732 56.7172 44.7119 46.7245Z" fill="#FCE55C"/>
<path d="M22.1149 21.1959C13.083 29.5175 10.0531 42.8201 15.7996 49.2649C21.5576 55.7096 33.5381 54.1988 42.5699 45.8654C51.6017 37.5439 55.096 22.6832 49.338 16.2266C43.5799 9.77007 31.135 12.8508 22.1032 21.1841L22.1149 21.1959Z" fill="#333333"/>
<path d="M26.259 14.1252C26.259 14.1252 26.2823 14.1134 26.2939 14.1016C26.2823 14.1016 26.2706 14.1134 26.259 14.1252Z" fill="#C15D0E"/>
<path d="M14.5688 24.9143C14.5688 24.9143 14.5805 24.8907 14.5921 24.8789C14.5921 24.8907 14.5805 24.9025 14.5688 24.9143Z" fill="#C15D0E"/>
<path d="M47.6776 11.5639C47.5499 11.5048 47.4339 11.434 47.3062 11.375C47.4339 11.434 47.5616 11.5048 47.6776 11.5639Z" fill="#C15D0E"/>
<path d="M19.8858 18.8948C21.7316 17.195 23.6703 15.7432 25.6554 14.5156C23.6587 15.7432 21.72 17.1832 19.8742 18.883C18.0283 20.5827 16.4263 22.4122 15.0332 24.3126C16.4263 22.424 18.0399 20.5945 19.8858 18.8948Z" fill="#C15D0E"/>
<path d="M51.915 14.7149C50.9166 13.6054 49.7557 12.7083 48.4787 11.9883C49.4887 12.6021 50.3942 13.3575 51.1953 14.2546C57.7427 21.5964 54.6431 36.7286 43.9048 46.6318C33.1665 56.535 18.8409 57.4793 12.2935 50.1257C11.4924 49.2286 10.8423 48.2253 10.3315 47.1512C10.912 48.5086 11.6666 49.7834 12.665 50.8929C19.5259 58.5888 33.8746 56.7239 44.7058 46.7262C55.537 36.7286 58.7643 22.399 51.9034 14.7031L51.915 14.7149Z" fill="#C15D0E"/>
<path style="mix-blend-mode:multiply" d="M20.3502 46.479C15.4395 40.412 17.7265 29.7651 25.2492 23.2023C31.0188 18.174 37.9726 15.5772 43.3824 16.7694C37.8217 14.2434 29.5213 16.5923 23.1131 22.5059C15.3351 29.6707 13.141 40.0933 18.2141 45.7826C19.7001 47.4469 21.6388 48.4974 23.8329 49.005C22.5094 48.4148 21.2789 47.624 20.3502 46.479Z" fill="url(#paint0_radial_6413_11140)"/>
<path d="M15.5905 50.245C9.48414 43.4344 12.4096 29.2229 22.1844 20.2521C30.0669 13.0283 40.3177 10.101 47.2018 12.7923C40.3525 9.3102 29.4284 12.1431 21.128 19.7564C11.3416 28.7271 8.42772 42.9386 14.5341 49.7493C15.7646 51.1185 17.2854 52.1336 18.9919 52.8182C17.7265 52.169 16.5656 51.3192 15.6021 50.245H15.5905Z" fill="url(#paint1_linear_6413_11140)"/>
<path d="M54.5505 16.4038C53.0181 14.6923 51.1955 13.3585 49.1755 12.3906C50.1739 13.028 51.0794 13.7953 51.892 14.6923C58.7529 22.3883 55.5256 36.7178 44.6944 46.7155C33.8516 56.7131 19.5145 58.5781 12.6536 50.8821C10.8774 48.8873 9.79775 46.4558 9.32178 43.7646C9.72809 47.6361 11.1444 51.2126 13.6984 54.0691C21.6041 62.9218 37.1486 61.6706 48.4325 51.2716C59.7165 40.8727 62.4562 25.2565 54.5505 16.392V16.4038Z" fill="url(#paint2_radial_6413_11140)"/>
<path d="M25.9691 49.3946C25.7718 49.3946 25.5744 49.3946 25.3771 49.3946C22.2426 49.2648 19.6306 48.1434 17.8428 46.1368C15.4862 43.5046 14.6619 39.4088 15.5791 34.8998C16.5194 30.2728 19.1198 25.7992 22.916 22.3054C30.8101 15.0226 41.7225 13.3346 46.7376 18.599C48.5022 20.4522 49.3961 23.0608 49.3264 26.1415C49.1987 31.5948 46.0991 37.7563 41.026 42.6075C36.5565 46.8923 30.9726 49.3946 25.9575 49.3946H25.9691ZM38.6229 16.0967C33.7588 16.0967 28.0007 18.4102 23.3223 22.7303C19.6306 26.1415 17.0882 30.4971 16.1711 35.006C15.2888 39.3143 16.0666 43.2213 18.2956 45.7237C19.9789 47.6123 22.44 48.6746 25.4235 48.7926C30.427 49.0169 36.127 46.5263 40.6661 42.1826C45.6232 37.4376 48.6647 31.4295 48.7808 26.1297C48.8505 23.2143 48.003 20.7473 46.3545 19.0122C44.4855 17.0528 41.7458 16.1085 38.6462 16.1085L38.6229 16.0967Z" fill="url(#paint3_linear_6413_11140)"/>
<path d="M50.8122 17.8789C54.5271 24.8902 51.3346 36.5404 42.8484 44.378C33.4219 53.0654 21.0583 54.8123 15.2422 48.2849C14.894 47.8954 14.5805 47.4823 14.2903 47.0456C14.7198 47.8482 15.2074 48.5918 15.8111 49.2646C21.6388 55.792 34.0024 54.0451 43.4173 45.3577C52.3214 37.1542 55.4094 24.7368 50.8122 17.8789Z" fill="url(#paint4_linear_6413_11140)"/>
<path d="M32.5748 44.0252C33.1436 43.6829 33.9098 43.0691 34.7573 42.0068C36.1155 40.3189 34.1652 40.4487 32.9463 40.6612C32.4819 40.7438 32.0524 41.1097 31.9711 41.4992C31.8434 42.1366 31.6577 43.0455 31.5996 43.3878L31.7738 41.511C31.8086 41.1451 31.4835 40.9209 31.0424 41.0035C29.8351 41.2396 27.757 41.8533 28.6277 43.1399C29.185 43.9544 29.7886 44.2967 30.2762 44.4501C29.9395 44.6744 29.6261 44.8869 29.4984 45.0049L30.4271 44.4973C30.8915 44.6036 31.2281 44.5328 31.2862 44.521C31.2862 44.5918 31.4139 44.5682 31.4487 44.4973C31.4487 44.4973 31.8666 44.4265 32.4239 44.1196L33.1901 44.2731L32.5516 44.037L32.5748 44.0252Z" fill="#FFEFDF"/>
<path d="M40.4224 31.4656C40.4224 31.4656 42.6861 29.3999 43.5104 27.712C43.5104 27.712 45.1008 24.9618 44.0676 22.6719C43.0228 20.382 42.4656 18.8003 42.9996 17.5137C43.4872 16.3452 38.0425 25.009 36.9165 28.8334C37.1603 27.8182 37.6943 26.1067 38.7739 24.1001C38.7739 24.1001 36.9397 26.6851 36.3941 29.4944C36.1038 29.1521 35.5002 28.7861 35.477 29.5416C34.9197 29.0576 34.3044 29.1284 34.3044 29.1284C35.0358 29.5298 35.3841 29.9665 35.5466 30.3088C35.5466 30.3324 35.5582 30.3678 35.5698 30.3914C35.8252 31.076 35.7556 31.737 35.326 32.7403C34.8849 33.7436 35.8484 34.0269 35.8484 34.0269C35.8484 34.0269 37.613 33.8971 38.1702 36.0453C38.1702 36.0453 37.9497 35.4316 37.1835 35.0775C37.1835 35.0775 36.4173 38.6303 36.4057 39.2795C36.3941 39.9287 36.5102 40.2946 36.7191 40.1412C36.9281 39.9877 37.5085 38.6894 38.4605 37.6388C39.366 36.6355 40.4688 35.408 40.0045 33.2125C39.9812 33.1063 39.958 33.0118 39.9116 32.9056C40.0161 32.9764 40.376 33.1063 40.4572 34.1686C40.4572 34.1686 40.643 33.7673 40.5965 33.2951C40.5733 33.059 40.5501 32.823 40.5733 32.6105C40.5849 32.4807 40.6778 32.3508 40.8055 32.2446C41.3859 31.7843 42.9532 30.4268 43.5684 29.034C43.9051 28.255 43.6729 28.0897 43.6729 28.0897C43.6729 28.0897 42.6281 29.9665 40.4108 31.4892L40.4224 31.4656ZM37.2647 31.1587C37.1951 31.3593 36.9977 31.6426 36.7772 31.7606L36.2431 32.0439L36.3128 31.9141C36.545 31.501 36.8816 31.1114 37.2763 30.7573L37.5085 30.5567L37.2647 31.1469V31.1587Z" fill="#FFEFDF"/>
<path d="M26.9443 38.0276C28.2677 35.5252 30.0904 34.9941 30.0904 34.9941C30.0904 34.9941 31.2048 34.3331 31.0771 33.436C30.9494 32.5389 31.1119 31.8661 31.6111 31.0399C31.6344 31.0045 31.646 30.9809 31.6692 30.9455C31.9594 30.5205 32.4818 29.9185 33.3873 29.2221C33.3873 29.2221 32.7604 29.3756 31.9942 30.1074C32.238 29.3048 31.4602 29.9421 31.0423 30.4143C31.4138 27.6404 30.3458 25.5984 30.3458 25.5984C30.8101 27.3099 30.7985 28.927 30.7172 29.9185C30.8217 26.283 27.9775 19.1655 28.0936 20.216C28.2213 21.3845 27.0836 23.2731 25.203 26.1178C23.3223 28.9625 24.0769 31.2642 24.0769 31.2642C24.3787 32.7396 26.0852 34.0734 26.0852 34.0734C24.251 33.3062 23.7751 31.7127 23.7751 31.7127C23.7751 31.7127 23.4732 31.9724 23.5661 32.6688C23.7402 33.9318 24.9476 34.758 25.4119 35.0295C25.5164 35.0885 25.5628 35.2065 25.5396 35.3364C25.4932 35.5607 25.3771 35.8203 25.2842 36.08C25.0753 36.5994 25.1449 36.9535 25.1449 36.9535C25.5861 35.7849 26.0272 35.5134 26.1549 35.3954C26.0852 35.5134 26.0156 35.6315 25.9575 35.7495C24.7154 38.2637 25.4816 39.1371 26.0969 39.8572C26.747 40.6126 26.9211 41.7693 27.0952 41.852C27.2694 41.9346 27.5132 41.5097 27.7221 40.8133C27.9311 40.1286 28.3142 36.6466 28.3142 36.6466C27.3855 37.3194 26.9443 38.0512 26.9443 38.0512V38.0276ZM29.4286 32.2202C29.7305 32.4327 29.951 32.7278 30.0671 33.0701L30.102 33.1763L29.626 33.0819C29.4286 33.0465 29.3009 32.9167 29.2893 32.7278L29.2545 32.0904L29.4286 32.2084V32.2202Z" fill="#FFEFDF"/>
<path d="M35.9064 42.2656L33.3408 44.2368C33.3408 44.2368 35.3492 44.0716 35.9064 42.2656Z" fill="#FFEFDF"/>
<path d="M29.3357 44.9806L27.281 43.8711C27.2577 45.5826 29.3357 44.9806 29.3357 44.9806Z" fill="#FFEFDF"/>
<defs>
<radialGradient id="paint0_radial_6413_11140" cx="0" cy="0" r="1" gradientUnits="userSpaceOnUse" gradientTransform="translate(26.9209 29.1986) scale(18.3887 18.6969)">
<stop offset="0.83" stop-color="#AB4D00"/>
<stop offset="1" stop-color="#E9C87E"/>
</radialGradient>
<linearGradient id="paint1_linear_6413_11140" x1="28.1166" y1="27.0628" x2="16.2234" y2="54.9316" gradientUnits="userSpaceOnUse">
<stop offset="0.3" stop-color="#582919"/>
<stop offset="0.69" stop-color="#582919"/>
<stop offset="0.74" stop-color="#743C1A"/>
<stop offset="0.92" stop-color="#CE7920"/>
<stop offset="1" stop-color="#F29223"/>
</linearGradient>
<radialGradient id="paint2_radial_6413_11140" cx="0" cy="0" r="1" gradientUnits="userSpaceOnUse" gradientTransform="translate(37.8451 41.2976) scale(26.1435 26.5817)">
<stop offset="0.83" stop-color="#AB4D00"/>
<stop offset="1" stop-color="#E9C87E"/>
</radialGradient>
<linearGradient id="paint3_linear_6413_11140" x1="15.2192" y1="32.4565" x2="49.3381" y2="32.4565" gradientUnits="userSpaceOnUse">
<stop offset="0.57" stop-color="#582919"/>
<stop offset="0.67" stop-color="#7B3E1B"/>
<stop offset="0.89" stop-color="#C96D20"/>
<stop offset="1" stop-color="#E88023"/>
</linearGradient>
<linearGradient id="paint4_linear_6413_11140" x1="14.2903" y1="35.5489" x2="52.9251" y2="35.5489" gradientUnits="userSpaceOnUse">
<stop offset="0.38" stop-color="#582919"/>
<stop offset="0.47" stop-color="#5C2B19"/>
<stop offset="0.57" stop-color="#68311A"/>
<stop offset="0.68" stop-color="#7D3B1B"/>
<stop offset="0.78" stop-color="#9B491D"/>
<stop offset="0.89" stop-color="#C15B1F"/>
<stop offset="0.99" stop-color="#EF7122"/>
<stop offset="1" stop-color="#F27323"/>
</linearGradient>
</defs>
</svg>
