<svg width="74" height="35" viewBox="0 0 74 35" fill="none" xmlns="http://www.w3.org/2000/svg">
<path d="M35.3442 27.2484C35.3442 27.2484 35.2995 27.2434 35.2747 27.2434C35.2499 27.2434 35.23 27.2434 35.2052 27.2484C34.6143 27.2334 34.0284 27.0282 33.5368 26.6379C33.0303 26.2325 32.4245 25.622 32.4245 25.0115C32.4245 24.7663 33.2438 24.1708 35.2697 24.1708C36.0791 24.1708 36.8587 24.2859 37.4049 24.481C37.8369 24.6362 38.1149 24.8463 38.1149 25.0115C38.1149 25.622 37.5091 26.2325 37.0027 26.6379C36.5111 27.0332 35.9252 27.2334 35.3343 27.2484H35.3442ZM39.4953 29.3302C39.0832 29.7505 38.537 29.9807 37.956 29.9807C36.9183 29.9807 36.0443 29.2301 35.8308 28.2342C36.4714 28.1392 37.092 27.8739 37.6333 27.4436C38.6264 26.6479 39.1279 25.8322 39.1279 25.0115C39.1279 23.6353 37.0523 23.1449 35.2797 23.1449C33.507 23.1449 31.4314 23.6353 31.4314 25.0115C31.4314 25.8322 31.933 26.6529 32.926 27.4436C33.4673 27.8739 34.088 28.1392 34.7285 28.2342C34.515 29.2301 33.6411 29.9807 32.6033 29.9807C32.0223 29.9807 31.4761 29.7505 31.064 29.3302C30.8703 29.13 30.5476 29.13 30.3539 29.3302C30.1603 29.5304 30.1603 29.8556 30.3539 30.0558C30.9548 30.6713 31.7542 31.0066 32.6033 31.0066C33.7255 31.0066 34.7136 30.4061 35.2797 29.5053C35.8457 30.4061 36.8338 31.0066 37.956 31.0066C38.8051 31.0066 39.6046 30.6663 40.2054 30.0558C40.399 29.8556 40.399 29.5304 40.2054 29.3302C40.0117 29.13 39.689 29.13 39.4953 29.3302Z" fill="#24FF87"/>
<path d="M29.7581 14.1822C29.48 14.1822 29.2566 14.4124 29.2566 14.6976V15.5183C29.2566 15.8036 29.48 16.0288 29.7581 16.0288C30.0362 16.0288 30.2596 15.7986 30.2596 15.5183V14.6976C30.2596 14.4124 30.0362 14.1822 29.7581 14.1822Z" fill="#24FF87"/>
<path d="M40.7963 14.1822C40.5182 14.1822 40.2948 14.4124 40.2948 14.6976V15.5183C40.2948 15.8036 40.5182 16.0288 40.7963 16.0288C41.0743 16.0288 41.2978 15.7986 41.2978 15.5183V14.6976C41.2978 14.4124 41.0743 14.1822 40.7963 14.1822Z" fill="#24FF87"/>
<path d="M35.2797 33.9742C33.08 33.9742 31.0243 33.1084 29.48 31.5321C28.1543 30.1759 27.3399 28.4544 27.1314 26.5578C26.9526 24.9464 26.4908 23.4501 25.7659 22.109C25.6715 21.9388 25.5871 21.7687 25.5027 21.5936C25.751 21.6186 25.9992 21.6286 26.2475 21.6286C28.2436 21.6286 30.2894 20.8879 32.0521 19.4917C32.2706 19.3166 32.3103 18.9963 32.1415 18.7711C31.9727 18.5459 31.6549 18.5059 31.4364 18.6811C29.49 20.2224 27.1761 20.8779 25.0459 20.4976C24.6238 19.3066 24.4053 18.0355 24.4004 16.7594C24.3805 10.8443 28.9289 5.96015 34.6491 5.62487C35.2598 6.8309 35.5974 8.2321 35.6272 9.69836C35.662 11.3348 35.3045 13.0212 34.5994 14.5775C34.1177 15.6384 33.4971 16.5993 32.7473 17.44C32.5586 17.6502 32.5785 17.9754 32.782 18.1656C32.8764 18.2557 33.0005 18.3007 33.1197 18.3007C33.2587 18.3007 33.3928 18.2457 33.4921 18.1306C34.3064 17.2148 34.9867 16.1639 35.5081 15.0079C36.2777 13.3165 36.6601 11.4699 36.6253 9.67834C36.5955 8.2371 36.2976 6.85092 35.7563 5.61986C38.4675 5.73996 40.9999 6.86593 42.9413 8.83762C45.0119 10.9394 46.154 13.7418 46.154 16.7244C46.154 18.586 45.6972 20.4276 44.8282 22.0489C44.0586 23.4852 43.5868 24.9865 43.4329 26.5028C43.2343 28.3994 42.4001 30.1859 41.0793 31.5371C39.535 33.1134 37.4794 33.9792 35.2797 33.9792V33.9742ZM27.5534 7.51148C26.6795 8.27714 25.9148 9.1679 25.2892 10.1588C24.8026 8.03693 24.5146 6.37051 24.4401 5.20451C24.4302 5.02435 24.5146 4.8492 24.6635 4.74912C24.8572 4.62401 25.1055 4.64903 25.2693 4.80917C25.8354 5.36464 26.6745 6.27042 27.5485 7.50648L27.5534 7.51148ZM23.6804 14.0771C23.2186 12.0504 22.7717 9.73339 22.5433 7.59155C22.3248 5.55481 22.161 2.01677 23.4768 1.24111C24.023 0.920835 25.1005 0.795728 27.1612 2.03679C28.3678 2.76241 29.7482 3.85835 31.2775 5.28958C30.2248 5.67491 29.2367 6.21037 28.3429 6.87093C27.4343 5.58984 26.5603 4.64903 25.9695 4.06853C25.4679 3.57811 24.7082 3.50305 24.1223 3.88838C23.6655 4.18864 23.4073 4.71909 23.442 5.26956C23.5314 6.68577 23.9138 8.77256 24.5692 11.4699C24.1819 12.2906 23.879 13.1663 23.6804 14.0771ZM45.285 4.80917C45.4489 4.64903 45.7021 4.62401 45.8908 4.74912C46.0398 4.8492 46.1242 5.01935 46.1143 5.20451C46.0398 6.37051 45.7567 8.02692 45.2701 10.1437C44.8083 9.41311 44.2671 8.73253 43.6514 8.10699C43.4429 7.89681 43.2293 7.69664 43.0109 7.50147C43.8798 6.26541 44.719 5.36464 45.285 4.80917ZM44.431 26.6028C44.575 25.2217 45.007 23.8505 45.7121 22.5344C46.5909 20.8879 47.0875 19.0414 47.152 17.1597C47.152 17.1497 47.162 17.1347 47.1669 17.1247C47.6982 15.083 48.4232 12.0354 48.8403 9.10785C48.88 8.82761 48.6913 8.56739 48.4133 8.52735C48.1402 8.48732 47.882 8.68249 47.8422 8.96273C47.594 10.6992 47.2365 12.4857 46.8789 14.0671C46.6803 13.1613 46.3874 12.2856 45.9951 11.4549C46.6505 8.76756 47.0279 6.68577 47.1173 5.26956C47.152 4.71909 46.8889 4.18864 46.437 3.88838C45.8511 3.50305 45.0963 3.57811 44.5899 4.06853C43.999 4.64403 43.1251 5.58483 42.2214 6.86593C41.3176 6.19536 40.3295 5.6649 39.2868 5.28457C40.8062 3.85835 42.1866 2.76742 43.3882 2.0468C44.5253 1.36121 46.0944 0.660612 47.0825 1.24611C47.9962 1.78658 48.3487 3.82833 48.0756 6.99604C48.0508 7.27628 48.2544 7.5265 48.5324 7.55152C48.5473 7.55152 48.5622 7.55152 48.5771 7.55152C48.8353 7.55152 49.0538 7.35135 49.0786 7.08612C49.4063 3.34291 48.9197 1.14102 47.589 0.35535C45.6823 -0.770615 42.5143 0.770707 38.1795 4.94428C37.246 4.70408 36.2727 4.58397 35.2846 4.58397C35.2548 4.58397 35.225 4.58397 35.1952 4.58397C35.1108 4.58397 35.0215 4.58397 34.937 4.58898C34.937 4.58898 34.937 4.58898 34.9321 4.58898C34.0582 4.614 33.2091 4.73911 32.3898 4.94929C28.05 0.775711 24.882 -0.770615 22.9753 0.35535C21.575 1.18106 21.1083 3.58312 21.5452 7.70165C21.8879 10.9244 22.7171 14.5225 23.3527 16.9696C23.3626 17.0146 23.3825 17.0547 23.4023 17.0897C23.442 18.4659 23.7151 19.822 24.1968 21.0981C24.2018 21.1131 24.2067 21.1332 24.2167 21.1482C24.4053 21.6486 24.6288 22.134 24.887 22.5994C25.5524 23.8205 25.9695 25.1866 26.1333 26.6629C26.3717 28.7947 27.2803 30.7264 28.77 32.2477C30.4979 34.0142 32.8118 34.99 35.2747 34.99H35.2846C37.7475 34.99 40.0564 34.0142 41.7894 32.2477C43.274 30.7314 44.2125 28.7247 44.4359 26.5978L44.431 26.6028Z" fill="#24FF87"/>
<path d="M66.6662 31.2717C65.0475 31.2717 63.7317 29.9456 63.7317 28.3092C63.7317 27.3284 62.9422 26.5327 61.9689 26.5327C60.9957 26.5327 60.2062 27.3284 60.2062 28.3092C60.2062 29.9406 58.8904 31.2667 57.2716 31.2667C55.6529 31.2667 54.337 29.9406 54.337 28.3092C54.337 28.114 54.1782 27.9539 53.9845 27.9539C53.7908 27.9539 53.632 28.114 53.632 28.3092C53.632 29.0148 53.8306 29.6754 54.1782 30.2359C52.6587 29.8906 51.5167 28.5194 51.5167 26.883C51.5167 25.0564 52.192 23.3149 53.4234 21.9738C54.3023 21.018 55.4096 20.3274 56.6261 19.957C54.7988 21.4984 53.632 23.8153 53.632 26.4026V26.883C53.632 27.0782 53.7908 27.2383 53.9845 27.2383C54.1782 27.2383 54.337 27.0782 54.337 26.883V26.4026C54.337 22.1589 57.7632 18.706 61.9739 18.706C66.1846 18.706 69.6108 22.1589 69.6108 26.4026V28.3042C69.6108 29.9356 68.2949 31.2617 66.6762 31.2617L66.6662 31.2717ZM61.964 31.2717C61.2539 31.2717 60.5488 31.1266 59.8983 30.8414C60.524 30.1808 60.9063 29.29 60.9063 28.3092C60.9063 27.7237 61.383 27.2433 61.964 27.2433C62.5449 27.2433 63.0216 27.7237 63.0216 28.3092C63.0216 29.29 63.4039 30.1808 64.0296 30.8414C63.3791 31.1216 62.674 31.2717 61.964 31.2717ZM51.0301 22.5943C51.0301 22.179 51.1343 21.7686 51.333 21.3633C51.6309 20.7677 51.6458 20.0721 51.3826 19.4466C51.3032 19.2614 51.2634 19.0763 51.2634 18.8911C51.2634 18.1955 51.8245 17.615 52.3509 17.2197C52.7332 17.3548 53.1453 17.4299 53.5724 17.4299C55.5784 17.4299 57.217 15.7835 57.217 13.7567V12.7359C57.217 11.9252 57.8724 11.2646 58.6768 11.2646C59.6501 11.2646 60.4396 10.4689 60.4396 9.48807C60.4396 9.48307 60.4396 9.47806 60.4396 9.47306C60.9312 9.408 61.4426 9.37297 61.9689 9.37297C62.4953 9.37297 63.0067 9.408 63.4983 9.47306C63.4983 9.47806 63.4983 9.48307 63.4983 9.48807C63.4983 10.4689 64.2878 11.2646 65.261 11.2646C66.0654 11.2646 66.7209 11.9252 66.7209 12.7359V13.7567C66.7209 14.1871 66.7953 14.6075 66.9393 15.0078C67.0039 15.193 67.2075 15.288 67.3912 15.223C67.5749 15.1579 67.6693 14.9528 67.6047 14.7676C67.4905 14.4473 67.4309 14.107 67.4309 13.7617V12.7409C67.4309 11.5398 66.4627 10.559 65.266 10.559C64.685 10.559 64.2083 10.0786 64.2083 9.49308C64.2083 8.90757 64.685 8.42716 65.266 8.42716H69.1539C71.443 8.42716 73.305 10.3038 73.305 12.6107V13.7617C73.305 15.3931 71.9892 16.7243 70.3705 16.7243C69.571 16.7243 68.8262 16.409 68.2651 15.8285C68.131 15.6884 67.9076 15.6834 67.7686 15.8235C67.6295 15.9586 67.6246 16.1838 67.7636 16.3239C68.4538 17.0395 69.3823 17.4349 70.3705 17.4349C70.7975 17.4349 71.2096 17.3598 71.592 17.2247C72.1133 17.615 72.6794 18.1955 72.6794 18.8961C72.6794 19.0813 72.6397 19.2665 72.5602 19.4516C72.2971 20.0771 72.3119 20.7777 72.6099 21.3683C72.8085 21.7686 72.9128 22.184 72.9128 22.5993C72.9128 23.0447 72.7986 23.4801 72.5702 23.9104C72.2176 23.0297 71.7062 22.214 71.0507 21.5034C69.7051 20.0421 67.8828 19.1463 65.9214 18.9862C65.9065 18.9862 65.8916 18.9862 65.8767 18.9862C64.7148 18.3657 63.389 18.0104 61.9838 18.0104C60.5786 18.0104 59.2528 18.3607 58.0909 18.9862C58.076 18.9862 58.0611 18.9862 58.0462 18.9862C56.0799 19.1463 54.2626 20.0421 52.9169 21.5034C52.2615 22.214 51.7501 23.0297 51.3975 23.9104C51.1691 23.4801 51.0549 23.0447 51.0549 22.5993L51.0301 22.5943ZM50.6328 13.7617V12.6107C50.6328 10.3038 52.4949 8.42716 54.7839 8.42716H58.6719C59.2528 8.42716 59.7295 8.90757 59.7295 9.49308C59.7295 10.0786 59.2528 10.559 58.6719 10.559C57.4802 10.559 56.5069 11.5348 56.5069 12.7409V13.7617C56.5069 15.3931 55.1911 16.7243 53.5724 16.7243C51.9536 16.7243 50.6378 15.3981 50.6378 13.7617H50.6328ZM69.7597 30.2359C70.1023 29.6754 70.3059 29.0148 70.3059 28.3092V26.4076C70.3059 23.8204 69.139 21.5034 67.3117 19.962C68.5283 20.3274 69.6306 21.018 70.5145 21.9738C71.7459 23.3149 72.4212 25.0564 72.4212 26.883C72.4212 28.5194 71.2791 29.8906 69.7597 30.2359ZM73.1263 26.883C73.1263 26.1574 73.027 25.4467 72.8433 24.7612C73.3448 24.0706 73.603 23.3399 73.603 22.5893C73.603 22.0639 73.4739 21.5434 73.2256 21.038C73.022 20.6326 73.0121 20.1522 73.1958 19.7168C73.31 19.4466 73.3696 19.1664 73.3696 18.8861C73.3696 18.1755 72.9972 17.4899 72.2822 16.8744C73.315 16.2238 74.0002 15.0729 74.0002 13.7617V12.6107C74.0002 9.91344 71.8204 7.71655 69.144 7.71655H65.2561C64.5361 7.71655 63.9154 8.15693 63.6423 8.78247C63.106 8.7074 62.54 8.66737 61.964 8.66737C61.388 8.66737 60.8269 8.7074 60.2856 8.78247C60.0125 8.15693 59.3919 7.71655 58.6719 7.71655H54.7839C52.1076 7.71655 49.9277 9.91344 49.9277 12.6107V13.7617C49.9277 15.0729 50.613 16.2289 51.6458 16.8744C50.9308 17.4899 50.5583 18.1805 50.5583 18.8861C50.5583 19.1664 50.6179 19.4466 50.7321 19.7168C50.9159 20.1522 50.9059 20.6326 50.7023 21.038C50.4491 21.5384 50.325 22.0639 50.325 22.5893C50.325 23.3449 50.5782 24.0706 51.0847 24.7612C50.896 25.4467 50.8016 26.1574 50.8016 26.883C50.8016 29.1399 52.5991 30.9765 54.8237 31.0265C55.4692 31.617 56.3282 31.9774 57.2667 31.9774C58.0214 31.9774 58.7265 31.7421 59.3075 31.3418C60.1268 31.7572 61.0404 31.9774 61.964 31.9774C62.8875 31.9774 63.8012 31.7572 64.6205 31.3418C65.2014 31.7421 65.9065 31.9774 66.6662 31.9774C67.6047 31.9774 68.4588 31.617 69.1092 31.0265C71.3338 30.9765 73.1312 29.1349 73.1312 26.883H73.1263Z" fill="#24FF87"/>
<path d="M63.1855 21.9888C62.4655 22.5543 61.4674 22.5543 60.7474 21.9888C60.3899 21.7085 59.9679 21.2832 59.9679 20.8628C59.9679 20.6927 60.5439 20.2823 61.964 20.2823C62.535 20.2823 63.0812 20.3624 63.4635 20.4975C63.7664 20.6026 63.9601 20.7477 63.9601 20.8628C63.9601 21.2832 63.538 21.7085 63.1805 21.9888H63.1855ZM61.9689 19.5717C60.7226 19.5717 59.2677 19.912 59.2677 20.8628C59.2677 21.4333 59.6203 21.9988 60.3154 22.5493C60.8021 22.9346 61.388 23.1248 61.9689 23.1248C62.5499 23.1248 63.1358 22.9346 63.6224 22.5493C64.3176 21.9988 64.6701 21.4333 64.6701 20.8628C64.6701 19.907 63.2153 19.5717 61.9689 19.5717Z" fill="#24FF87"/>
<path d="M59.5061 16.1688C60.3105 15.9736 61.1347 15.8735 61.9689 15.8735C62.8031 15.8735 63.6423 15.9736 64.4467 16.1738C64.4765 16.1788 64.5013 16.1838 64.5311 16.1838C64.69 16.1838 64.834 16.0737 64.8737 15.9136C64.9184 15.7234 64.8042 15.5282 64.6155 15.4832C63.7515 15.273 62.8627 15.1629 61.9689 15.1629C61.0752 15.1629 60.1963 15.268 59.3372 15.4782C59.1486 15.5232 59.0294 15.7184 59.079 15.9086C59.1237 16.0987 59.3174 16.2138 59.5061 16.1688Z" fill="#24FF87"/>
<path d="M63.9303 16.7843C62.6144 16.5141 61.2241 16.5191 59.9083 16.8043C59.7196 16.8444 59.5955 17.0345 59.6401 17.2247C59.6749 17.3898 59.8239 17.5049 59.9828 17.5049C60.0076 17.5049 60.0324 17.5049 60.0572 17.4949C61.2738 17.2297 62.5698 17.2247 63.7863 17.4749C63.975 17.515 64.1637 17.3898 64.2034 17.1997C64.2431 17.0095 64.119 16.8194 63.9303 16.7793V16.7843Z" fill="#24FF87"/>
<path d="M57.6192 17.5049C57.8129 17.5049 57.9718 17.3448 57.9718 17.1496V16.5791C57.9718 16.384 57.8129 16.2238 57.6192 16.2238C57.4256 16.2238 57.2667 16.384 57.2667 16.5791V17.1496C57.2667 17.3448 57.4256 17.5049 57.6192 17.5049Z" fill="#24FF87"/>
<path d="M66.3137 17.5049C66.5073 17.5049 66.6662 17.3448 66.6662 17.1496V16.5791C66.6662 16.384 66.5073 16.2238 66.3137 16.2238C66.12 16.2238 65.9611 16.384 65.9611 16.5791V17.1496C65.9611 17.3448 66.12 17.5049 66.3137 17.5049Z" fill="#24FF87"/>
<path d="M5.55665 16.449C5.77513 16.449 5.95389 16.2689 5.95389 16.0487V15.4081C5.95389 15.1879 5.77513 15.0078 5.55665 15.0078C5.33817 15.0078 5.15942 15.1879 5.15942 15.4081V16.0487C5.15942 16.2689 5.33817 16.449 5.55665 16.449Z" fill="#24FF87"/>
<path d="M15.274 16.449C15.4925 16.449 15.6713 16.2689 15.6713 16.0487V15.4081C15.6713 15.1879 15.4925 15.0078 15.274 15.0078C15.0555 15.0078 14.8768 15.1879 14.8768 15.4081V16.0487C14.8768 16.2689 15.0555 16.449 15.274 16.449Z" fill="#24FF87"/>
<path d="M10.4426 31.9323C9.64321 31.9323 8.84874 31.7671 8.11882 31.4519C8.81895 30.7112 9.25094 29.7054 9.25094 28.6044C9.25094 27.9439 9.78225 27.4034 10.4426 27.4034C11.1031 27.4034 11.6344 27.9439 11.6344 28.6044C11.6344 29.7054 12.0663 30.7112 12.7665 31.4519C12.0366 31.7721 11.252 31.9323 10.4426 31.9323ZM0.794794 20.0771C0.794794 14.7125 5.12466 10.3488 10.4476 10.3488C15.7706 10.3488 20.1004 14.7125 20.1004 20.0771C20.1004 21.2081 19.8174 22.294 19.2762 23.2649C17.9703 19.6217 14.5044 17.0145 10.4476 17.0145C6.39085 17.0145 2.92497 19.6267 1.61906 23.2649C1.07782 22.294 0.794794 21.2081 0.794794 20.0771ZM14.0227 6.24527C14.4349 6.24527 14.8222 6.44544 15.0655 6.78573L15.279 7.09099C16.575 8.92256 17.5631 10.9243 18.2185 13.0611C16.7935 11.4597 14.8917 10.2987 12.7416 9.81332V7.54138C12.7416 6.83077 13.3176 6.25027 14.0227 6.25027V6.24527ZM19.8273 28.6044C19.8273 28.3842 19.6486 28.2041 19.4301 28.2041C19.2116 28.2041 19.0329 28.3842 19.0329 28.6044C19.0329 30.441 17.5532 31.9323 15.7308 31.9323C13.9085 31.9323 12.4288 30.441 12.4288 28.5994C12.4288 27.4985 11.54 26.6027 10.4476 26.6027C9.35522 26.6027 8.4664 27.4985 8.4664 28.6044C8.4664 30.441 6.9867 31.9323 5.16438 31.9323C3.34207 31.9323 1.86236 30.441 1.86236 28.6044V26.4676C1.86236 21.6935 5.71555 17.8102 10.4526 17.8102C15.1896 17.8102 19.0428 21.6935 19.0428 26.4676V27.0031C19.0428 27.2232 19.2216 27.4034 19.44 27.4034C19.6585 27.4034 19.8373 27.2232 19.8373 27.0031V26.4676C19.8373 25.717 19.7479 24.9813 19.584 24.2807C20.4431 23.0447 20.8999 21.5984 20.8999 20.0771C20.8999 18.1605 20.3884 16.3639 19.4996 14.8176C19.4996 14.7926 19.4996 14.7676 19.4897 14.7425L19.4053 14.3822C18.7647 11.5798 17.5979 8.9676 15.9344 6.62559L15.7209 6.32033C15.3336 5.77486 14.703 5.44458 14.0327 5.44458C12.8906 5.44458 11.9621 6.38038 11.9621 7.53137V9.65819C11.4705 9.58813 10.969 9.5481 10.4526 9.5481C9.93617 9.5481 9.43963 9.58813 8.94309 9.65819V7.53137C8.94309 6.38038 8.01455 5.44458 6.8725 5.44458C6.20216 5.44458 5.57652 5.76986 5.18425 6.32033L4.97073 6.62559C4.65294 7.07598 4.34509 7.54138 4.06206 8.01678C3.94785 8.20695 4.00744 8.45216 4.19612 8.56726C4.38481 8.68236 4.62812 8.6223 4.74232 8.43214C5.01542 7.97675 5.30838 7.52636 5.61624 7.09099L5.82975 6.78573C6.06809 6.44544 6.46036 6.24527 6.8725 6.24527C7.57759 6.24527 8.15358 6.82576 8.15358 7.53637V9.80832C6.00354 10.2987 4.10178 11.4547 2.68166 13.0561C3.02428 11.9401 3.46124 10.8542 3.98261 9.81332C4.08192 9.61816 4.00247 9.37795 3.80882 9.27787C3.61517 9.17778 3.37682 9.25785 3.27752 9.45301C2.49298 11.0144 1.89712 12.6758 1.50485 14.3822L1.42044 14.7425C1.42044 14.7425 1.41051 14.7926 1.41051 14.8176C0.521695 16.3639 0.0102539 18.1605 0.0102539 20.0771C0.0102539 21.5984 0.467075 23.0447 1.3261 24.2807C1.16224 24.9813 1.07286 25.717 1.07286 26.4676V28.6044C1.07286 30.8814 2.91007 32.733 5.16935 32.733H5.17431C6.02341 32.733 6.81291 32.4677 7.46835 32.0224C8.39192 32.4878 9.41977 32.733 10.4575 32.733C11.4953 32.733 12.5232 32.4878 13.4467 32.0224C14.1022 32.4727 14.8917 32.733 15.7457 32.733C18.005 32.733 19.8422 30.8814 19.8422 28.6044H19.8273Z" fill="#24FF87"/>
<path d="M7.61731 14.9427C8.52102 14.7225 9.44956 14.6124 10.388 14.6124C11.3265 14.6124 12.2699 14.7275 13.1786 14.9477C13.2084 14.9577 13.2432 14.9577 13.273 14.9577C13.4517 14.9577 13.6156 14.8376 13.6603 14.6525C13.7099 14.4373 13.5808 14.2221 13.3673 14.1671C12.399 13.9268 11.396 13.8067 10.393 13.8067C9.38998 13.8067 8.39689 13.9268 7.43359 14.162C7.22008 14.2121 7.09098 14.4323 7.14063 14.6425C7.19028 14.8576 7.40876 14.9878 7.61731 14.9377V14.9427Z" fill="#24FF87"/>
<path d="M12.5927 15.6383C11.113 15.3331 9.54887 15.3381 8.06917 15.6633C7.85565 15.7084 7.71662 15.9236 7.76628 16.1387C7.806 16.3239 7.96986 16.454 8.15358 16.454C8.18337 16.454 8.2082 16.454 8.23799 16.444C9.60845 16.1488 11.0633 16.1387 12.4338 16.424C12.6473 16.469 12.8559 16.3289 12.9005 16.1137C12.9452 15.8985 12.8062 15.6884 12.5927 15.6433V15.6383Z" fill="#24FF87"/>
<path d="M11.7585 21.4883C10.9491 22.1239 9.82197 22.1239 9.01757 21.4883C8.61537 21.1731 8.13868 20.6977 8.13868 20.2222C8.13868 20.0321 8.78419 19.5667 10.388 19.5667C11.0286 19.5667 11.6443 19.6568 12.0763 19.8069C12.4189 19.927 12.6374 20.0921 12.6374 20.2222C12.6374 20.6977 12.1607 21.1731 11.7585 21.4883ZM10.388 18.766C8.98281 18.766 7.34918 19.1463 7.34918 20.2172C7.34918 20.8578 7.74641 21.4933 8.53095 22.1139C9.07715 22.5442 9.73259 22.7644 10.393 22.7644C11.0534 22.7644 11.7039 22.5492 12.255 22.1139C13.0396 21.4933 13.4368 20.8578 13.4368 20.2172C13.4368 19.1463 11.7982 18.766 10.398 18.766H10.388Z" fill="#24FF87"/>
</svg>
