<svg width="1920" height="619" viewBox="0 0 1920 619" fill="none" xmlns="http://www.w3.org/2000/svg">
<path d="M172.54 177.15L246.69 465.84L322.09 177.15H439.15L308.34 608.73H190.03L115.04 327.95L40.0497 608.73H-78.2603L-209.07 177.15H-92.0103L-16.6003 465.85L57.5497 177.16H172.53L172.54 177.15Z" fill="#FD3206"/>
<path d="M776.169 220.48V177.16H889.479V608.74H776.169V565.42C740.339 600.41 692.019 618.74 639.529 618.74C515.389 618.74 424.149 516.68 424.149 392.95C424.149 269.22 515.379 167.16 639.529 167.16C692.019 167.16 740.339 185.49 776.169 220.48ZM776.169 448.77V337.12C756.589 295.88 713.679 268.38 663.689 268.38C593.289 268.38 539.129 322.54 539.129 392.94C539.129 463.34 593.289 517.5 663.689 517.5C713.679 517.5 756.589 490 776.169 448.76V448.77Z" fill="#FD3206"/>
<path d="M960.699 0.52002H1075.26V608.74H960.699V0.52002Z" fill="#FD3206"/>
<path d="M1148.99 0.52002H1263.55V608.74H1148.99V0.52002Z" fill="#FD3206"/>
<path d="M1547.65 527.5C1594.31 527.5 1636.8 506.67 1670.13 473.76L1738.87 540.41C1691.38 592.07 1624.72 618.73 1548.07 618.73C1404.76 618.73 1306.87 519.17 1306.87 392.94C1306.87 266.71 1407.68 167.15 1541.41 167.15C1675.14 167.15 1767.62 265.05 1767.62 385.44C1767.62 398.77 1765.54 415.43 1762.62 427.1H1422.68C1432.68 487.09 1482.67 527.5 1547.66 527.5H1547.65ZM1425.59 345.45H1649.71C1637.21 294.21 1596.39 258.38 1540.56 258.38C1484.73 258.38 1441 292.96 1425.58 345.45H1425.59Z" fill="#FD3206"/>
<path d="M1940.07 459.18C1940.07 500.42 1957.98 519.17 2005.89 519.17C2018.8 519.17 2035.47 518.34 2046.72 517.09V612.91C2031.31 616.24 2008.81 618.74 1987.15 618.74C1880.09 618.74 1825.51 567.5 1825.51 466.27V276.72H1758.44V177.16H1825.51V62.1801L1940.07 52.1801V177.16H2041.72V276.72H1940.07V459.19V459.18Z" fill="#FD3206"/>
</svg>
