<svg width="474" height="253" viewBox="0 0 474 253" fill="none" xmlns="http://www.w3.org/2000/svg">
<path d="M4 197.153L0 193.153V168.503H13.7V184.353H50.62V177.423L37.66 164.464H0.23999V151.063H43.74L64.4301 171.753V192.923L60.2 197.153H4Z" fill="url(#paint0_linear_1576_55)"/>
<path d="M73.1798 197.404L68.7598 192.984V171.824C83.0698 157.224 87.2997 152.854 88.4597 151.344H128.31L132.85 155.884V192.924L128.71 197.404H73.1698H73.1798ZM81.9298 175.304V184.694H119.96V164.874H119.29C119.29 164.874 112.6 164.874 105.9 164.884C95.0398 164.904 92.5798 164.914 92.0098 165.254L92.0398 165.174L81.9198 175.294L81.9298 175.304Z" fill="url(#paint1_linear_1576_55)"/>
<path d="M336.03 183.214H284.86V179.874C284.86 179.874 333.66 180.764 336.03 179.934V165.324C333.92 165.344 297.09 165.644 297.41 165.324C297.73 165.004 311.13 151.604 312.34 150.394H291.25L270.71 170.934V193.204L275.77 198.014H336.03V183.214Z" fill="url(#paint2_linear_1576_55)"/>
<path d="M426.959 197.163L426.929 187.593L450.179 164.343H422.279V197.163H409.039C409.019 193.263 408.959 182.043 408.899 172.273V156.023L413.639 151.283L472.529 151.193V161.573L449.639 184.463H473.519V197.153H426.949L426.959 197.163Z" fill="url(#paint3_linear_1576_55)"/>
<path d="M35.9894 211.023H30.8394V209.993L33.4794 207.353H30.2594V211.023H28.8394L28.8193 206.463L29.3293 205.953H35.8794V207.063L33.2794 209.663H35.9894V211.023Z" fill="url(#paint4_linear_1576_55)"/>
<path d="M32.3093 216.183C28.2693 216.183 24.9893 212.893 24.9893 208.863C24.9893 204.833 28.2793 201.543 32.3093 201.543C36.3393 201.543 39.6293 204.833 39.6293 208.863C39.6293 212.893 36.3393 216.183 32.3093 216.183ZM32.3093 202.043C28.5493 202.043 25.4893 205.103 25.4893 208.863C25.4893 212.623 28.5493 215.683 32.3093 215.683C36.0693 215.683 39.1293 212.623 39.1293 208.863C39.1293 205.103 36.0693 202.043 32.3093 202.043Z" fill="url(#paint5_linear_1576_55)"/>
<path d="M345.05 197.434L339.92 192.914V171.864L360.67 151.114H398.89L403.81 156.034V180.833H390.64V165.754L390.65 165.094V164.424L389.98 164.404H366.45L353.47 177.384V184.404H403.98V197.434H345.05Z" fill="url(#paint6_linear_1576_55)"/>
<path d="M141.86 197.293L137.37 192.983V171.874L158.16 151.083H193.08L200.65 151.163V164.053H163.33L149.92 177.463V184.283H187.7V180.413H163.99V167.843H195.98L200.95 172.813V192.863L196.12 197.293H141.86Z" fill="url(#paint7_linear_1576_55)"/>
<path d="M35.2499 252.073L30.6699 247.493V227.303L51.9598 206.013C53.4998 205.843 63.7598 205.773 71.0698 205.763L44.4598 232.373V239.363H95.8899V252.073H35.2399H35.2499Z" fill="url(#paint8_linear_1576_55)"/>
<path d="M178.48 252.183L173.34 247.663V226.613L194.09 205.863H232.31L237.23 210.783V235.583H224.06V220.503L224.07 219.843V219.173L223.4 219.153H199.87L186.89 232.133V239.153H237.4V252.183H178.48Z" fill="url(#paint9_linear_1576_55)"/>
<path d="M106.83 252.044L102.64 247.854V226.904L123.71 205.833H167.35V215.244L148.05 234.554H127.95L143.02 219.474H128.71L115.89 232.294V239.284H167.11V252.044H106.83Z" fill="url(#paint10_linear_1576_55)"/>
<path d="M387.74 252.044L383.14 247.664V226.904L404.22 205.833H447.86V215.244L428.56 234.554H408.46L423.53 219.474H409.21L396.4 232.294V239.284H447.62V252.044H387.74Z" fill="url(#paint11_linear_1576_55)"/>
<path d="M248.49 252.043L243.83 247.723V226.623L264.59 205.863H302.51L307.11 205.913V218.803H269.78L256.38 232.213V239.033H294.16V235.163H270.45V222.593H302.44L307.41 227.563V247.613L302.57 252.043H248.49Z" fill="url(#paint12_linear_1576_55)"/>
<path d="M317.04 252.003L312.68 247.643V224.853L331.63 205.903H350.06L326.25 229.703V239.293H363.9V205.793H377.26V247.573L372.44 252.003H317.04Z" fill="url(#paint13_linear_1576_55)"/>
<path d="M205.95 197.283V184.373H254.84V179.953H205.95L205.85 170.293L224.75 151.313L231.67 151.283H267.92V163.993H229.6L225.07 168.543H262.57L267.19 173.183V192.893L262.62 197.283H205.95Z" fill="url(#paint14_linear_1576_55)"/>
<path d="M148.459 102.163L153.979 122.763L159.05 102.163H165.12L157.16 130.883H151.31L145.589 110.103L139.87 130.883H134.02L126.06 102.163H132.13L137.199 122.763L142.719 102.163H148.469H148.459Z" fill="url(#paint15_linear_1576_55)"/>
<path d="M175.089 126.893C177.389 126.893 179.48 125.863 181.12 124.243L184.51 127.523C182.17 130.063 178.889 131.383 175.109 131.383C168.049 131.383 163.229 126.483 163.229 120.263C163.229 114.043 168.19 109.143 174.78 109.143C181.37 109.143 185.92 113.963 185.92 119.893C185.92 120.553 185.82 121.373 185.67 121.943H168.93C169.42 124.893 171.879 126.883 175.089 126.883V126.893ZM169.079 117.923H180.12C179.5 115.403 177.49 113.633 174.74 113.633C171.99 113.633 169.839 115.333 169.079 117.923Z" fill="url(#paint16_linear_1576_55)"/>
<path d="M188.039 100.933H193.679V130.893H188.039V100.933Z" fill="url(#paint17_linear_1576_55)"/>
<path d="M195.81 120.263C195.81 114.043 200.859 109.143 207.609 109.143C210.809 109.143 213.54 110.233 215.63 111.993L212.839 116.203C211.419 115.053 209.66 114.133 207.65 114.133C204.18 114.133 201.52 116.823 201.52 120.263C201.52 123.703 204.19 126.403 207.65 126.403C209.66 126.403 211.529 125.443 212.959 124.163L216.099 128.103C213.989 130.153 211.029 131.383 207.609 131.383C200.859 131.383 195.81 126.483 195.81 120.263Z" fill="url(#paint18_linear_1576_55)"/>
<path d="M227.94 109.143C234.71 109.143 239.74 114.043 239.74 120.263C239.74 126.483 234.71 131.383 227.94 131.383C221.17 131.383 216.14 126.483 216.14 120.263C216.14 114.043 221.19 109.143 227.94 109.143ZM227.94 126.403C231.43 126.403 234.1 123.733 234.1 120.263C234.1 116.793 231.43 114.133 227.94 114.133C224.45 114.133 221.81 116.823 221.81 120.263C221.81 123.703 224.48 126.403 227.94 126.403Z" fill="url(#paint19_linear_1576_55)"/>
<path d="M247.39 109.633V111.973C248.7 110.353 250.78 109.183 253.11 109.183C256.15 109.183 258.59 110.583 260.02 112.833C261.52 110.653 264.21 109.143 267.04 109.143C271.94 109.143 275.33 112.713 275.33 117.743V130.893H269.69V118.313C269.69 115.993 268.21 114.123 265.83 114.123C264.02 114.123 262.36 115.493 261.32 117.183C261.34 117.633 261.36 118.103 261.36 118.573V130.883H255.72V118.303C255.72 115.903 254.2 114.113 251.86 114.113C250.05 114.113 248.41 115.483 247.39 117.113V130.883H241.75V109.623H247.39V109.633Z" fill="url(#paint20_linear_1576_55)"/>
<path d="M288.79 126.893C291.09 126.893 293.18 125.863 294.82 124.243L298.21 127.523C295.87 130.063 292.59 131.383 288.81 131.383C281.75 131.383 276.93 126.483 276.93 120.263C276.93 114.043 281.89 109.143 288.48 109.143C295.07 109.143 299.62 113.963 299.62 119.893C299.62 120.553 299.52 121.373 299.37 121.943H282.63C283.12 124.893 285.58 126.883 288.79 126.883V126.893ZM282.78 117.923H293.82C293.2 115.403 291.19 113.633 288.44 113.633C285.69 113.633 283.54 115.333 282.78 117.923Z" fill="url(#paint21_linear_1576_55)"/>
<path d="M319.059 123.523C319.059 125.553 319.939 126.473 322.299 126.473C322.939 126.473 323.759 126.433 324.309 126.373V131.093C323.549 131.253 322.439 131.383 321.379 131.383C316.109 131.383 313.419 128.863 313.419 123.873V114.533H310.119V109.633H313.419V103.973L319.059 103.483V109.643H324.069V114.543H319.059V123.533V123.523Z" fill="url(#paint22_linear_1576_55)"/>
<path d="M336.449 109.143C343.219 109.143 348.249 114.043 348.249 120.263C348.249 126.483 343.219 131.383 336.449 131.383C329.679 131.383 324.649 126.483 324.649 120.263C324.649 114.043 329.699 109.143 336.449 109.143ZM336.449 126.403C339.939 126.403 342.609 123.733 342.609 120.263C342.609 116.793 339.939 114.133 336.449 114.133C332.959 114.133 330.319 116.823 330.319 120.263C330.319 123.703 332.989 126.403 336.449 126.403Z" fill="url(#paint23_linear_1576_55)"/>
<path d="M228.67 86.0533C230.89 84.0633 233.46 82.8933 233.03 83.1533C233.51 82.8633 234.11 82.8633 234.58 83.1533L238.91 85.8433L234.58 83.9133C234.11 83.7033 233.57 83.7133 233.11 83.9333L228.68 86.0633" fill="#FD3206"/>
<path d="M234.65 75.6431C234.59 77.7331 234.5 80.7331 234.46 81.8531L234.09 75.5631C234.02 74.3231 232.98 73.3631 231.75 73.3731C228.4 73.4231 222.74 74.1831 225.85 79.1331C229.95 85.6531 233.77 85.5231 234.11 85.4931C234.17 85.7431 234.51 85.7431 234.57 85.4931C234.89 85.5131 238.72 85.6531 242.83 79.1231C245.91 74.2231 240.39 73.4331 237.03 73.3731C235.75 73.3531 234.69 74.3631 234.65 75.6331V75.6431Z" fill="#FD3206"/>
<path d="M261.789 36.8831C261.789 36.8831 259.699 42.6431 254.069 46.4431C254.069 46.4431 259.569 40.8131 261.139 35.5731C261.139 35.5731 264.409 27.1931 260.349 18.6831C256.289 10.1731 253.929 4.41307 254.849 0.353069C255.679 -3.33693 244.189 22.8331 242.769 35.1931C242.999 31.8731 243.709 26.3531 245.849 20.1931C245.849 20.1931 241.819 27.8531 241.589 37.1131C240.599 35.7731 238.679 34.1031 238.999 36.6731C237.159 34.6631 235.439 34.5231 235.439 34.5231C237.709 36.3431 238.919 38.0731 239.559 39.3331C239.599 39.4331 239.629 39.5331 239.669 39.6231C240.719 42.1131 240.849 44.3331 240.059 47.4831C239.269 50.6231 242.149 52.1931 242.149 52.1931C242.149 52.1931 247.119 52.8431 249.739 60.5731C249.739 60.5731 248.819 58.3431 246.469 56.6431C246.469 56.6431 245.949 68.2931 246.209 70.5231C246.469 72.7531 246.999 74.0531 247.519 73.6631C248.039 73.2731 249.089 69.2131 251.319 66.2031C253.439 63.3331 256.029 59.8631 253.669 52.0631C253.559 51.6931 253.429 51.3231 253.279 50.9731C253.599 51.2931 254.719 51.9431 255.439 55.6431C255.439 55.6431 255.789 54.4031 255.439 52.7531C255.259 51.9331 255.079 51.1031 255.039 50.3731C255.019 49.9431 255.209 49.5331 255.529 49.2531C256.969 48.0331 260.829 44.4231 261.919 40.0131C262.519 37.5731 261.789 36.8731 261.789 36.8731V36.8831ZM245.539 43.7631C245.369 44.6931 244.749 45.4731 243.889 45.8531L241.819 46.7631L242.039 46.1831C242.749 44.3231 243.869 42.6531 245.309 41.2831L246.139 40.5031L245.549 43.7731L245.539 43.7631Z" fill="#FD3206"/>
<path d="M229.31 36.6732C229.62 34.1032 227.7 35.7732 226.72 37.1132C226.49 27.8632 222.46 20.1932 222.46 20.1932C224.61 26.3632 225.31 31.8832 225.54 35.1932C224.13 22.8232 212.63 -3.33681 213.46 0.353187C214.38 4.41319 212.02 10.1732 207.96 18.6832C203.9 27.1932 207.17 35.5732 207.17 35.5732C208.74 40.8132 214.24 46.4432 214.24 46.4432C208.61 42.6432 206.52 36.8832 206.52 36.8832C206.52 36.8832 205.78 37.5832 206.39 40.0232C207.48 44.4332 211.34 48.0432 212.78 49.2632C213.11 49.5432 213.29 49.9532 213.27 50.3832C213.24 51.1032 213.05 51.9432 212.87 52.7632C212.52 54.4132 212.87 55.6532 212.87 55.6532C213.6 51.9532 214.71 51.3032 215.03 50.9832C214.88 51.3432 214.75 51.7032 214.64 52.0732C212.27 59.8732 214.87 63.3432 216.99 66.2132C219.22 69.2232 220.26 73.2832 220.79 73.6732C221.31 74.0632 221.84 72.7532 222.1 70.5332C222.36 68.3032 221.84 56.6532 221.84 56.6532C219.48 58.3532 218.57 60.5832 218.57 60.5832C221.19 52.8632 226.16 52.2032 226.16 52.2032C226.16 52.2032 229.04 50.6332 228.25 47.4932C227.46 44.3532 227.6 42.1232 228.64 39.6332C228.68 39.5432 228.71 39.4432 228.75 39.3432C229.39 38.0732 230.59 36.3432 232.87 34.5332C232.87 34.5332 231.15 34.6632 229.31 36.6832V36.6732ZM223.92 46.0932C223.06 45.7132 222.44 44.9332 222.27 44.0132L221.68 40.7632L222.5 41.5432C223.94 42.9032 225.05 44.5732 225.76 46.4232L225.98 47.0032L223.92 46.1032V46.0932Z" fill="#FD3206"/>
<path d="M239.26 85.8532C239.26 85.8532 244.95 86.5832 245.67 80.7532Z" fill="#FD3206"/>
<path d="M228.14 85.8532C228.14 85.8532 222.449 86.5832 221.729 80.7532Z" fill="#FD3206"/>
<defs>
<linearGradient id="paint0_linear_1576_55" x1="331.39" y1="481.623" x2="42.9003" y2="193.133" gradientUnits="userSpaceOnUse">
<stop stop-color="#F7931E"/>
<stop offset="1" stop-color="#FF0000"/>
</linearGradient>
<linearGradient id="paint1_linear_1576_55" x1="370.34" y1="443.973" x2="81.9296" y2="155.554" gradientUnits="userSpaceOnUse">
<stop stop-color="#F7931E"/>
<stop offset="1" stop-color="#FF0000"/>
</linearGradient>
<linearGradient id="paint2_linear_1576_55" x1="474.99" y1="350.884" x2="180.31" y2="56.2033" gradientUnits="userSpaceOnUse">
<stop stop-color="#F7931E"/>
<stop offset="1" stop-color="#FF0000"/>
</linearGradient>
<linearGradient id="paint3_linear_1576_55" x1="543.959" y1="277.343" x2="255.489" y2="-11.1266" gradientUnits="userSpaceOnUse">
<stop stop-color="#F7931E"/>
<stop offset="1" stop-color="#FF0000"/>
</linearGradient>
<linearGradient id="paint4_linear_1576_55" x1="324.881" y1="501.004" x2="30.1907" y2="206.322" gradientUnits="userSpaceOnUse">
<stop stop-color="#F7931E"/>
<stop offset="1" stop-color="#FF0000"/>
</linearGradient>
<linearGradient id="paint5_linear_1576_55" x1="324.67" y1="501.214" x2="29.9793" y2="206.533" gradientUnits="userSpaceOnUse">
<stop stop-color="#F7931E"/>
<stop offset="1" stop-color="#FF0000"/>
</linearGradient>
<linearGradient id="paint6_linear_1576_55" x1="508.2" y1="310.814" x2="220.82" y2="23.4338" gradientUnits="userSpaceOnUse">
<stop stop-color="#F7931E"/>
<stop offset="1" stop-color="#FF0000"/>
</linearGradient>
<linearGradient id="paint7_linear_1576_55" x1="406.19" y1="409.253" x2="117.99" y2="121.054" gradientUnits="userSpaceOnUse">
<stop stop-color="#F7931E"/>
<stop offset="1" stop-color="#FF0000"/>
</linearGradient>
<linearGradient id="paint8_linear_1576_55" x1="318.47" y1="494.233" x2="31.1098" y2="206.874" gradientUnits="userSpaceOnUse">
<stop stop-color="#F7931E"/>
<stop offset="1" stop-color="#FF0000"/>
</linearGradient>
<linearGradient id="paint9_linear_1576_55" x1="396.15" y1="420.093" x2="108.77" y2="132.713" gradientUnits="userSpaceOnUse">
<stop stop-color="#F7931E"/>
<stop offset="1" stop-color="#FF0000"/>
</linearGradient>
<linearGradient id="paint10_linear_1576_55" x1="361.32" y1="453.174" x2="73.9494" y2="165.794" gradientUnits="userSpaceOnUse">
<stop stop-color="#F7931E"/>
<stop offset="1" stop-color="#FF0000"/>
</linearGradient>
<linearGradient id="paint11_linear_1576_55" x1="505.1" y1="316.344" x2="217.719" y2="28.9737" gradientUnits="userSpaceOnUse">
<stop stop-color="#F7931E"/>
<stop offset="1" stop-color="#FF0000"/>
</linearGradient>
<linearGradient id="paint12_linear_1576_55" x1="433.81" y1="385.163" x2="145.62" y2="96.9729" gradientUnits="userSpaceOnUse">
<stop stop-color="#F7931E"/>
<stop offset="1" stop-color="#FF0000"/>
</linearGradient>
<linearGradient id="paint13_linear_1576_55" x1="469.45" y1="351.204" x2="181.059" y2="62.8037" gradientUnits="userSpaceOnUse">
<stop stop-color="#F7931E"/>
<stop offset="1" stop-color="#FF0000"/>
</linearGradient>
<linearGradient id="paint14_linear_1576_55" x1="439.77" y1="377.113" x2="151.58" y2="88.9331" gradientUnits="userSpaceOnUse">
<stop stop-color="#F7931E"/>
<stop offset="1" stop-color="#FF0000"/>
</linearGradient>
<linearGradient id="paint15_linear_1576_55" x1="429.529" y1="396.493" x2="134.849" y2="101.804" gradientUnits="userSpaceOnUse">
<stop stop-color="#F7931E"/>
<stop offset="1" stop-color="#FF0000"/>
</linearGradient>
<linearGradient id="paint16_linear_1576_55" x1="440.23" y1="385.793" x2="145.54" y2="91.1024" gradientUnits="userSpaceOnUse">
<stop stop-color="#F7931E"/>
<stop offset="1" stop-color="#FF0000"/>
</linearGradient>
<linearGradient id="paint17_linear_1576_55" x1="450.48" y1="375.533" x2="155.8" y2="80.8525" gradientUnits="userSpaceOnUse">
<stop stop-color="#F7931E"/>
<stop offset="1" stop-color="#FF0000"/>
</linearGradient>
<linearGradient id="paint18_linear_1576_55" x1="456.669" y1="369.343" x2="161.989" y2="74.6644" gradientUnits="userSpaceOnUse">
<stop stop-color="#F7931E"/>
<stop offset="1" stop-color="#FF0000"/>
</linearGradient>
<linearGradient id="paint19_linear_1576_55" x1="466.849" y1="359.173" x2="172.17" y2="64.4835" gradientUnits="userSpaceOnUse">
<stop stop-color="#F7931E"/>
<stop offset="1" stop-color="#FF0000"/>
</linearGradient>
<linearGradient id="paint20_linear_1576_55" x1="481.09" y1="344.923" x2="186.41" y2="50.2437" gradientUnits="userSpaceOnUse">
<stop stop-color="#F7931E"/>
<stop offset="1" stop-color="#FF0000"/>
</linearGradient>
<linearGradient id="paint21_linear_1576_55" x1="497.079" y1="328.943" x2="202.389" y2="34.254" gradientUnits="userSpaceOnUse">
<stop stop-color="#F7931E"/>
<stop offset="1" stop-color="#FF0000"/>
</linearGradient>
<linearGradient id="paint22_linear_1576_55" x1="513.38" y1="312.633" x2="218.7" y2="17.952" gradientUnits="userSpaceOnUse">
<stop stop-color="#F7931E"/>
<stop offset="1" stop-color="#FF0000"/>
</linearGradient>
<linearGradient id="paint23_linear_1576_55" x1="521.109" y1="304.913" x2="226.419" y2="10.2335" gradientUnits="userSpaceOnUse">
<stop stop-color="#F7931E"/>
<stop offset="1" stop-color="#FF0000"/>
</linearGradient>
</defs>
</svg>
