<svg width="210" height="59" viewBox="0 0 210 59" fill="none" xmlns="http://www.w3.org/2000/svg">
<g id="Group">
<g id="Group_2">
<path id="Vector" d="M26.16 58.74C11.77 58.74 0.0599976 45.71 0.0599976 29.7C0.0599976 13.69 11.77 0.660004 26.16 0.660004H183.55C197.94 0.660004 209.65 13.69 209.65 29.7C209.65 45.71 197.94 58.74 183.55 58.74H26.16Z" fill="url(#paint0_linear_865_709)"/>
<path id="Vector_2" d="M26.16 53.21C14.51 53.21 5.03 42.66 5.03 29.7C5.03 16.74 14.51 6.19 26.16 6.19H183.55C195.2 6.19 204.68 16.74 204.68 29.7C204.68 42.66 195.2 53.21 183.55 53.21H26.16Z" fill="black"/>
<path id="Vector_3" d="M26.16 51.82C15.19 51.82 6.27 41.89 6.27 29.69C6.27 17.49 15.19 7.56 26.16 7.56H183.55C194.52 7.56 203.44 17.49 203.44 29.69C203.44 41.89 194.52 51.82 183.55 51.82H26.16Z" fill="url(#paint1_linear_865_709)"/>
</g>
<path id="Vector_4" style="mix-blend-mode:screen" opacity="0.67" d="M116.95 29.98L202.93 23.99C202.93 23.99 199.2 9.58001 186.06 7.46001L21.73 7.95C7.94 13.19 6.97 24.16 6.97 24.16L97.03 30.02C103.67 30.2 110.32 30.19 116.96 29.98H116.95Z" fill="url(#paint2_linear_865_709)"/>
</g>
<defs>
<linearGradient id="paint0_linear_865_709" x1="104.85" y1="58.74" x2="104.85" y2="0.650004" gradientUnits="userSpaceOnUse">
<stop stop-color="#808080"/>
<stop offset="0.02" stop-color="#706F6F"/>
<stop offset="0.06" stop-color="#5B5959"/>
<stop offset="0.1" stop-color="#4C4849"/>
<stop offset="0.15" stop-color="#413C3D"/>
<stop offset="0.23" stop-color="#3A3536"/>
<stop offset="0.43" stop-color="#393435"/>
<stop offset="0.57" stop-color="#312D2D"/>
<stop offset="0.78" stop-color="#1C1A1A"/>
<stop offset="1"/>
</linearGradient>
<linearGradient id="paint1_linear_865_709" x1="104.85" y1="51.82" x2="104.85" y2="7.57" gradientUnits="userSpaceOnUse">
<stop stop-color="#121212"/>
<stop offset="0.09" stop-color="#2C0F12"/>
<stop offset="0.34" stop-color="#760A12"/>
<stop offset="0.57" stop-color="#B10513"/>
<stop offset="0.76" stop-color="#DB0213"/>
<stop offset="0.91" stop-color="#F50013"/>
<stop offset="1" stop-color="#FF0014"/>
</linearGradient>
<linearGradient id="paint2_linear_865_709" x1="104.94" y1="69.33" x2="104.94" y2="6.39001" gradientUnits="userSpaceOnUse">
<stop offset="0.55" stop-color="#19191B"/>
<stop offset="1" stop-color="#58595B"/>
</linearGradient>
</defs>
</svg>
