<svg width="99" height="96" viewBox="0 0 99 96" fill="none" xmlns="http://www.w3.org/2000/svg">
<path d="M49.5004 96C23.9779 96 3.2199 75.5449 3.2199 50.3957C3.2199 25.2465 23.9779 4.80005 49.5004 4.80005C75.0229 4.80005 95.7809 25.2553 95.7809 50.3957C95.7809 75.5361 75.0229 96 49.5004 96ZM49.5004 5.6088C24.4473 5.6088 4.06122 25.7036 4.06122 50.3957C4.06122 75.0878 24.4473 95.1825 49.5004 95.1825C74.5535 95.1825 94.9307 75.0878 94.9307 50.3957C94.9307 25.7036 74.5535 5.6088 49.5004 5.6088Z" fill="#FD3206"/>
<path d="M93.4499 75.3992C90.8451 79.8649 87.6605 83.7862 84.034 87.1262L77.3426 87.1907C76.8732 87.1907 76.6891 86.6187 77.0572 86.3326C81.7698 82.7804 85.884 78.2595 89.0227 72.8619C92.1705 67.4644 94.0666 61.6886 94.8213 55.8574C94.8766 55.3961 95.4748 55.2762 95.7049 55.6821L99 61.4487C97.8863 66.2281 96.0546 70.9244 93.4499 75.39V75.3992ZM21.6574 87.1907L14.966 87.1262C11.3487 83.7862 8.15486 79.8649 5.55008 75.3992C2.94531 70.9336 1.1137 66.2373 0 61.458L3.28589 55.6914C3.516 55.2854 4.11424 55.4146 4.17867 55.8667C4.93341 61.6979 6.82951 67.4737 9.96813 72.8712C13.116 78.2687 17.221 82.7804 21.9427 86.3419C22.3109 86.6187 22.1268 87.2 21.6574 87.2V87.1907ZM67.2641 8.58995C61.7968 6.32023 55.7956 5.05618 49.5 5.05618C43.2043 5.05618 37.2124 6.32023 31.7359 8.58995C31.3126 8.77448 30.8984 8.31312 31.1377 7.91638L34.534 2.21439C39.2742 0.784278 44.2996 0 49.5 0C54.7003 0 59.7258 0.775051 64.466 2.21439L67.8623 7.91638C68.1016 8.31312 67.6967 8.76526 67.2641 8.58995Z" fill="#FD3206"/>
</svg>
