<svg width="25" height="35" viewBox="0 0 25 35" fill="none" xmlns="http://www.w3.org/2000/svg">
<path d="M9.95859 18.4437C9.93869 18.0574 9.76293 17.6743 9.42467 17.3918C8.93718 16.9795 8.20428 16.9178 7.65046 17.2425C7.26908 17.4665 7.02699 17.8139 6.93745 18.1905C6.84791 18.5736 7.17623 18.9307 7.5775 18.9015C8.27723 18.8463 8.92391 18.856 9.50094 18.895C9.76293 18.9145 9.97186 18.6969 9.95528 18.4437H9.95859Z" fill="black"/>
<path d="M24.7678 11.5732C24.9236 10.5927 24.8507 9.56358 24.7877 8.6578C24.718 7.68385 24.6086 6.70015 24.456 5.74243C24.3035 4.77172 24.1078 3.80426 23.8724 2.86602C23.8492 2.77512 23.826 2.67772 23.8027 2.57059C23.6369 1.83363 23.3882 0.716826 22.5127 0.661635C21.8295 0.619431 21.2326 1.20705 20.7517 1.68104C20.6921 1.73948 20.6324 1.79792 20.576 1.85311C20.0288 2.37904 19.5115 2.96017 19.0372 3.58674C18.0622 4.87236 17.2663 6.32356 16.6661 7.90136C16.613 8.04096 16.5964 8.1903 16.613 8.33639C15.3926 7.75852 14.0661 7.45984 12.7031 7.45984C11.3401 7.45984 9.97712 7.76501 8.75673 8.35263C8.77331 8.20329 8.76005 8.04745 8.70699 7.90136C8.10674 6.32356 7.30751 4.87236 6.33584 3.58674C5.86161 2.96017 5.34427 2.37904 4.79708 1.85311C4.7407 1.79792 4.68433 1.73948 4.62132 1.68104C4.14045 1.20705 3.54352 0.616184 2.86037 0.658389C1.98487 0.71358 1.73283 1.83038 1.56701 2.56734C1.5438 2.67447 1.5239 2.77187 1.50069 2.86277C1.26523 3.80426 1.06625 4.77172 0.913705 5.73918C0.764472 6.69691 0.651718 7.6806 0.582076 8.65455C0.519066 9.56033 0.446108 10.5862 0.601974 11.5699C0.873909 13.2614 2.02798 14.4139 3.0494 15.43C3.10246 15.482 3.15552 15.5339 3.20858 15.5891C2.72108 17.6604 2.75425 19.5239 2.82057 20.4686C3.07261 24.0723 5.29784 29.9095 8.64066 32.7989C8.95239 33.0716 9.27739 33.3183 9.60902 33.5326C10.5674 34.1527 11.6054 34.5228 12.6998 34.5358H12.7031C12.7263 34.5358 12.7529 34.5358 12.7761 34.5358C13.9003 34.5163 14.9615 34.1202 15.9431 33.4644C16.2681 33.2469 16.5832 33.0002 16.8883 32.7307C20.188 29.8186 22.3767 24.043 22.6288 20.4686C22.6951 19.5174 22.7283 17.6247 22.2275 15.5274C22.2607 15.4982 22.2872 15.4657 22.3237 15.4333C23.3418 14.4171 24.4992 13.2646 24.7678 11.5732ZM21.5112 14.2515C21.3686 14.3944 21.226 14.534 21.09 14.6736C20.8546 14.9138 20.8081 15.2839 20.954 15.5924C20.954 15.6411 20.964 15.6897 20.9739 15.7384C21.4614 17.7026 21.4316 19.4849 21.3686 20.3745C21.2028 22.712 20.115 25.9552 18.6592 28.4518C18.1485 29.3284 17.3592 30.5036 16.3544 31.4646C16.3411 31.4386 16.3311 31.4094 16.3179 31.3834C16.2449 31.2308 16.0658 31.1107 16.0691 30.9484C16.1089 28.2635 14.3016 30.4484 12.9187 30.4484C11.5358 30.4484 9.39677 28.6336 9.44983 31.0068C9.44983 31.1042 9.34703 31.1724 9.30392 31.26C9.26744 31.325 9.23428 31.3931 9.20443 31.4646C9.19116 31.4905 9.18122 31.5198 9.16795 31.549C8.12664 30.575 7.31414 29.3608 6.78685 28.4583C5.33432 25.9617 4.24658 22.7152 4.08076 20.381C4.02107 19.4882 3.98791 17.7026 4.47872 15.732C4.50525 15.6248 4.50525 15.5177 4.47872 15.4138C4.53841 15.1508 4.46877 14.8749 4.27974 14.6801C4.14377 14.5405 4.00117 14.4009 3.85857 14.258C3.12899 13.5341 2.36956 12.7874 1.98487 11.8134C1.73283 11.1803 1.76599 10.3525 1.79584 9.69019C1.83232 8.79415 1.90528 7.90461 2.01471 7.04753C2.12083 6.21642 2.2568 5.38531 2.42593 4.57693C2.51547 4.14839 2.61165 3.71985 2.71777 3.3043C2.7443 3.19716 2.76751 3.08678 2.79404 2.96991C2.85373 2.70694 2.91343 2.43748 3.00297 2.22646C3.10246 2.24918 3.3346 2.38229 3.87847 2.93744C3.92158 2.98289 3.95806 3.0186 3.98459 3.04782C4.44887 3.49584 4.88994 3.98931 5.30447 4.51849C6.23303 5.71321 6.9991 7.09298 7.57945 8.62533C7.62587 8.74221 7.68557 8.8396 7.76516 8.90778C7.47001 9.09608 7.18481 9.29736 6.91287 9.52137C6.46517 9.84927 6.04732 10.2226 5.66595 10.6414C5.44044 10.8849 5.46034 11.2615 5.69911 11.492L5.71901 11.5115C5.981 11.768 6.40548 11.7485 6.65752 11.4823C6.96262 11.1544 7.30088 10.8557 7.66235 10.5927C9.11821 9.41424 10.8593 8.79415 12.7031 8.79415C14.4176 8.79415 16.0625 9.34281 17.4885 10.3882C17.9561 10.6934 18.3906 11.0537 18.7819 11.4725C19.0273 11.7322 19.4484 11.7355 19.7038 11.4855L19.7237 11.466C19.9625 11.2323 19.9791 10.8557 19.7535 10.609C19.276 10.0895 18.7487 9.64474 18.1849 9.27788C17.9992 9.14153 17.8102 9.01167 17.6179 8.89155C17.6875 8.82337 17.7472 8.73247 17.7903 8.62209C18.3707 7.08973 19.1367 5.70996 20.0686 4.51525C20.4798 3.98607 20.9242 3.48935 21.3852 3.04458C21.4117 3.0186 21.4515 2.97965 21.4946 2.9342C22.0385 2.37904 22.2706 2.24593 22.3701 2.22321C22.4596 2.43423 22.5193 2.70369 22.5757 2.96666C22.6022 3.08353 22.6255 3.19392 22.6553 3.30105C22.7581 3.71661 22.8576 4.14515 22.9471 4.57369C23.1129 5.38207 23.2522 6.21317 23.3584 7.04428C23.4678 7.90136 23.5408 8.79091 23.5772 9.68694C23.6038 10.3492 23.6369 11.1771 23.3849 11.8102C23.0002 12.7809 22.2441 13.5276 21.5112 14.2548V14.2515Z" fill="black"/>
<path d="M22.1163 16.2578C21.3038 16.3097 19.6423 16.313 18.6242 15.6345C17.2347 14.706 16.8633 12.1152 16.8633 12.1152C16.8633 12.1152 16.3393 14.7352 15.0691 15.6182C13.7957 16.5013 11.0896 16.1636 11.0896 16.1636C11.0896 16.1636 13.6067 17.3778 13.9549 18.9102C14.3031 20.4425 13.2585 22.767 13.2585 22.767C13.2585 22.767 15.0758 20.9522 16.8235 20.962C18.5711 20.9685 20.3719 22.7995 20.3719 22.7995C20.3719 22.7995 19.1648 20.1471 19.712 18.9362C20.1165 18.0369 21.5127 16.9753 22.2058 16.4883C22.3119 16.4136 22.2522 16.2513 22.1229 16.261L22.1163 16.2578ZM18.2229 18.8907C17.6492 18.8518 16.9992 18.842 16.2995 18.8972C15.8982 18.9297 15.5699 18.5693 15.6594 18.1862C15.749 17.8096 15.9878 17.4622 16.3724 17.2382C16.9263 16.9136 17.6592 16.9753 18.1467 17.3876C18.4849 17.6733 18.6574 18.0531 18.6806 18.4394C18.6939 18.6927 18.4849 18.9069 18.2263 18.8907H18.2229Z" fill="black"/>
</svg>
