<svg width="35" height="7" viewBox="0 0 35 7" fill="none" xmlns="http://www.w3.org/2000/svg">
<path d="M3.0874 4.66288V2.91211H4.69584L7.00005 5.2649V6.99723H5.44584L3.0874 4.66288Z" fill="#1A1A1A"/>
<path d="M0.656627 6.9059C0.487952 6.74004 0.237952 6.49432 0 6.25781V1.6536L1.62349 -0.00195312H5.75904L6.79819 1.05772V2.35083H2.25301V6.90897H0.656627V6.9059Z" fill="#1A1A1A"/>
<path d="M12.7188 4.66288V2.91211H14.3272L16.6314 5.2649V6.99723H15.0772L12.7188 4.66288Z" fill="#1A1A1A"/>
<path d="M10.288 6.9059C10.1193 6.74004 9.8693 6.49432 9.63135 6.25781V1.6536L11.2548 -0.00195312H15.3904L16.4295 1.05772V2.35083H11.8844V6.90897H10.288V6.9059Z" fill="#1A1A1A"/>
<path d="M22.4558 4.51844L26.5396 3.51532L25.555 5.11267L31.3562 2.26688L27.0934 3.07373L27.2333 1.91797L22.4558 4.51844Z" fill="#1A1A1A"/>
<path d="M33.5771 1.24104V0.575928H33.0177V-0.00195312H20.6266V0.575928H20V6.43652H20.6266V6.99805H33.0177V6.43652H33.5771V5.65693H34.875V1.24104H33.5771ZM21.5104 5.51518V1.44275H32.4583V5.51518H21.5104Z" fill="#1A1A1A"/>
</svg>
