<svg width="19" height="27" viewBox="0 0 19 27" fill="none" xmlns="http://www.w3.org/2000/svg">
<path d="M7.34695 14.1448C7.33151 13.836 7.19251 13.5272 6.93002 13.311C6.54401 12.9868 5.98813 12.9404 5.55579 13.1875C5.26242 13.3728 5.07716 13.6507 4.99996 13.9441C4.92275 14.2529 5.18516 14.5308 5.49397 14.5154C6.03439 14.469 6.54407 14.4845 6.99185 14.5154C7.19257 14.5154 7.36239 14.361 7.34695 14.1602V14.1448Z" fill="#CCCCCC"/>
<path d="M12.567 5.76078C12.5207 5.86886 12.5052 5.99238 12.5207 6.1159C11.5788 5.65269 10.5443 5.42109 9.47894 5.42109C8.41354 5.42109 7.3636 5.66814 6.40629 6.13136C6.40629 6.00784 6.40624 5.88429 6.35992 5.77621C5.8967 4.52553 5.27898 3.36749 4.5224 2.33298C4.15182 1.83888 3.75053 1.37567 3.33363 0.958771C3.28731 0.91245 3.24086 0.866134 3.19453 0.819812C2.82396 0.449239 2.36074 -0.0294156 1.83576 0.00146548C1.15638 0.0477871 0.955611 0.927891 0.832087 1.51463C0.816646 1.60727 0.801349 1.68447 0.785908 1.74623C0.600622 2.50282 0.446141 3.25942 0.322617 4.03145C0.199093 4.78803 0.121822 5.57549 0.0600599 6.36296C0.0137383 7.08866 -0.0480239 7.90701 0.0600599 8.67904C0.276227 10.0224 1.17194 10.9488 1.9594 11.7517C2.00573 11.798 2.03654 11.8289 2.08286 11.8752C1.71229 13.5274 1.72782 15.0097 1.78958 15.7662C1.99031 18.6382 3.71954 23.2858 6.31355 25.5864C6.5606 25.8026 6.80763 26.0033 7.07012 26.1732C7.81127 26.6673 8.61425 26.9606 9.46348 26.9761C9.46348 26.9761 9.49423 26.9761 9.52512 26.9761C10.4052 26.9606 11.2237 26.6518 11.9803 26.1269C12.2273 25.957 12.4744 25.7563 12.7214 25.5401C15.2845 23.224 16.983 18.6227 17.1837 15.7662C17.2301 15.0097 17.2608 13.4965 16.8748 11.8289C16.9057 11.798 16.9212 11.7826 16.9521 11.7517C17.7396 10.9488 18.6351 10.0224 18.8513 8.67904C18.9748 7.89157 18.913 7.07322 18.8513 6.36296C18.7895 5.59093 18.7122 4.80347 18.5887 4.03145C18.4652 3.25942 18.3109 2.48738 18.1411 1.74623C18.1256 1.66903 18.1101 1.59183 18.0792 1.51463C17.9557 0.927891 17.7549 0.0323466 17.0756 0.00146548C16.5506 -0.0294156 16.0874 0.433799 15.7168 0.819812C15.6705 0.866134 15.6242 0.91245 15.5779 0.958771C15.1455 1.37567 14.7441 1.83888 14.3889 2.33298M16.3035 10.8253C16.1954 10.9334 16.0874 11.0569 15.9793 11.165C15.7941 11.3503 15.7633 11.6591 15.8713 11.8907C15.8713 11.937 15.8713 11.9679 15.8713 12.0142C16.2574 13.5737 16.2264 14.9942 16.1801 15.7045C16.0566 17.5728 15.2073 20.1514 14.0802 22.1432C13.6787 22.838 13.0765 23.7799 12.289 24.5519C12.289 24.5365 12.2736 24.5056 12.2581 24.4902C12.1964 24.3666 12.0574 24.274 12.0574 24.135C12.0883 21.9888 10.6832 23.7336 9.61785 23.7336C8.55245 23.7336 6.88489 22.2821 6.93121 24.1813C6.93121 24.2585 6.8539 24.3203 6.82302 24.3821C6.79214 24.4284 6.76137 24.4902 6.74593 24.5365C6.74593 24.5519 6.73046 24.5828 6.71502 24.5982C5.91211 23.8262 5.27913 22.8535 4.86223 22.1432C3.73507 20.1514 2.88568 17.5728 2.76215 15.7045C2.71583 14.9942 2.68506 13.5737 3.07108 11.9987C3.08652 11.9061 3.08652 11.8289 3.07108 11.7517C3.1174 11.551 3.07112 11.3194 2.91671 11.165C2.80863 11.0569 2.70041 10.9488 2.59233 10.8253C2.02103 10.254 1.43438 9.6518 1.14101 8.87977C0.940283 8.37024 0.971202 7.72172 0.986643 7.18131C1.01752 6.47104 1.07926 5.76078 1.15647 5.08139C1.23367 4.41745 1.34169 3.7535 1.48066 3.12044C1.54242 2.78075 1.61966 2.44107 1.7123 2.10138C1.72774 2.00874 1.75868 1.93154 1.77413 1.83889C1.82045 1.62273 1.86675 1.40655 1.94395 1.25215C2.02115 1.26759 2.20635 1.37566 2.62324 1.82344C2.65412 1.85432 2.68508 1.8852 2.70052 1.91608C3.05565 2.27121 3.41084 2.67268 3.71965 3.08957C4.44535 4.04689 5.03193 5.14316 5.4797 6.36296C5.51058 6.4556 5.55704 6.5328 5.6188 6.59456C5.3872 6.74896 5.17094 6.90338 4.95478 7.08867C4.59965 7.35115 4.29083 7.64453 3.98202 7.98422C3.81217 8.18495 3.82764 8.47832 4.01293 8.66361H4.02838C4.22911 8.87977 4.56876 8.86433 4.75404 8.66361C4.98565 8.40112 5.24814 8.1695 5.52607 7.95333C6.65323 7.01146 8.01206 6.51737 9.44803 6.51737C10.7759 6.51737 12.0575 6.9497 13.1692 7.78349C13.5398 8.03053 13.8639 8.30846 14.1727 8.64815C14.358 8.84888 14.6824 8.86432 14.8831 8.64815H14.8986C15.0839 8.44742 15.0993 8.13862 14.914 7.95333C14.5435 7.53644 14.1419 7.1813 13.6942 6.88793C13.5552 6.77985 13.4007 6.67177 13.2463 6.57913C13.3081 6.51736 13.3389 6.4556 13.3852 6.36296C13.833 5.14316 14.4352 4.04689 15.1609 3.08957C15.4852 2.67268 15.8249 2.27121 16.1801 1.91608C16.1955 1.90064 16.2263 1.86976 16.2726 1.82344C16.6895 1.37566 16.8749 1.28303 16.9521 1.25215C17.0139 1.42199 17.0601 1.63817 17.1065 1.83889C17.1219 1.93154 17.1529 2.02418 17.1683 2.10138C17.2455 2.42563 17.3227 2.78075 17.3999 3.12044C17.5235 3.76894 17.6315 4.43289 17.7241 5.08139C17.8168 5.76078 17.8631 6.47104 17.894 7.18131C17.9094 7.70628 17.9403 8.37024 17.7396 8.87977C17.4462 9.6518 16.8594 10.254 16.2881 10.8253H16.3035Z" fill="#CCCCCC"/>
<path d="M16.7971 12.4156C16.164 12.4619 14.8825 12.4619 14.0796 11.9215C12.9987 11.1804 12.7053 9.11133 12.7053 9.11133C12.7053 9.11133 12.3038 11.1958 11.3156 11.9061C10.3275 12.6009 8.22754 12.3384 8.22754 12.3384C8.22754 12.3384 10.1886 13.3111 10.4511 14.5309C10.7136 15.7508 9.9105 17.6036 9.9105 17.6036C9.9105 17.6036 11.3157 16.1522 12.6744 16.1677C14.0332 16.1677 15.4229 17.6345 15.4229 17.6345C15.4229 17.6345 14.4811 15.5191 14.9134 14.5618C15.2222 13.8516 16.3185 13.0023 16.8435 12.6163C16.9207 12.5546 16.8743 12.4311 16.7817 12.4311L16.7971 12.4156ZM13.7706 14.5155C13.3229 14.4846 12.8134 14.4846 12.273 14.5155C11.9641 14.5464 11.7017 14.253 11.7789 13.9442C11.8407 13.6509 12.0414 13.3729 12.3348 13.1876C12.7671 12.9251 13.3384 12.9715 13.709 13.3112C13.9715 13.5428 14.1105 13.8361 14.1259 14.1449C14.1259 14.3457 13.9714 14.5155 13.7706 14.5001V14.5155Z" fill="#CCCCCC"/>
</svg>
