<svg width="31" height="31" viewBox="0 0 31 31" fill="none" xmlns="http://www.w3.org/2000/svg">
<path d="M15.8801 5.08008C17.3301 5.08008 18.4401 6.12004 18.4401 7.48004C18.4401 8.84004 17.3301 9.86005 15.8801 9.86005C14.4301 9.86005 13.3201 8.82004 13.3201 7.48004C13.3201 6.14004 14.4301 5.08008 15.8801 5.08008Z" fill="#F2F2F2"/>
<path d="M18.1901 12.8201H13.5701V25.7501H18.1901V12.8201Z" fill="#F2F2F2"/>
<path d="M15.76 29.6901C23.7737 29.6901 30.27 23.1937 30.27 15.1801C30.27 7.1664 23.7737 0.670044 15.76 0.670044C7.74636 0.670044 1.25 7.1664 1.25 15.1801C1.25 23.1937 7.74636 29.6901 15.76 29.6901Z" stroke="#F2F2F2" stroke-miterlimit="10"/>
</svg>
