<svg width="21" height="38" viewBox="0 0 21 38" fill="none" xmlns="http://www.w3.org/2000/svg">
<path d="M14.4305 23.66V7.35999C14.4305 5.35999 12.9205 3.64999 10.9805 3.46999C10.8605 3.45999 10.7305 3.44998 10.6105 3.44998C8.51047 3.44998 6.80048 5.15998 6.80048 7.25998V23.66H0.270508V20.41C2.14051 20.16 3.58051 18.56 3.58051 16.63V7.42998C3.58051 3.52998 6.80048 0.22998 10.6205 0.22998H10.7405C14.5505 0.29998 17.6505 3.44998 17.6505 7.25998V16.63C17.6505 18.56 19.1005 20.17 20.9605 20.41V23.66H14.4305Z" fill="#24FF87"/>
<path d="M7.41034 26.11C7.39034 26.01 7.41037 25.87 7.50037 25.76C7.58037 25.65 7.71034 25.59 7.85034 25.59H13.3604C13.5004 25.59 13.6304 25.65 13.7104 25.76C13.7904 25.87 13.8203 26.01 13.7903 26.15L10.6003 37.16L7.40039 26.11H7.41034Z" fill="#24FF87"/>
</svg>
