<svg width="40" height="40" viewBox="0 0 40 40" fill="none" xmlns="http://www.w3.org/2000/svg">
<g filter="url(#filter0_d_100_1956)">
<rect width="32" height="32" rx="4" fill="#FF223B" shape-rendering="crispEdges"/>
<g clip-path="url(#clip0_100_1956)">
<path d="M16 9.33325C12.32 9.33325 9.33333 12.3199 9.33333 15.9999C9.33333 19.6799 12.32 22.6666 16 22.6666C19.68 22.6666 22.6667 19.6799 22.6667 15.9999C22.6667 12.3199 19.68 9.33325 16 9.33325ZM16 11.3333C17.1067 11.3333 18 12.2266 18 13.3333C18 14.4399 17.1067 15.3333 16 15.3333C14.8933 15.3333 14 14.4399 14 13.3333C14 12.2266 14.8933 11.3333 16 11.3333ZM16 20.7999C14.3333 20.7999 12.86 19.9466 12 18.6533C12.02 17.3266 14.6667 16.5999 16 16.5999C17.3267 16.5999 19.98 17.3266 20 18.6533C19.14 19.9466 17.6667 20.7999 16 20.7999Z" fill="white"/>
</g>
</g>
<defs>
<filter id="filter0_d_100_1956" x="0" y="0" width="40" height="40" filterUnits="userSpaceOnUse" color-interpolation-filters="sRGB">
<feFlood flood-opacity="0" result="BackgroundImageFix"/>
<feColorMatrix in="SourceAlpha" type="matrix" values="0 0 0 0 0 0 0 0 0 0 0 0 0 0 0 0 0 0 127 0" result="hardAlpha"/>
<feOffset dx="4" dy="4"/>
<feGaussianBlur stdDeviation="2"/>
<feComposite in2="hardAlpha" operator="out"/>
<feColorMatrix type="matrix" values="0 0 0 0 0 0 0 0 0 0 0 0 0 0 0 0 0 0 0.25 0"/>
<feBlend mode="normal" in2="BackgroundImageFix" result="effect1_dropShadow_100_1956"/>
<feBlend mode="normal" in="SourceGraphic" in2="effect1_dropShadow_100_1956" result="shape"/>
</filter>
<clipPath id="clip0_100_1956">
<rect width="16" height="16" fill="white" transform="translate(8 8)"/>
</clipPath>
</defs>
</svg>
