<svg width="40" height="40" viewBox="0 0 40 40" fill="none" xmlns="http://www.w3.org/2000/svg">
<g filter="url(#filter0_d_100_1963)">
<rect width="32" height="32" rx="4" fill="#FF223B" shape-rendering="crispEdges"/>
<g clip-path="url(#clip0_100_1963)">
<path d="M15.3333 13.3333V16.6667L18.1667 18.3467L18.68 17.4933L16.3333 16.1V13.3333H15.3333ZM22 14.6667V10L20.24 11.76C19.16 10.6733 17.66 10 16 10C12.6867 10 10 12.6867 10 16C10 19.3133 12.6867 22 16 22C19.3133 22 22 19.3133 22 16H20.6667C20.6667 18.5733 18.5733 20.6667 16 20.6667C13.4267 20.6667 11.3333 18.5733 11.3333 16C11.3333 13.4267 13.4267 11.3333 16 11.3333C17.2867 11.3333 18.4533 11.86 19.3 12.7L17.3333 14.6667H22Z" fill="white"/>
</g>
</g>
<defs>
<filter id="filter0_d_100_1963" x="0" y="0" width="40" height="40" filterUnits="userSpaceOnUse" color-interpolation-filters="sRGB">
<feFlood flood-opacity="0" result="BackgroundImageFix"/>
<feColorMatrix in="SourceAlpha" type="matrix" values="0 0 0 0 0 0 0 0 0 0 0 0 0 0 0 0 0 0 127 0" result="hardAlpha"/>
<feOffset dx="4" dy="4"/>
<feGaussianBlur stdDeviation="2"/>
<feComposite in2="hardAlpha" operator="out"/>
<feColorMatrix type="matrix" values="0 0 0 0 0 0 0 0 0 0 0 0 0 0 0 0 0 0 0.25 0"/>
<feBlend mode="normal" in2="BackgroundImageFix" result="effect1_dropShadow_100_1963"/>
<feBlend mode="normal" in="SourceGraphic" in2="effect1_dropShadow_100_1963" result="shape"/>
</filter>
<clipPath id="clip0_100_1963">
<rect width="16" height="16" fill="white" transform="translate(8 8)"/>
</clipPath>
</defs>
</svg>
