<svg width="33" height="35" viewBox="0 0 33 35" fill="none" xmlns="http://www.w3.org/2000/svg">
<path d="M19.1539 0C18.9042 0.442606 18.6829 0.902235 18.4786 1.36754C16.5437 1.07814 14.5805 1.07814 12.6456 1.36754C12.447 0.902235 12.22 0.442606 11.9703 0C10.1546 0.312094 8.38424 0.856839 6.71036 1.62289C3.38527 6.54262 2.48308 11.3432 2.93134 16.0757C4.87759 17.517 7.05648 18.6121 9.37723 19.3101C9.89926 18.6065 10.3589 17.8631 10.7561 17.0857C10.0014 16.802 9.2751 16.4559 8.58284 16.0473C8.76442 15.9168 8.94599 15.7806 9.11622 15.6444C13.196 17.5624 17.9226 17.5624 22.0023 15.6444C22.1782 15.7863 22.3541 15.9225 22.5357 16.0473C21.8434 16.4559 21.1115 16.8077 20.3568 17.0857C20.754 17.8631 21.2136 18.6065 21.7356 19.3101C24.0564 18.6121 26.2353 17.517 28.1872 16.0757C28.7149 10.5885 27.285 5.83332 24.4025 1.61721C22.7286 0.851165 20.9639 0.306419 19.1482 0H19.1539ZM13.6272 10.6169C13.6045 12.0184 12.6172 13.159 11.3348 13.159C10.0525 13.159 9.04245 12.0184 9.04245 10.6169C9.04245 9.21528 10.0468 8.06337 11.3348 8.06337C12.6229 8.06337 13.6556 9.21528 13.6329 10.6169H13.6272ZM22.0874 10.6169C22.0647 12.0184 21.0774 13.159 19.7951 13.159C18.5127 13.159 17.5027 12.0184 17.5027 10.6169C17.5027 9.21528 18.507 8.06337 19.7951 8.06337C21.0831 8.06337 22.1045 9.21528 22.0874 10.6169Z" fill="white"/>
<path d="M0.756 26.3387H2.8935C4.7925 26.3387 5.994 27.5672 5.994 29.4887C5.994 31.4147 4.7925 32.6387 2.8935 32.6387H0.756V26.3387ZM2.8935 27.0857H1.602V31.8917H2.8935C4.221 31.8917 5.1345 31.0682 5.1345 29.4887C5.1345 27.9092 4.221 27.0857 2.8935 27.0857ZM7.11949 32.6387V27.9767H7.93849V32.6387H7.11949ZM6.98899 26.6762C6.98899 26.3702 7.22299 26.1362 7.52899 26.1362C7.83499 26.1362 8.06899 26.3702 8.06899 26.6762C8.06899 26.9777 7.83499 27.2117 7.52899 27.2117C7.22299 27.2117 6.98899 26.9777 6.98899 26.6762ZM9.02967 31.9727L9.49317 31.4192C9.79467 31.7837 10.2582 32.0402 10.7892 32.0402C11.3787 32.0402 11.7432 31.7657 11.7432 31.3517C11.7432 30.9602 11.4372 30.7037 10.7082 30.5642C9.68217 30.3662 9.19167 29.8847 9.19167 29.1602C9.19167 28.4267 9.82167 27.8687 10.7982 27.8687C11.4327 27.8687 11.9817 28.1297 12.3642 28.4897L11.9232 29.0477C11.5947 28.7642 11.2662 28.5752 10.8567 28.5752C10.3752 28.5752 10.0107 28.8227 10.0107 29.1737C10.0107 29.5067 10.3257 29.7812 10.9737 29.9117C12.0447 30.1232 12.5622 30.5912 12.5622 31.3652C12.5622 32.1527 11.9277 32.7467 10.8432 32.7467C10.0827 32.7467 9.43017 32.4452 9.02967 31.9727ZM15.7466 32.7467C14.2931 32.7467 13.2266 31.6532 13.2266 30.3077C13.2266 28.9622 14.2931 27.8687 15.7466 27.8687C16.4216 27.8687 16.9976 28.1027 17.4431 28.4852L17.0156 29.1287C16.6691 28.8227 16.2461 28.6022 15.7466 28.6022C14.7926 28.6022 14.0591 29.3672 14.0591 30.3077C14.0591 31.2482 14.7926 32.0132 15.7466 32.0132C16.2506 32.0132 16.7051 31.7882 17.0471 31.4507L17.5286 32.0492C17.0786 32.4857 16.4621 32.7467 15.7466 32.7467ZM20.5981 32.0132C21.5521 32.0132 22.2856 31.2482 22.2856 30.3077C22.2856 29.3672 21.5521 28.6022 20.5981 28.6022C19.6441 28.6022 18.9106 29.3672 18.9106 30.3077C18.9106 31.2482 19.6441 32.0132 20.5981 32.0132ZM20.5981 27.8687C22.0516 27.8687 23.1181 28.9622 23.1181 30.3077C23.1181 31.6532 22.0516 32.7467 20.5981 32.7467C19.1446 32.7467 18.0781 31.6532 18.0781 30.3077C18.0781 28.9622 19.1446 27.8687 20.5981 27.8687ZM26.2662 28.6022C25.7307 28.6022 25.2402 29.0522 24.9252 29.6462V32.6387H24.1062V27.9767H24.9252V28.7417C25.2717 28.2737 25.7532 27.8687 26.3742 27.8687C26.5317 27.8687 26.6937 27.9047 26.8107 27.9587L26.7432 28.6877C26.5902 28.6337 26.4237 28.6022 26.2662 28.6022ZM29.686 32.0132C30.352 32.0132 30.919 31.6397 31.1935 31.0907V29.5382C30.919 28.9847 30.352 28.6022 29.686 28.6022C28.732 28.6022 27.9985 29.3672 27.9985 30.3077C27.9985 31.2482 28.732 32.0132 29.686 32.0132ZM29.551 27.8687C30.199 27.8687 30.775 28.1207 31.1935 28.5797V26.0687H32.0125V32.6387H31.1935V32.0357C30.775 32.4992 30.199 32.7467 29.551 32.7467C28.165 32.7467 27.166 31.6262 27.166 30.3077C27.166 28.9892 28.165 27.8687 29.551 27.8687Z" fill="#CCCCCC"/>
</svg>
