<svg width="31" height="34" viewBox="0 0 31 34" fill="none" xmlns="http://www.w3.org/2000/svg">
<path d="M8.5521 14.4925C8.5521 14.4925 6.43476 17.8694 4.36306 16.2403C2.82982 15.0355 3.0169 11.2022 3.99799 8.19039L0.863059 7.4785C0.0599308 9.90624 -0.213853 12.5439 0.174021 14.7526C1.10948 20.0826 4.75094 20.0872 6.46215 19.7495C8.17336 19.4164 9.26853 18.6634 10.7516 16.4684C12.2346 14.2734 14.968 9.44077 14.968 9.44077L13.4348 7.00391L8.5521 14.4925Z" fill="#CCCCCC"/>
<path d="M25.3182 1.42814C22.5666 -0.953964 19.3358 0.57478 19.3358 0.57478C17.2185 1.55135 15.4023 4.20269 15.4023 4.20269L16.8945 6.26992C16.8945 6.26992 18.5692 3.20787 20.5953 2.64657C25.7289 1.23191 29.2426 14.1737 25.8019 16.3596C24.6976 17.0624 23.68 16.4555 22.9499 15.6934L21.6175 18.8786C22.0829 19.23 22.6122 19.4947 23.2557 19.659C31.4421 21.7673 32.5829 7.72108 25.3091 1.42357L25.3182 1.42814Z" fill="#CCCCCC"/>
<path d="M21.8183 14.0816L16.8945 6.26904L15.4024 4.20181C15.4024 4.20181 12.0028 -1.12825 7.08361 0.217952C4.19965 1.00742 2.00018 4.03296 0.859375 7.47378L3.99431 8.18567C4.34111 7.1224 4.78831 6.15952 5.29483 5.45219C9.38805 -0.284023 13.4311 6.99918 13.4311 6.99918L14.9643 9.43605L18.7563 15.4643C19.8424 16.9109 20.5862 18.102 21.6175 18.8823L22.9499 15.697C22.2472 14.9623 21.8137 14.0862 21.8137 14.0862L21.8183 14.0816Z" fill="#CCCCCC"/>
<path d="M7.99284 29.9928H7.45284L5.47734 27.0858V31.9863H4.65834V25.6863H5.44584L7.72284 29.0568L9.99984 25.6863H10.7873V31.9863H9.96834V27.0858L7.99284 29.9928ZM12.71 29.9118C12.8 30.7443 13.484 31.3878 14.384 31.3878C14.9555 31.3878 15.473 31.1313 15.8555 30.7128L16.418 31.2348C15.9275 31.7883 15.221 32.0943 14.4065 32.0943C12.89 32.0943 11.873 31.0053 11.873 29.6553C11.873 28.3053 12.9215 27.2163 14.339 27.2163C15.7295 27.2163 16.715 28.2693 16.715 29.5518C16.715 29.6688 16.697 29.8128 16.6745 29.9118H12.71ZM14.339 27.9228C13.5605 27.9228 12.9035 28.4898 12.7415 29.2323H15.8555C15.7295 28.4808 15.1265 27.9228 14.339 27.9228ZM18.7819 28.0443V30.4968C18.7819 31.0863 19.0339 31.3743 19.6909 31.3743C19.8214 31.3743 20.0059 31.3653 20.1094 31.3518V32.0583C19.9969 32.0808 19.7944 32.0943 19.6234 32.0943C18.4894 32.0943 17.9629 31.5903 17.9629 30.5058V28.0443H17.1214V27.3243H17.9629V26.0463L18.7819 25.9743V27.3243H20.0554V28.0443H18.7819ZM23.2085 31.3608C23.8745 31.3608 24.4415 30.9873 24.716 30.4383V28.8858C24.4415 28.3323 23.8745 27.9498 23.2085 27.9498C22.2545 27.9498 21.521 28.7148 21.521 29.6553C21.521 30.5958 22.2545 31.3608 23.2085 31.3608ZM23.0735 27.2163C23.7215 27.2163 24.2975 27.4683 24.716 27.9273V27.3243H25.535V31.9863H24.716V31.3833C24.2975 31.8468 23.7215 32.0943 23.0735 32.0943C21.6875 32.0943 20.6885 30.9738 20.6885 29.6553C20.6885 28.3368 21.6875 27.2163 23.0735 27.2163Z" fill="#CCCCCC"/>
</svg>
