<svg width="20" height="35" viewBox="0 0 20 35" fill="none" xmlns="http://www.w3.org/2000/svg">
<path fill-rule="evenodd" clip-rule="evenodd" d="M14.5999 18.1648C14.5669 18.1208 14.5449 18.0823 14.5064 18.0274C14.4789 17.9834 14.446 17.9394 14.413 17.8954L13.6599 16.84C13.5994 16.752 13.5335 16.6641 13.4675 16.5761L13.0937 16.0539C12.6155 15.3612 12.0878 14.6466 11.5985 13.9485L10.8455 12.893C10.7795 12.7996 10.719 12.7226 10.6531 12.6291L9.3503 10.7876C9.23487 10.6062 9.09194 10.4468 8.97651 10.2654C8.83359 10.0455 8.40483 9.46278 8.22343 9.20991L6.53586 6.82964C5.84325 5.85664 5.07368 4.79569 4.39206 3.8117C4.35908 3.76772 4.32609 3.72924 4.29311 3.67976L2.61655 1.31049H5.24958C5.28806 1.32148 6.43692 2.95414 6.57435 3.15753L7.32742 4.21299C7.62426 4.61978 7.97057 5.13651 8.25641 5.51582C8.4543 5.77968 8.82259 6.35139 9.00399 6.57127C9.14142 6.74169 9.24586 6.92859 9.38328 7.1045C9.52071 7.2859 9.63064 7.45082 9.75707 7.62673L10.6971 8.94605C10.763 9.0395 10.8125 9.11096 10.8785 9.20442L11.2522 9.72665C11.3127 9.8146 11.3787 9.90255 11.4446 9.99051C11.747 10.4248 12.0933 10.8865 12.3846 11.3153C12.665 11.7276 13.0223 12.2114 13.3246 12.6401C13.3851 12.7226 13.451 12.8106 13.5115 12.8985L14.446 14.2178C14.5119 14.3058 14.5724 14.3882 14.6384 14.4817C14.7593 14.6521 14.8747 14.839 15.0067 15.0094C15.1441 15.1798 15.2485 15.3722 15.3859 15.5426L15.9466 16.3287C16.0126 16.4222 16.0621 16.5047 16.1335 16.5981C16.2655 16.7795 16.3809 16.9499 16.5073 17.1203L17.167 18.0384C17.1889 18.0768 17.2274 18.1263 17.2494 18.1648H14.5944H14.5999ZM7.78916 11.0075L6.22254 12.849C6.13459 12.9315 6.07413 13.0359 5.99167 13.1184L4.87029 14.4322C4.78784 14.5312 4.72737 14.6136 4.63942 14.7016C4.55147 14.784 4.4965 14.883 4.41955 14.9654C4.33159 15.0644 4.27113 15.1359 4.18867 15.2348L3.9633 15.4932C3.89184 15.5866 3.81488 15.6581 3.73792 15.7515C3.69395 15.8065 3.68295 15.8285 3.62798 15.8835C3.57851 15.9329 3.56202 15.9714 3.51805 16.0154C3.35864 16.1858 3.22671 16.3727 3.06729 16.5431L2.50111 17.1973C2.46263 17.2468 2.42416 17.2907 2.38568 17.3402L1.93493 17.8679C1.85247 17.9559 1.79201 18.0384 1.71505 18.1318C1.6326 18.2253 1.57762 18.3077 1.48417 18.4012L0.808051 19.1928C0.747585 19.2752 0.62665 19.3632 0.582674 19.4676H2.27024C2.33071 19.3687 2.57257 19.0993 2.66053 19.0059C2.86941 18.786 3.04531 18.5386 3.24869 18.3132L4.1337 17.2743C4.16668 17.2303 4.19966 17.1973 4.23264 17.1588C4.3096 17.0764 4.35908 17.0049 4.42504 16.9279C4.46901 16.8785 4.491 16.8675 4.52948 16.818C4.56246 16.774 4.58994 16.7465 4.62842 16.7025C4.76585 16.5376 5.07368 16.1638 5.2166 16.0099C5.29356 15.9329 5.34303 15.856 5.409 15.7735L5.70583 15.4327C5.7498 15.3832 5.76629 15.3612 5.80477 15.3173L6.20055 14.8555C6.26651 14.773 6.33248 14.7071 6.39295 14.6246L6.59084 14.3992C6.62382 14.3663 6.65679 14.3223 6.68978 14.2838L7.76718 13.014C7.83864 12.9425 7.9046 12.86 7.96507 12.7831L8.2619 12.4367C8.30038 12.3983 8.32787 12.3653 8.36085 12.3213C8.42132 12.2443 8.50377 12.1729 8.55324 12.0849C8.59172 12.1069 8.6192 12.1509 8.64119 12.1894L10.1968 14.3772C10.5816 14.9105 10.9774 15.4382 11.3512 15.9824L11.8514 16.6806C11.9064 16.7575 11.9613 16.8345 12.0108 16.9059L12.665 17.8295C12.7199 17.9119 12.7749 17.9834 12.8299 18.0603C12.8848 18.1428 12.9398 18.2088 12.9948 18.2967C13.0223 18.3407 13.0442 18.3737 13.0772 18.4122L13.2366 18.6376C13.3521 18.83 13.5115 19.0333 13.6434 19.2257C13.6874 19.2917 13.7753 19.3962 13.8028 19.4621H19.8989C19.5911 18.9784 19.2228 18.5221 18.904 18.0494L17.6562 16.2958C17.4088 15.9384 17.145 15.5976 16.9031 15.2403L12.4011 8.90207C12.3186 8.78663 12.2307 8.67669 12.1537 8.55575C12.0933 8.4678 11.9394 8.27539 11.9009 8.19294C12.0273 8.01703 12.1867 7.84662 12.3296 7.6762L12.9893 6.9121C13.2201 6.65923 13.4125 6.40086 13.6434 6.14799C13.8028 5.97208 13.9183 5.81266 14.0777 5.64225L14.9462 4.61978C15.1441 4.36141 15.5289 3.94912 15.7597 3.66877C15.7817 3.64128 15.7927 3.61929 15.8147 3.59731L16.4743 2.8332C16.5183 2.78373 16.5403 2.76174 16.5843 2.71226L17.3483 1.81073C17.4748 1.68979 18.0245 1.00264 18.2224 0.788255L18.8765 0.0131543C18.6896 -0.00883436 17.6122 0.00216037 17.2714 0.00765754C17.1395 0.00765754 17.101 0.128595 17.013 0.222047L16.0621 1.34897C16.0126 1.39844 16.0071 1.42043 15.9576 1.4699C15.9027 1.52488 15.8917 1.55236 15.8477 1.60184L14.3525 3.34993C14.1601 3.54783 13.8193 3.9986 13.6049 4.22398C13.561 4.26796 13.55 4.29545 13.5005 4.34492L12.2142 5.85114C12.1427 5.9391 12.0768 6.01056 11.9943 6.10401L11.3567 6.86262C11.3237 6.9066 11.2797 6.93409 11.2467 6.97806L11.1368 7.10999C11.1093 7.07701 11.0873 7.04953 11.0599 7.01105C10.785 6.59326 10.4772 6.20296 10.2023 5.79068L7.37689 1.78874C7.20099 1.56885 7.07456 1.33797 6.90416 1.12358C6.73925 0.91469 6.59633 0.667317 6.43692 0.452928C6.37646 0.375967 6.33797 0.315499 6.27751 0.227544C6.24452 0.178069 6.15657 0.0241486 6.1071 0.0131543H0C0.148417 0.249532 0.324322 0.469419 0.483734 0.7003L0.852028 1.21703C0.890506 1.27201 0.934479 1.33247 0.978455 1.39294L2.92987 4.13603C3.08928 4.36691 3.25969 4.60329 3.4191 4.82867L4.39755 6.19747C4.56246 6.43384 4.71638 6.64823 4.88678 6.89011L6.10161 8.60522C6.17857 8.71517 6.25552 8.8416 6.34347 8.94605C6.4809 9.11646 6.57984 9.28687 6.71177 9.46278L7.81116 11.013L7.78916 11.0075Z" fill="#CCCCCC"/>
<path d="M7.40391 31.9219H6.38891L8.29391 29.2769L6.51891 26.7419H7.53391L8.86891 28.6619L10.2039 26.7419H11.2189L9.44391 29.2769L11.3489 31.9219H10.3339L8.86891 29.8919L7.40391 31.9219Z" fill="#CCCCCC"/>
</svg>
