<svg width="145" height="138" viewBox="0 0 45 38" fill="none" xmlns="http://www.w3.org/2000/svg">
  <path d="M31.792 7.176a11.741 11.741 0 0 0-2.516-3.736A11.664 11.664 0 0 0 25.539.924 11.674 11.674 0 0 0 20.964 0a11.74 11.74 0 0 0-8.312 3.44 11.665 11.665 0 0 0-2.516 3.736 11.692 11.692 0 0 0-.923 4.576 11.74 11.74 0 0 0 3.44 8.312 11.661 11.661 0 0 0 3.736 2.516 11.69 11.69 0 0 0 4.575.923 11.74 11.74 0 0 0 8.312-3.44 11.664 11.664 0 0 0 2.516-3.736 11.69 11.69 0 0 0 .923-4.575c0-1.588-.31-3.124-.923-4.576ZM20.964 22.212c-5.767 0-10.46-4.693-10.46-10.46 0-5.768 4.693-10.46 10.46-10.46 5.767 0 10.46 4.692 10.46 10.46 0 5.767-4.693 10.46-10.46 10.46Z" fill="#CCC"/>
  <path d="M26.806 11.998a.644.644 0 0 0-.645.646v1.347c0 .109-.01.222-.033.325a1.54 1.54 0 0 1-.245.575 1.574 1.574 0 0 1-.438.438 1.911 1.911 0 0 1-.273.151c-.1.043-.198.07-.302.094a1.52 1.52 0 0 1-.325.033h-7.157c-.109 0-.222-.009-.326-.033a1.54 1.54 0 0 1-.575-.245 1.574 1.574 0 0 1-.438-.438 1.921 1.921 0 0 1-.15-.273 1.713 1.713 0 0 1-.094-.302 1.52 1.52 0 0 1-.034-.325v-1.347a.644.644 0 0 0-.645-.646.644.644 0 0 0-.646.646v1.347c0 .198.02.396.062.585.037.188.094.372.17.546.07.174.164.34.268.495a2.846 2.846 0 0 0 .783.782c.155.104.32.193.494.269.174.075.358.132.546.17.194.037.387.06.585.06h7.157c.198 0 .396-.018.584-.06.189-.038.372-.095.547-.17.174-.071.339-.165.494-.269a2.854 2.854 0 0 0 1.051-1.277c.076-.174.132-.358.17-.546.038-.194.061-.387.061-.585v-1.347a.644.644 0 0 0-.646-.646Z" fill="#CCC"/>
  <path d="M20.51 13.1s.034.029.048.043c.01.005.014.01.023.019.01.004.02.014.029.019.009.004.018.01.028.019l.028.014.028.014c.01 0 .02.01.029.014.009 0 .018.01.028.01.01 0 .019.009.033.009.01 0 .019.005.028.01.01 0 .024.004.033.009.01 0 .024 0 .033.004h.189c.009 0 .023 0 .033-.004a.08.08 0 0 0 .032-.01c.01 0 .02 0 .029-.01.01 0 .019-.009.033-.009a.05.05 0 0 0 .028-.01c.01 0 .019-.008.028-.013.01 0 .02-.01.029-.014l.028-.014a.097.097 0 0 0 .028-.02c.01-.004.019-.014.028-.018a.083.083 0 0 0 .024-.02c.014-.013.033-.027.047-.041l2.403-2.404a.647.647 0 0 0-.914-.914l-1.3 1.3v-3.83a.644.644 0 0 0-.646-.646.643.643 0 0 0-.646.646v3.83l-1.3-1.3a.651.651 0 0 0-.914 0 .65.65 0 0 0 0 .914l2.403 2.404h-.01ZM.756 29.17h2.138c1.899 0 3.1 1.23 3.1 3.15 0 1.927-1.201 3.15-3.1 3.15H.756v-6.3Zm2.138.748H1.602v4.806h1.291c1.328 0 2.242-.824 2.242-2.403 0-1.58-.914-2.403-2.241-2.403Zm6.313 4.927c.954 0 1.688-.765 1.688-1.705 0-.94-.733-1.706-1.688-1.706-.954 0-1.687.765-1.687 1.706 0 .94.733 1.705 1.687 1.705Zm0-4.144c1.454 0 2.52 1.093 2.52 2.439 0 1.345-1.066 2.439-2.52 2.439-1.453 0-2.52-1.094-2.52-2.44 0-1.345 1.067-2.438 2.52-2.438Zm5.85.108h.847l1.04 3.564 1.07-3.564h.855l-1.494 4.662h-.846l-1.048-3.582-1.049 3.582h-.846l-1.494-4.662h.855l1.071 3.564 1.04-3.564Zm5.412 1.57v3.092h-.819v-4.662h.82v.715c.332-.436.859-.823 1.511-.823 1.103 0 1.877.778 1.877 1.903v2.867h-.82v-2.822c0-.697-.494-1.215-1.21-1.215-.585 0-1.075.473-1.359.945Zm4.72 3.092V28.9h.82v6.57h-.82Zm4.436-.626c.953 0 1.687-.765 1.687-1.705 0-.94-.734-1.706-1.688-1.706-.953 0-1.687.765-1.687 1.706 0 .94.733 1.705 1.688 1.705Zm0-4.144c1.453 0 2.52 1.093 2.52 2.439 0 1.345-1.067 2.439-2.52 2.439-1.454 0-2.52-1.094-2.52-2.44 0-1.345 1.066-2.438 2.52-2.438Zm5.704 4.144c.666 0 1.233-.373 1.507-.922V32.37a1.677 1.677 0 0 0-1.507-.936c-.954 0-1.688.765-1.688 1.706 0 .94.734 1.705 1.688 1.705Zm-.135-4.144a2.18 2.18 0 0 1 1.642.71v-.602h.82v4.662h-.82v-.603c-.418.463-.994.71-1.642.71-1.386 0-2.385-1.12-2.385-2.438 0-1.319.999-2.44 2.385-2.44Zm5.97 4.144c.666 0 1.233-.373 1.508-.922V32.37a1.677 1.677 0 0 0-1.508-.936c-.953 0-1.687.765-1.687 1.706 0 .94.734 1.705 1.688 1.705Zm-.135-4.144a2.18 2.18 0 0 1 1.643.71v-2.51h.819v6.57h-.819v-.603c-.418.463-.994.71-1.642.71-1.386 0-2.386-1.12-2.386-2.438 0-1.319 1-2.44 2.386-2.44Z" fill="#CCC"/>
</svg>
