<svg width="43" height="37" viewBox="0 0 43 37" fill="none" xmlns="http://www.w3.org/2000/svg">
<path d="M2.08266 34.8555V29.289H0.314156V28.5555H4.69716V29.289H2.92866V34.8555H2.08266ZM5.5118 32.781C5.6018 33.6135 6.2858 34.257 7.1858 34.257C7.7573 34.257 8.2748 34.0005 8.6573 33.582L9.2198 34.104C8.7293 34.6575 8.0228 34.9635 7.2083 34.9635C5.6918 34.9635 4.6748 33.8745 4.6748 32.5245C4.6748 31.1745 5.7233 30.0855 7.1408 30.0855C8.5313 30.0855 9.5168 31.1385 9.5168 32.421C9.5168 32.538 9.4988 32.682 9.4763 32.781H5.5118ZM7.1408 30.792C6.3623 30.792 5.7053 31.359 5.5433 32.1015H8.6573C8.5313 31.35 7.9283 30.792 7.1408 30.792ZM10.6175 34.8555V28.2855H11.4365V34.8555H10.6175ZM13.3692 32.781C13.4592 33.6135 14.1432 34.257 15.0432 34.257C15.6147 34.257 16.1322 34.0005 16.5147 33.582L17.0772 34.104C16.5867 34.6575 15.8802 34.9635 15.0657 34.9635C13.5492 34.9635 12.5322 33.8745 12.5322 32.5245C12.5322 31.1745 13.5807 30.0855 14.9982 30.0855C16.3887 30.0855 17.3742 31.1385 17.3742 32.421C17.3742 32.538 17.3562 32.682 17.3337 32.781H13.3692ZM14.9982 30.792C14.2197 30.792 13.5627 31.359 13.4007 32.1015H16.5147C16.3887 31.35 15.7857 30.792 14.9982 30.792ZM22.0705 34.761V34.2525C21.652 34.716 21.076 34.9635 20.428 34.9635C19.042 34.9635 18.043 33.843 18.043 32.5245C18.043 31.206 19.042 30.0855 20.428 30.0855C21.076 30.0855 21.652 30.3375 22.0705 30.7965V30.1935H22.8895V34.707C22.8895 36.0435 22.0615 36.9435 20.5315 36.9435C19.6495 36.9435 18.916 36.57 18.421 36.0075L18.961 35.4765C19.348 35.913 19.8835 36.237 20.527 36.237C21.454 36.237 22.0705 35.679 22.0705 34.761ZM20.563 34.23C21.229 34.23 21.796 33.8565 22.0705 33.3075V31.755C21.796 31.2015 21.229 30.819 20.563 30.819C19.609 30.819 18.8755 31.584 18.8755 32.5245C18.8755 33.465 19.609 34.23 20.563 34.23ZM26.3629 30.819C25.8274 30.819 25.3369 31.269 25.0219 31.863V34.8555H24.2029V30.1935H25.0219V30.9585C25.3684 30.4905 25.8499 30.0855 26.4709 30.0855C26.6284 30.0855 26.7904 30.1215 26.9074 30.1755L26.8399 30.9045C26.6869 30.8505 26.5204 30.819 26.3629 30.819ZM29.7827 34.23C30.4487 34.23 31.0157 33.8565 31.2902 33.3075V31.755C31.0157 31.2015 30.4487 30.819 29.7827 30.819C28.8287 30.819 28.0952 31.584 28.0952 32.5245C28.0952 33.465 28.8287 34.23 29.7827 34.23ZM29.6477 30.0855C30.2957 30.0855 30.8717 30.3375 31.2902 30.7965V30.1935H32.1092V34.8555H31.2902V34.2525C30.8717 34.716 30.2957 34.9635 29.6477 34.9635C28.2617 34.9635 27.2627 33.843 27.2627 32.5245C27.2627 31.206 28.2617 30.0855 29.6477 30.0855ZM34.2416 31.7595V34.8555H33.4226V30.1935H34.2416V30.891C34.5386 30.477 35.0291 30.0855 35.6501 30.0855C36.3746 30.0855 36.9371 30.468 37.2116 31.044C37.5626 30.486 38.1521 30.0855 38.8406 30.0855C39.9026 30.0855 40.6226 30.8685 40.6226 31.953V34.8555H39.8036V31.998C39.8036 31.332 39.3761 30.819 38.7191 30.819C38.1746 30.819 37.7201 31.269 37.4231 31.773C37.4276 31.827 37.4321 31.8945 37.4321 31.953V34.8555H36.6131V31.998C36.6131 31.332 36.1856 30.819 35.5286 30.819C34.9796 30.819 34.5341 31.2645 34.2416 31.7595Z" fill="#CCCCCC"/>
<path d="M25.5795 7.3649C25.7565 7.61641 25.7239 7.95177 25.7006 8.24521C25.5795 9.47019 25.3652 10.6859 25.1929 11.9062C25.1463 12.1623 25.1137 12.4232 25.0625 12.6794C24.8715 13.8904 24.6526 15.1014 24.4477 16.3077C24.3732 16.6338 24.3359 16.9645 24.2474 17.2858C24.1682 17.6119 24.0239 17.9519 23.7351 18.1429C23.3904 18.3245 22.9759 18.1988 22.6452 18.0404C22.1655 17.7796 21.7417 17.4256 21.2806 17.1321C20.6146 16.7036 19.9672 16.2379 19.3058 15.8047C18.9937 15.5858 18.6491 15.3995 18.3743 15.1247C18.2252 14.9756 18.1088 14.7567 18.174 14.5424C18.2392 14.3049 18.4162 14.1279 18.5839 13.9556C19.7855 12.7585 21.0803 11.6593 22.254 10.4297C22.3472 10.3179 22.5055 10.1968 22.431 10.0338C22.3844 9.8987 22.2121 9.90335 22.105 9.95459C21.7976 10.1269 21.5088 10.3272 21.2107 10.5182C19.7902 11.4497 18.3789 12.4046 16.9677 13.3547C16.5299 13.6575 16.0129 13.9183 15.4633 13.8578C14.9696 13.7879 14.4852 13.6621 14.0148 13.5131C13.5957 13.3827 13.1765 13.2662 12.7713 13.0986C12.6036 13.0147 12.3987 12.9122 12.3614 12.7073C12.3288 12.5536 12.4359 12.4139 12.5477 12.3207C12.8085 12.1065 13.1299 11.9854 13.4373 11.8549C16.1899 10.6626 18.9332 9.4469 21.7137 8.31507C22.6313 7.9378 23.5441 7.55121 24.4943 7.25311C24.8436 7.14598 25.3047 7.05749 25.5888 7.35558L25.5795 7.3649Z" fill="#FFFFF8"/>
<path d="M31.0283 8.5532L30.8141 8.05948C30.8047 8.03619 30.7954 8.0129 30.7861 7.98496L30.6371 7.58439H30.6138C30.4973 7.31424 30.3763 7.03478 30.2272 6.76463C29.6031 5.55828 28.7694 4.47304 27.7447 3.54149C26.7201 2.60529 25.5604 1.87403 24.3028 1.36168C22.9382 0.798094 21.4152 0.5 19.9061 0.5C18.7278 0.5 17.5727 0.672336 16.4689 1.01701C14.0889 1.74827 11.965 3.26669 10.4979 5.29745C9.88778 6.12653 9.36613 7.1093 8.94696 8.21318L8.93764 8.24113L8.92833 8.26908C8.90504 8.35757 8.88175 8.4321 8.85846 8.49731V8.50662C8.53709 9.46611 8.34613 10.5281 8.2949 11.6739C8.22038 13.7279 8.68148 15.7633 9.63161 17.5659C10.2511 18.7117 11.0009 19.6991 11.8626 20.5142C13.5067 22.1025 15.6445 23.1878 17.8848 23.5743C18.5508 23.6908 19.2308 23.7513 19.9108 23.7513C20.5908 23.7513 21.2708 23.6908 21.9368 23.5743C23.6182 23.2902 25.2623 22.5962 26.6921 21.5669C27.9916 20.6307 29.0908 19.4383 29.8919 18.0922H29.9012L30.1154 17.7056C30.9724 16.1499 31.4615 14.3707 31.5313 12.5588C31.5826 11.2128 31.4009 9.86668 30.9864 8.55786L31.0283 8.54854V8.5532ZM30.4228 12.5216C30.3623 14.0353 29.985 15.5211 29.3143 16.8439L29.1327 17.1793C27.6469 19.932 24.8152 21.9674 21.7458 22.4891C20.5395 22.7034 19.2774 22.7034 18.0757 22.4891C16.0497 22.1398 14.1168 21.157 12.6311 19.7178C11.8533 18.9772 11.1733 18.0829 10.6097 17.0442C9.75271 15.4187 9.33353 13.5789 9.40339 11.7251C9.44997 10.6864 9.6223 9.72694 9.91106 8.86527C9.94367 8.77677 9.97161 8.68361 9.99956 8.57649C10.3815 7.57508 10.8472 6.69011 11.3968 5.94953C12.7289 4.10973 14.6478 2.73105 16.7996 2.06965C17.8009 1.75758 18.8489 1.60388 19.9108 1.60388C21.2801 1.60388 22.6541 1.87403 23.893 2.38172C26.1705 3.30395 28.122 5.08785 29.2538 7.27233V7.2863C29.4075 7.55645 29.5286 7.84523 29.659 8.15263C29.6916 8.23182 29.7242 8.311 29.7615 8.39018C30.2552 9.73626 30.4834 11.1289 30.4275 12.5216H30.4228Z" fill="#FFFFF8"/>
</svg>
