<svg width="24" height="38" viewBox="0 0 24 38" fill="none" xmlns="http://www.w3.org/2000/svg">
<path d="M22.577 7.56112C21.9833 6.16166 21.1399 4.90356 20.0609 3.82452C18.9819 2.74547 17.7238 1.89731 16.3244 1.30832C14.8779 0.695757 13.3371 0.384766 11.7493 0.384766C10.1614 0.384766 8.62535 0.695757 7.17412 1.30832C5.77471 1.90203 4.51665 2.74547 3.43765 3.82452C2.35865 4.90356 1.51053 6.16166 0.921555 7.56112C0.309021 9.01242 -0.00195312 10.5485 -0.00195312 12.1365C-0.00195312 13.7244 0.309021 15.2605 0.921555 16.7118C1.51524 18.1113 2.35865 19.3694 3.43765 20.4484C4.51665 21.5275 5.77471 22.3756 7.17412 22.9646C8.62535 23.5772 10.1614 23.8882 11.7493 23.8882C13.3371 23.8882 14.8732 23.5772 16.3244 22.9646C17.7238 22.3709 18.9819 21.5275 20.0609 20.4484C21.1399 19.3694 21.988 18.1113 22.577 16.7118C23.1895 15.2605 23.5005 13.7244 23.5005 12.1365C23.5005 10.5485 23.1895 9.01242 22.577 7.56112ZM11.7493 22.5971C5.98203 22.5971 1.28907 17.9039 1.28907 12.1365C1.28907 6.36899 5.98203 1.67585 11.7493 1.67585C17.5165 1.67585 22.2095 6.36899 22.2095 12.1365C22.2095 17.9039 17.5165 22.5971 11.7493 22.5971Z" fill="#CCCCCC"/>
<path d="M12.3317 34.9105V33.2185H10.6937V32.512H12.3317V30.8245H13.1507V32.512H14.7887V33.2185H13.1507V34.9105H12.3317Z" fill="#CCCCCC"/>
<circle cx="6.375" cy="12.25" r="1.75" fill="#D9D9D9"/>
<circle cx="11.9082" cy="12.25" r="1.75" fill="#D9D9D9"/>
<circle cx="17.4414" cy="12.25" r="1.75" fill="#D9D9D9"/>
</svg>
